#N canvas 0 22 450 300 10;
#X obj 160 104 unpack f f;
#X obj 160 67 inlet;
#X obj 236 53 init \$1;
#X obj 299 52 init \$2;
#X obj 159 141 +;
#X obj 219 139 +;
#X obj 158 178 pack f f;
#X obj 157 207 outlet;
#X connect 0 0 4 0;
#X connect 0 1 5 0;
#X connect 1 0 0 0;
#X connect 2 0 4 1;
#X connect 3 0 5 1;
#X connect 4 0 6 0;
#X connect 5 0 6 1;
#X connect 6 0 7 0;
