#N canvas 541 76 829 679 10;
#X obj 252 85 t a b;
#X obj 299 121 f 0;
#X obj 299 153 + 1;
#X obj 252 53 repeat 10;
#X obj 299 184 % 10;
#X obj 299 232 / 10;
#X obj 188 301 separator;
#X obj 188 423 translateXYZ 0 0 0;
#X obj 188 461 scaleXYZ 1 1 1;
#X floatatom 421 365 5 0 0 0 - - -;
#X obj 535 79 adc~;
#X obj 423 83 tgl 15 0 empty empty empty 17 7 0 10 -262144 -1 -1 1
1;
#X obj 339 -40 loadbang;
#X obj 339 16 t f f f;
#X obj 535 105 fiddle~;
#X floatatom 579 151 5 0 0 0 - - -;
#X obj 579 185 mtof;
#X floatatom 579 217 5 0 0 0 - - -;
#X text 640 148 pitch;
#X obj 188 387 alpha;
#X msg 101 302 auto 1;
#X obj 215 362 tgl 15 0 empty empty empty 17 7 0 10 -262144 -1 -1 1
1;
#X obj 101 252 loadbang;
#X obj 188 336 colorRGB 0 0.1 0.5 0.8;
#X obj 491 298 k_range 0 900 1 0;
#X obj 579 252 k_range 0 900 0 1;
#X obj 377 452 abs;
#X obj 423 171 tabwrite~ \$0-music;
#X obj 421 337 tabread \$0-music;
#X obj 427 229 r x_size;
#X floatatom 427 253 5 0 0 0 - - -;
#X obj 299 278 expr ($f1*($f2*2))-$f2;
#X obj 38 426 table \$0-music 200;
#X obj 106 122 hsl 100 15 0 0.8 0 0 empty empty Alpha 5 8 0 10 -258113
-1 -1 9900 1;
#X obj 103 151 sel 0;
#X msg 103 203 0;
#X msg 134 179 1;
#X obj 134 204 f;
#X obj 421 394 * 200;
#X msg 339 -10 200;
#X obj 188 495 square 0.06;
#X obj 103 59 loadbang;
#X msg 103 81 0;
#X obj 443 133 catch~ vol-10;
#X obj 423 105 metro 10;
#X obj 252 -18 gemhead -1;
#X obj 251 6 t a b;
#X obj 505 208 loadbang;
#X msg 504 233 8;
#X connect 0 0 6 0;
#X connect 0 1 1 0;
#X connect 1 0 2 0;
#X connect 2 0 4 0;
#X connect 3 0 0 0;
#X connect 4 0 1 1;
#X connect 4 0 5 0;
#X connect 4 0 28 0;
#X connect 5 0 31 0;
#X connect 6 0 23 0;
#X connect 7 0 8 0;
#X connect 8 0 40 0;
#X connect 9 0 38 0;
#X connect 10 0 14 0;
#X connect 10 0 27 0;
#X connect 11 0 44 0;
#X connect 12 0 39 0;
#X connect 13 0 3 1;
#X connect 13 1 4 1;
#X connect 13 2 5 1;
#X connect 14 2 15 0;
#X connect 15 0 16 0;
#X connect 16 0 17 0;
#X connect 17 0 24 0;
#X connect 17 0 25 0;
#X connect 19 0 7 0;
#X connect 20 0 19 0;
#X connect 21 0 19 1;
#X connect 22 0 20 0;
#X connect 22 0 21 0;
#X connect 23 0 19 0;
#X connect 24 0 23 3;
#X connect 25 0 23 1;
#X connect 28 0 9 0;
#X connect 28 0 26 0;
#X connect 29 0 30 0;
#X connect 30 0 31 1;
#X connect 31 0 7 1;
#X connect 33 0 34 0;
#X connect 34 0 35 0;
#X connect 34 1 36 0;
#X connect 34 1 23 4;
#X connect 35 0 37 0;
#X connect 36 0 37 0;
#X connect 37 0 11 0;
#X connect 37 0 45 0;
#X connect 38 0 8 2;
#X connect 39 0 13 0;
#X connect 41 0 42 0;
#X connect 42 0 33 0;
#X connect 43 0 27 0;
#X connect 44 0 27 0;
#X connect 45 0 46 0;
#X connect 46 0 3 0;
#X connect 47 0 48 0;
#X connect 48 0 30 0;
#X coords 0 -1 1 1 110 40 1 100 100;
