#N canvas 594 171 532 595 10;
#N canvas 616 457 650 269 sound 0;
#X obj 74 -28 inlet;
#X obj 161 178 outlet;
#X obj 161 116 pix_sig2pix;
#X obj 176 -28 inlet~;
#X obj 285 -26 inlet~;
#X obj 391 -26 inlet~;
#X obj 486 -26 inlet~;
#X obj 259 114 block~ 4096;
#X connect 0 0 2 0;
#X connect 2 0 1 0;
#X connect 3 0 2 0;
#X connect 4 0 2 1;
#X connect 5 0 2 2;
#X connect 6 0 2 3;
#X restore -120 411 pd sound;
#N canvas 360 259 450 300 range 0;
#X obj 137 159 outlet~;
#X obj 137 69 inlet~;
#X obj 137 97 lop~ 1000;
#X obj 137 130 hip~ 400;
#X connect 1 0 2 0;
#X connect 2 0 3 0;
#X connect 3 0 0 0;
#X restore -51 345 pd range 400 1000;
#N canvas 360 259 450 300 range 0;
#X obj 137 159 outlet~;
#X obj 137 69 inlet~;
#X obj 137 130 hip~ 0;
#X obj 137 97 lop~ 400;
#X connect 1 0 3 0;
#X connect 2 0 0 0;
#X connect 3 0 2 0;
#X restore -109 321 pd range 30 400;
#N canvas 360 259 450 300 range 0;
#X obj 137 159 outlet~;
#X obj 137 69 inlet~;
#X obj 137 130 hip~ 1000;
#X obj 137 97 lop~ 2000;
#X connect 1 0 3 0;
#X connect 2 0 0 0;
#X connect 3 0 2 0;
#X restore -87 373 pd range 1000 2000;
#N canvas 491 121 905 624 shader 0;
#X obj -26 382 glsl_program;
#X obj 48 294 pack 0 0;
#X obj 69 274 t b f;
#X obj 69 229 change;
#X obj 7 245 change;
#X msg 48 317 link \$1 \$2;
#X floatatom 69 255 2 0 0 0 ID - -;
#X floatatom 7 268 2 0 0 0 ID - -;
#X obj 48 343 print linking;
#X obj -25 209 glsl_fragment;
#X obj -25 146 glsl_vertex;
#X msg -101 84 auto 1;
#X obj -101 58 loadbang;
#X obj 52 111 t b b;
#X obj 52 74 bng 30 250 50 0 empty empty empty 17 7 0 10 -262144 -1
-1;
#X obj 52 46 loadbang;
#X obj -25 50 inlet;
#X obj -26 411 outlet;
#X msg -282 177 count \$1 \$2;
#X obj -282 151 pack f f;
#X floatatom -282 125 5 1 20 0 - - -;
#X floatatom -241 103 5 1 20 0 - - -;
#X obj -241 124 t b f;
#X msg 144 357 RadMod \$1;
#X obj 105 83 pack f f;
#X obj 171 38 t b f;
#X msg 105 109 amount \$1 \$2;
#X obj 174 -9 hsl 50 15 -2 2 0 0 empty empty empty -2 -8 0 10 -262144
-1 -1 1111 1;
#X floatatom 171 14 5 0 0 0 - - -;
#X floatatom 105 59 5 0 0 0 - - -;
#X obj 108 37 hsl 50 15 -2 2 0 0 empty empty empty -2 -8 0 10 -262144
-1 -1 3789 1;
#X obj -282 29 sel 1;
#X obj -213 25 sel 1;
#X obj -213 -11 change;
#X obj -282 -16 change;
#X floatatom 144 334 5 0 0 0 - - -;
#X obj -241 80 + 1;
#X obj -282 96 + 1;
#X msg -421 348 noise \$1 \$2 \$3;
#X obj -421 239 t b b b;
#X obj -421 217 bng 15 250 50 0 empty empty empty 17 7 0 10 -262144
-1 -1;
#X obj -282 48 random 20;
#X obj -421 268 randomF 10;
#X obj -354 268 randomF 10;
#X obj -270 267 randomF 10;
#X obj -270 291 - 5;
#X obj -421 291 - 5;
#X obj -379 295 - 5;
#X msg -14 179 open data/AmoebaDance.frag;
#X msg 52 143 open data/AmoebaDance.vert;
#X obj 101 -111 r vj-vol;
#X floatatom 101 -89 5 0 0 0 - - -;
#X obj 101 -63 k_range 0 1 -2 2;
#X obj 128 -41 k_range 0 1 2 -2;
#X obj 144 284 r vj-vol;
#X obj -420 326 pack f f f;
#X obj -282 -95 r vj-vol;
#X obj -282 -71 t f f;
#X obj 268 355 inlet;
#X msg 268 380 alpha \$1;
#X obj -25 125 alpha 1;
#X obj 66 407 t b b b;
#X obj -212 48 random 5;
#X msg 85 453 C -0.4;
#X msg 66 430 B -0.4;
#X obj -213 -35 > 0.9;
#X obj -282 -43 > 0.75;
#X obj 144 309 expr $f1*3;
#X connect 0 0 17 0;
#X connect 0 1 61 0;
#X connect 1 0 5 0;
#X connect 2 0 1 0;
#X connect 2 1 1 1;
#X connect 3 0 6 0;
#X connect 4 0 7 0;
#X connect 5 0 0 0;
#X connect 5 0 8 0;
#X connect 6 0 2 0;
#X connect 7 0 1 0;
#X connect 9 0 0 0;
#X connect 9 1 3 0;
#X connect 10 0 9 0;
#X connect 10 1 4 0;
#X connect 11 0 60 0;
#X connect 12 0 11 0;
#X connect 13 0 49 0;
#X connect 13 1 48 0;
#X connect 14 0 13 0;
#X connect 15 0 14 0;
#X connect 16 0 60 0;
#X connect 18 0 0 0;
#X connect 19 0 18 0;
#X connect 20 0 19 0;
#X connect 21 0 22 0;
#X connect 22 0 20 0;
#X connect 22 1 19 1;
#X connect 23 0 0 0;
#X connect 24 0 26 0;
#X connect 25 0 29 0;
#X connect 25 1 24 1;
#X connect 26 0 0 0;
#X connect 27 0 28 0;
#X connect 28 0 25 0;
#X connect 29 0 24 0;
#X connect 30 0 29 0;
#X connect 31 0 41 0;
#X connect 32 0 62 0;
#X connect 33 0 32 0;
#X connect 34 0 31 0;
#X connect 35 0 23 0;
#X connect 36 0 21 0;
#X connect 37 0 20 0;
#X connect 38 0 0 0;
#X connect 39 0 42 0;
#X connect 39 1 43 0;
#X connect 39 2 44 0;
#X connect 40 0 39 0;
#X connect 41 0 37 0;
#X connect 42 0 46 0;
#X connect 43 0 47 0;
#X connect 44 0 45 0;
#X connect 45 0 55 2;
#X connect 46 0 55 0;
#X connect 47 0 55 1;
#X connect 48 0 9 0;
#X connect 49 0 10 0;
#X connect 50 0 51 0;
#X connect 51 0 52 0;
#X connect 51 0 53 0;
#X connect 52 0 30 0;
#X connect 53 0 27 0;
#X connect 54 0 67 0;
#X connect 55 0 38 0;
#X connect 56 0 57 0;
#X connect 57 0 66 0;
#X connect 57 1 65 0;
#X connect 58 0 59 0;
#X connect 59 0 0 0;
#X connect 60 0 10 0;
#X connect 61 0 64 0;
#X connect 61 1 63 0;
#X connect 61 2 40 0;
#X connect 62 0 36 0;
#X connect 63 0 0 0;
#X connect 64 0 0 0;
#X connect 65 0 33 0;
#X connect 66 0 34 0;
#X connect 67 0 35 0;
#X restore -121 153 pd shader;
#X obj -219 304 loadbang;
#X obj -219 330 bng 15 250 50 0 empty empty empty 17 7 0 10 -262144
-1 -1;
#N canvas 712 63 366 701 rotate 0;
#X obj 190 308 tgl 15 0 empty empty empty 17 7 0 10 -262144 -1 -1 1
1;
#X obj 158 309 tgl 15 0 empty empty empty 17 7 0 10 -262144 -1 -1 0
1;
#X obj 128 309 tgl 15 0 empty empty empty 17 7 0 10 -262144 -1 -1 1
1;
#X obj 52 366 rotateXYZ 0 0 0;
#X obj 235 191 change;
#X obj 235 213 sel 1;
#X obj 235 236 random 3;
#X obj 235 261 sel 0 1 2;
#X obj 52 206 t a b;
#X obj 52 169 inlet;
#X obj 118 222 f 0;
#X floatatom 153 257 5 0 0 0 - - -;
#X obj 172 222 fmod 360;
#X obj 145 221 + 5;
#X obj 52 533 outlet;
#X obj 234 124 r vj-vol;
#X floatatom 234 146 5 0 0 0 - - -;
#X obj 175 328 * 0;
#X obj 137 332 * 0;
#X obj 107 332 * 0;
#X obj 235 167 > 0.85;
#X connect 0 0 17 1;
#X connect 1 0 18 1;
#X connect 2 0 19 1;
#X connect 3 0 14 0;
#X connect 4 0 5 0;
#X connect 5 0 6 0;
#X connect 6 0 7 0;
#X connect 7 0 2 0;
#X connect 7 1 1 0;
#X connect 7 2 0 0;
#X connect 8 0 3 0;
#X connect 8 1 10 0;
#X connect 9 0 8 0;
#X connect 10 0 11 0;
#X connect 10 0 13 0;
#X connect 11 0 17 0;
#X connect 11 0 18 0;
#X connect 11 0 19 0;
#X connect 12 0 10 1;
#X connect 13 0 12 0;
#X connect 15 0 16 0;
#X connect 16 0 20 0;
#X connect 17 0 3 3;
#X connect 18 0 3 2;
#X connect 19 0 3 1;
#X connect 20 0 4 0;
#X restore -120 437 pd rotate;
#N canvas 430 350 291 348 shape 1;
#X obj -38 212 scale 1;
#X msg 59 224 \$1 1000;
#X obj 59 246 line;
#X msg 133 183 0.1;
#X msg 59 183 7;
#X obj -71 242 gate 3;
#X obj -71 146 hradio 15 1 0 3 empty empty empty 0 -8 0 10 -262144
-1 -1 1;
#X obj -71 221 + 1;
#X obj -38 180 inlet;
#X obj -71 96 loadbang;
#X msg -71 119 1;
#X msg 93 181 0.5;
#X obj -38 299 cone 2 5;
#X obj -71 269 cylinder 1;
#X obj -55 324 sphere 1 60;
#X connect 0 0 5 1;
#X connect 1 0 2 0;
#X connect 2 0 0 1;
#X connect 3 0 1 0;
#X connect 4 0 1 0;
#X connect 5 0 13 0;
#X connect 5 1 14 0;
#X connect 5 2 12 0;
#X connect 6 0 7 0;
#X connect 7 0 5 0;
#X connect 8 0 0 0;
#X connect 9 0 10 0;
#X connect 10 0 6 0;
#X connect 11 0 1 0;
#X restore -120 525 pd shape;
#X obj -120 460 pix_texture;
#X msg 4 464 quality \$1;
#X obj 4 445 tgl 15 0 empty empty empty 0 -6 0 8 -262144 -1 -1 0 1
;
#X obj -31 416 loadbang;
#X msg -31 444 0;
#X obj -31 473 tgl 15 0 empty empty empty 0 -6 0 8 -262144 -1 -1 0
1;
#X msg -31 492 rectangle \$1;
#X obj -109 258 catch~ micl;
#X obj -92 229 catch~ micr;
#X obj -121 126 gemhead 100;
#X obj 105 118 hsl 100 15 0 1 0 0 empty empty Alpha 5 7 0 10 -258113
-1 -1 4000 1;
#X obj 102 141 sel 0;
#X msg 102 193 0;
#X msg 133 169 1;
#X obj 133 194 f;
#X obj -109 287 *~ 0.3;
#X obj 102 59 loadbang;
#X msg 102 80 0;
#X msg -219 354 dimen 60 30;
#X obj -120 493 scale 0.6;
#X obj 175 101 hsl 30 15 0.001 3 0 0 empty empty size 5 7 0 10 -258113
-1 -1 700 1;
#X msg 170 72 0.1;
#X connect 0 0 7 0;
#X connect 1 0 0 3;
#X connect 2 0 0 1;
#X connect 3 0 0 2;
#X connect 4 0 0 0;
#X connect 5 0 6 0;
#X connect 6 0 27 0;
#X connect 7 0 9 0;
#X connect 9 0 28 0;
#X connect 10 0 9 0;
#X connect 11 0 10 0;
#X connect 12 0 13 0;
#X connect 13 0 14 0;
#X connect 13 0 11 0;
#X connect 14 0 15 0;
#X connect 15 0 9 0;
#X connect 16 0 24 0;
#X connect 17 0 24 0;
#X connect 18 0 4 0;
#X connect 19 0 20 0;
#X connect 19 0 4 1;
#X connect 20 0 21 0;
#X connect 20 1 22 0;
#X connect 21 0 23 0;
#X connect 22 0 23 0;
#X connect 23 0 18 0;
#X connect 24 0 2 0;
#X connect 24 0 1 0;
#X connect 24 0 3 0;
#X connect 25 0 26 0;
#X connect 25 0 30 0;
#X connect 26 0 19 0;
#X connect 27 0 0 0;
#X connect 28 0 8 0;
#X connect 29 0 28 1;
#X connect 30 0 29 0;
#X coords 0 -1 1 1 110 35 1 100 100;
