#N canvas 814 33 474 459 10;
#X msg 92 219 create \, 1;
#X obj 91 246 gemwin;
#X obj 92 174 vj_amoeba;
#X obj 56 95 k_camera;
#X obj 176 242 loadbang;
#X msg 176 264 \; pd dsp 1;
#X connect 0 0 1 0;
#X connect 3 0 1 0;
#X connect 4 0 5 0;
