#N canvas 418 22 837 726 10;
#X floatatom 576 67 5 0 0 0 - - -;
#X obj 105 122 hsl 100 15 0 1 0 0 empty empty Alpha 5 7 0 10 -258113
-1 -1 9900 1;
#X obj 102 149 sel 0;
#X msg 102 201 0;
#X msg 133 177 1;
#X obj 133 202 f;
#X obj -10 231 loadbang;
#X obj -10 280 f;
#X obj 22 280 + 1;
#X obj 9 365 randomF 40;
#X obj 161 374 randomF 40;
#X obj 161 397 - 20;
#X obj 9 388 - 20;
#X obj 367 24 gemhead;
#X obj 367 117 t a b;
#X obj 394 142 f;
#X obj 426 142 + 1;
#X obj 367 282 separator;
#X obj 367 56 translateXYZ 0 -5 0;
#X obj 544 221 +;
#X obj 367 353 translateXYZ 0 0 0;
#X obj 561 169 *;
#X obj 367 412 alpha;
#X obj 295 327 loadbang;
#X obj 367 388 colorRGB;
#X obj 576 42 r vj-pitch-1;
#X obj 576 89 expr 16*($f1-0.5);
#N canvas 299 161 679 450 z-pos 0;
#X floatatom 89 34 5 0 0 0 - - -;
#X floatatom 14 164 5 0 0 0 - - -;
#X floatatom 297 161 5 0 0 0 - - -;
#X obj 330 144 tgl 15 0 empty empty empty 17 7 0 10 -262144 -1 -1 1
1;
#X obj 297 185 spigot;
#X obj 35 208 spigot;
#X floatatom 35 243 5 0 0 0 - - -;
#X obj 89 6 inlet;
#X obj 35 275 outlet;
#X obj 89 91 expr if($f1<30 \, $f1 \, -30) \; if($f1>-30 \, $f1 \,
30);
#X obj 330 116 expr if($f1<30 \, 1 \, 0) \;;
#X obj 108 179 tgl 15 0 empty empty empty 17 7 0 10 -262144 -1 -1 1
1;
#X obj 108 154 expr if($f1>-30 \, 1 \, 0) \;;
#X obj 89 58 t f f f;
#X connect 0 0 13 0;
#X connect 1 0 5 0;
#X connect 2 0 4 0;
#X connect 3 0 4 1;
#X connect 4 0 6 0;
#X connect 5 0 6 0;
#X connect 6 0 8 0;
#X connect 7 0 0 0;
#X connect 9 0 1 0;
#X connect 9 1 2 0;
#X connect 10 0 3 0;
#X connect 11 0 5 1;
#X connect 12 0 11 0;
#X connect 13 0 9 0;
#X connect 13 1 12 0;
#X connect 13 2 10 0;
#X restore 544 245 pd z-pos;
#X obj 723 73 r vj-vol;
#X floatatom 723 97 5 0 0 0 - - -;
#X obj 544 116 t f f f f;
#X obj 46 233 bng 15 250 50 0 empty empty empty 17 7 0 10 -262144 -1
-1;
#X obj 53 466 tabwrite \$0-pos;
#X obj -26 438 tabwrite \$0-speed;
#X obj 544 279 tabwrite \$0-go;
#X obj 561 144 tabread \$0-speed;
#X obj 544 196 tabread \$0-go;
#X obj 402 246 tabread \$0-pos;
#X obj 161 432 tabwrite \$0-y;
#X obj 437 298 tabread \$0-y;
#X obj 107 49 loadbang;
#X msg 107 75 0;
#X obj 283 510 table \$0-speed 120;
#X obj 284 534 table \$0-pos 120;
#X obj 405 509 table \$0-go 120;
#X obj 406 533 table \$0-y 120;
#X obj 54 280 % 120;
#X obj -10 256 repeat 120;
#X obj 367 89 repeat 120;
#X obj 459 142 % 120;
#X obj 723 146 line;
#X msg 723 122 \$1 1000;
#X obj 88 339 randomF 0.5;
#X obj 88 367 + 0.2;
#X msg 295 350 0;
#X obj 285 557 table \$0-fly 120;
#X obj 89 555 tabwrite \$0-fly;
#X obj -10 306 t f b b b b;
#X obj 478 415 tabread \$0-fly;
#X obj 394 186 t f f f f;
#X obj 575 419 f 0;
#X obj 605 419 + 1;
#X obj 634 420 % 14;
#X floatatom 575 518 5 0 0 0 - - -;
#X obj 575 495 expr if($f1<7 \, $f1 \, abs($f1-13));
#X obj 478 390 t f b;
#X obj 575 369 f 0;
#X obj 605 369 + 1;
#X obj 575 394 sel 0;
#X obj 634 370 % 60;
#X obj 619 334 expr 100-(abs($f1*100))+100;
#X obj 87 504 random 6;
#X obj 576 444 + 0;
#X obj 575 468 % 14;
#X obj 699 208 + 0.05;
#X msg 210 41 \$1 1000;
#X obj 210 64 line;
#X obj 675 146 * 2;
#X msg 303 629 create \, 1;
#X obj 310 669 gemwin;
#X obj 367 452 k_seagull;
#X connect 0 0 26 0;
#X connect 1 0 2 0;
#X connect 1 0 75 0;
#X connect 2 0 3 0;
#X connect 2 1 4 0;
#X connect 3 0 5 0;
#X connect 4 0 5 0;
#X connect 5 0 13 0;
#X connect 6 0 47 0;
#X connect 7 0 8 0;
#X connect 7 0 57 0;
#X connect 8 0 46 0;
#X connect 9 0 12 0;
#X connect 10 0 11 0;
#X connect 11 0 38 0;
#X connect 12 0 32 0;
#X connect 13 0 18 0;
#X connect 14 0 17 0;
#X connect 14 1 15 0;
#X connect 15 0 16 0;
#X connect 15 0 59 0;
#X connect 16 0 49 0;
#X connect 17 0 20 0;
#X connect 18 0 48 0;
#X connect 19 0 27 0;
#X connect 20 0 24 0;
#X connect 21 0 74 0;
#X connect 22 0 80 0;
#X connect 23 0 54 0;
#X connect 24 0 22 0;
#X connect 25 0 0 0;
#X connect 27 0 20 3;
#X connect 27 0 34 0;
#X connect 28 0 29 0;
#X connect 29 0 51 0;
#X connect 29 0 70 0;
#X connect 30 0 36 0;
#X connect 30 1 35 0;
#X connect 30 2 34 1;
#X connect 31 0 47 0;
#X connect 35 0 21 0;
#X connect 36 0 19 0;
#X connect 37 0 20 1;
#X connect 39 0 20 2;
#X connect 40 0 41 0;
#X connect 41 0 1 0;
#X connect 46 0 7 1;
#X connect 47 0 7 0;
#X connect 48 0 14 0;
#X connect 49 0 15 1;
#X connect 50 0 77 0;
#X connect 51 0 50 0;
#X connect 52 0 53 0;
#X connect 53 0 33 0;
#X connect 54 0 22 1;
#X connect 57 0 32 1;
#X connect 57 0 33 1;
#X connect 57 0 38 1;
#X connect 57 0 56 1;
#X connect 57 1 9 0;
#X connect 57 2 52 0;
#X connect 57 3 10 0;
#X connect 57 4 71 0;
#X connect 58 0 72 0;
#X connect 59 0 37 0;
#X connect 59 1 39 0;
#X connect 59 2 30 0;
#X connect 59 3 65 0;
#X connect 60 0 61 0;
#X connect 60 0 72 1;
#X connect 61 0 62 0;
#X connect 62 0 60 1;
#X connect 63 0 80 1;
#X connect 64 0 63 0;
#X connect 65 0 58 0;
#X connect 65 1 66 0;
#X connect 66 0 67 0;
#X connect 66 0 68 0;
#X connect 67 0 69 0;
#X connect 68 0 60 0;
#X connect 69 0 66 1;
#X connect 70 0 69 1;
#X connect 71 0 56 0;
#X connect 72 0 73 0;
#X connect 73 0 64 0;
#X connect 74 0 19 1;
#X connect 75 0 76 0;
#X connect 76 0 24 4;
#X connect 77 0 21 1;
#X connect 78 0 79 0;
#X coords 0 -1 1 1 110 40 1 100 100;
