#N canvas 351 23 830 755 10;
#X obj 106 118 hsl 100 15 0 1 0 0 empty empty Alpha 5 7 0 10 -258113
-1 -1 0 1;
#X obj 78 46 loadbang;
#X msg 78 72 0;
#X obj 557 -35 r vj-vol;
#X obj 557 19 spigot;
#X obj 174 101 bng 15 250 50 0 empty empty empty 17 7 0 10 -262144
-1 -1;
#X obj 174 153 openpanel;
#X msg 174 177 open \$1;
#X obj 193 101 tgl 15 0 empty empty empty 17 7 0 10 -262144 -1 -1 1
1;
#X obj 236 483 pix_texture;
#X obj 237 199 t a b;
#X obj 236 346 separator;
#X obj 264 220 f;
#X obj 294 220 + 1;
#X obj 51 274 bng 15 250 50 0 empty empty empty 17 7 0 10 -262144 -1
-1;
#X obj 51 319 f;
#X obj 80 318 + 1;
#X obj 51 341 t f f;
#X obj 478 482 expr abs(1-(2*abs($f1-0.5)));
#X obj 51 248 loadbang;
#X obj 161 455 loadbang;
#X obj 236 430 rotateXYZ 0 0 0;
#X obj 236 375 translateXYZ 0 0 0;
#X obj 236 622 scale 1;
#X obj 435 383 expr $f1*53;
#X obj 237 40 t a b;
#X obj 325 57 f;
#X obj 264 244 t f f f f f f;
#X obj 358 244 expr ($f1*3)%7;
#X obj 358 266 expr ($f1/7)*2-1;
#X obj 323 405 expr ($f1/10)+$f2;
#X obj 435 361 expr ($f1*3)%11;
#X obj 51 410 tabwrite \$0-z;
#X obj 342 350 tabwrite \$0-z;
#X obj 264 290 tabread \$0-z;
#X obj 478 507 *;
#X obj 482 4 loadbang;
#X floatatom 482 50 5 0 0 0 - - -;
#X obj 482 77 moses 0.1;
#X msg 482 25 0.11;
#X floatatom 533 100 5 0 0 0 - - -;
#X obj 533 201 line;
#X obj 264 313 expr fmod($f1+$f2 \, 8);
#X obj 51 388 * 8;
#X obj 478 460 / 8;
#X obj 236 570 colorRGB 1 1 1 0.5;
#X msg 161 477 auto 1;
#X obj 340 105 expr abs(($f1/360.0)-0.5)*1-0.5;
#X obj 355 57 + 0.1;
#X obj 393 57 fmod 360;
#X obj 533 173 \$1 5000;
#X obj 533 133 / 1.5;
#X obj 51 298 repeat 8;
#X obj 115 318 % 8;
#X obj 51 364 / 8;
#X obj 237 100 rotateXYZ 0 0 0;
#X obj 237 137 translateXYZ 0 0 -6;
#X obj 237 -3 > 0;
#X obj 590 -10 > 0;
#X msg 193 72 1;
#X msg 273 -5 set \$1;
#X obj 273 -97 r gemlayer;
#X obj 273 -75 sel 0 1;
#X msg 273 -51 10000;
#X obj 237 165 repeat 8;
#X obj 323 220 % 8;
#X obj 51 221 table \$0-z 20;
#X obj 235 510 t a b;
#X obj 475 602 *;
#X obj 475 576 + 0.4;
#X obj 255 593 expr ((8-$f1)/8)+1;
#X obj 351 490 t a b;
#X obj 376 531 sel 0;
#X msg 401 553 1;
#X obj 313 542 spigot;
#X msg 368 555 0;
#X obj 377 510 random 5;
#X obj 477 547 randomF 0.3;
#X obj 236 545 alpha 1;
#X obj 236 19 gemhead -5;
#X obj 236 645 square 8;
#X obj 237 457 pix_image data/space_3.png;
#X obj -103 134 s toudp;
#X obj -103 107 packOSC;
#X floatatom -103 45 5 0 0 0 - - -;
#X msg -103 66 send /gh /12 \$1;
#X obj -38 124 t b;
#X msg -38 158 send /gh /13 3;
#X msg 292 -27 -5;
#X obj 51 -40 r touchosc;
#X obj 51 -16 routeOSC /vj;
#X floatatom 51 30 5 0 0 0 - - -;
#X obj 51 8 route /31;
#X obj 533 153 spigot;
#X obj 602 86 t b;
#X msg 602 108 1;
#X obj 617 134 r tocloud;
#X msg 619 203 0;
#X obj 593 179 t b b;
#X msg 590 221 0;
#X obj 613 158 sel 0 1;
#X msg 643 185 1;
#X obj 639 -69 catch~ all;
#X obj 632 -14 autoscale;
#X obj 629 -35 env~;
#X obj 469 -90 catch~ all;
#X obj 466 -66 env~;
#X obj 462 -41 autoscale;
#X connect 0 0 35 1;
#X connect 0 0 57 0;
#X connect 0 0 58 0;
#X connect 0 0 84 0;
#X connect 0 0 86 0;
#X connect 0 0 94 0;
#X connect 1 0 2 0;
#X connect 1 0 59 0;
#X connect 2 0 0 0;
#X connect 3 0 4 0;
#X connect 4 0 37 0;
#X connect 5 0 6 0;
#X connect 6 0 7 0;
#X connect 7 0 81 0;
#X connect 8 0 78 1;
#X connect 9 0 67 0;
#X connect 10 0 11 0;
#X connect 10 1 12 0;
#X connect 11 0 22 0;
#X connect 12 0 13 0;
#X connect 12 0 27 0;
#X connect 13 0 65 0;
#X connect 14 0 52 0;
#X connect 15 0 16 0;
#X connect 15 0 17 0;
#X connect 16 0 53 0;
#X connect 17 0 54 0;
#X connect 17 1 32 1;
#X connect 18 0 35 0;
#X connect 19 0 14 0;
#X connect 20 0 46 0;
#X connect 21 0 81 0;
#X connect 22 0 21 0;
#X connect 23 0 80 0;
#X connect 24 0 30 1;
#X connect 25 0 55 0;
#X connect 25 1 26 0;
#X connect 26 0 48 0;
#X connect 26 0 47 0;
#X connect 26 0 55 3;
#X connect 27 0 34 0;
#X connect 27 1 31 0;
#X connect 27 2 33 1;
#X connect 27 3 30 0;
#X connect 27 5 28 0;
#X connect 28 0 29 0;
#X connect 29 0 22 1;
#X connect 30 0 21 3;
#X connect 31 0 24 0;
#X connect 34 0 42 0;
#X connect 35 0 68 1;
#X connect 36 0 39 0;
#X connect 37 0 38 0;
#X connect 38 1 40 0;
#X connect 39 0 37 0;
#X connect 40 0 51 0;
#X connect 41 0 42 1;
#X connect 42 0 22 3;
#X connect 42 0 33 0;
#X connect 42 0 44 0;
#X connect 42 0 70 0;
#X connect 43 0 32 0;
#X connect 44 0 18 0;
#X connect 45 0 23 0;
#X connect 46 0 78 0;
#X connect 47 0 56 2;
#X connect 47 0 56 1;
#X connect 48 0 49 0;
#X connect 49 0 26 1;
#X connect 50 0 41 0;
#X connect 51 0 93 0;
#X connect 52 0 15 0;
#X connect 53 0 15 1;
#X connect 54 0 43 0;
#X connect 55 0 56 0;
#X connect 56 0 64 0;
#X connect 57 0 79 0;
#X connect 58 0 4 1;
#X connect 59 0 8 0;
#X connect 60 0 79 0;
#X connect 61 0 62 0;
#X connect 62 0 63 0;
#X connect 62 1 88 0;
#X connect 63 0 60 0;
#X connect 64 0 10 0;
#X connect 65 0 12 1;
#X connect 67 0 78 0;
#X connect 67 1 77 0;
#X connect 68 0 45 4;
#X connect 69 0 68 0;
#X connect 70 0 23 1;
#X connect 71 0 74 0;
#X connect 71 1 76 0;
#X connect 72 0 75 0;
#X connect 72 1 73 0;
#X connect 73 0 74 1;
#X connect 75 0 74 1;
#X connect 76 0 72 0;
#X connect 77 0 69 0;
#X connect 78 0 45 0;
#X connect 79 0 25 0;
#X connect 81 0 9 0;
#X connect 83 0 82 0;
#X connect 84 0 85 0;
#X connect 85 0 83 0;
#X connect 86 0 87 0;
#X connect 87 0 83 0;
#X connect 88 0 60 0;
#X connect 89 0 90 0;
#X connect 90 0 92 0;
#X connect 91 0 0 0;
#X connect 92 0 91 0;
#X connect 93 0 50 0;
#X connect 94 0 95 0;
#X connect 95 0 93 1;
#X connect 96 0 100 0;
#X connect 97 0 93 1;
#X connect 98 0 99 0;
#X connect 98 1 97 0;
#X connect 99 0 50 0;
#X connect 100 0 98 0;
#X connect 100 1 101 0;
#X connect 101 0 93 1;
#X connect 102 0 104 0;
#X connect 103 0 4 0;
#X connect 104 0 103 0;
#X connect 105 0 106 0;
#X connect 106 0 107 0;
#X connect 107 0 4 0;
#X coords 0 -1 1 1 110 35 1 100 100;
