#N canvas 487 188 793 625 10;
#X obj 515 155 r vj-pitch-2;
#X floatatom 515 180 5 0 0 0 - - -;
#X obj 361 413 r vj-vol;
#X obj 106 122 hsl 100 15 0 1 0 0 empty empty Alpha 5 7 0 10 -258113
-1 -1 9900 1;
#X obj 103 149 sel 0;
#X msg 103 201 0;
#X msg 134 177 1;
#X obj 134 202 f;
#X obj 78 51 loadbang;
#X msg 78 77 0;
#X obj 316 403 alpha;
#X obj 316 469 circle 1;
#X obj 316 273 translateXYZ 0 0 0;
#X obj 361 443 expr $f1*4;
#X obj 316 375 colorRGB 1 0 0 1;
#X obj 447 402 alpha;
#X obj 447 493 circle 1;
#X obj 447 374 colorRGB 1 0 0 1;
#X obj 298 307 tgl 15 0 empty empty empty 17 7 0 10 -262144 -1 -1 1
1;
#X obj 248 280 loadbang;
#X msg 248 305 auto 1;
#X obj 540 348 * 0.3;
#X obj 588 402 alpha;
#X obj 588 494 circle 1;
#X obj 588 374 colorRGB 1 0 0 1;
#X obj 681 346 * 0.2;
#X obj 316 237 gemhead -1;
#X obj 447 236 gemhead -1;
#X obj 588 236 gemhead -1;
#X obj 409 343 * 0.8;
#X obj 447 272 translateXYZ 0 0 1;
#X obj 588 272 translateXYZ 0 0 1.4;
#X msg 290 153 \$1 1000;
#X obj 290 176 line;
#X connect 0 0 1 0;
#X connect 1 0 17 1;
#X connect 1 0 24 1;
#X connect 1 0 14 1;
#X connect 2 0 13 0;
#X connect 3 0 4 0;
#X connect 3 0 32 0;
#X connect 4 0 5 0;
#X connect 4 1 6 0;
#X connect 5 0 7 0;
#X connect 6 0 7 0;
#X connect 7 0 26 0;
#X connect 8 0 9 0;
#X connect 9 0 3 0;
#X connect 10 0 11 0;
#X connect 12 0 14 0;
#X connect 13 0 11 1;
#X connect 13 0 16 1;
#X connect 13 0 23 1;
#X connect 14 0 10 0;
#X connect 15 0 16 0;
#X connect 17 0 15 0;
#X connect 18 0 10 1;
#X connect 18 0 15 1;
#X connect 18 0 22 1;
#X connect 19 0 18 0;
#X connect 19 0 20 0;
#X connect 20 0 10 0;
#X connect 20 0 15 0;
#X connect 20 0 22 0;
#X connect 21 0 17 4;
#X connect 22 0 23 0;
#X connect 24 0 22 0;
#X connect 25 0 24 4;
#X connect 26 0 12 0;
#X connect 27 0 30 0;
#X connect 28 0 31 0;
#X connect 29 0 14 4;
#X connect 30 0 17 0;
#X connect 31 0 24 0;
#X connect 32 0 33 0;
#X connect 33 0 29 0;
#X connect 33 0 21 0;
#X connect 33 0 25 0;
#X coords 0 -1 1 1 110 40 1 100 100;
