#N canvas 307 213 729 746 10;
#X obj -426 -114 gemhead;
#X obj -426 123 t a b;
#X obj -399 147 f;
#X obj -426 206 separator;
#X obj -426 6 pix_texture;
#X obj -28 215 f;
#X obj 2 214 + 1;
#X obj -28 165 bng 15 250 50 0 empty empty empty 17 7 0 10 -262144
-1 -1;
#X obj -28 269 randomF 1;
#X obj -432 423 translateXYZ 0 0 0;
#X obj -426 30 t a b;
#X obj -385 30 f;
#X obj -432 524 square 0.5;
#X obj -399 174 t f f f f f;
#X obj -372 147 + 1;
#X obj -318 29 fmod 360;
#X obj 35 442 random 4;
#X obj -225 420 sel 0 1 2 3;
#X obj -215 553 list-emath /;
#X msg -146 526 255 255 255;
#X obj -146 500 loadbang;
#X obj -28 241 t b b b b f;
#X obj -28 142 loadbang;
#X obj 96 365 randomF 1;
#X obj -289 316 k_range 0 1 -10 10;
#X obj -422 344 k_range 0 1 -10 10;
#X obj -28 378 tabwrite \$0-x;
#X obj -399 229 tabread \$0-x;
#X obj -379 278 tabread \$0-y;
#X obj -289 287 tabread \$0-z;
#X obj 2 404 tabwrite \$0-y;
#X obj 96 392 tabwrite \$0-z;
#X obj -379 400 tabwrite \$0-y;
#X obj -379 370 expr if($f1>-8 \, $f1 \, 8);
#X obj -379 252 t f f;
#X obj -379 299 t f f;
#X obj -426 -41 alpha 1;
#X obj 106 117 hsl 100 15 0 1 0 0 empty empty Alpha 5 7 0 10 -258113
-1 -1 0 1;
#X obj 103 73 loadbang;
#X msg 103 96 0;
#X obj 103 146 t f f;
#X obj 114 44 inlet;
#X obj 103 170 > 0;
#X obj -426 -18 t a b;
#X obj -424 446 unpack f f f;
#X obj -432 474 colorRGB 1 1 1 1;
#X obj -426 -65 pix_image grid/dot.png;
#X obj -379 322 - 0.1;
#X obj 2 295 randomF 16;
#X obj 2 329 - 8;
#X obj -225 394 tabread \$0-color;
#X obj 35 473 tabwrite \$0-color;
#X obj -282 214 tabread vj_vol;
#X obj -426 -92 depth;
#X msg -362 -25 auto 1;
#X obj -362 -45 loadbang;
#X msg -225 456 255 255 255;
#X msg -194 443 255 255 255;
#X msg -210 479 255 255 255;
#X msg -140 477 255 255 255;
#X obj -426 98 repeat 400;
#X obj -345 147 % 400;
#X obj -150 163 table \$0-x 400;
#X obj -149 186 table \$0-y 400;
#X obj -148 207 table \$0-z 400;
#X obj -147 140 table \$0-color 400;
#X obj -28 188 repeat 400;
#X obj 33 214 % 400;
#X floatatom -315 103 5 0 0 0 - - -;
#X floatatom -265 103 5 0 0 0 - - -;
#X obj -426 70 rotateXYZ 0 0 0;
#X obj -246 59 unpack f f;
#X text -376 -143 no black blend;
#X text -385 501 no angle;
#X obj -432 498 facing;
#X obj 192 14 inlet;
#X obj -157 0 k_between;
#X obj -124 -94 loadbang;
#X msg -132 -27 0 0 0;
#X msg -106 -55 -105 -80 0;
#X obj -359 29 + 0.5;
#X obj -282 241 expr ($f1*0.2)+0.05;
#X connect 0 0 53 0;
#X connect 1 0 3 0;
#X connect 1 1 2 0;
#X connect 2 0 13 0;
#X connect 2 0 14 0;
#X connect 3 0 9 0;
#X connect 4 0 10 0;
#X connect 5 0 6 0;
#X connect 5 0 21 0;
#X connect 6 0 67 0;
#X connect 7 0 66 0;
#X connect 8 0 26 0;
#X connect 9 0 45 0;
#X connect 10 0 70 0;
#X connect 10 1 11 0;
#X connect 11 0 70 2;
#X connect 11 0 80 0;
#X connect 13 0 27 0;
#X connect 13 1 34 0;
#X connect 13 2 29 0;
#X connect 13 3 52 0;
#X connect 13 4 50 0;
#X connect 14 0 61 0;
#X connect 15 0 11 1;
#X connect 16 0 51 0;
#X connect 17 0 56 0;
#X connect 17 1 58 0;
#X connect 17 2 57 0;
#X connect 17 3 59 0;
#X connect 18 0 44 0;
#X connect 19 0 18 1;
#X connect 20 0 19 0;
#X connect 21 0 8 0;
#X connect 21 1 48 0;
#X connect 21 2 23 0;
#X connect 21 3 16 0;
#X connect 21 4 26 1;
#X connect 21 4 30 1;
#X connect 21 4 31 1;
#X connect 21 4 51 1;
#X connect 22 0 7 0;
#X connect 23 0 31 0;
#X connect 24 0 9 3;
#X connect 25 0 9 1;
#X connect 27 0 25 0;
#X connect 28 0 35 0;
#X connect 29 0 24 0;
#X connect 33 0 32 0;
#X connect 34 0 28 0;
#X connect 34 1 32 1;
#X connect 35 0 47 0;
#X connect 35 1 9 2;
#X connect 36 0 43 0;
#X connect 37 0 40 0;
#X connect 38 0 39 0;
#X connect 39 0 37 0;
#X connect 40 0 42 0;
#X connect 40 1 45 4;
#X connect 41 0 37 0;
#X connect 42 0 0 0;
#X connect 43 0 4 0;
#X connect 44 0 45 1;
#X connect 44 1 45 2;
#X connect 44 2 45 3;
#X connect 45 0 74 0;
#X connect 46 0 36 0;
#X connect 47 0 33 0;
#X connect 48 0 49 0;
#X connect 49 0 30 0;
#X connect 50 0 17 0;
#X connect 52 0 81 0;
#X connect 53 0 46 0;
#X connect 54 0 36 0;
#X connect 55 0 54 0;
#X connect 56 0 18 0;
#X connect 57 0 18 0;
#X connect 58 0 18 0;
#X connect 59 0 18 0;
#X connect 60 0 1 0;
#X connect 61 0 2 1;
#X connect 66 0 5 0;
#X connect 67 0 5 1;
#X connect 68 0 70 1;
#X connect 69 0 70 3;
#X connect 70 0 60 0;
#X connect 71 0 68 0;
#X connect 71 1 69 0;
#X connect 74 0 12 0;
#X connect 75 0 76 0;
#X connect 76 0 71 0;
#X connect 77 0 78 0;
#X connect 77 0 79 0;
#X connect 78 0 76 1;
#X connect 79 0 76 2;
#X connect 80 0 15 0;
#X connect 81 0 12 1;
#X coords 0 -1 1 1 110 35 1 100 100;
