#N canvas 489 81 729 746 10;
#X obj -426 -114 gemhead;
#X obj -426 123 t a b;
#X obj -399 147 f;
#X obj -426 206 separator;
#X obj -426 6 pix_texture;
#X obj -28 215 f;
#X obj 2 214 + 1;
#X obj -28 165 bng 15 250 50 0 empty empty empty 17 7 0 10 -262144
-1 -1;
#X obj -28 269 randomF 1;
#X obj -432 423 translateXYZ 0 0 0;
#X obj -426 30 t a b;
#X obj -378 30 f;
#X obj -432 524 square 0.5;
#X obj -372 147 + 1;
#X obj -301 29 fmod 360;
#X obj 35 442 random 4;
#X obj -225 420 sel 0 1 2 3;
#X obj -215 553 list-emath /;
#X msg -146 526 255 255 255;
#X obj -146 500 loadbang;
#X obj -28 241 t b b b b f;
#X obj -28 142 loadbang;
#X obj 96 365 randomF 1;
#X obj -289 316 k_range 0 1 -10 10;
#X obj -422 344 k_range 0 1 -10 10;
#X obj -28 378 tabwrite \$0-x;
#X obj -399 229 tabread \$0-x;
#X obj -379 278 tabread \$0-y;
#X obj -289 287 tabread \$0-z;
#X obj 2 404 tabwrite \$0-y;
#X obj 96 392 tabwrite \$0-z;
#X obj -379 400 tabwrite \$0-y;
#X obj -379 370 expr if($f1>-8 \, $f1 \, 8);
#X obj -379 252 t f f;
#X obj -379 299 t f f;
#X obj -426 -41 alpha 1;
#X obj 106 117 hsl 100 15 0 1 0 0 empty empty Alpha 5 7 0 10 -258113
-1 -1 9900 1;
#X obj 103 73 loadbang;
#X msg 103 96 0;
#X obj 103 146 t f f;
#X obj 114 44 inlet;
#X obj 103 170 > 0;
#X obj -426 -18 t a b;
#X obj -424 446 unpack f f f;
#X obj -432 474 colorRGB 1 1 1 1;
#X obj -426 -65 pix_image grid/dot.png;
#X obj -379 322 - 0.1;
#X obj 2 295 randomF 16;
#X obj 2 329 - 8;
#X obj -225 394 tabread \$0-color;
#X obj 35 473 tabwrite \$0-color;
#X obj -426 -92 depth;
#X msg -362 -25 auto 1;
#X obj -362 -45 loadbang;
#X msg -225 456 255 255 255;
#X msg -194 443 255 255 255;
#X msg -210 479 255 255 255;
#X msg -140 477 255 255 255;
#X obj -426 98 repeat 400;
#X obj -345 147 % 400;
#X obj -150 163 table \$0-x 400;
#X obj -149 186 table \$0-y 400;
#X obj -148 207 table \$0-z 400;
#X obj -147 140 table \$0-color 400;
#X obj -28 188 repeat 400;
#X obj 33 214 % 400;
#X obj -426 70 rotateXYZ 0 0 0;
#X text -376 -143 no black blend;
#X text -385 501 no angle;
#X obj -432 498 facing;
#X obj 194 -133 inlet;
#X floatatom 194 -111 5 0 0 0 - - -, f 5;
#X obj 194 -92 abs;
#X obj -347 29 + 1;
#X obj 194 -48 line;
#X obj 154 210 table vol;
#X obj 154 268 tabwrite~ vol;
#X obj 237 -130 inlet~;
#X obj 233 177 metro 100;
#X obj 233 156 tgl 15 0 empty empty empty 17 7 0 10 -262144 -1 -1 1
1;
#X obj 234 133 loadbang;
#X obj -282 205 tabread vol;
#X obj -399 174 t f f f f f b;
#X obj -282 228 expr ($f1*2)+$f2;
#X obj -237 144 randomF 0.3;
#X msg 194 -70 \$1 300;
#X obj -282 250 * 1;
#X obj -83 31 expr if($f1<1 \, 1 \, $f1*2);
#X connect 0 0 51 0;
#X connect 1 0 3 0;
#X connect 1 1 2 0;
#X connect 2 0 13 0;
#X connect 2 0 82 0;
#X connect 3 0 9 0;
#X connect 4 0 10 0;
#X connect 5 0 6 0;
#X connect 5 0 20 0;
#X connect 6 0 65 0;
#X connect 7 0 64 0;
#X connect 8 0 25 0;
#X connect 9 0 44 0;
#X connect 10 0 66 0;
#X connect 10 1 11 0;
#X connect 11 0 66 2;
#X connect 11 0 73 0;
#X connect 11 0 66 1;
#X connect 13 0 59 0;
#X connect 14 0 11 1;
#X connect 15 0 50 0;
#X connect 16 0 54 0;
#X connect 16 1 56 0;
#X connect 16 2 55 0;
#X connect 16 3 57 0;
#X connect 17 0 43 0;
#X connect 18 0 17 1;
#X connect 19 0 18 0;
#X connect 20 0 8 0;
#X connect 20 1 47 0;
#X connect 20 2 22 0;
#X connect 20 3 15 0;
#X connect 20 4 25 1;
#X connect 20 4 29 1;
#X connect 20 4 30 1;
#X connect 20 4 50 1;
#X connect 21 0 7 0;
#X connect 22 0 30 0;
#X connect 23 0 9 3;
#X connect 24 0 9 1;
#X connect 26 0 24 0;
#X connect 27 0 34 0;
#X connect 28 0 23 0;
#X connect 32 0 31 0;
#X connect 33 0 27 0;
#X connect 33 1 31 1;
#X connect 34 0 46 0;
#X connect 34 1 9 2;
#X connect 35 0 42 0;
#X connect 36 0 39 0;
#X connect 37 0 38 0;
#X connect 38 0 36 0;
#X connect 39 0 41 0;
#X connect 39 1 44 4;
#X connect 40 0 36 0;
#X connect 41 0 0 0;
#X connect 42 0 4 0;
#X connect 43 0 44 1;
#X connect 43 1 44 2;
#X connect 43 2 44 3;
#X connect 44 0 69 0;
#X connect 45 0 35 0;
#X connect 46 0 32 0;
#X connect 47 0 48 0;
#X connect 48 0 29 0;
#X connect 49 0 16 0;
#X connect 51 0 45 0;
#X connect 52 0 35 0;
#X connect 53 0 52 0;
#X connect 54 0 17 0;
#X connect 55 0 17 0;
#X connect 56 0 17 0;
#X connect 57 0 17 0;
#X connect 58 0 1 0;
#X connect 59 0 2 1;
#X connect 64 0 5 0;
#X connect 65 0 5 1;
#X connect 66 0 58 0;
#X connect 69 0 12 0;
#X connect 70 0 71 0;
#X connect 71 0 72 0;
#X connect 72 0 85 0;
#X connect 73 0 14 0;
#X connect 74 0 46 1;
#X connect 74 0 87 0;
#X connect 77 0 76 0;
#X connect 78 0 76 0;
#X connect 79 0 78 0;
#X connect 80 0 79 0;
#X connect 81 0 83 0;
#X connect 82 0 26 0;
#X connect 82 1 33 0;
#X connect 82 2 28 0;
#X connect 82 3 81 0;
#X connect 82 4 49 0;
#X connect 82 5 84 0;
#X connect 83 0 86 0;
#X connect 84 0 83 1;
#X connect 85 0 74 0;
#X connect 86 0 12 1;
#X connect 87 0 86 1;
#X coords 0 -1 1 1 110 35 1 100 100;
