#N canvas -29 23 960 765 10;
#X obj -340 51 gemhead;
#X obj -340 201 alpha;
#X obj -297 188 loadbang;
#X msg -297 212 1;
#X msg -266 212 auto 1;
#X msg -79 201 width \$1;
#X floatatom -79 179 5 1 10 0 - - -;
#X obj -340 97 t a b b;
#X obj -79 154 + 1;
#X obj -79 100 sel 0;
#X obj -79 76 k_count 1 5;
#X obj -298 397 gemhead;
#X obj -295 593 alpha;
#X obj -252 580 loadbang;
#X msg -252 604 1;
#X msg -221 604 auto 1;
#X msg -95 552 width \$1;
#X floatatom -95 530 5 1 10 0 - - -;
#X obj -298 443 t a b b;
#X obj -95 451 sel 0;
#X obj 106 118 hsl 100 15 0 1 0 0 empty empty Alpha 5 7 0 10 -258113
-1 -1 0 1;
#X obj 103 173 sel 0;
#X msg 103 225 0;
#X msg 134 201 1;
#X obj 134 226 f;
#X floatatom 157 175 5 0 0 0 - - -;
#X obj 103 53 loadbang;
#X msg 103 97 0;
#X obj 216 246 tgl 15 0 empty empty empty 17 7 0 10 -262144 -1 -1 0
1;
#X obj 94 312 gemhead;
#X obj 95 527 alpha;
#X obj 138 514 loadbang;
#X msg 138 538 1;
#X msg 169 538 auto 1;
#X msg 248 579 width \$1;
#X floatatom 248 557 5 1 10 0 - - -;
#X obj 95 361 t a b b;
#X obj 248 482 sel 0;
#X obj 94 256 change;
#X obj 447 313 sel 1;
#X msg 447 386 start;
#X obj 226 -22 r vj-vol;
#X obj 226 5 t f f;
#X obj 229 36 -;
#X obj -284 37 expr abs($f1)*0.3+1;
#X obj -340 77 scale 1;
#X obj -298 420 scale 1;
#X obj 94 342 scale 1;
#X obj -79 127 random 2;
#X obj -153 208 * 0.8;
#X obj 319 421 * 0.6;
#X obj -148 601 * 0.3;
#X obj -295 625 colorRGB 0.4 0.6 0.75 0.3;
#X obj -340 235 colorRGB 0.1 0.3 0.75 0.8;
#X obj 95 561 colorRGB 0.6 1 0.7 0.6;
#X obj -244 396 expr abs($f1)*0.2+1;
#X floatatom -276 513 5 0 0 0 - - -;
#X obj -332 528 rotateXYZ 0 0 0;
#X obj -276 471 k_count 0.005 1;
#X obj -276 493 expr 30*(abs($f1- 0.5)-0.5);
#X floatatom 221 373 5 0 0 0 - - -;
#X obj 95 449 rotateXYZ 0 0 0;
#X obj 114 406 expr 40*(abs($f1- 0.5)-0.5);
#X obj 114 384 k_count 0.002 1;
#X obj 248 535 + 1;
#X obj 176 316 k_range 0 1 1.2 1.3;
#X obj 95 428 translateXYZ 0 0 -6;
#X obj -95 506 + 2;
#X obj 248 509 random 2;
#X obj -95 478 random 2;
#X obj 248 458 k_count 1 10;
#X obj -95 427 k_count 1 7;
#X obj -26 639 vj_ruler3d;
#X obj 2 578 t a a;
#X msg 2 616 \$1 \$2 \$3;
#X msg 29 600 \$4 \$5 \$6;
#X obj -332 550 t a a;
#X obj -333 572 separator;
#X obj -26 554 separator;
#X obj 312 585 vj_ruler3d;
#X obj 340 524 t a a;
#X msg 340 562 \$1 \$2 \$3;
#X msg 367 546 \$4 \$5 \$6;
#X obj 312 500 separator;
#X obj 95 469 t a a;
#X obj 95 493 separator;
#X msg 166 613 scale 1.5 \, read data/tron.txt \, speed 100 \, length
700 \, width 1 \, point 1 \, start;
#X obj -341 151 t a a;
#X obj -341 173 separator;
#X obj -246 178 vj_ruler3d;
#X obj -218 102 t a a;
#X msg -218 155 \$1 \$2 \$3;
#X msg -191 139 \$4 \$5 \$6;
#X obj -246 78 separator;
#X msg -263 292 scale 3 \, read data/cockpit.txt \, speed 50 \, length
1800 \, width 1 \, start;
#X obj 447 338 t b b;
#X obj 338 274 s toudp;
#X obj 338 247 packOSC;
#X msg 339 206 send /gh /10 \$1;
#X msg 356 169 send /gh /10-1 \$1;
#X msg 471 129 send /gh /10-2 \$1;
#X msg 473 164 send /gh /10-3 \$1;
#X msg 348 103 send /gh /10-4 \$1;
#X obj 348 48 sel 1;
#X msg 348 74 1;
#X obj 471 106 * 0.5;
#X msg -198 673 scale 7 \, read data/cockpit_2.txt \, speed 70 \, length
1300 \, width 1 \, point 1 \, start;
#X obj -340 7 r \$0-head;
#X obj 216 272 s \$0-head;
#X obj 94 292 r \$0-head;
#X obj -298 369 r \$0-head;
#X obj 487 338 s \$0-bang;
#X obj -261 266 r \$0-bang;
#X obj -195 652 r \$0-bang;
#X obj 167 589 r \$0-bang;
#X obj 187 202 s \$0-alpha;
#X obj -153 184 r \$0-alpha;
#X obj -148 579 r \$0-alpha;
#X obj 319 399 r \$0-alpha;
#X obj 447 411 s \$0-start;
#X obj -192 266 r \$0-start;
#X obj -126 643 r \$0-start;
#X obj 184 653 r \$0-start;
#X obj 104 75 t b b;
#X msg 154 78 1;
#X obj 229 60 * 0.5;
#X obj 228 86 s \$0-vol;
#X obj -276 14 r \$0-vol;
#X obj -231 365 r \$0-vol;
#X obj 176 291 r \$0-vol;
#X floatatom -476 143 5 0 0 0 - - -;
#X obj -532 158 rotateXYZ 0 0 0;
#X obj -476 101 k_count 0.005 1;
#X obj -476 123 expr 50*(abs($f1- 0.5)-0.5);
#X obj 447 364 del 200;
#X obj -295 671 linemodel;
#X obj 95 611 linemodel;
#X obj -340 285 linemodel;
#X obj 30 -7 r touchosc;
#X obj 30 17 routeOSC /vj;
#X floatatom 30 63 5 0 0 0 - - -;
#X obj 30 41 route /35;
#X connect 0 0 45 0;
#X connect 1 0 53 0;
#X connect 2 0 3 0;
#X connect 2 0 4 0;
#X connect 3 0 1 1;
#X connect 4 0 1 0;
#X connect 5 0 137 1;
#X connect 6 0 5 0;
#X connect 7 0 131 0;
#X connect 7 1 132 0;
#X connect 7 2 10 0;
#X connect 8 0 6 0;
#X connect 9 0 48 0;
#X connect 10 0 9 0;
#X connect 11 0 46 0;
#X connect 12 0 52 0;
#X connect 13 0 14 0;
#X connect 13 0 15 0;
#X connect 14 0 12 1;
#X connect 15 0 12 0;
#X connect 16 0 135 1;
#X connect 17 0 16 0;
#X connect 18 0 57 0;
#X connect 18 1 58 0;
#X connect 18 2 71 0;
#X connect 19 0 69 0;
#X connect 20 0 21 0;
#X connect 20 0 25 0;
#X connect 20 0 105 0;
#X connect 21 0 22 0;
#X connect 21 1 23 0;
#X connect 22 0 24 0;
#X connect 22 0 38 0;
#X connect 23 0 24 0;
#X connect 24 0 38 0;
#X connect 25 0 115 0;
#X connect 26 0 123 0;
#X connect 27 0 20 0;
#X connect 28 0 39 0;
#X connect 28 0 98 0;
#X connect 28 0 103 0;
#X connect 28 0 108 0;
#X connect 29 0 47 0;
#X connect 30 0 54 0;
#X connect 31 0 32 0;
#X connect 31 0 33 0;
#X connect 32 0 30 1;
#X connect 33 0 30 0;
#X connect 34 0 136 1;
#X connect 35 0 34 0;
#X connect 36 0 66 0;
#X connect 36 1 63 0;
#X connect 36 2 70 0;
#X connect 37 0 68 0;
#X connect 38 0 28 0;
#X connect 39 0 95 0;
#X connect 40 0 119 0;
#X connect 41 0 42 0;
#X connect 42 0 43 1;
#X connect 42 1 43 0;
#X connect 43 0 125 0;
#X connect 44 0 45 1;
#X connect 45 0 7 0;
#X connect 46 0 18 0;
#X connect 47 0 36 0;
#X connect 48 0 8 0;
#X connect 49 0 53 4;
#X connect 50 0 54 4;
#X connect 51 0 52 4;
#X connect 52 0 135 0;
#X connect 53 0 137 0;
#X connect 54 0 136 0;
#X connect 55 0 46 1;
#X connect 56 0 57 1;
#X connect 57 0 76 0;
#X connect 58 0 59 0;
#X connect 59 0 56 0;
#X connect 60 0 61 2;
#X connect 61 0 84 0;
#X connect 62 0 60 0;
#X connect 63 0 62 0;
#X connect 64 0 35 0;
#X connect 65 0 47 1;
#X connect 66 0 61 0;
#X connect 67 0 17 0;
#X connect 68 0 64 0;
#X connect 69 0 67 0;
#X connect 70 0 37 0;
#X connect 71 0 19 0;
#X connect 73 0 74 0;
#X connect 73 1 75 0;
#X connect 74 0 72 1;
#X connect 75 0 72 2;
#X connect 76 0 77 0;
#X connect 76 1 78 0;
#X connect 77 0 12 0;
#X connect 78 0 72 0;
#X connect 80 0 81 0;
#X connect 80 1 82 0;
#X connect 81 0 79 1;
#X connect 82 0 79 2;
#X connect 83 0 79 0;
#X connect 84 0 85 0;
#X connect 84 1 83 0;
#X connect 85 0 30 0;
#X connect 86 0 136 1;
#X connect 87 0 88 0;
#X connect 87 1 93 0;
#X connect 88 0 1 0;
#X connect 90 0 91 0;
#X connect 90 1 92 0;
#X connect 91 0 89 1;
#X connect 92 0 89 2;
#X connect 93 0 89 0;
#X connect 94 0 137 1;
#X connect 95 0 134 0;
#X connect 95 1 111 0;
#X connect 97 0 96 0;
#X connect 98 0 97 0;
#X connect 99 0 97 0;
#X connect 100 0 97 0;
#X connect 101 0 97 0;
#X connect 102 0 97 0;
#X connect 103 0 104 0;
#X connect 104 0 102 0;
#X connect 105 0 100 0;
#X connect 106 0 135 1;
#X connect 107 0 0 0;
#X connect 109 0 29 0;
#X connect 110 0 11 0;
#X connect 112 0 94 0;
#X connect 113 0 106 0;
#X connect 114 0 86 0;
#X connect 116 0 49 0;
#X connect 117 0 51 0;
#X connect 118 0 50 0;
#X connect 120 0 137 1;
#X connect 121 0 135 1;
#X connect 122 0 136 1;
#X connect 123 0 27 0;
#X connect 123 1 124 0;
#X connect 124 0 38 0;
#X connect 125 0 126 0;
#X connect 127 0 44 0;
#X connect 128 0 55 0;
#X connect 129 0 65 0;
#X connect 130 0 131 1;
#X connect 131 0 87 0;
#X connect 132 0 133 0;
#X connect 133 0 130 0;
#X connect 134 0 40 0;
#X connect 135 3 73 0;
#X connect 136 3 80 0;
#X connect 137 3 90 0;
#X connect 138 0 139 0;
#X connect 139 0 141 0;
#X connect 140 0 20 0;
#X connect 141 0 140 0;
#X coords 0 -1 1 1 110 35 1 100 100;
