#N canvas 417 23 889 754 10;
#X obj -340 66 gemhead;
#X obj -340 186 alpha;
#X obj -297 173 loadbang;
#X msg -297 197 1;
#X msg -266 197 auto 1;
#X floatatom -341 324 5 0 0 1 total - -;
#X floatatom -315 302 5 0 0 1 now - -;
#X obj -340 146 rotateXYZ 0 0 0;
#X msg -142 241 width \$1;
#X floatatom -142 219 5 1 10 0 - - -;
#X obj -282 117 k_count 0.2 360;
#X obj -340 115 t a b b;
#X obj -79 154 + 1;
#X obj -340 220 colorRGB 1 1 1 0.1;
#X obj -79 100 sel 0;
#X obj -79 76 k_count 1 5;
#X obj -297 394 gemhead;
#X obj -297 514 alpha;
#X obj -254 501 loadbang;
#X msg -254 525 1;
#X msg -223 525 auto 1;
#X floatatom -294 662 5 0 0 1 total - -;
#X floatatom -268 640 5 0 0 1 now - -;
#X obj -297 474 rotateXYZ 0 0 0;
#X msg -95 552 width \$1;
#X floatatom -95 530 5 1 10 0 - - -;
#X obj -297 443 t a b b;
#X obj -36 428 sel 0;
#X obj -36 404 k_count 1 5;
#X obj -297 548 colorRGB 0.2 0.4 0.7 0.3;
#X obj 106 118 hsl 100 15 0 1 0 0 empty empty Alpha 5 7 0 10 -258113
-1 -1 9900 1;
#X obj 103 173 sel 0;
#X msg 103 225 0;
#X msg 134 201 1;
#X obj 134 226 f;
#X floatatom 157 175 5 0 0 0 - - -;
#X obj -122 432 * 0.3;
#X obj -199 578 loadbang;
#X obj 103 74 loadbang;
#X msg 103 97 0;
#X obj 96 286 tgl 15 0 empty empty empty 17 7 0 10 -262144 -1 -1 1
1;
#X obj 32 157 sel 1 0;
#X obj 6 22 r touchosc;
#X floatatom 24 98 5 0 0 0 - - -;
#X obj 6 47 routeOSC /gemctl;
#X obj 6 71 route /72;
#X obj 95 312 gemhead;
#X obj 95 432 alpha;
#X obj 138 419 loadbang;
#X msg 138 443 1;
#X msg 169 443 auto 1;
#X floatatom 120 564 5 0 0 1 total - -;
#X floatatom 195 560 5 0 0 1 now - -;
#X obj 95 392 rotateXYZ 0 0 0;
#X msg 297 470 width \$1;
#X floatatom 297 448 5 1 10 0 - - -;
#X obj 95 361 t a b b;
#X obj 356 346 sel 0;
#X obj 356 322 k_count 1 5;
#X obj 193 496 loadbang;
#X obj 270 202 s toudp;
#X obj 270 175 packOSC;
#X floatatom 270 113 5 0 0 0 - - -;
#X obj 378 153 spigot;
#X msg 270 134 send /gh /17 \$1;
#X obj 402 192 % 10;
#X obj 452 219 % 10;
#X obj 486 249 % 10;
#X msg 335 226 send /gh /14 \$1;
#X msg 361 251 send /gh /15 \$1;
#X msg 365 285 send /gh /16 \$1;
#X obj 146 260 change;
#X obj -75 290 sel 1;
#X obj 262 238 loadbang;
#X msg 261 258 0;
#X obj 95 516 linemodel;
#X obj 270 350 * 0.4;
#X obj 153 363 k_count 0.6 360;
#X obj -252 331 loadbang;
#X obj -340 270 linemodel;
#X obj -297 598 linemodel;
#X floatatom -218 631 5 0 0 0 - - -;
#X floatatom -252 294 5 0 0 0 - - -;
#X obj -36 482 + 1;
#X obj -79 127 random 1;
#X obj -36 455 random 2;
#X obj 356 400 + 2;
#X obj 356 373 random 2;
#X obj 95 466 colorRGB 0.2 0.4 0.7 0.3;
#X obj -239 445 k_count 0.3 360;
#X msg -137 297 start;
#X msg 193 521 scale 3.5 \, read data/geo2.txt \, speed 1 \, length
100 \, width 1 \, start;
#X msg -254 353 scale 3.3 \, read data/geo2.txt \, speed 50 \, length
3000 \, width 1 \, start;
#X msg -200 600 scale 3 \, read data/geo2.txt \, speed 100 \, length
600 \, width 1 \, start;
#X obj -206 202 * 0.3;
#X connect 0 0 11 0;
#X connect 1 0 13 0;
#X connect 2 0 3 0;
#X connect 2 0 4 0;
#X connect 3 0 1 1;
#X connect 4 0 1 0;
#X connect 7 0 1 0;
#X connect 8 0 79 1;
#X connect 9 0 8 0;
#X connect 10 0 7 2;
#X connect 11 0 7 0;
#X connect 11 1 10 0;
#X connect 11 2 15 0;
#X connect 12 0 9 0;
#X connect 13 0 79 0;
#X connect 14 0 84 0;
#X connect 15 0 14 0;
#X connect 16 0 26 0;
#X connect 17 0 29 0;
#X connect 18 0 19 0;
#X connect 18 0 20 0;
#X connect 19 0 17 1;
#X connect 20 0 17 0;
#X connect 23 0 17 0;
#X connect 24 0 80 1;
#X connect 25 0 24 0;
#X connect 26 0 23 0;
#X connect 26 1 89 0;
#X connect 26 2 28 0;
#X connect 27 0 85 0;
#X connect 28 0 27 0;
#X connect 29 0 80 0;
#X connect 30 0 31 0;
#X connect 30 0 35 0;
#X connect 31 0 32 0;
#X connect 31 1 33 0;
#X connect 32 0 34 0;
#X connect 32 0 71 0;
#X connect 33 0 34 0;
#X connect 34 0 71 0;
#X connect 35 0 36 0;
#X connect 35 0 62 0;
#X connect 35 0 75 1;
#X connect 35 0 76 0;
#X connect 35 0 79 1;
#X connect 35 0 80 1;
#X connect 35 0 94 0;
#X connect 36 0 29 4;
#X connect 37 0 93 0;
#X connect 38 0 39 0;
#X connect 39 0 30 0;
#X connect 40 0 0 0;
#X connect 40 0 16 0;
#X connect 40 0 41 0;
#X connect 40 0 46 0;
#X connect 40 0 63 1;
#X connect 40 0 72 0;
#X connect 42 0 44 0;
#X connect 43 0 30 0;
#X connect 44 0 45 0;
#X connect 45 0 43 0;
#X connect 46 0 56 0;
#X connect 47 0 88 0;
#X connect 48 0 49 0;
#X connect 48 0 50 0;
#X connect 49 0 47 1;
#X connect 50 0 47 0;
#X connect 52 0 67 0;
#X connect 53 0 47 0;
#X connect 54 0 75 1;
#X connect 55 0 54 0;
#X connect 56 0 53 0;
#X connect 56 1 77 0;
#X connect 56 2 58 0;
#X connect 57 0 87 0;
#X connect 58 0 57 0;
#X connect 59 0 91 0;
#X connect 61 0 60 0;
#X connect 62 0 64 0;
#X connect 64 0 61 0;
#X connect 65 0 68 0;
#X connect 66 0 69 0;
#X connect 67 0 70 0;
#X connect 68 0 63 0;
#X connect 68 0 61 0;
#X connect 69 0 63 0;
#X connect 69 0 61 0;
#X connect 70 0 63 0;
#X connect 70 0 61 0;
#X connect 71 0 40 0;
#X connect 72 0 90 0;
#X connect 73 0 74 0;
#X connect 74 0 40 0;
#X connect 75 1 51 0;
#X connect 75 2 52 0;
#X connect 76 0 88 4;
#X connect 77 0 53 3;
#X connect 77 0 53 2;
#X connect 78 0 92 0;
#X connect 79 0 5 0;
#X connect 79 1 6 0;
#X connect 79 2 82 0;
#X connect 80 0 21 0;
#X connect 80 1 22 0;
#X connect 80 2 81 0;
#X connect 81 0 66 0;
#X connect 82 0 65 0;
#X connect 83 0 25 0;
#X connect 84 0 12 0;
#X connect 85 0 83 0;
#X connect 86 0 55 0;
#X connect 87 0 86 0;
#X connect 88 0 75 0;
#X connect 89 0 23 2;
#X connect 89 0 23 1;
#X connect 90 0 80 1;
#X connect 90 0 79 1;
#X connect 90 0 75 1;
#X connect 91 0 75 1;
#X connect 92 0 79 1;
#X connect 93 0 80 1;
#X connect 94 0 13 4;
#X coords 0 -1 1 1 110 35 1 100 100;
