#N canvas 592 62 848 737 10;
#X obj 260 47 t a b;
#X obj 287 71 f 0;
#X obj 313 71 + 1;
#X obj 260 130 separator;
#X obj 260 162 translateXYZ 0 0 0;
#X floatatom 326 -237 5 0 0 0 - - -;
#X obj 326 -193 mtof;
#X floatatom 326 -169 5 0 0 0 - - -;
#X obj 260 224 t a b;
#X obj 287 248 f 0;
#X obj 314 248 + 1;
#X obj 260 357 separator;
#X obj 260 192 repeat 10;
#X obj 260 391 translateXYZ 0 0 0;
#X floatatom 388 265 5 0 0 0 - - -;
#X obj 341 248 % 10;
#X obj 341 301 / 10;
#X obj 388 244 expr $f1+$f2*10;
#X obj 260 417 scale;
#X obj 260 -65 translateXYZ 0.35 -0.35 0;
#X obj 260 24 alpha;
#X msg 135 -36 auto 1;
#X msg 210 -35 1;
#X obj 135 -81 loadbang;
#X obj 388 284 tabread \$0-music;
#X obj 471 75 r x_size;
#X floatatom 471 99 5 0 0 0 - - -;
#X obj 342 123 expr ($f1*($f2*2))-$f2;
#X obj 341 330 k_range 0 1 4 -4;
#X obj 260 -32 repeat 20;
#X obj 342 71 % 20;
#X obj 342 97 / 20;
#X obj 560 208 table \$0-music 200;
#X obj 105 121 hsl 100 15 0 0.8 0 0 empty empty Alpha 5 8 0 10 -258113
-1 -1 9900 1;
#X obj 121 181 sel 0;
#X msg 121 233 0;
#X msg 152 209 1;
#X obj 152 234 f;
#X msg 102 70 0;
#X obj 101 41 loadbang;
#X obj 341 274 t f f;
#X obj 326 -263 r vj-pitch-2;
#X obj 326 -215 * 100;
#X obj 353 -125 k_range 0 1000 0 1;
#X obj 326 -104 k_range 0 1000 1 0;
#X obj 326 -148 t f f;
#X obj 560 180 tabwrite~ \$0-music;
#X obj 560 135 catch~ vol-9;
#X obj 551 82 tgl 15 0 empty empty empty 17 7 0 10 -262144 -1 -1 1
1;
#X obj 551 104 metro 10;
#X obj 260 446 circle 3;
#X obj 388 306 + 0.05;
#X obj 261 -3 colorRGB 0.3 0.1 0 0.5;
#X obj 260 -97 gemhead 1;
#X connect 0 0 3 0;
#X connect 0 1 1 0;
#X connect 1 0 2 0;
#X connect 2 0 30 0;
#X connect 3 0 4 0;
#X connect 4 0 12 0;
#X connect 5 0 42 0;
#X connect 6 0 7 0;
#X connect 7 0 45 0;
#X connect 8 0 11 0;
#X connect 8 1 9 0;
#X connect 9 0 10 0;
#X connect 10 0 15 0;
#X connect 11 0 13 0;
#X connect 12 0 8 0;
#X connect 13 0 18 0;
#X connect 14 0 24 0;
#X connect 15 0 9 1;
#X connect 15 0 40 0;
#X connect 16 0 28 0;
#X connect 17 0 14 0;
#X connect 18 0 50 0;
#X connect 19 0 29 0;
#X connect 20 0 0 0;
#X connect 21 0 20 0;
#X connect 22 0 20 1;
#X connect 23 0 21 0;
#X connect 23 0 22 0;
#X connect 24 0 51 0;
#X connect 25 0 26 0;
#X connect 26 0 27 1;
#X connect 27 0 4 1;
#X connect 28 0 13 2;
#X connect 29 0 52 0;
#X connect 30 0 1 1;
#X connect 30 0 17 1;
#X connect 30 0 31 0;
#X connect 31 0 27 0;
#X connect 33 0 34 0;
#X connect 34 0 35 0;
#X connect 34 1 36 0;
#X connect 34 1 52 4;
#X connect 35 0 37 0;
#X connect 36 0 37 0;
#X connect 37 0 48 0;
#X connect 37 0 53 0;
#X connect 38 0 33 0;
#X connect 39 0 38 0;
#X connect 40 0 16 0;
#X connect 40 1 17 0;
#X connect 41 0 5 0;
#X connect 42 0 6 0;
#X connect 43 0 52 3;
#X connect 44 0 52 1;
#X connect 45 0 44 0;
#X connect 45 1 43 0;
#X connect 47 0 46 0;
#X connect 48 0 49 0;
#X connect 49 0 46 0;
#X connect 51 0 18 1;
#X connect 52 0 20 0;
#X connect 53 0 19 0;
#X coords 0 -1 1 1 110 40 1 100 100;
