#N canvas 780 360 543 524 10;
#X obj 105 118 hsl 85 15 0 1 0 0 empty empty Alpha 5 7 0 10 -258113
-1 -1 0 1;
#X obj 103 173 sel 0;
#X msg 103 225 0;
#X msg 134 201 1;
#X obj 134 226 f;
#X floatatom 192 172 5 0 0 0 - - -;
#X obj 102 42 loadbang;
#X msg 102 97 0;
#X obj 146 292 tgl 15 0 empty empty empty 17 7 0 10 -262144 -1 -1 0
1;
#X obj 232 338 s toudp;
#X obj 232 311 packOSC;
#X floatatom 232 249 5 0 0 0 - - -;
#X msg 232 270 send /gh /17 \$1;
#X obj 314 204 % 10;
#X obj 353 206 % 10;
#X obj 405 215 % 10;
#X msg 313 237 send /gh /14 \$1;
#X msg 339 262 send /gh /15 \$1;
#X msg 343 296 send /gh /16 \$1;
#X obj 146 260 change;
#X obj 120 358 sel 1;
#X msg 119 430 start;
#X obj 34 195 t f f;
#X obj 33 226 -;
#X obj 119 379 t b b;
#X obj 119 406 del 200;
#X obj 147 338 s \$0-head;
#X obj 192 203 s \$0-alpha;
#X obj 119 452 s \$0-start;
#X obj 164 377 s \$0-load;
#X obj 406 189 r \$0-1;
#X obj 354 183 r \$0-2;
#X obj 312 183 r \$0-3;
#X obj 232 227 r \$0-alpha;
#X obj 33 274 s \$0-vol;
#X obj 34 165 r vj-vol;
#X obj 120 318 t f f;
#X obj 102 67 t b b;
#X msg 187 233 1;
#X obj 33 252 * 0.3;
#N canvas 678 154 646 603 draw 0;
#X obj -340 66 gemhead;
#X obj -341 273 alpha;
#X obj -298 260 loadbang;
#X msg -298 284 1;
#X msg -267 284 auto 1;
#X obj -340 164 rotateXYZ 0 0 0;
#X msg -142 241 width \$1;
#X floatatom -142 219 5 1 10 0 - - -;
#X obj -282 135 k_count 0.2 360;
#X obj -340 115 t a b b;
#X obj -172 166 + 1;
#X obj -341 307 colorRGB 1 1 1 0.1;
#X obj -172 112 sel 0;
#X floatatom -253 381 5 0 0 0 - - -;
#X obj -206 202 * 0.3;
#X obj -284 52 expr abs($f1)*0.3+1;
#X obj -340 91 scale 1;
#X msg -287 439 scale 8.3 \, read data/geo2.txt \, speed 50 \, length
3000 \, width 1 \, start;
#X obj -172 139 random 2;
#X obj -172 88 k_count 1 3;
#X obj -284 28 r \$0-vol;
#X obj -340 -3 r \$0-head;
#X obj -206 179 r \$0-alpha;
#X obj -287 331 r \$0-start;
#X obj -276 419 r \$0-load;
#X obj -238 404 s \$0-3;
#X obj -340 190 t a a;
#X obj -340 217 separator;
#X obj -275 217 separator;
#X obj -95 320 translateXYZ;
#X obj -96 375 sphere 0.1;
#X obj -94 349 colorRGB 1 0 0;
#X obj -64 279 unpack f f f;
#X obj -341 357 linemodel;
#X obj -339 487 outlet;
#X connect 0 0 16 0;
#X connect 1 0 11 0;
#X connect 2 0 3 0;
#X connect 2 0 4 0;
#X connect 3 0 1 1;
#X connect 4 0 1 0;
#X connect 5 0 26 0;
#X connect 6 0 33 1;
#X connect 7 0 6 0;
#X connect 8 0 5 2;
#X connect 9 0 5 0;
#X connect 9 1 8 0;
#X connect 9 2 19 0;
#X connect 10 0 7 0;
#X connect 11 0 33 0;
#X connect 12 0 18 0;
#X connect 13 0 25 0;
#X connect 14 0 11 4;
#X connect 15 0 16 1;
#X connect 16 0 9 0;
#X connect 17 0 33 1;
#X connect 18 0 10 0;
#X connect 19 0 12 0;
#X connect 20 0 15 0;
#X connect 21 0 0 0;
#X connect 22 0 14 0;
#X connect 23 0 33 1;
#X connect 24 0 17 0;
#X connect 26 0 27 0;
#X connect 26 1 28 0;
#X connect 27 0 1 0;
#X connect 29 0 31 0;
#X connect 31 0 30 0;
#X connect 32 0 29 1;
#X connect 32 1 29 2;
#X connect 32 2 29 3;
#X connect 33 0 32 0;
#X connect 33 0 34 0;
#X connect 33 2 13 0;
#X restore -45 137 pd draw 1;
#N canvas 309 130 1050 588 draw 0;
#X obj -363 -888 gemhead;
#X obj -363 -768 alpha;
#X obj -320 -781 loadbang;
#X msg -320 -757 1;
#X msg -289 -757 auto 1;
#X obj -363 -808 rotateXYZ 0 0 0;
#X msg -161 -730 width \$1;
#X floatatom -161 -752 5 1 10 0 - - -;
#X obj -363 -839 t a b b;
#X obj -102 -854 sel 0;
#X obj -102 -878 k_count 1 5;
#X obj -363 -734 colorRGB 0.2 0.4 0.7 0.3;
#X obj -188 -850 * 0.3;
#X floatatom -168 -576 5 0 0 0 - - -;
#X obj -102 -800 + 1;
#X obj -102 -827 random 2;
#X obj -305 -837 k_count 0.3 360;
#X obj -364 -862 scale 1;
#X obj -310 -886 expr abs($f1)*0.2+1;
#X msg -266 -682 scale 8 \, read data/geo2.txt \, speed 500 \, length
600 \, width 1 \, start;
#X obj -310 -908 r \$0-vol;
#X obj -310 -711 r \$0-start;
#X obj -410 -914 r \$0-head;
#X obj -241 -705 r \$0-load;
#X obj -168 -553 s \$0-2;
#X obj -188 -874 r \$0-alpha;
#X obj -303 -492 vj_ruler3d;
#X obj -275 -553 t a a;
#X msg -275 -515 \$1 \$2 \$3;
#X msg -246 -531 \$4 \$5 \$6;
#X obj -303 -577 separator;
#X obj -449 -723 t a a;
#X obj -450 -696 separator;
#X obj -363 -684 linemodel;
#X obj -387 -559 outlet;
#X connect 0 0 17 0;
#X connect 1 0 11 0;
#X connect 2 0 3 0;
#X connect 2 0 4 0;
#X connect 3 0 1 1;
#X connect 4 0 1 0;
#X connect 5 0 31 0;
#X connect 6 0 33 1;
#X connect 7 0 6 0;
#X connect 8 0 5 0;
#X connect 8 1 16 0;
#X connect 8 2 10 0;
#X connect 9 0 15 0;
#X connect 10 0 9 0;
#X connect 11 0 33 0;
#X connect 12 0 11 4;
#X connect 13 0 24 0;
#X connect 14 0 7 0;
#X connect 15 0 14 0;
#X connect 16 0 5 2;
#X connect 16 0 5 1;
#X connect 17 0 8 0;
#X connect 18 0 17 1;
#X connect 19 0 33 1;
#X connect 20 0 18 0;
#X connect 21 0 33 1;
#X connect 22 0 0 0;
#X connect 23 0 19 0;
#X connect 25 0 12 0;
#X connect 27 0 28 0;
#X connect 27 1 29 0;
#X connect 28 0 26 1;
#X connect 29 0 26 2;
#X connect 30 0 26 0;
#X connect 31 0 32 0;
#X connect 31 1 30 0;
#X connect 32 0 1 0;
#X connect 33 0 34 0;
#X connect 33 2 13 0;
#X connect 33 3 27 0;
#X restore -47 164 pd draw 2;
#N canvas 597 88 941 576 draw-3 0;
#X obj 49 53 gemhead;
#X obj 45 216 alpha;
#X obj 88 203 loadbang;
#X msg 88 227 1;
#X msg 119 227 auto 1;
#X floatatom 81 394 5 0 0 1 now - -;
#X obj 49 133 rotateXYZ 0 0 0;
#X msg 251 211 width \$1;
#X floatatom 251 189 5 1 10 0 - - -;
#X obj 49 102 t a b b;
#X obj 310 130 sel 0;
#X obj 310 106 k_count 1 5;
#X obj 224 91 * 0.4;
#X obj 107 104 k_count 0.6 360;
#X obj 310 184 + 2;
#X obj 310 157 random 2;
#X obj 48 83 scale 1;
#X obj 102 59 expr abs($f1)*0.4+1;
#X msg 142 369 scale 7.5 \, read data/geo2.txt \, speed 40 \, length
100 \, width 1 \, start;
#X obj 103 32 r \$0-vol;
#X obj 99 302 r \$0-start;
#X obj 49 12 r \$0-head;
#X obj 142 343 r \$0-load;
#X obj 81 417 s \$0-1;
#X obj 223 61 r \$0-alpha;
#X obj 45 270 colorRGB 0.2 0.4 0.7 0.3;
#X obj 48 350 linemodel;
#X obj 48 154 t a a;
#X obj 48 181 separator;
#X obj 113 181 separator;
#X obj 293 284 translateXYZ;
#X obj 293 310 colorRGB 1 0 0;
#X obj 324 243 unpack f f f;
#X obj 293 335 sphere 0.1;
#X obj 53 453 outlet;
#X connect 0 0 16 0;
#X connect 1 0 25 0;
#X connect 2 0 3 0;
#X connect 2 0 4 0;
#X connect 3 0 1 1;
#X connect 4 0 1 0;
#X connect 5 0 23 0;
#X connect 6 0 27 0;
#X connect 7 0 26 1;
#X connect 8 0 7 0;
#X connect 9 0 6 0;
#X connect 9 1 13 0;
#X connect 9 2 11 0;
#X connect 10 0 15 0;
#X connect 11 0 10 0;
#X connect 12 0 25 4;
#X connect 13 0 6 3;
#X connect 13 0 6 2;
#X connect 14 0 8 0;
#X connect 15 0 14 0;
#X connect 16 0 9 0;
#X connect 17 0 16 1;
#X connect 18 0 26 1;
#X connect 19 0 17 0;
#X connect 20 0 26 1;
#X connect 21 0 0 0;
#X connect 22 0 18 0;
#X connect 24 0 12 0;
#X connect 25 0 26 0;
#X connect 26 0 32 0;
#X connect 26 0 34 0;
#X connect 26 2 5 0;
#X connect 27 0 28 0;
#X connect 27 1 29 0;
#X connect 28 0 1 0;
#X connect 29 0 30 0;
#X connect 30 0 31 0;
#X connect 31 0 33 0;
#X connect 32 0 30 1;
#X connect 32 1 30 2;
#X connect 32 2 30 3;
#X restore -46 194 pd draw-3;
#N canvas 685 227 482 449 draw-4 0;
#X obj -334 -43 gemhead;
#X obj -340 186 alpha;
#X obj -297 173 loadbang;
#X msg -297 197 1;
#X msg -266 197 auto 1;
#X obj -334 37 rotateXYZ 0 0 0;
#X msg -142 241 width \$1;
#X floatatom -142 219 5 1 10 0 - - -;
#X obj -334 6 t a b b;
#X obj -130 187 + 1;
#X obj -130 133 sel 0;
#X obj -206 202 * 0.3;
#X obj -278 -57 expr abs($f1)*0.3+1;
#X obj -334 -18 scale 1;
#X obj -130 160 random 2;
#X obj -130 109 k_count 1 3;
#X obj -278 -81 r \$0-vol;
#X obj -334 -112 r \$0-head;
#X obj -206 179 r \$0-alpha;
#X obj -286 244 r \$0-start;
#X obj -275 332 r \$0-load;
#X obj -276 8 k_count 0.3 360;
#X obj -340 220 colorRGB 0.15 0.4 0.8 0.1;
#X obj -340 270 linemodel;
#X obj -336 68 t a a;
#X obj -336 95 separator;
#X obj -271 95 separator;
#X obj -91 198 translateXYZ;
#X obj -91 224 colorRGB 1 0 0;
#X obj -60 157 unpack f f f;
#X obj -91 249 sphere 0.1;
#X obj -341 300 outlet;
#X msg -275 354 scale 5.3 \, read data/geo2.txt \, speed 20 \, length
600 \, width 1 \, start;
#X connect 0 0 13 0;
#X connect 1 0 22 0;
#X connect 2 0 3 0;
#X connect 2 0 4 0;
#X connect 3 0 1 1;
#X connect 4 0 1 0;
#X connect 5 0 24 0;
#X connect 6 0 23 1;
#X connect 7 0 6 0;
#X connect 8 0 5 0;
#X connect 8 1 21 0;
#X connect 8 2 15 0;
#X connect 9 0 7 0;
#X connect 10 0 14 0;
#X connect 11 0 22 4;
#X connect 12 0 13 1;
#X connect 13 0 8 0;
#X connect 14 0 9 0;
#X connect 15 0 10 0;
#X connect 16 0 12 0;
#X connect 17 0 0 0;
#X connect 18 0 11 0;
#X connect 19 0 23 1;
#X connect 20 0 32 0;
#X connect 21 0 5 2;
#X connect 22 0 23 0;
#X connect 23 0 29 0;
#X connect 23 0 31 0;
#X connect 24 0 25 0;
#X connect 24 1 26 0;
#X connect 25 0 1 0;
#X connect 26 0 27 0;
#X connect 27 0 28 0;
#X connect 28 0 30 0;
#X connect 29 0 27 1;
#X connect 29 1 27 2;
#X connect 29 2 27 3;
#X connect 32 0 23 1;
#X restore -45 221 pd draw-4;
#N canvas 558 60 535 615 draw-5 0;
#X obj -340 66 gemhead;
#X obj -338 283 alpha;
#X obj -295 270 loadbang;
#X msg -295 294 1;
#X msg -264 294 auto 1;
#X obj -340 146 rotateXYZ 0 0 0;
#X msg -140 338 width \$1;
#X floatatom -140 316 5 1 10 0 - - -;
#X obj -340 115 t a b b;
#X obj -128 284 + 1;
#X obj -130 133 sel 0;
#X obj -204 299 * 0.3;
#X obj -284 52 expr abs($f1)*0.3+1;
#X obj -340 91 scale 1;
#X obj -128 257 random 2;
#X obj -130 109 k_count 1 3;
#X obj -284 28 r \$0-vol;
#X obj -340 -3 r \$0-head;
#X obj -204 276 r \$0-alpha;
#X obj -284 341 r \$0-start;
#X obj -273 429 r \$0-load;
#X obj -282 117 k_count 0.2 360;
#X obj -338 317 colorRGB 0.3 0.3 0.3 0.1;
#X obj -338 367 linemodel;
#X obj -338 186 t a a;
#X obj -338 213 separator;
#X obj -273 213 separator;
#X obj -93 316 translateXYZ;
#X obj -93 342 colorRGB 1 0 0;
#X obj -62 275 unpack f f f;
#X obj -93 367 sphere 0.1;
#X obj -344 405 outlet;
#X msg -273 451 scale 5.3 \, read data/geo2.txt \, speed 20 \, length
200 \, width 1 \, start;
#X connect 0 0 13 0;
#X connect 1 0 22 0;
#X connect 2 0 3 0;
#X connect 2 0 4 0;
#X connect 3 0 1 1;
#X connect 4 0 1 0;
#X connect 5 0 24 0;
#X connect 6 0 23 1;
#X connect 7 0 6 0;
#X connect 8 0 5 0;
#X connect 8 1 21 0;
#X connect 8 2 15 0;
#X connect 9 0 7 0;
#X connect 10 0 14 0;
#X connect 11 0 22 4;
#X connect 12 0 13 1;
#X connect 13 0 8 0;
#X connect 14 0 9 0;
#X connect 15 0 10 0;
#X connect 16 0 12 0;
#X connect 17 0 0 0;
#X connect 18 0 11 0;
#X connect 19 0 23 1;
#X connect 20 0 32 0;
#X connect 21 0 5 1;
#X connect 21 0 5 3;
#X connect 22 0 23 0;
#X connect 23 0 29 0;
#X connect 23 0 31 0;
#X connect 24 0 25 0;
#X connect 24 1 26 0;
#X connect 25 0 1 0;
#X connect 26 0 27 0;
#X connect 27 0 28 0;
#X connect 28 0 30 0;
#X connect 29 0 27 1;
#X connect 29 1 27 2;
#X connect 29 2 27 3;
#X connect 32 0 23 1;
#X restore -44 250 pd draw-5;
#X obj -20 -4 r touchosc;
#X obj -20 20 routeOSC /vj;
#X floatatom -20 66 5 0 0 0 - - -;
#X obj 220 -69 r hid;
#X obj 220 -47 t a a a;
#X obj 295 21 route key_145;
#X obj 220 31 spigot;
#X obj 194 118 tgl 15 0 empty empty empty 17 7 0 10 -262144 -1 -1 0
1;
#X obj 220 80 sel 1;
#X obj 283 115 line;
#X msg 283 92 \$1 20000;
#X obj 220 55 route key_39;
#X obj 123 17 s totouch;
#X obj 123 -10 packOSC;
#X obj -20 44 route /35 /t10;
#X msg 123 -35 send /vj/t10 \$1;
#X msg 92 -59 send /vj/35 \$1;
#X connect 0 0 1 0;
#X connect 0 0 5 0;
#X connect 0 0 61 0;
#X connect 1 0 2 0;
#X connect 1 1 3 0;
#X connect 2 0 4 0;
#X connect 2 0 19 0;
#X connect 3 0 4 0;
#X connect 4 0 19 0;
#X connect 5 0 27 0;
#X connect 6 0 37 0;
#X connect 7 0 0 0;
#X connect 8 0 36 0;
#X connect 10 0 9 0;
#X connect 11 0 12 0;
#X connect 12 0 10 0;
#X connect 13 0 16 0;
#X connect 14 0 17 0;
#X connect 15 0 18 0;
#X connect 16 0 10 0;
#X connect 17 0 10 0;
#X connect 18 0 10 0;
#X connect 19 0 8 0;
#X connect 20 0 24 0;
#X connect 21 0 28 0;
#X connect 22 0 23 1;
#X connect 22 1 23 0;
#X connect 23 0 39 0;
#X connect 24 0 25 0;
#X connect 24 1 29 0;
#X connect 25 0 21 0;
#X connect 30 0 15 0;
#X connect 31 0 14 0;
#X connect 32 0 13 0;
#X connect 33 0 11 0;
#X connect 35 0 22 0;
#X connect 36 0 20 0;
#X connect 36 1 26 0;
#X connect 37 0 7 0;
#X connect 37 1 38 0;
#X connect 38 0 19 0;
#X connect 39 0 34 0;
#X connect 45 0 46 0;
#X connect 46 0 59 0;
#X connect 47 0 0 0;
#X connect 48 0 49 0;
#X connect 49 0 51 0;
#X connect 49 2 50 0;
#X connect 50 0 51 1;
#X connect 51 0 56 0;
#X connect 52 0 55 0;
#X connect 52 0 60 0;
#X connect 53 0 52 0;
#X connect 54 0 0 0;
#X connect 55 0 54 0;
#X connect 56 0 53 0;
#X connect 58 0 57 0;
#X connect 59 0 47 0;
#X connect 59 1 52 0;
#X connect 60 0 58 0;
#X connect 61 0 58 0;
#X coords 0 -1 1 1 110 35 1 100 100;
