#N canvas 417 23 889 754 10;
#X obj -340 66 gemhead;
#X obj -340 186 alpha;
#X obj -297 173 loadbang;
#X msg -297 197 1;
#X msg -266 197 auto 1;
#X floatatom -341 324 5 0 0 1 total - -;
#X floatatom -315 302 5 0 0 1 now - -;
#X obj -340 146 rotateXYZ 0 0 0;
#X msg -142 241 width \$1;
#X floatatom -142 219 5 1 10 0 - - -;
#X obj -282 117 k_count 0.2 360;
#X obj -340 115 t a b b;
#X obj -79 154 + 1;
#X obj -340 220 colorRGB 1 1 1 0.1;
#X obj -79 100 sel 0;
#X obj -297 394 gemhead;
#X obj -297 514 alpha;
#X obj -254 501 loadbang;
#X msg -254 525 1;
#X msg -223 525 auto 1;
#X floatatom -294 662 5 0 0 1 total - -;
#X floatatom -268 640 5 0 0 1 now - -;
#X obj -297 474 rotateXYZ 0 0 0;
#X msg -95 552 width \$1;
#X floatatom -95 530 5 1 10 0 - - -;
#X obj -297 443 t a b b;
#X obj -36 428 sel 0;
#X obj -36 404 k_count 1 5;
#X obj -297 548 colorRGB 0.2 0.4 0.7 0.3;
#X obj 106 118 hsl 100 15 0 1 0 0 empty empty Alpha 5 7 0 10 -258113
-1 -1 9900 1;
#X obj 103 173 sel 0;
#X msg 103 225 0;
#X msg 134 201 1;
#X obj 134 226 f;
#X floatatom 157 175 5 0 0 0 - - -;
#X obj -122 432 * 0.3;
#X obj 103 74 loadbang;
#X msg 103 97 0;
#X obj 96 286 tgl 15 0 empty empty empty 17 7 0 10 -262144 -1 -1 1
1;
#X obj 32 157 sel 1 0;
#X obj 6 22 r touchosc;
#X floatatom 24 98 5 0 0 0 - - -;
#X obj 6 47 routeOSC /gemctl;
#X obj 6 71 route /72;
#X obj 95 312 gemhead;
#X obj 95 432 alpha;
#X obj 138 419 loadbang;
#X msg 138 443 1;
#X msg 169 443 auto 1;
#X floatatom 120 564 5 0 0 1 total - -;
#X floatatom 195 560 5 0 0 1 now - -;
#X obj 95 392 rotateXYZ 0 0 0;
#X msg 297 470 width \$1;
#X floatatom 297 448 5 1 10 0 - - -;
#X obj 95 361 t a b b;
#X obj 356 346 sel 0;
#X obj 356 322 k_count 1 5;
#X obj 270 202 s toudp;
#X obj 270 175 packOSC;
#X floatatom 270 113 5 0 0 0 - - -;
#X obj 378 153 spigot;
#X msg 270 134 send /gh /17 \$1;
#X obj 402 192 % 10;
#X obj 452 219 % 10;
#X obj 486 249 % 10;
#X msg 335 226 send /gh /14 \$1;
#X msg 361 251 send /gh /15 \$1;
#X msg 365 285 send /gh /16 \$1;
#X obj 146 260 change;
#X obj -75 290 sel 1;
#X obj 262 238 loadbang;
#X msg 261 258 0;
#X obj 270 350 * 0.4;
#X obj 153 363 k_count 0.6 360;
#X floatatom -218 631 5 0 0 0 - - -;
#X floatatom -252 294 5 0 0 0 - - -;
#X obj -36 482 + 1;
#X obj -36 455 random 2;
#X obj 356 400 + 2;
#X obj 356 373 random 2;
#X obj 95 466 colorRGB 0.2 0.4 0.7 0.3;
#X obj -239 445 k_count 0.3 360;
#X msg -137 297 start;
#X obj -206 202 * 0.3;
#X obj -214 -39 r vj-vol;
#X obj -215 -9 t f f;
#X obj -212 22 -;
#X obj -284 52 expr abs($f1)*0.3+1;
#X obj -340 91 scale 1;
#X obj -298 420 scale 1;
#X obj -244 396 expr abs($f1)*0.2+1;
#X obj 94 342 scale 1;
#X obj 148 318 expr abs($f1)*0.4+1;
#X obj 95 516 linemodel;
#X obj -340 270 linemodel;
#X obj -297 598 linemodel;
#X obj -76 311 t b b;
#X obj -138 273 del 200;
#X msg -200 600 scale 8 \, read data/geo2.txt \, speed 500 \, length
600 \, width 1 \, start;
#X msg -286 352 scale 8.3 \, read data/geo2.txt \, speed 50 \, length
3000 \, width 1 \, start;
#X msg 192 521 scale 7.5 \, read data/geo2.txt \, speed 40 \, length
100 \, width 1 \, start;
#X obj -79 127 random 2;
#X obj -79 76 k_count 1 3;
#X connect 0 0 88 0;
#X connect 1 0 13 0;
#X connect 2 0 3 0;
#X connect 2 0 4 0;
#X connect 3 0 1 1;
#X connect 4 0 1 0;
#X connect 7 0 1 0;
#X connect 8 0 94 1;
#X connect 9 0 8 0;
#X connect 10 0 7 2;
#X connect 11 0 7 0;
#X connect 11 1 10 0;
#X connect 11 2 102 0;
#X connect 12 0 9 0;
#X connect 13 0 94 0;
#X connect 14 0 101 0;
#X connect 15 0 89 0;
#X connect 16 0 28 0;
#X connect 17 0 18 0;
#X connect 17 0 19 0;
#X connect 18 0 16 1;
#X connect 19 0 16 0;
#X connect 22 0 16 0;
#X connect 23 0 95 1;
#X connect 24 0 23 0;
#X connect 25 0 22 0;
#X connect 25 1 81 0;
#X connect 25 2 27 0;
#X connect 26 0 77 0;
#X connect 27 0 26 0;
#X connect 28 0 95 0;
#X connect 29 0 30 0;
#X connect 29 0 34 0;
#X connect 30 0 31 0;
#X connect 30 1 32 0;
#X connect 31 0 33 0;
#X connect 31 0 68 0;
#X connect 32 0 33 0;
#X connect 33 0 68 0;
#X connect 34 0 35 0;
#X connect 34 0 59 0;
#X connect 34 0 72 0;
#X connect 34 0 83 0;
#X connect 34 0 93 1;
#X connect 34 0 94 1;
#X connect 34 0 95 1;
#X connect 35 0 28 4;
#X connect 36 0 37 0;
#X connect 37 0 29 0;
#X connect 38 0 0 0;
#X connect 38 0 15 0;
#X connect 38 0 39 0;
#X connect 38 0 44 0;
#X connect 38 0 60 1;
#X connect 38 0 69 0;
#X connect 40 0 42 0;
#X connect 41 0 29 0;
#X connect 42 0 43 0;
#X connect 43 0 41 0;
#X connect 44 0 91 0;
#X connect 45 0 80 0;
#X connect 46 0 47 0;
#X connect 46 0 48 0;
#X connect 47 0 45 1;
#X connect 48 0 45 0;
#X connect 50 0 64 0;
#X connect 51 0 45 0;
#X connect 52 0 93 1;
#X connect 53 0 52 0;
#X connect 54 0 51 0;
#X connect 54 1 73 0;
#X connect 54 2 56 0;
#X connect 55 0 79 0;
#X connect 56 0 55 0;
#X connect 58 0 57 0;
#X connect 59 0 61 0;
#X connect 61 0 58 0;
#X connect 62 0 65 0;
#X connect 63 0 66 0;
#X connect 64 0 67 0;
#X connect 65 0 60 0;
#X connect 65 0 58 0;
#X connect 66 0 60 0;
#X connect 66 0 58 0;
#X connect 67 0 60 0;
#X connect 67 0 58 0;
#X connect 68 0 38 0;
#X connect 69 0 96 0;
#X connect 70 0 71 0;
#X connect 71 0 38 0;
#X connect 72 0 80 4;
#X connect 73 0 51 3;
#X connect 73 0 51 2;
#X connect 74 0 63 0;
#X connect 75 0 62 0;
#X connect 76 0 24 0;
#X connect 77 0 76 0;
#X connect 78 0 53 0;
#X connect 79 0 78 0;
#X connect 80 0 93 0;
#X connect 81 0 22 2;
#X connect 81 0 22 1;
#X connect 82 0 93 1;
#X connect 82 0 94 1;
#X connect 82 0 95 1;
#X connect 83 0 13 4;
#X connect 84 0 85 0;
#X connect 85 0 86 1;
#X connect 85 1 86 0;
#X connect 86 0 87 0;
#X connect 86 0 90 0;
#X connect 86 0 92 0;
#X connect 87 0 88 1;
#X connect 88 0 11 0;
#X connect 89 0 25 0;
#X connect 90 0 89 1;
#X connect 91 0 54 0;
#X connect 92 0 91 1;
#X connect 93 1 49 0;
#X connect 93 2 50 0;
#X connect 94 0 5 0;
#X connect 94 1 6 0;
#X connect 94 2 75 0;
#X connect 95 0 20 0;
#X connect 95 1 21 0;
#X connect 95 2 74 0;
#X connect 96 0 97 0;
#X connect 96 1 99 0;
#X connect 96 1 98 0;
#X connect 96 1 100 0;
#X connect 97 0 82 0;
#X connect 98 0 95 1;
#X connect 99 0 94 1;
#X connect 100 0 93 1;
#X connect 101 0 12 0;
#X connect 102 0 14 0;
#X coords 0 -1 1 1 110 35 1 100 100;
