#N canvas 714 261 625 433 10;
#X obj -8 46 gemhead;
#X obj 66 30 loadbang;
#X msg 147 342 1 \$1;
#X msg 198 342 2 \$1;
#X msg 242 342 3 \$1;
#X msg 293 342 4 \$1;
#X msg 153 144 0 \$1;
#X obj 188 173 tgl 15 0 empty empty empty 0 -6 0 8 -262144 -1 -1 1
1;
#X floatatom 184 261 5 0 0 0 - - -, f 5;
#X obj -8 157 rotateXYZ 0 0 0;
#X obj -8 132 translateXYZ 0 0 0;
#X obj -8 105 color 1 1 1;
#X obj 188 196 metro 100;
#X floatatom 245 263 5 0 0 0 - - -, f 5;
#X floatatom 306 258 5 0 0 0 - - -, f 5;
#X floatatom 381 260 5 0 0 0 - - -, f 5;
#X floatatom 127 263 5 0 0 0 - - -, f 5;
#X obj 129 223 drunk 20;
#X obj 186 221 drunk 20;
#X obj 247 223 drunk 20;
#X obj 308 218 drunk 20;
#X obj 383 220 drunk 20;
#X obj -8 189 vj_form 1 5 3;
#X msg 67 84 range 0 30 \, read data/form_1.txt;
#X obj 314 44 cnv 15 100 60 empty empty empty 20 12 0 14 -195568 -66577
0;
#N canvas 0 22 450 300 gemwin 0;
#X obj 132 136 gemwin;
#X obj 67 89 outlet;
#X obj 67 10 inlet;
#X obj 67 41 route create;
#X msg 67 70 set destroy;
#X msg 142 68 set create;
#X msg 249 113 destroy;
#X msg 132 112 reset \, create \, 1;
#X connect 2 0 3 0;
#X connect 3 0 4 0;
#X connect 3 0 7 0;
#X connect 3 1 5 0;
#X connect 3 1 6 0;
#X connect 4 0 1 0;
#X connect 5 0 1 0;
#X connect 6 0 0 0;
#X connect 7 0 0 0;
#X restore 319 83 pd gemwin;
#X msg 319 64 destroy;
#X text 315 43 Create window:;
#X obj 66 52 t b b;
#X connect 0 0 11 0;
#X connect 1 0 28 0;
#X connect 2 0 22 2;
#X connect 3 0 22 2;
#X connect 4 0 22 2;
#X connect 5 0 22 2;
#X connect 6 0 22 2;
#X connect 7 0 12 0;
#X connect 8 0 2 0;
#X connect 9 0 22 0;
#X connect 10 0 9 0;
#X connect 11 0 10 0;
#X connect 12 0 17 0;
#X connect 12 0 18 0;
#X connect 12 0 19 0;
#X connect 12 0 20 0;
#X connect 12 0 21 0;
#X connect 13 0 3 0;
#X connect 14 0 4 0;
#X connect 15 0 5 0;
#X connect 16 0 6 0;
#X connect 17 0 16 0;
#X connect 18 0 8 0;
#X connect 19 0 13 0;
#X connect 20 0 14 0;
#X connect 21 0 15 0;
#X connect 23 0 22 1;
#X connect 25 0 26 0;
#X connect 26 0 25 0;
#X connect 28 0 6 0;
#X connect 28 1 23 0;
