#N canvas 252 22 1254 769 10;
#X obj 60 55 inlet;
#X obj 466 69 inlet;
#X obj 60 304 curve 2;
#X obj 60 130 t a b b;
#X obj 226 -4 bng 15 250 50 0 empty empty empty 17 7 0 10 -262144 -1
-1;
#X obj 72 188 expr ($f1/2)*-1;
#X obj 205 232 expr ($f1/2)*-1;
#X obj 178 207 t f f;
#X obj 175 256 expr ($f1/2);
#X obj 75 221 pack f f 0;
#X obj 103 255 pack f f 0;
#X obj 122 464 curve 2;
#X obj 122 290 t a b b;
#X obj 134 348 expr ($f1/2)*-1;
#X obj 267 392 expr ($f1/2)*-1;
#X obj 240 367 t f f;
#X obj 241 415 expr ($f1/2);
#X obj 137 381 pack f f 0;
#X obj 165 415 pack f f 0;
#X msg 7 266 width 2;
#X obj 6 235 loadbang;
#X obj 382 291 t a b;
#X obj 382 374 separator;
#X obj 382 405 translateXYZ;
#X obj 355 168 separator;
#X obj 454 207 f;
#X obj 480 207 + 1;
#X obj 454 338 k_range 0 1 0 1;
#X obj 571 232 expr ($f1/2)*-1;
#X obj 544 207 t f f;
#X obj 544 253 expr ($f1/2);
#X obj 481 307 expr ($f1/2)*-1+0.03;
#X obj 382 452 rectangle 0.03 0.01;
#X obj 433 146 t f f;
#X obj 458 171 - 1;
#X obj 178 162 v \$0-h;
#X obj 72 164 v \$0-w;
#X obj 264 52 v \$0-w;
#X obj 316 57 v \$0-h;
#X obj 134 324 v \$0-h;
#X obj 240 322 v \$0-w;
#X obj 480 284 v \$0-w;
#X obj 544 179 v \$0-h;
#X obj 409 610 text2d;
#X msg 542 463 text \$1;
#X obj 409 480 separator;
#X obj 542 438 expr int($f1*100)/100;
#X msg 496 594 8;
#X obj 496 567 once;
#X obj 409 546 t a b;
#X obj 60 86 t a a a a a a;
#X obj 382 429 t a a;
#X obj 542 394 k_range 0 1 0 10;
#X obj 454 257 t f b b f;
#X obj 550 126 unpack f f;
#X obj 409 507 translateXYZ -0.2 0 0;
#X obj 994 493 coll form-1.txt;
#C restore;
#X obj 1052 371 getdir 2;
#X obj 1052 397 pack s s;
#X obj 1120 373 symbol;
#X msg 1052 448 read \$1;
#X obj 264 25 init \$2;
#X obj 318 16 init \$3;
#X obj 1052 425 makesymbol %s/%s.txt;
#X msg 964 434 length;
#X obj 1052 342 t b b a;
#X floatatom 994 523 5 0 0 0 - - -;
#X obj 699 261 t a b;
#X obj 699 344 separator;
#X obj 699 375 translateXYZ;
#X obj 697 144 separator;
#X obj 771 151 f;
#X obj 797 151 + 1;
#X obj 771 204 / 9;
#X obj 771 326 k_range 0 1 0 1;
#X obj 944 248 expr ($f1/2)*-1;
#X obj 917 223 t f f;
#X obj 917 269 expr ($f1/2);
#X obj 807 115 - 1;
#X obj 912 728 text2d;
#X obj 911 582 separator;
#X msg 999 712 8;
#X obj 999 685 once;
#X obj 912 664 t a b;
#X floatatom 954 535 5 0 0 0 - - -;
#X floatatom 1038 526 5 0 0 0 - - -;
#X obj 953 564 v \$0-repeat;
#X obj 964 457 t b a;
#X obj 775 98 t f f;
#X floatatom 776 38 5 0 0 0 - - -;
#X obj 745 279 v \$0-h;
#X obj 771 227 t f b b f f;
#X obj 745 302 expr ($f1/2)*-1;
#X obj 917 195 v \$0-w;
#X obj 779 74 + 1;
#X obj 682 683 circle 0.05;
#X msg 601 705 draw line \, width 2;
#X obj 600 684 loadbang;
#X obj 740 446 > 0;
#X obj 771 178 t f f;
#X obj 804 413 - 1;
#X msg 991 648 text \$1;
#X obj 684 581 rectangle 0.01 0.05;
#X obj 704 548 translateXYZ;
#X obj 700 441 spigot;
#X obj 684 505 separator;
#X obj 695 476 t a a;
#X obj 912 625 translateXYZ 0 -0.1 0;
#X obj 683 627 translateXYZ;
#X obj 792 661 + 0.05;
#X obj 961 370 inlet;
#X obj 466 93 route wNum hNum range read;
#X obj 699 236 repeat 0;
#X obj 828 151 % 0;
#X obj 817 581 / 50;
#X obj 792 550 / 50;
#X obj 824 617 / 50;
#X obj 811 371 + 0;
#X obj 382 266 repeat 11;
#X obj 511 207 % 11;
#X obj 454 234 / 10;
#X obj 884 482 v \$0-w;
#X obj 809 503 expr $f1*(1-1/$f2);
#X obj 776 461 t f b;
#X connect 0 0 50 0;
#X connect 1 0 111 0;
#X connect 3 0 2 0;
#X connect 3 1 36 0;
#X connect 3 2 35 0;
#X connect 4 0 61 0;
#X connect 4 0 62 0;
#X connect 5 0 9 0;
#X connect 5 0 10 0;
#X connect 6 0 10 1;
#X connect 7 0 8 0;
#X connect 7 1 6 0;
#X connect 8 0 9 1;
#X connect 9 0 2 1;
#X connect 10 0 2 2;
#X connect 12 0 11 0;
#X connect 12 1 40 0;
#X connect 12 2 39 0;
#X connect 13 0 17 1;
#X connect 13 0 18 1;
#X connect 14 0 18 0;
#X connect 15 0 16 0;
#X connect 15 1 14 0;
#X connect 16 0 17 0;
#X connect 17 0 11 1;
#X connect 18 0 11 2;
#X connect 19 0 2 0;
#X connect 19 0 11 0;
#X connect 20 0 19 0;
#X connect 21 0 22 0;
#X connect 21 1 25 0;
#X connect 22 0 23 0;
#X connect 23 0 51 0;
#X connect 24 0 118 0;
#X connect 25 0 26 0;
#X connect 25 0 120 0;
#X connect 26 0 119 0;
#X connect 27 0 23 2;
#X connect 28 0 27 3;
#X connect 29 0 30 0;
#X connect 29 1 28 0;
#X connect 30 0 27 4;
#X connect 31 0 23 1;
#X connect 33 0 118 1;
#X connect 33 0 119 1;
#X connect 33 1 34 0;
#X connect 34 0 120 1;
#X connect 35 0 7 0;
#X connect 36 0 5 0;
#X connect 39 0 13 0;
#X connect 40 0 15 0;
#X connect 41 0 31 0;
#X connect 42 0 29 0;
#X connect 44 0 43 0;
#X connect 45 0 55 0;
#X connect 46 0 44 0;
#X connect 47 0 43 1;
#X connect 48 0 47 0;
#X connect 49 0 43 0;
#X connect 49 1 48 0;
#X connect 50 0 70 0;
#X connect 50 1 3 0;
#X connect 50 2 12 0;
#X connect 50 3 24 0;
#X connect 51 0 32 0;
#X connect 51 1 45 0;
#X connect 52 0 46 0;
#X connect 53 0 27 0;
#X connect 53 1 41 0;
#X connect 53 2 42 0;
#X connect 53 3 52 0;
#X connect 54 0 52 3;
#X connect 54 1 52 4;
#X connect 54 1 123 0;
#X connect 55 0 49 0;
#X connect 56 0 66 0;
#X connect 56 0 84 0;
#X connect 56 1 85 0;
#X connect 57 0 58 0;
#X connect 58 0 63 0;
#X connect 59 0 58 1;
#X connect 60 0 56 0;
#X connect 61 0 37 0;
#X connect 62 0 38 0;
#X connect 63 0 60 0;
#X connect 64 0 87 0;
#X connect 65 0 64 0;
#X connect 65 1 57 0;
#X connect 65 2 59 0;
#X connect 66 0 101 0;
#X connect 66 0 114 0;
#X connect 66 0 115 0;
#X connect 66 0 116 0;
#X connect 67 0 68 0;
#X connect 67 1 71 0;
#X connect 68 0 69 0;
#X connect 69 0 104 0;
#X connect 70 0 112 0;
#X connect 71 0 72 0;
#X connect 71 0 99 0;
#X connect 72 0 113 0;
#X connect 73 0 91 0;
#X connect 74 0 69 1;
#X connect 75 0 74 3;
#X connect 76 0 77 0;
#X connect 76 1 75 0;
#X connect 77 0 74 4;
#X connect 78 0 73 1;
#X connect 80 0 107 0;
#X connect 81 0 79 1;
#X connect 82 0 81 0;
#X connect 83 0 79 0;
#X connect 83 1 82 0;
#X connect 84 0 86 0;
#X connect 86 0 89 0;
#X connect 87 0 86 0;
#X connect 87 1 56 0;
#X connect 88 0 112 1;
#X connect 88 0 113 1;
#X connect 88 1 78 0;
#X connect 89 0 94 0;
#X connect 90 0 92 0;
#X connect 91 0 74 0;
#X connect 91 1 90 0;
#X connect 91 2 93 0;
#X connect 91 4 98 0;
#X connect 92 0 117 0;
#X connect 93 0 76 0;
#X connect 94 0 88 0;
#X connect 96 0 95 0;
#X connect 97 0 96 0;
#X connect 98 0 104 1;
#X connect 99 0 73 0;
#X connect 99 1 100 0;
#X connect 100 0 56 0;
#X connect 101 0 79 0;
#X connect 102 0 108 0;
#X connect 103 0 102 0;
#X connect 104 0 106 0;
#X connect 105 0 103 0;
#X connect 106 0 105 0;
#X connect 106 1 80 0;
#X connect 107 0 83 0;
#X connect 108 0 95 0;
#X connect 109 0 108 2;
#X connect 110 0 56 0;
#X connect 111 1 33 0;
#X connect 111 2 54 0;
#X connect 111 3 65 0;
#X connect 112 0 67 0;
#X connect 113 0 71 1;
#X connect 114 0 102 2;
#X connect 115 0 103 2;
#X connect 116 0 109 0;
#X connect 117 0 69 2;
#X connect 118 0 21 0;
#X connect 119 0 25 1;
#X connect 120 0 53 0;
#X connect 121 0 122 1;
#X connect 122 0 115 1;
#X connect 122 0 114 1;
#X connect 122 0 116 1;
#X connect 123 0 122 0;
#X connect 123 1 121 0;
