#N canvas 204 173 1079 608 10;
#X obj 106 118 hsl 100 15 0 1 0 0 empty empty Alpha 5 7 0 10 -258113
-1 -1 7700 1;
#X obj 103 173 sel 0;
#X msg 103 225 0;
#X msg 134 201 1;
#X obj 134 226 f;
#X obj 103 41 loadbang;
#X msg 103 67 0;
#X obj -66 280 s toudp;
#X obj -66 253 packOSC;
#X floatatom -66 191 5 0 0 0 - - -;
#X obj -55 50 r touchosc;
#X floatatom -55 120 5 0 0 0 - - -;
#X obj 229 368 pix_texture;
#X obj 229 342 pix_flip;
#X obj 305 156 tgl 15 0 empty empty empty 17 7 0 10 -262144 -1 -1 0
1;
#X msg 305 176 rectangle \$1;
#X obj 305 109 loadbang;
#X msg 305 134 0;
#X obj 445 151 pix_separator;
#X obj 544 185 t a a a a;
#X obj 584 294 GEMglPolygonMode;
#X obj 607 183 GLdefine GL_FRONT_AND_BACK;
#X obj 654 157 loadbang;
#X obj 654 205 GLdefine GL_FILL;
#N canvas 726 280 467 479 glsl 0;
#X obj 97 75 gemhead;
#X obj 97 329 glsl_program;
#X obj 170 265 pack 0 0;
#X obj 191 245 t b f;
#X obj 191 200 change;
#X obj 129 216 change;
#X msg 170 288 link \$1 \$2;
#X floatatom 191 226 2 0 0 0 ID - -;
#X floatatom 129 239 2 0 0 0 ID - -;
#X obj 97 180 glsl_fragment;
#X obj 97 117 glsl_vertex;
#X obj 206 74 t b b;
#X obj 206 37 bng 30 250 50 0 empty empty empty 17 7 0 10 -262144 -1
-1;
#X obj 206 9 loadbang;
#X obj -10 165 tgl 15 0 empty empty empty 17 7 0 10 -262144 -1 -1 0
1;
#X obj -10 190 metro 10;
#X obj -10 213 k_random 0.1 0.2;
#X msg -24 266 noise 0 0 0;
#X obj 97 357 outlet;
#X msg 209 376 vel \$1;
#X floatatom 209 352 5 0 0 0 - - -;
#X obj 209 324 randomF 0.1;
#X msg -10 235 noise 0 \$1 0;
#X obj 97 37 inlet;
#X msg 263 242 alpha \$1;
#X obj 272 207 inlet;
#X msg 174 114 open data/color.vert;
#X msg 108 150 open data/color.frag;
#X connect 0 0 10 0;
#X connect 1 0 18 0;
#X connect 2 0 6 0;
#X connect 3 0 2 0;
#X connect 3 1 2 1;
#X connect 4 0 7 0;
#X connect 5 0 8 0;
#X connect 6 0 1 0;
#X connect 7 0 3 0;
#X connect 8 0 2 0;
#X connect 9 0 1 0;
#X connect 9 1 4 0;
#X connect 10 0 9 0;
#X connect 10 1 5 0;
#X connect 11 0 26 0;
#X connect 11 1 27 0;
#X connect 12 0 11 0;
#X connect 13 0 12 0;
#X connect 14 0 15 0;
#X connect 15 0 16 0;
#X connect 15 0 21 0;
#X connect 16 0 22 0;
#X connect 17 0 1 0;
#X connect 19 0 1 0;
#X connect 20 0 19 0;
#X connect 21 0 20 0;
#X connect 22 0 1 0;
#X connect 23 0 0 0;
#X connect 24 0 1 0;
#X connect 25 0 24 0;
#X connect 26 0 10 0;
#X connect 27 0 9 0;
#X restore 539 39 pd glsl;
#N canvas 970 94 405 618 sphere 0;
#X obj -37 323 separator;
#X obj -3 -11 inlet;
#X obj -37 533 outlet;
#X obj -3 13 alpha;
#X obj 40 -13 tgl 15 0 empty empty empty 17 7 0 10 -262144 -1 -1 1
1;
#X msg 40 13 auto \$1;
#X obj -37 419 translateXYZ 0 0 0;
#X obj -5 76 t a b;
#X obj 86 58 f;
#X obj 122 58 + 1;
#X obj -37 445 rotateXYZ 0 0 0;
#X obj 87 272 unpack f f f f f f;
#X msg 87 151 0 1 0 0 0 0;
#X msg 100 177 0 -1 0 0 0 180;
#X msg 107 204 1 0 0 0 0 -90;
#X msg 128 227 -1 0 0 0 0 90;
#X msg 201 188 0 0 1 90 0 0;
#X msg 207 156 0 0 -1 -90 0 0;
#X obj 86 86 % 6;
#X obj 234 45 > 6;
#X obj 234 74 sel 1 0;
#X msg 236 98 0 0 0;
#X obj -37 380 rotateXYZ 0 0 0;
#X obj -8 350 unpack f f f;
#X obj 216 307 outlet;
#X obj 87 122 sel 0 1 2 3 4 5;
#X obj -37 274 scale 1;
#X msg -13 225 1;
#X msg 18 240 1.02;
#X obj 216 276 + 1;
#X obj 40 -35 loadbang;
#X obj 93 419 table \$0-tex 12;
#X obj 216 246 tabread \$0-tex;
#X obj 127 86 t f f f b;
#X msg 289 105 0 45 45;
#X obj -3 50 repeat 11;
#X obj 157 55 % 11;
#X connect 0 0 22 0;
#X connect 1 0 3 0;
#X connect 3 0 35 0;
#X connect 4 0 3 1;
#X connect 4 0 5 0;
#X connect 5 0 3 0;
#X connect 6 0 10 0;
#X connect 7 0 26 0;
#X connect 7 1 8 0;
#X connect 8 0 9 0;
#X connect 8 0 33 0;
#X connect 9 0 36 0;
#X connect 10 0 2 0;
#X connect 11 0 6 1;
#X connect 11 1 6 2;
#X connect 11 2 6 3;
#X connect 11 3 10 1;
#X connect 11 4 10 2;
#X connect 11 5 10 3;
#X connect 12 0 11 0;
#X connect 13 0 11 0;
#X connect 14 0 11 0;
#X connect 15 0 11 0;
#X connect 16 0 11 0;
#X connect 17 0 11 0;
#X connect 18 0 25 0;
#X connect 19 0 20 0;
#X connect 20 0 21 0;
#X connect 20 0 27 0;
#X connect 20 1 34 0;
#X connect 20 1 28 0;
#X connect 21 0 23 0;
#X connect 22 0 6 0;
#X connect 23 0 22 1;
#X connect 23 1 22 2;
#X connect 23 2 22 3;
#X connect 25 0 12 0;
#X connect 25 1 13 0;
#X connect 25 2 14 0;
#X connect 25 3 15 0;
#X connect 25 4 16 0;
#X connect 25 5 17 0;
#X connect 26 0 0 0;
#X connect 27 0 26 1;
#X connect 28 0 26 1;
#X connect 29 0 24 0;
#X connect 30 0 4 0;
#X connect 32 0 29 0;
#X connect 33 0 18 0;
#X connect 33 1 19 0;
#X connect 33 2 32 0;
#X connect 34 0 23 0;
#X connect 35 0 7 0;
#X connect 36 0 8 1;
#X restore 445 106 pd sphere;
#X obj 229 452 scale 0.91;
#X obj 363 392 pix_texture;
#X obj 363 366 pix_flip;
#X obj 363 452 scale 0.91;
#X obj 514 399 pix_texture;
#X obj 514 373 pix_flip;
#X obj 514 459 scale 0.91;
#X obj 544 157 scale 16;
#X obj 539 65 t a b;
#X obj 539 120 rotateXYZ;
#X obj 571 90 f;
#X obj 656 88 fmod 360;
#X obj 726 58 init \$1;
#X obj 724 90 expr if($f1==0 \, 16 \, $f1);
#X msg 578 -9 \$1 1000;
#X obj 578 13 line;
#X msg -66 212 send /gh /12 \$1;
#X obj 229 485 model data/mesh.obj;
#X obj 363 485 model data/mesh.obj;
#X obj 514 492 model data/mesh.obj;
#X obj 669 401 pix_texture;
#X obj 669 375 pix_flip;
#X obj 669 461 scale 0.91;
#X obj 669 494 model data/mesh.obj;
#X obj 193 101 bng 15 250 50 0 empty empty empty 17 7 0 10 -262144
-1 -1;
#X obj 127 400 tabwrite \$0-tex;
#X obj 127 304 repeat 12;
#X obj 127 352 t b f;
#X obj 127 328 k_count 1 12;
#X obj 127 277 loadbang;
#X obj 127 377 shuffle 6;
#X obj -55 74 routeOSC /gemctl;
#X obj -55 98 route /71;
#X obj -1 270 t b;
#X msg -1 304 send /gh /13 1;
#X obj 193 51 r ch-grid;
#X obj 600 88 + 0.3;
#X obj 808 178 r vj-vol;
#X floatatom 808 208 5 0 0 0 - - -;
#X obj 808 235 moses 0.1;
#X obj 808 314 line;
#X obj 808 289 \$1 1000;
#X obj 808 264 * 0.5;
#X obj 876 233 > 0.85;
#X obj 876 293 sel 1;
#X obj 876 262 change;
#X obj 229 313 pix_image grid/a3_1.png;
#X obj 514 338 pix_image grid/a5_1.png;
#X obj 363 332 pix_image grid/a3.png;
#X obj 669 340 pix_image grid/a8.png;
#X obj 441 190 gate 5 4;
#X obj 790 433 pix_texture;
#X obj 790 407 pix_flip;
#X obj 790 493 scale 0.91;
#X obj 790 526 model data/mesh.obj;
#X obj 790 372 pix_image grid/a5.png;
#X connect 0 0 1 0;
#X connect 0 0 40 0;
#X connect 0 0 9 0;
#X connect 0 0 59 0;
#X connect 1 0 2 0;
#X connect 1 1 3 0;
#X connect 2 0 4 0;
#X connect 3 0 4 0;
#X connect 4 0 24 0;
#X connect 5 0 6 0;
#X connect 6 0 0 0;
#X connect 8 0 7 0;
#X connect 9 0 42 0;
#X connect 10 0 57 0;
#X connect 11 0 0 0;
#X connect 12 0 26 0;
#X connect 13 0 12 0;
#X connect 14 0 15 0;
#X connect 15 0 12 0;
#X connect 15 0 27 0;
#X connect 15 0 30 0;
#X connect 15 0 46 0;
#X connect 15 0 77 0;
#X connect 16 0 17 0;
#X connect 17 0 14 0;
#X connect 18 0 76 1;
#X connect 19 0 25 0;
#X connect 19 1 20 0;
#X connect 21 0 20 1;
#X connect 22 0 21 0;
#X connect 22 0 23 0;
#X connect 23 0 20 2;
#X connect 24 0 34 0;
#X connect 25 0 18 0;
#X connect 25 1 76 0;
#X connect 26 0 43 0;
#X connect 27 0 29 0;
#X connect 28 0 27 0;
#X connect 29 0 44 0;
#X connect 30 0 32 0;
#X connect 31 0 30 0;
#X connect 32 0 45 0;
#X connect 33 0 19 0;
#X connect 34 0 35 0;
#X connect 34 1 36 0;
#X connect 35 0 33 0;
#X connect 36 0 35 2;
#X connect 36 0 35 3;
#X connect 36 0 62 0;
#X connect 37 0 36 1;
#X connect 38 0 39 0;
#X connect 39 0 33 1;
#X connect 40 0 41 0;
#X connect 41 0 24 1;
#X connect 42 0 8 0;
#X connect 46 0 48 0;
#X connect 47 0 46 0;
#X connect 48 0 49 0;
#X connect 50 0 55 0;
#X connect 52 0 54 0;
#X connect 53 0 56 0;
#X connect 53 1 51 1;
#X connect 54 0 53 0;
#X connect 55 0 52 0;
#X connect 56 0 51 0;
#X connect 57 0 58 0;
#X connect 58 0 11 0;
#X connect 59 0 60 0;
#X connect 60 0 8 0;
#X connect 61 0 50 0;
#X connect 62 0 37 0;
#X connect 63 0 64 0;
#X connect 64 0 65 0;
#X connect 64 0 69 0;
#X connect 65 1 68 0;
#X connect 66 0 62 1;
#X connect 67 0 66 0;
#X connect 68 0 67 0;
#X connect 69 0 71 0;
#X connect 70 0 50 0;
#X connect 71 0 70 0;
#X connect 72 0 13 0;
#X connect 73 0 31 0;
#X connect 74 0 28 0;
#X connect 75 0 47 0;
#X connect 76 0 72 0;
#X connect 76 1 74 0;
#X connect 76 2 73 0;
#X connect 76 3 75 0;
#X connect 76 4 81 0;
#X connect 77 0 79 0;
#X connect 78 0 77 0;
#X connect 79 0 80 0;
#X connect 81 0 78 0;
#X coords 0 -1 1 1 110 35 1 100 100;
