#N canvas 560 82 1044 841 10;
#X obj 105 118 hsl 85 15 0 1 0 0 empty empty Alpha 5 7 0 10 -258113
-1 -1 8200 1;
#X obj 103 173 sel 0;
#X msg 103 225 0;
#X msg 134 201 1;
#X obj 134 226 f;
#X obj 103 41 loadbang;
#X msg 103 67 0;
#X obj -66 280 s toudp;
#X obj -66 253 packOSC;
#X floatatom -66 191 5 0 0 0 - - -;
#X obj 206 325 tgl 15 0 empty empty empty 17 7 0 10 -262144 -1 -1 0
1;
#X msg 206 345 rectangle \$1;
#X obj 206 278 loadbang;
#X msg 206 303 0;
#N canvas 399 234 477 489 glsl 0;
#X obj 97 329 glsl_program;
#X obj 170 265 pack 0 0;
#X obj 191 245 t b f;
#X obj 191 200 change;
#X obj 129 216 change;
#X msg 170 288 link \$1 \$2;
#X floatatom 191 226 2 0 0 0 ID - -;
#X floatatom 129 239 2 0 0 0 ID - -;
#X obj 97 180 glsl_fragment;
#X obj 97 117 glsl_vertex;
#X obj 206 74 t b b;
#X obj 206 37 bng 30 250 50 0 empty empty empty 17 7 0 10 -262144 -1
-1;
#X obj 206 9 loadbang;
#X obj 97 357 outlet;
#X msg 291 432 vel \$1;
#X obj 97 37 inlet;
#X msg 271 242 alpha \$1;
#X obj 272 207 inlet;
#X msg 174 114 open data/noiseshape.vert;
#X msg 108 150 open data/noiseshape.frag;
#X floatatom 314 216 5 0 0 0 - - -;
#X obj 290 274 r vj-vol;
#X obj 290 300 t f f;
#X obj 290 327 -;
#X obj 291 384 spigot;
#X obj 290 354 abs;
#X floatatom 351 401 5 0 0 0 - - -;
#X obj 291 408 * 1;
#X msg 166 358 noise 0 0 0;
#X obj 97 75 gemhead;
#X connect 0 0 13 0;
#X connect 0 1 28 0;
#X connect 1 0 5 0;
#X connect 2 0 1 0;
#X connect 2 1 1 1;
#X connect 3 0 6 0;
#X connect 4 0 7 0;
#X connect 5 0 0 0;
#X connect 6 0 2 0;
#X connect 7 0 1 0;
#X connect 8 0 0 0;
#X connect 8 1 3 0;
#X connect 9 0 8 0;
#X connect 9 1 4 0;
#X connect 10 0 18 0;
#X connect 10 1 19 0;
#X connect 11 0 10 0;
#X connect 12 0 11 0;
#X connect 15 0 24 1;
#X connect 15 0 29 0;
#X connect 16 0 0 0;
#X connect 17 0 16 0;
#X connect 18 0 9 0;
#X connect 19 0 8 0;
#X connect 20 0 16 0;
#X connect 21 0 22 0;
#X connect 22 0 23 1;
#X connect 22 1 23 0;
#X connect 23 0 25 0;
#X connect 24 0 27 0;
#X connect 25 0 24 0;
#X connect 27 0 14 0;
#X connect 27 0 26 0;
#X connect 28 0 0 0;
#X connect 29 0 9 0;
#X restore 275 69 pd glsl;
#N canvas 970 94 405 618 sphere 1;
#X obj -37 323 separator;
#X obj -3 -11 inlet;
#X obj -37 533 outlet;
#X obj -3 13 alpha;
#X obj 40 -13 tgl 15 0 empty empty empty 17 7 0 10 -262144 -1 -1 1
1;
#X msg 40 13 auto \$1;
#X obj -37 419 translateXYZ 0 0 0;
#X obj -5 76 t a b;
#X obj 86 58 f;
#X obj 122 58 + 1;
#X obj -37 445 rotateXYZ 0 0 0;
#X obj 87 272 unpack f f f f f f;
#X msg 87 151 0 1 0 0 0 0;
#X msg 100 177 0 -1 0 0 0 180;
#X msg 107 204 1 0 0 0 0 -90;
#X msg 128 227 -1 0 0 0 0 90;
#X msg 201 188 0 0 1 90 0 0;
#X msg 207 156 0 0 -1 -90 0 0;
#X obj 86 86 % 6;
#X obj 234 45 > 6;
#X obj 234 74 sel 1 0;
#X msg 236 98 0 0 0;
#X obj -37 380 rotateXYZ 0 0 0;
#X obj -8 350 unpack f f f;
#X obj 216 307 outlet;
#X obj 87 122 sel 0 1 2 3 4 5;
#X obj -37 274 scale 1;
#X msg -13 225 1;
#X msg 18 240 1.02;
#X obj 216 276 + 1;
#X obj 40 -35 loadbang;
#X obj 93 419 table \$0-tex 12;
#X obj 216 246 tabread \$0-tex;
#X obj 127 86 t f f f b;
#X msg 289 105 0 45 45;
#X obj -3 50 repeat 6;
#X obj 157 55 % 6;
#X connect 0 0 22 0;
#X connect 1 0 3 0;
#X connect 3 0 35 0;
#X connect 4 0 3 1;
#X connect 4 0 5 0;
#X connect 5 0 3 0;
#X connect 6 0 10 0;
#X connect 7 0 26 0;
#X connect 7 1 8 0;
#X connect 8 0 9 0;
#X connect 8 0 33 0;
#X connect 9 0 36 0;
#X connect 10 0 2 0;
#X connect 11 0 6 1;
#X connect 11 1 6 2;
#X connect 11 2 6 3;
#X connect 11 3 10 1;
#X connect 11 4 10 2;
#X connect 11 5 10 3;
#X connect 12 0 11 0;
#X connect 13 0 11 0;
#X connect 14 0 11 0;
#X connect 15 0 11 0;
#X connect 16 0 11 0;
#X connect 17 0 11 0;
#X connect 18 0 25 0;
#X connect 19 0 20 0;
#X connect 20 0 21 0;
#X connect 20 0 27 0;
#X connect 20 1 34 0;
#X connect 20 1 28 0;
#X connect 21 0 23 0;
#X connect 22 0 6 0;
#X connect 23 0 22 1;
#X connect 23 1 22 2;
#X connect 23 2 22 3;
#X connect 25 0 12 0;
#X connect 25 1 13 0;
#X connect 25 2 14 0;
#X connect 25 3 15 0;
#X connect 25 4 16 0;
#X connect 25 5 17 0;
#X connect 26 0 0 0;
#X connect 27 0 26 1;
#X connect 28 0 26 1;
#X connect 29 0 24 0;
#X connect 30 0 4 0;
#X connect 32 0 29 0;
#X connect 33 0 18 0;
#X connect 33 1 19 0;
#X connect 33 2 32 0;
#X connect 34 0 23 0;
#X connect 35 0 7 0;
#X connect 36 0 8 1;
#X restore 275 224 pd sphere;
#X obj 275 95 t a b;
#X obj 275 150 rotateXYZ;
#X obj 309 120 f;
#X obj 378 117 fmod 360;
#X obj 462 88 init \$1;
#X obj 461 112 expr if($f1==0 \, 16 \, $f1);
#X msg 314 21 \$1 1000;
#X obj 314 43 line;
#X msg -66 212 send /gh /12 \$1;
#X obj 121 518 tabwrite \$0-tex;
#X obj 121 422 repeat 12;
#X obj 121 470 t b f;
#X obj 121 446 k_count 1 12;
#X obj 121 395 loadbang;
#X obj -1 270 t b;
#X obj 223 48 r ch-grid;
#X msg -1 304 send /gh /13 0;
#X obj 262 562 model data/sky.obj;
#X obj 275 173 alpha 1;
#X obj 273 343 pix_texture;
#X obj 273 318 pix_flip;
#X obj 275 200 scale 16;
#X obj 273 261 gate 2;
#X obj 121 495 shuffle 2;
#X msg 368 389 rectangle \$1;
#X obj 368 322 loadbang;
#X msg 368 347 0;
#X obj 479 574 model data/sky.obj;
#X obj 435 387 pix_texture;
#X obj 435 362 pix_flip;
#X obj 533 -105 r vj-vol;
#X obj 532 -76 t f f;
#X obj 533 -44 -;
#X obj 533 -21 abs;
#X obj 534 28 sel 1;
#X floatatom 578 -1 5 0 0 0 - - -;
#X obj 338 118 + 0.5;
#X obj 33 -32 r touchosc;
#X obj 33 -8 routeOSC /vj;
#X floatatom 33 38 5 0 0 0 - - -;
#X obj 314 -4 * 0.4;
#X obj 144 -167 r hid;
#X obj 144 -145 t a a a;
#X obj 219 -77 route key_145;
#X obj 144 -67 spigot;
#X obj 194 118 tgl 15 0 empty empty empty 17 7 0 10 -262144 -1 -1 0
1;
#X obj 144 -18 sel 1;
#X obj 207 17 line;
#X msg 207 -6 \$1 20000;
#X obj 144 -43 route key_37;
#X obj 272 295 pix_image data/metal_mesh.png;
#X obj 435 339 pix_image data/metal_mesh.png;
#X obj -35 141 s totouch;
#X obj -35 114 packOSC;
#X msg -66 65 send /vj/33 \$1;
#X msg -35 89 send /vj/t8 \$1;
#X obj 33 16 route /33 /t8;
#X obj 222 164 spigot;
#X obj 222 192 bng 15 250 50 0 empty empty empty 17 7 0 10 -262144
-1 -1;
#X obj 637 294 GEMglPolygonMode;
#X obj 683 189 loadbang;
#X obj 262 591 GEMglPolygonMode;
#X obj 308 488 loadbang;
#X obj 308 508 bng 15 250 50 0 empty empty empty 17 7 0 10 -262144
-1 -1;
#X obj 683 212 bng 15 250 50 0 empty empty empty 17 7 0 10 -262144
-1 -1;
#X obj 355 556 GLdefine GL_FILL;
#X obj 683 237 GLdefine GL_FRONT_AND_BACK;
#X obj 480 601 GEMglPolygonMode;
#X obj 526 498 loadbang;
#X obj 526 518 bng 15 250 50 0 empty empty empty 17 7 0 10 -262144
-1 -1;
#X obj 573 566 GLdefine GL_FILL;
#X obj 526 544 GLdefine GL_FRONT_AND_BACK;
#X obj 308 534 GLdefine GL_FRONT_AND_BACK;
#X obj 730 259 GLdefine GL_LINE;
#X obj 641 346 GEMglLineWidth 3;
#X obj 796 342 + 1;
#X obj 792 311 random 3;
#X obj 533 5 > 0.03;
#X obj 444 453 rotateXYZ;
#X obj 273 439 rotateXYZ 0 0 0;
#X obj 305 394 random 360;
#X obj 273 376 scale 1.3;
#X obj 435 420 scale 1.3;
#X obj 533 398 random 20;
#X obj 213 407 random 20;
#X connect 0 0 1 0;
#X connect 0 0 30 0;
#X connect 0 0 9 0;
#X connect 0 0 56 0;
#X connect 0 0 70 0;
#X connect 1 0 2 0;
#X connect 1 1 3 0;
#X connect 2 0 4 0;
#X connect 3 0 4 0;
#X connect 4 0 14 0;
#X connect 4 0 73 1;
#X connect 5 0 6 0;
#X connect 6 0 0 0;
#X connect 8 0 7 0;
#X connect 9 0 24 0;
#X connect 10 0 11 0;
#X connect 11 0 35 0;
#X connect 12 0 13 0;
#X connect 13 0 10 0;
#X connect 14 0 16 0;
#X connect 15 0 75 0;
#X connect 15 1 38 0;
#X connect 16 0 17 0;
#X connect 16 1 18 0;
#X connect 17 0 34 0;
#X connect 18 0 17 2;
#X connect 18 0 17 3;
#X connect 18 0 17 1;
#X connect 18 0 52 0;
#X connect 19 0 18 1;
#X connect 20 0 21 0;
#X connect 21 0 37 1;
#X connect 22 0 23 0;
#X connect 23 0 14 1;
#X connect 24 0 8 0;
#X connect 26 0 28 0;
#X connect 27 0 39 0;
#X connect 27 1 25 1;
#X connect 28 0 27 0;
#X connect 29 0 26 0;
#X connect 30 0 32 0;
#X connect 31 0 73 0;
#X connect 32 0 8 0;
#X connect 33 0 77 0;
#X connect 34 0 37 0;
#X connect 35 0 97 0;
#X connect 36 0 35 0;
#X connect 37 0 15 0;
#X connect 38 0 66 0;
#X connect 38 1 67 0;
#X connect 39 0 25 0;
#X connect 40 0 44 0;
#X connect 41 0 42 0;
#X connect 42 0 40 0;
#X connect 43 0 83 0;
#X connect 44 0 98 0;
#X connect 45 0 44 0;
#X connect 46 0 47 0;
#X connect 47 0 48 1;
#X connect 47 1 48 0;
#X connect 48 0 49 0;
#X connect 49 0 51 0;
#X connect 49 0 93 0;
#X connect 50 0 73 0;
#X connect 52 0 19 0;
#X connect 53 0 54 0;
#X connect 54 0 72 0;
#X connect 55 0 0 0;
#X connect 56 0 22 0;
#X connect 57 0 58 0;
#X connect 58 0 60 0;
#X connect 58 2 59 0;
#X connect 59 0 60 1;
#X connect 60 0 65 0;
#X connect 61 0 64 0;
#X connect 61 0 71 0;
#X connect 62 0 61 0;
#X connect 63 0 0 0;
#X connect 64 0 63 0;
#X connect 65 0 62 0;
#X connect 66 0 36 0;
#X connect 67 0 45 0;
#X connect 69 0 68 0;
#X connect 70 0 69 0;
#X connect 71 0 69 0;
#X connect 72 0 55 0;
#X connect 72 1 61 0;
#X connect 73 0 74 0;
#X connect 74 0 92 0;
#X connect 74 0 96 0;
#X connect 74 0 99 0;
#X connect 74 0 100 0;
#X connect 75 0 90 0;
#X connect 76 0 80 0;
#X connect 78 0 79 0;
#X connect 79 0 81 0;
#X connect 79 0 88 0;
#X connect 80 0 82 0;
#X connect 80 0 89 0;
#X connect 81 0 77 2;
#X connect 82 0 75 1;
#X connect 84 0 85 0;
#X connect 85 0 86 0;
#X connect 85 0 87 0;
#X connect 86 0 83 2;
#X connect 87 0 83 1;
#X connect 88 0 77 1;
#X connect 89 0 75 2;
#X connect 90 0 38 1;
#X connect 91 0 90 1;
#X connect 92 0 91 0;
#X connect 93 0 50 0;
#X connect 94 0 43 0;
#X connect 95 0 33 0;
#X connect 97 0 95 0;
#X connect 98 0 94 0;
#X connect 99 0 94 2;
#X connect 100 0 95 2;
#X coords 0 -1 1 1 110 35 1 100 100;
