#N canvas 450 60 929 727 10;
#X obj -627 445 curve 2;
#X obj -356 244 square;
#X obj -283 31 r mousePos;
#X obj -221 127 tgl 15 0 empty empty empty 17 7 0 10 -262144 -1 -1
0 1;
#X obj -300 247 spigot;
#X obj -244 57 unpack f f;
#X obj -248 268 r mouseLeft;
#X obj -267 268 tgl 15 0 empty empty empty 17 7 0 10 -262144 -1 -1
0 1;
#X obj -300 290 spigot;
#X obj -434 453 translateXYZ -2 3 0;
#X floatatom -303 377 5 0 0 0 - - -;
#X obj -719 -64 ortho;
#X obj -548 63 inlet;
#X obj -717 50 translateXYZ 0 0 0;
#X obj -584 130 unpack f f;
#X obj -584 159 -;
#X obj -717 178 translateXYZ 0 0 0;
#X obj -565 266 unpack f f;
#X obj -565 293 -;
#X obj -565 325 pack f f 0;
#X obj -552 348 +;
#X obj -552 375 pack f f 0;
#X obj -314 104 k_btn 0 0 1 0.2;
#X obj -356 193 alpha;
#X obj -393 48 loadbang;
#X obj -391 71 tgl 15 0 empty empty empty 17 7 0 10 -262144 -1 -1 1
1;
#X obj -507 166 / 1;
#X obj -667 142 * 2;
#X obj -398 361 unpack f f;
#X floatatom -303 425 5 0 0 0 - - -;
#X obj -303 404 expr abs($f1-$f2)/2;
#X obj -356 218 spigot;
#X obj -303 470 k_range 0 1 0 1;
#X obj -717 287 text2d;
#X obj -650 292 loadbang;
#X obj -802 202 loadbang;
#X msg -802 228 text 0 \, justify left base;
#X obj -717 247 translateXYZ 0.1 -0.05 0;
#X obj -234 441 unpack f f;
#X obj -303 493 expr int($f1*100)/100;
#X msg -649 270 text \$1;
#X obj -719 -43 t a a a a;
#X obj -719 -19 separator;
#X obj -702 1 separator;
#X obj -686 23 separator;
#X obj -637 2 separator;
#X obj -536 3 loadbang;
#X obj -205 331 moses 0;
#X obj -179 353 moses 1;
#X floatatom -179 378 5 0 0 0 - - -;
#X obj -719 -85 inlet;
#X msg -533 24 width 1 \, pos 0 0 \,;
#X obj -303 522 outlet;
#X obj -468 512 rotateXYZ 0 0 180;
#X obj -468 483 translateXYZ 0 0.15 0;
#X obj -468 541 triangle 0.07;
#X obj -792 91 t a a;
#X obj -743 122 separator;
#X obj -814 122 separator;
#X obj -851 300 text2d;
#X obj -784 305 loadbang;
#X obj -851 260 translateXYZ 0.1 -0.05 0;
#X obj -945 146 loadbang;
#X msg -945 172 text name \, justify right base;
#X obj -963 217 translateXYZ -0.2 0 0;
#X obj -548 97 route pos width color debug range name;
#X msg -940 351 text \$1;
#X obj -940 321 symbol;
#X obj -717 85 circle 0.03;
#X obj -717 208 circle 0.03;
#X msg -784 329 12;
#X msg -650 316 12;
#X connect 2 0 5 0;
#X connect 2 0 22 1;
#X connect 3 0 4 1;
#X connect 4 0 8 0;
#X connect 5 0 4 0;
#X connect 6 0 7 0;
#X connect 7 0 8 1;
#X connect 8 0 47 0;
#X connect 9 0 54 0;
#X connect 10 0 9 1;
#X connect 10 0 30 0;
#X connect 11 0 41 0;
#X connect 12 0 65 0;
#X connect 13 0 68 0;
#X connect 14 0 15 0;
#X connect 14 1 13 2;
#X connect 15 0 13 1;
#X connect 15 0 30 1;
#X connect 16 0 69 0;
#X connect 17 0 18 0;
#X connect 17 1 19 1;
#X connect 17 1 21 1;
#X connect 18 0 19 0;
#X connect 18 0 20 0;
#X connect 18 0 47 1;
#X connect 19 0 0 1;
#X connect 20 0 21 0;
#X connect 20 0 48 1;
#X connect 21 0 0 2;
#X connect 22 0 23 0;
#X connect 22 1 3 0;
#X connect 23 0 31 0;
#X connect 24 0 25 0;
#X connect 25 0 23 1;
#X connect 26 0 15 1;
#X connect 26 0 18 1;
#X connect 27 0 16 1;
#X connect 27 0 20 1;
#X connect 28 0 9 1;
#X connect 28 1 9 2;
#X connect 29 0 32 0;
#X connect 30 0 29 0;
#X connect 31 0 1 0;
#X connect 32 0 39 0;
#X connect 34 0 71 0;
#X connect 35 0 36 0;
#X connect 36 0 33 0;
#X connect 37 0 33 0;
#X connect 38 0 32 3;
#X connect 38 1 32 4;
#X connect 39 0 40 0;
#X connect 39 0 52 0;
#X connect 40 0 33 0;
#X connect 41 0 42 0;
#X connect 41 1 43 0;
#X connect 41 2 44 0;
#X connect 41 3 45 0;
#X connect 42 0 13 0;
#X connect 43 0 0 0;
#X connect 44 0 9 0;
#X connect 45 0 22 0;
#X connect 46 0 51 0;
#X connect 47 1 48 0;
#X connect 48 0 49 0;
#X connect 49 0 10 0;
#X connect 50 0 11 0;
#X connect 51 0 65 0;
#X connect 53 0 55 0;
#X connect 54 0 53 0;
#X connect 56 0 58 0;
#X connect 56 1 57 0;
#X connect 57 0 16 0;
#X connect 58 0 64 0;
#X connect 60 0 70 0;
#X connect 61 0 59 0;
#X connect 62 0 63 0;
#X connect 63 0 59 0;
#X connect 64 0 61 0;
#X connect 65 0 14 0;
#X connect 65 0 17 0;
#X connect 65 0 22 2;
#X connect 65 0 28 0;
#X connect 65 1 26 0;
#X connect 65 1 27 0;
#X connect 65 1 32 2;
#X connect 65 3 31 1;
#X connect 65 4 38 0;
#X connect 65 5 67 0;
#X connect 66 0 59 0;
#X connect 67 0 66 0;
#X connect 68 0 56 0;
#X connect 69 0 37 0;
#X connect 70 0 59 1;
#X connect 71 0 33 1;
