#N canvas 306 74 835 737 10;
#X obj 18 608 table Maze;
#X obj 18 633 table Temp;
#X obj 15 266 + 1;
#X obj 15 242 t f f;
#X obj 15 312 pow 2;
#X obj 97 334 pow 2;
#X obj 97 269 * 2;
#X obj 97 292 - 1;
#X floatatom 97 361 5 0 0 0 - - -;
#X floatatom 15 342 5 0 0 0 - - -;
#X obj 141 334 v outline;
#X obj 15 289 t f f;
#X obj 56 290 v edge;
#X obj 17 583 table Data;
#X obj 237 229 bng 30 250 50 0 empty empty empty 17 7 0 10 -258113
-1 -1;
#X obj 237 176 tgl 15 0 empty empty empty 17 7 0 10 -262144 -1 -1 1
1;
#N canvas 477 194 729 539 setup=========== 0;
#X obj 400 107 bng 15 250 50 0 empty empty empty 8 -8 0 10 -262144
-1 -1;
#X floatatom 447 180 5 0 0 0 i - -;
#X floatatom 400 252 5 0 0 0 j - -;
#X obj 400 275 pack f f;
#X obj 430 156 + 1;
#X obj 457 156 % 10;
#X obj 400 130 repeat 10;
#X obj 400 208 repeat 10;
#X obj 430 230 + 1;
#X obj 457 230 % 10;
#X obj 400 156 f 0;
#X obj 400 230 f 0;
#X obj 400 180 t b f;
#X obj 400 320 t a a;
#X msg 400 297 \$2 \$1;
#X obj 346 422 tabwrite Maze;
#X obj 155 110 bng 15 250 50 0 empty empty empty 8 -8 0 10 -262144
-1 -1;
#X floatatom 202 183 5 0 0 0 i - -;
#X floatatom 155 255 5 0 0 0 j - -;
#X obj 155 278 pack f f;
#X obj 185 159 + 1;
#X obj 212 159 % 10;
#X obj 155 133 repeat 10;
#X obj 155 211 repeat 10;
#X obj 185 233 + 1;
#X obj 212 233 % 10;
#X obj 155 159 f 0;
#X obj 155 233 f 0;
#X obj 155 183 t b f;
#X obj 155 323 t a a;
#X msg 155 300 \$2 \$1;
#X obj 136 -15 bng 15 250 50 0 empty empty empty 17 7 0 10 -262144
-1 -1;
#X obj 267 102 v outline;
#X obj 155 76 t b b b;
#X obj 155 53 bng 15 250 50 0 empty empty empty 17 7 0 10 -262144 -1
-1;
#X obj 35 433 tabwrite Temp;
#X obj 35 396 expr if(($f1==0 || $f1==outline-1 )||( $f2==0 || $f2==outline-1)
\, 2 \, 0);
#N canvas 854 40 759 736 class_Walker 0;
#X obj 494 -226 v outline;
#X obj 389 -319 t a b;
#X floatatom 269 -6 5 0 0 0 center - -;
#X obj 269 66 tabwrite Maze;
#X obj 388 -97 tabwrite Temp;
#X msg 389 -117 1;
#X msg 269 40 1;
#X obj 245 -291 bng 15 250 50 0 empty empty empty 17 7 0 10 -262144
-1 -1;
#X obj 266 -189 v a1;
#X obj 300 -188 v a2;
#X obj 245 -266 t b b b b;
#X obj 245 -141 v a1;
#X obj 284 -141 v a2;
#X obj 245 -98 pack f f;
#X obj 245 -316 inlet;
#X obj 245 -188 bng 15 250 50 0 empty empty Walker_start -80 7 0 10
-262144 -1 -1;
#X obj 104 -278 r Walker;
#X obj 245 135 t a a;
#X obj 317 90 t a a a a;
#X obj 278 269 expr if(($f1!=0) &&($f2!=0) &&($f3!=0) &&($f4!=0) \,
0 \, 1);
#X obj 245 339 spigot;
#X obj 278 293 tgl 15 0 empty empty empty 17 7 0 10 -262144 -1 -1 1
1;
#X floatatom 278 233 5 0 0 0 - - -;
#X floatatom 389 237 5 0 0 0 - - -;
#X floatatom 500 237 5 0 0 0 - - -;
#X floatatom 611 239 5 0 0 0 - - -;
#X floatatom 278 178 5 0 0 1 left - -;
#X floatatom 387 179 5 0 0 1 down - -;
#X floatatom 499 182 5 0 0 1 right - -;
#X floatatom 611 182 5 0 0 1 up - -;
#X obj 278 202 expr Maze[$f1];
#X obj 389 206 expr Maze[$f1];
#X obj 500 206 expr Maze[$f1];
#X obj 611 208 expr Maze[$f1];
#X obj 107 291 gate 4 3 2 1;
#X obj 107 236 + 1;
#N canvas 141 92 1137 649 write-Walker 0;
#X obj -240 38 spigot;
#X obj -13 -137 t a a;
#X obj 243 -125 t a a;
#X obj 524 -131 t a a;
#X obj -213 -10 tgl 15 0 empty empty empty 17 7 0 10 -262144 -1 -1
1 1;
#X obj -240 -172 inlet;
#X obj -13 -159 inlet;
#X obj 243 -152 inlet;
#X obj 524 -154 inlet;
#X obj -213 -36 expr if ( Maze[$f1] != 0 \, 0 \, 1);
#X obj -225 376 v a1;
#X obj -168 345 v a2;
#X obj -225 297 unpack f f;
#X obj -73 142 v outline;
#X obj -178 49 t a b;
#X obj -179 271 tabwrite Temp;
#X obj -178 226 t b f;
#X msg -178 251 1;
#X obj -178 77 unpack f f;
#X obj -79 102 expr ($f1*2)-1;
#X obj -178 171 expr ($f1)+$f2*$f3;
#X floatatom -178 197 5 0 0 1 Temp[x*2-2][y*2-1]=1 - -;
#X obj -178 102 expr ($f1*2)-2;
#X obj -240 68 t a a;
#X obj -252 272 t b a;
#X obj -225 328 - 1;
#X obj -268 402 s Walker;
#X obj 14 -51 expr if (( Maze[$f1] != 0 ) \, 0 \, 1);
#X obj -13 24 spigot;
#X obj 14 -24 tgl 15 0 empty empty empty 17 7 0 10 -262144 -1 -1 1
1;
#X obj 2 339 v a1;
#X obj 59 355 v a2;
#X obj 2 283 unpack f f;
#X obj 154 128 v outline;
#X obj 49 35 t a b;
#X obj 48 257 tabwrite Temp;
#X obj 49 212 t b f;
#X msg 49 237 1;
#X obj 49 63 unpack f f;
#X obj 49 157 expr ($f1)+$f2*$f3;
#X floatatom 49 183 5 0 0 1 Temp[x*2-1][y*2]=1 - -;
#X obj -13 54 t a a;
#X obj -25 258 t b a;
#X obj -43 400 s Walker;
#X obj 243 34 spigot;
#X obj 270 -14 tgl 15 0 empty empty empty 17 7 0 10 -262144 -1 -1 1
1;
#X obj 258 364 v a1;
#X obj 315 340 v a2;
#X obj 258 293 unpack f f;
#X obj 410 138 v outline;
#X obj 305 45 t a b;
#X obj 304 267 tabwrite Temp;
#X obj 305 222 t b f;
#X msg 305 247 1;
#X obj 305 73 unpack f f;
#X obj 398 98 expr ($f1*2)-1;
#X obj 305 167 expr ($f1)+$f2*$f3;
#X floatatom 305 193 5 0 0 1 Temp[x*2][y*2-1]=1 - -;
#X obj 243 64 t a a;
#X obj 231 268 t b a;
#X obj 214 403 s Walker;
#X obj 270 -37 expr if (( Maze[$f1] != 0 ) \, 0 \, 1);
#X obj 524 35 spigot;
#X obj 539 340 v a1;
#X obj 539 294 unpack f f;
#X obj 691 139 v outline;
#X obj 586 46 t a b;
#X obj 585 268 tabwrite Temp;
#X obj 586 223 t b f;
#X msg 586 248 1;
#X obj 586 74 unpack f f;
#X obj 586 168 expr ($f1)+$f2*$f3;
#X floatatom 586 194 5 0 0 1 Temp[x*2-1][y*2-2]=1 - -;
#X obj 524 65 t a a;
#X obj 512 269 t b a;
#X obj 512 379 s Walker;
#X obj 59 332 + 1;
#X obj 258 338 + 1;
#X obj 598 371 v a2;
#X obj 598 346 - 1;
#X obj 586 99 expr ($f1*2)-1;
#X obj 679 99 expr ($f1*2)-2;
#X obj 305 98 expr ($f1*2);
#X obj 142 88 expr ($f1*2);
#X obj 49 88 expr ($f1*2)-1;
#N canvas 0 22 450 300 walker[][] 0;
#X obj 64 16 v edge;
#X obj -41 44 expr ($f1)+$f2*$f3;
#X obj -40 -44 inlet;
#X obj -42 93 outlet;
#X obj -40 -6 t a b;
#X connect 0 0 1 2;
#X connect 1 0 3 0;
#X connect 2 0 4 0;
#X connect 4 0 1 0;
#X connect 4 1 0 0;
#X restore -213 -98 pd walker[][];
#X obj -240 -142 t a a;
#X obj -213 -120 array_add -1 0;
#X floatatom -214 -72 5 0 0 0 - - -;
#X floatatom -225 350 5 0 0 0 - - -;
#X floatatom -168 321 5 0 0 0 - - -;
#N canvas 0 22 450 300 walker[][] 0;
#X obj 64 16 v edge;
#X obj -41 44 expr ($f1)+$f2*$f3;
#X obj -40 -44 inlet;
#X obj -42 93 outlet;
#X obj -40 -6 t a b;
#X connect 0 0 1 2;
#X connect 1 0 3 0;
#X connect 2 0 4 0;
#X connect 4 0 1 0;
#X connect 4 1 0 0;
#X restore 15 -94 pd walker[][];
#X floatatom 15 -74 5 0 0 0 - - -;
#N canvas 0 22 450 300 walker[][] 0;
#X obj 64 16 v edge;
#X obj -41 44 expr ($f1)+$f2*$f3;
#X obj -40 -44 inlet;
#X obj -42 93 outlet;
#X obj -40 -6 t a b;
#X connect 0 0 1 2;
#X connect 1 0 3 0;
#X connect 2 0 4 0;
#X connect 4 0 1 0;
#X connect 4 1 0 0;
#X restore 271 -79 pd walker[][];
#X floatatom 271 -59 5 0 0 0 - - -;
#N canvas 0 22 450 300 walker[][] 0;
#X obj 64 16 v edge;
#X obj -41 44 expr ($f1)+$f2*$f3;
#X obj -40 -44 inlet;
#X obj -42 93 outlet;
#X obj -40 -6 t a b;
#X connect 0 0 1 2;
#X connect 1 0 3 0;
#X connect 2 0 4 0;
#X connect 4 0 1 0;
#X connect 4 1 0 0;
#X restore 551 -83 pd walker[][];
#X floatatom 551 -63 5 0 0 0 - - -;
#X obj 15 -116 array_add 0 1;
#X obj 271 -101 array_add 1 0;
#X obj 551 -105 array_add 0 -1;
#X obj -213 12 t f f;
#X obj -129 -1 sel 0;
#X obj -129 25 s re_random;
#X obj 97 -11 sel 0;
#X obj 97 15 s re_random;
#X obj 14 -2 t f f;
#X obj 270 8 t f f;
#X obj 551 4 t f f;
#X obj 351 3 sel 0;
#X obj 351 32 s re_random;
#X obj 626 20 sel 0;
#X obj 626 46 s re_random;
#X obj 551 -39 expr if (( Maze[$f1] != 0 ) \, 0 \, 1);
#X obj 551 -16 tgl 15 0 empty empty empty 17 7 0 10 -262144 -1 -1 0
1;
#X floatatom 539 318 5 0 0 0 - - -;
#X floatatom 598 319 5 0 0 0 - - -;
#X floatatom 258 316 5 0 0 0 - - -;
#X floatatom 315 316 5 0 0 0 - - -;
#X floatatom 2 312 5 0 0 0 - - -;
#X floatatom 59 309 5 0 0 0 - - -;
#X connect 0 0 23 0;
#X connect 1 0 28 0;
#X connect 1 1 97 0;
#X connect 2 0 44 0;
#X connect 2 1 98 0;
#X connect 3 0 62 0;
#X connect 3 1 99 0;
#X connect 4 0 100 0;
#X connect 5 0 86 0;
#X connect 6 0 1 0;
#X connect 7 0 2 0;
#X connect 8 0 3 0;
#X connect 9 0 4 0;
#X connect 12 0 25 0;
#X connect 12 1 90 0;
#X connect 13 0 20 2;
#X connect 14 0 18 0;
#X connect 14 1 13 0;
#X connect 16 0 17 0;
#X connect 16 1 15 1;
#X connect 17 0 15 0;
#X connect 18 0 22 0;
#X connect 18 1 19 0;
#X connect 19 0 20 1;
#X connect 20 0 21 0;
#X connect 21 0 16 0;
#X connect 22 0 20 0;
#X connect 23 0 24 0;
#X connect 23 1 14 0;
#X connect 24 0 26 0;
#X connect 24 1 12 0;
#X connect 25 0 89 0;
#X connect 27 0 29 0;
#X connect 28 0 41 0;
#X connect 29 0 105 0;
#X connect 32 0 118 0;
#X connect 32 1 119 0;
#X connect 33 0 39 2;
#X connect 34 0 38 0;
#X connect 34 1 33 0;
#X connect 36 0 37 0;
#X connect 36 1 35 1;
#X connect 37 0 35 0;
#X connect 38 0 84 0;
#X connect 38 1 83 0;
#X connect 39 0 40 0;
#X connect 40 0 36 0;
#X connect 41 0 42 0;
#X connect 41 1 34 0;
#X connect 42 0 43 0;
#X connect 42 1 32 0;
#X connect 44 0 58 0;
#X connect 45 0 106 0;
#X connect 48 0 116 0;
#X connect 48 1 117 0;
#X connect 49 0 56 2;
#X connect 50 0 54 0;
#X connect 50 1 49 0;
#X connect 52 0 53 0;
#X connect 52 1 51 1;
#X connect 53 0 51 0;
#X connect 54 0 82 0;
#X connect 54 1 55 0;
#X connect 55 0 56 1;
#X connect 56 0 57 0;
#X connect 57 0 52 0;
#X connect 58 0 59 0;
#X connect 58 1 50 0;
#X connect 59 0 60 0;
#X connect 59 1 48 0;
#X connect 61 0 45 0;
#X connect 62 0 73 0;
#X connect 64 0 114 0;
#X connect 64 1 115 0;
#X connect 65 0 71 2;
#X connect 66 0 70 0;
#X connect 66 1 65 0;
#X connect 68 0 69 0;
#X connect 68 1 67 1;
#X connect 69 0 67 0;
#X connect 70 0 80 0;
#X connect 70 1 81 0;
#X connect 71 0 72 0;
#X connect 72 0 68 0;
#X connect 73 0 74 0;
#X connect 73 1 66 0;
#X connect 74 0 75 0;
#X connect 74 1 64 0;
#X connect 76 0 31 0;
#X connect 77 0 46 0;
#X connect 79 0 78 0;
#X connect 80 0 71 0;
#X connect 81 0 71 1;
#X connect 82 0 56 0;
#X connect 83 0 39 1;
#X connect 84 0 39 0;
#X connect 85 0 88 0;
#X connect 86 0 0 0;
#X connect 86 1 87 0;
#X connect 87 0 85 0;
#X connect 88 0 9 0;
#X connect 89 0 10 0;
#X connect 90 0 11 0;
#X connect 91 0 92 0;
#X connect 92 0 27 0;
#X connect 93 0 94 0;
#X connect 94 0 61 0;
#X connect 95 0 96 0;
#X connect 96 0 112 0;
#X connect 97 0 91 0;
#X connect 98 0 93 0;
#X connect 99 0 95 0;
#X connect 100 0 0 1;
#X connect 100 1 101 0;
#X connect 101 0 102 0;
#X connect 103 0 104 0;
#X connect 105 0 28 1;
#X connect 105 1 103 0;
#X connect 106 0 44 1;
#X connect 106 1 108 0;
#X connect 107 0 62 1;
#X connect 107 1 110 0;
#X connect 108 0 109 0;
#X connect 110 0 111 0;
#X connect 112 0 113 0;
#X connect 113 0 107 0;
#X connect 114 0 63 0;
#X connect 115 0 79 0;
#X connect 116 0 77 0;
#X connect 117 0 47 0;
#X connect 118 0 30 0;
#X connect 119 0 76 0;
#X restore 107 335 pd write-Walker;
#X obj 389 -291 unpack f f;
#X obj 389 -266 expr ($f1*2)-1;
#X obj 482 -266 expr ($f1*2)-1;
#X obj 389 -197 expr ($f1)+$f2*$f3;
#X floatatom 389 -171 5 0 0 1 Temp[x*2-1][y*2-1]=1 - -;
#X floatatom 245 -119 5 0 0 0 - - -;
#X floatatom 284 -120 5 0 0 0 - - -;
#X msg 40 198 set \$1 \$2;
#X msg 40 220 6 13;
#X obj 80 78 r re_random;
#X obj 80 125 t b b;
#N canvas 0 22 635 716 show 0;
#X obj 109 -48 bng 15 250 50 0 empty empty empty 8 -8 0 10 -262144
-1 -1;
#X floatatom 183 59 5 0 0 0 i - -;
#X floatatom 136 131 5 0 0 0 j - -;
#X obj 136 180 pack f f;
#X obj 166 35 + 1;
#X obj 193 35 % 10;
#X obj 136 9 repeat 10;
#X obj 136 87 repeat 10;
#X obj 166 109 + 1;
#X obj 193 109 % 10;
#X obj 136 35 f 0;
#X obj 136 109 f 0;
#X obj 136 59 t b f;
#X obj 136 225 t a a;
#X msg 136 202 \$2 \$1;
#X obj 163 260 expr $f1*10+$f2;
#X obj 163 288 tabread Maze;
#X obj 162 407 print;
#X obj 162 360 pack f f f f f f f f f f;
#X obj 163 330 gate 10 9 8 7 6 5 4 3 2 1;
#X obj 287 276 expr 10-$f1;
#X obj 136 154 t f f;
#X msg 162 383 \$10 \$9 \$8 \$7 \$6 \$5 \$4 \$3 \$2 \$1;
#X msg -26 331 -----------------------------;
#X obj 109 -22 t b b;
#X obj 109 -76 inlet;
#X connect 0 0 24 0;
#X connect 1 0 3 1;
#X connect 2 0 21 0;
#X connect 3 0 14 0;
#X connect 4 0 5 0;
#X connect 5 0 10 1;
#X connect 6 0 10 0;
#X connect 7 0 11 0;
#X connect 8 0 9 0;
#X connect 9 0 11 1;
#X connect 10 0 4 0;
#X connect 10 0 12 0;
#X connect 11 0 8 0;
#X connect 11 0 2 0;
#X connect 12 0 7 0;
#X connect 12 1 1 0;
#X connect 13 1 15 0;
#X connect 14 0 13 0;
#X connect 15 0 16 0;
#X connect 16 0 19 1;
#X connect 18 0 22 0;
#X connect 19 0 18 0;
#X connect 19 1 18 1;
#X connect 19 2 18 2;
#X connect 19 3 18 3;
#X connect 19 4 18 4;
#X connect 19 5 18 5;
#X connect 19 6 18 6;
#X connect 19 7 18 7;
#X connect 19 8 18 8;
#X connect 19 9 18 9;
#X connect 20 0 19 0;
#X connect 21 0 3 0;
#X connect 21 1 20 0;
#X connect 22 0 17 0;
#X connect 23 0 17 0;
#X connect 24 0 23 0;
#X connect 24 1 6 0;
#X connect 25 0 0 0;
#X restore 217 66 pd show;
#X obj 217 47 bng 15 250 50 0 empty empty empty 8 -8 0 10 -262144 -1
-1;
#X obj 107 188 random 4;
#X floatatom 107 261 5 0 0 0 - - -;
#X msg 266 -215 1;
#X msg 300 -214 1;
#N canvas 0 22 450 300 walker[][] 0;
#X obj 64 16 v edge;
#X obj -41 44 expr ($f1)+$f2*$f3;
#X obj -40 -44 inlet;
#X obj -42 93 outlet;
#X obj -40 -6 t a b;
#X connect 0 0 1 2;
#X connect 1 0 3 0;
#X connect 2 0 4 0;
#X connect 4 0 1 0;
#X connect 4 1 0 0;
#X restore 317 147 pd walker[][];
#X obj 317 124 array_add -1 0;
#N canvas 0 22 450 300 walker[][] 0;
#X obj 64 16 v edge;
#X obj -41 44 expr ($f1)+$f2*$f3;
#X obj -40 -44 inlet;
#X obj -42 93 outlet;
#X obj -40 -6 t a b;
#X connect 0 0 1 2;
#X connect 1 0 3 0;
#X connect 2 0 4 0;
#X connect 4 0 1 0;
#X connect 4 1 0 0;
#X restore 412 146 pd walker[][];
#N canvas 0 22 450 300 walker[][] 0;
#X obj 64 16 v edge;
#X obj -41 44 expr ($f1)+$f2*$f3;
#X obj -40 -44 inlet;
#X obj -42 93 outlet;
#X obj -40 -6 t a b;
#X connect 0 0 1 2;
#X connect 1 0 3 0;
#X connect 2 0 4 0;
#X connect 4 0 1 0;
#X connect 4 1 0 0;
#X restore 505 147 pd walker[][];
#N canvas 0 22 450 300 walker[][] 0;
#X obj 64 16 v edge;
#X obj -41 44 expr ($f1)+$f2*$f3;
#X obj -40 -44 inlet;
#X obj -42 93 outlet;
#X obj -40 -6 t a b;
#X connect 0 0 1 2;
#X connect 1 0 3 0;
#X connect 2 0 4 0;
#X connect 4 0 1 0;
#X connect 4 1 0 0;
#X restore 599 146 pd walker[][];
#X obj 412 123 array_add 0 1;
#X obj 505 124 array_add 1 0;
#X obj 599 123 array_add 0 -1;
#N canvas 86 365 450 300 walker[][] 0;
#X obj 64 16 v edge;
#X obj -41 44 expr ($f1)+$f2*$f3;
#X obj -40 -44 inlet;
#X obj -42 93 outlet;
#X obj -40 -6 t a b;
#X connect 0 0 1 2;
#X connect 1 0 3 0;
#X connect 2 0 4 0;
#X connect 4 0 1 0;
#X connect 4 1 0 0;
#X restore 269 -33 pd walker[][];
#X obj 278 315 t f f;
#X obj 360 65 tabwrite Data;
#X msg 334 -214 0;
#N canvas 462 250 322 456 back 0;
#X obj 23 -16 inlet;
#X obj 23 14 sel 0;
#X obj 23 61 v \$0-now;
#X floatatom 62 210 5 0 0 0 - - -;
#X obj 23 38 bng 15 250 50 0 empty empty empty 17 7 0 10 -262144 -1
-1;
#X obj 62 186 tabread Data;
#X obj 218 291 v edge;
#X obj 173 268 t a b;
#X floatatom 172 343 5 0 0 0 - - -;
#X obj 125 286 v edge;
#X obj 80 263 t a b;
#X floatatom 79 337 5 0 0 0 - - -;
#X obj 79 313 expr $f1%$f2;
#X obj 172 318 expr int($f1/$f2);
#X obj 79 361 v a1;
#X obj 171 365 v a2;
#X obj 61 233 t b f f;
#X obj 61 391 s Walker;
#X obj 62 120 - 1;
#X obj 62 147 t f f;
#X obj 105 148 v \$0-now;
#X obj 23 87 moses 1;
#X connect 0 0 1 0;
#X connect 1 0 4 0;
#X connect 2 0 21 0;
#X connect 3 0 16 0;
#X connect 4 0 2 0;
#X connect 5 0 3 0;
#X connect 6 0 13 1;
#X connect 7 0 13 0;
#X connect 7 1 6 0;
#X connect 8 0 15 0;
#X connect 9 0 12 1;
#X connect 10 0 12 0;
#X connect 10 1 9 0;
#X connect 11 0 14 0;
#X connect 12 0 11 0;
#X connect 13 0 8 0;
#X connect 16 0 17 0;
#X connect 16 1 10 0;
#X connect 16 2 7 0;
#X connect 18 0 19 0;
#X connect 19 0 5 0;
#X connect 19 1 20 0;
#X connect 21 1 18 0;
#X restore 305 343 pd back;
#X obj 334 -189 v \$0-now;
#X obj 245 -63 t a a a b;
#X obj 435 17 v \$0-now;
#X obj 435 -6 bng 15 250 50 0 empty empty empty 17 7 0 10 -262144 -1
-1;
#X obj 171 186 + 1;
#X obj 171 238 v \$0-now;
#X obj 23 154 t b a b b;
#X obj 171 161 v \$0-now;
#X floatatom 171 211 5 0 0 0 - - -;
#X obj 80 101 del 1;
#X floatatom 435 42 5 0 0 0 - - -;
#X obj 269 15 t b b f f f;
#X obj 484 -99 s lead;
#X obj 390 -143 t b f f;
#X obj 104 -252 del 20;
#X obj 245 -167 t b b b;
#X obj 332 -92 s \$0-m2;
#X connect 0 0 40 2;
#X connect 1 0 37 0;
#X connect 1 1 0 0;
#X connect 2 0 78 0;
#X connect 5 0 4 0;
#X connect 6 0 3 0;
#X connect 7 0 10 0;
#X connect 10 0 15 0;
#X connect 10 1 52 0;
#X connect 10 2 53 0;
#X connect 10 3 65 0;
#X connect 11 0 42 0;
#X connect 12 0 43 0;
#X connect 13 0 68 0;
#X connect 14 0 7 0;
#X connect 15 0 82 0;
#X connect 16 0 81 0;
#X connect 17 0 20 0;
#X connect 17 1 18 0;
#X connect 18 0 55 0;
#X connect 18 1 59 0;
#X connect 18 2 60 0;
#X connect 18 3 61 0;
#X connect 19 0 21 0;
#X connect 20 0 73 0;
#X connect 21 0 63 0;
#X connect 22 0 19 0;
#X connect 23 0 19 1;
#X connect 24 0 19 2;
#X connect 25 0 19 3;
#X connect 26 0 30 0;
#X connect 27 0 31 0;
#X connect 28 0 32 0;
#X connect 29 0 33 0;
#X connect 30 0 22 0;
#X connect 31 0 23 0;
#X connect 32 0 24 0;
#X connect 33 0 25 0;
#X connect 34 0 36 0;
#X connect 34 1 36 1;
#X connect 34 2 36 2;
#X connect 34 3 36 3;
#X connect 35 0 51 0;
#X connect 37 0 38 0;
#X connect 37 1 39 0;
#X connect 38 0 40 0;
#X connect 39 0 40 1;
#X connect 40 0 41 0;
#X connect 41 0 80 0;
#X connect 42 0 13 0;
#X connect 43 0 13 1;
#X connect 44 0 45 0;
#X connect 45 0 34 1;
#X connect 46 0 76 0;
#X connect 47 0 45 0;
#X connect 47 1 50 0;
#X connect 49 0 48 0;
#X connect 50 0 35 0;
#X connect 51 0 34 0;
#X connect 52 0 8 0;
#X connect 53 0 9 0;
#X connect 54 0 26 0;
#X connect 55 0 54 0;
#X connect 56 0 27 0;
#X connect 57 0 28 0;
#X connect 58 0 29 0;
#X connect 59 0 56 0;
#X connect 60 0 57 0;
#X connect 61 0 58 0;
#X connect 62 0 2 0;
#X connect 63 0 20 1;
#X connect 63 1 66 0;
#X connect 65 0 67 0;
#X connect 68 0 17 0;
#X connect 68 1 62 0;
#X connect 68 2 1 0;
#X connect 68 3 70 0;
#X connect 69 0 77 0;
#X connect 70 0 69 0;
#X connect 71 0 75 0;
#X connect 73 0 45 0;
#X connect 73 1 44 0;
#X connect 73 2 50 0;
#X connect 73 3 74 0;
#X connect 74 0 71 0;
#X connect 75 0 72 0;
#X connect 76 0 47 0;
#X connect 77 0 64 1;
#X connect 78 1 6 0;
#X connect 78 2 3 1;
#X connect 78 3 64 0;
#X connect 80 0 5 0;
#X connect 80 1 4 1;
#X connect 80 2 79 0;
#X connect 81 0 15 0;
#X connect 82 0 11 0;
#X connect 82 1 12 0;
#X connect 82 2 83 0;
#X restore 52 132 pd class_Walker;
#X obj 52 110 bng 15 250 50 0 empty empty empty 17 7 0 10 -262144 -1
-1;
#X obj 136 -42 inlet;
#X obj 547 86 v edge;
#X obj 136 11 t b b b b;
#X floatatom 533 332 5 0 0 0 - - -;
#X obj 427 355 expr ($f1)*$f3+$f2;
#X obj 182 358 expr ($f1)*$f3+$f2;
#X obj 346 391 expr if(($f1==0 ||$f1==edge-1)||($f2==0 ||$f2==edge-1)
\, 2 \, 0);
#X connect 0 0 6 0;
#X connect 1 0 3 1;
#X connect 2 0 3 0;
#X connect 3 0 14 0;
#X connect 4 0 5 0;
#X connect 5 0 10 1;
#X connect 6 0 10 0;
#X connect 7 0 11 0;
#X connect 8 0 9 0;
#X connect 9 0 11 1;
#X connect 10 0 4 0;
#X connect 10 0 12 0;
#X connect 11 0 8 0;
#X connect 11 0 2 0;
#X connect 12 0 7 0;
#X connect 12 1 1 0;
#X connect 13 0 45 0;
#X connect 13 1 43 0;
#X connect 14 0 13 0;
#X connect 16 0 22 0;
#X connect 17 0 19 1;
#X connect 18 0 19 0;
#X connect 19 0 30 0;
#X connect 20 0 21 0;
#X connect 21 0 26 1;
#X connect 22 0 26 0;
#X connect 23 0 27 0;
#X connect 24 0 25 0;
#X connect 25 0 27 1;
#X connect 26 0 20 0;
#X connect 26 0 28 0;
#X connect 27 0 24 0;
#X connect 27 0 18 0;
#X connect 28 0 23 0;
#X connect 28 1 17 0;
#X connect 29 0 36 0;
#X connect 29 1 44 0;
#X connect 30 0 29 0;
#X connect 31 0 41 0;
#X connect 32 0 22 1;
#X connect 32 0 21 1;
#X connect 32 0 23 1;
#X connect 32 0 25 1;
#X connect 32 0 44 2;
#X connect 33 0 16 0;
#X connect 33 1 32 0;
#X connect 34 0 33 0;
#X connect 36 0 35 0;
#X connect 38 0 37 0;
#X connect 39 0 31 0;
#X connect 40 0 6 1;
#X connect 40 0 5 1;
#X connect 40 0 7 1;
#X connect 40 0 9 1;
#X connect 40 0 42 0;
#X connect 41 0 38 0;
#X connect 41 1 34 0;
#X connect 41 2 0 0;
#X connect 41 3 40 0;
#X connect 42 0 43 2;
#X connect 43 0 15 1;
#X connect 44 0 35 1;
#X connect 45 0 15 0;
#X restore 237 312 pd setup===========;
#X obj 97 312 t f f f;
#X obj 562 475 f;
#X floatatom 562 500 5 0 0 0 - - -;
#X obj 475 583 pix_texture;
#X floatatom 107 245 5 0 0 0 - - -;
#X obj 475 492 t a b;
#X obj 475 635 colorRGB 1 1 1 1;
#X obj 152 810 gemvertexbuffer;
#N canvas 273 131 868 589 write 0;
#X obj 112 100 f 0;
#X obj 139 101 + 1;
#X obj 167 100 % 289;
#X obj 125 256 sel 0 1 2;
#X obj 112 129 t f f f f f;
#X obj 146 370 unpack f f f f;
#X obj 112 57 repeat;
#X obj 162 -3 inlet;
#X obj 125 230 tabread Temp;
#X obj 306 202 % 300;
#X obj 306 230 sel 0;
#X obj 112 -33 r lead;
#X obj 279 172 t f f;
#X obj 214 229 sel 0;
#X msg 306 255 0 0 1 1;
#X msg 215 253 1 1 0 1;
#X obj 586 105 f 0;
#X obj 613 106 + 1;
#X obj 641 105 % 289;
#X obj 724 170 v outline;
#X floatatom 503 279 5 0 0 0 - - -;
#X obj 503 254 expr 4/$f1;
#X floatatom 724 192 5 0 0 0 - - -;
#X obj 633 160 %;
#X obj 657 468 k_range 0 37 4 -4;
#X obj 548 305 k_range 0 37 4 -4;
#X obj 657 444 expr int($f1/$f2);
#X obj 586 134 t f f f f f;
#X obj 623 337 t f f f f f f f;
#X obj 586 62 repeat;
#X obj 636 39 t f f b;
#X obj 567 439 +;
#X obj 548 339 +;
#X obj 503 306 * -1;
#X obj 586 -12 inlet;
#X obj 162 34 t f f;
#X obj 240 62 change;
#X obj 112 -7 change;
#X obj 146 403 tabwrite \$0-r;
#X obj 173 432 tabwrite \$0-g;
#X obj 200 456 tabwrite \$0-b;
#X obj 330 475 tabwrite \$0-a;
#X obj 567 468 tabwrite \$0-y;
#X obj 548 366 tabwrite \$0-x;
#X msg 160 338 1 0 0;
#X msg 125 312 0 0 0;
#X obj 112 25 t b f b;
#X obj 79 4 bng 15 250 50 0 empty empty empty 17 7 0 10 -262144 -1
-1;
#X msg 142 285 0.5 0.5 0.5;
#X connect 0 0 1 0;
#X connect 0 0 4 0;
#X connect 1 0 2 0;
#X connect 2 0 0 1;
#X connect 3 0 45 0;
#X connect 3 1 48 0;
#X connect 3 2 44 0;
#X connect 4 0 12 0;
#X connect 4 1 8 0;
#X connect 4 2 38 1;
#X connect 4 2 39 1;
#X connect 4 3 40 1;
#X connect 5 0 38 0;
#X connect 5 1 39 0;
#X connect 5 2 40 0;
#X connect 6 0 0 0;
#X connect 7 0 30 0;
#X connect 7 0 35 0;
#X connect 8 0 3 0;
#X connect 9 0 10 0;
#X connect 10 0 14 0;
#X connect 11 0 37 0;
#X connect 12 0 13 0;
#X connect 12 1 9 0;
#X connect 13 0 15 0;
#X connect 14 0 5 0;
#X connect 15 0 5 0;
#X connect 16 0 17 0;
#X connect 16 0 27 0;
#X connect 17 0 18 0;
#X connect 18 0 16 1;
#X connect 19 0 22 0;
#X connect 20 0 33 0;
#X connect 21 0 20 0;
#X connect 22 0 21 0;
#X connect 22 0 23 1;
#X connect 22 0 26 1;
#X connect 22 0 24 2;
#X connect 22 0 25 2;
#X connect 23 0 25 0;
#X connect 24 0 31 0;
#X connect 25 0 32 0;
#X connect 26 0 24 0;
#X connect 27 2 26 0;
#X connect 27 3 23 0;
#X connect 27 4 28 0;
#X connect 28 0 43 1;
#X connect 28 1 42 1;
#X connect 29 0 16 0;
#X connect 30 0 29 1;
#X connect 30 1 18 1;
#X connect 30 2 19 0;
#X connect 31 0 42 0;
#X connect 32 0 43 0;
#X connect 33 0 32 1;
#X connect 33 0 31 1;
#X connect 34 0 29 0;
#X connect 35 0 6 1;
#X connect 35 1 2 1;
#X connect 37 0 46 0;
#X connect 44 0 5 0;
#X connect 45 0 5 0;
#X connect 46 0 6 0;
#X connect 46 1 13 1;
#X connect 47 0 46 0;
#X connect 48 0 5 0;
#X restore 189 422 pd write;
#X obj 151 691 t a b b;
#X obj 475 532 rotateXYZ 0 0 0;
#X obj 271 482 loadbang;
#X msg 275 575 resize \$1;
#X obj 151 659 translateXYZ 0 0 -4;
#X obj 107 172 bng 15 250 50 0 empty empty empty 17 7 0 10 -262144
-1 -1;
#X obj 429 686 + 1;
#X obj 148 423 t f f;
#X floatatom 478 663 5 0 0 0 - - -;
#X obj 630 474 fmod 360;
#X obj 478 730 separator;
#X obj 501 784 separator;
#X obj 573 759 separator;
#X msg 393 572 auto 1;
#X obj 589 474 + 0.5;
#X msg 386 782 draw points;
#X msg 218 717 color \$1-r \$1-g \$1-b \$1-a;
#X msg 170 753 position \$1-x \$1-y \$1-z;
#X obj 15 391 pack f f f;
#X msg 15 424 \; Maze resize \$1 \; Data resize \$1 \; Temp resize
\$2 \; \$3-x resize \$2 \; \$3-y resize \$2 \; \$3-z resize \$2 \;
\$3-r resize \$2 \; \$3-g resize \$2 \; \$3-b resize \$2 \; \$3-a resize
\$2 \;;
#X obj 616 395 line;
#X obj 167 559 line;
#X obj 631 277 random 2;
#X obj 631 299 sel 0 1;
#X msg 631 336 -1;
#X msg 662 336 1;
#X obj 589 246 t b b;
#X obj 616 448 * 1;
#X obj 18 659 table \$0-x;
#X obj 18 681 table \$0-y;
#X obj 19 704 table \$0-z;
#X obj 19 728 table \$0-r;
#X obj 19 750 table \$0-g;
#X obj 20 773 table \$0-b;
#X obj 21 796 table \$0-a;
#X obj 218 693 f \$0;
#X obj 170 726 f \$0;
#X obj 49 356 f \$0;
#X obj 15 188 t b b b;
#X obj 393 543 loadbang;
#X obj 478 753 cube 1;
#X obj 501 814 sphere 1 50;
#X obj 573 784 cylinder 1 5;
#X obj 657 778 torus 1 40;
#X obj 478 688 gate 5 4 3 2 1;
#X msg 167 534 \$1 1000;
#X obj 107 199 random 15;
#X msg 15 218 20;
#X obj 237 199 metro 6000;
#X obj 107 224 + 20;
#X obj 237 282 t b b b;
#X obj 105 117 hsl 85 15 0 1 0 0 empty empty Alpha 5 7 0 10 -258113
-1 -1 8400 1;
#X obj 30 111 sel 0;
#X msg 30 163 0;
#X msg 61 139 1;
#X obj 61 164 f;
#X obj 102 73 loadbang;
#X msg 102 96 0;
#X obj 237 149 change;
#X obj 475 611 alpha 1;
#X obj 411 655 random 4;
#X obj 152 608 GEMglPointSize 1;
#X obj 167 394 bng 15 250 50 0 empty empty empty 17 7 0 10 -262144
-1 -1;
#X obj 265 348 r vj-vol;
#X obj 265 375 > 0.85;
#X obj 265 400 change;
#X obj 589 182 change;
#X obj 589 216 sel 1;
#X obj 589 130 r vj-pitch-1;
#X obj 237 33 r vj-vol;
#X obj 237 85 change;
#X obj 237 60 > 0.6;
#X msg 616 370 2 \, 0.1 5000;
#X obj 589 157 > 0.5;
#X floatatom 270 640 5 0 0 0 - - -;
#X obj 151 634 gemframebuffer;
#X msg 271 508 dimen 1000 1000;
#X obj 321 782 loadbang;
#X msg 445 384 set \$1;
#X obj 445 292 r gemlayer;
#X obj 445 314 sel 0 1;
#X msg 445 338 99999;
#X msg 464 362 -4;
#X obj 559 663 scale 8;
#X msg 367 808 draw line \, width 4;
#X obj 367 756 sel 0;
#X obj 367 727 random 5;
#X obj 167 477 + 3;
#X obj 167 454 random 3;
#X obj 167 582 int;
#X obj 475 466 gemhead -4;
#X obj 152 507 gemhead;
#X obj -29 142 loadbang;
#X obj -29 121 bng 15 250 50 0 empty empty empty 17 7 0 10 -262144
-1 -1;
#X obj 47 2 r touchosc;
#X obj 47 26 routeOSC /vj;
#X floatatom 47 72 5 0 0 0 - - -;
#X obj 365 220 s toudp;
#X obj 365 193 packOSC;
#X msg 365 169 send /vj /maze 1 \$1;
#X msg 376 143 send /vj /maze 2 \$1;
#X msg 422 198 send /vj /maze 3 \$1;
#X floatatom 433 706 5 0 0 0 - - -;
#X obj 222 109 spigot;
#X obj 373 69 r \$0-m2;
#X msg 373 93 1;
#X obj 134 -146 r hid;
#X obj 134 -124 t a a a;
#X obj 209 -56 route key_145;
#X obj 134 -46 spigot;
#X obj 194 117 tgl 15 0 empty empty empty 17 7 0 10 -262144 -1 -1 1
1;
#X obj 134 3 sel 1;
#X obj 154 73 line;
#X msg 154 50 \$1 20000;
#X obj 134 -22 route key_34;
#X obj 298 70 s totouch;
#X obj 298 43 packOSC;
#X msg 298 18 send /vj/t5 \$1;
#X obj 47 50 route /34 /t5;
#X msg 267 -6 send /vj/34 \$1;
#X connect 2 0 11 0;
#X connect 3 0 2 0;
#X connect 3 1 6 0;
#X connect 4 0 9 0;
#X connect 5 0 8 0;
#X connect 6 0 7 0;
#X connect 7 0 17 0;
#X connect 8 0 33 0;
#X connect 8 0 44 1;
#X connect 9 0 44 0;
#X connect 11 0 4 0;
#X connect 11 1 12 0;
#X connect 14 0 76 0;
#X connect 15 0 74 0;
#X connect 15 0 116 0;
#X connect 15 0 117 0;
#X connect 15 0 129 1;
#X connect 17 0 5 0;
#X connect 17 1 10 0;
#X connect 18 0 19 0;
#X connect 18 0 40 0;
#X connect 19 0 27 1;
#X connect 19 0 27 2;
#X connect 19 0 27 3;
#X connect 20 0 85 0;
#X connect 21 0 3 0;
#X connect 22 0 27 0;
#X connect 22 1 18 0;
#X connect 23 0 109 0;
#X connect 26 0 24 0;
#X connect 26 1 62 0;
#X connect 26 2 61 0;
#X connect 27 0 20 0;
#X connect 28 0 102 0;
#X connect 29 0 24 0;
#X connect 30 0 26 0;
#X connect 31 0 25 1;
#X connect 31 0 72 0;
#X connect 32 0 34 0;
#X connect 32 0 127 0;
#X connect 32 0 128 0;
#X connect 33 0 29 0;
#X connect 33 1 25 0;
#X connect 34 0 70 0;
#X connect 35 0 18 1;
#X connect 36 0 66 0;
#X connect 37 0 67 0;
#X connect 38 0 68 0;
#X connect 39 0 85 0;
#X connect 40 0 35 0;
#X connect 41 0 24 0;
#X connect 42 0 24 0;
#X connect 43 0 24 0;
#X connect 44 0 45 0;
#X connect 46 0 53 0;
#X connect 47 0 115 0;
#X connect 48 0 49 0;
#X connect 49 0 50 0;
#X connect 49 1 51 0;
#X connect 50 0 53 1;
#X connect 51 0 53 1;
#X connect 52 0 48 0;
#X connect 52 1 98 0;
#X connect 53 0 40 1;
#X connect 61 0 42 0;
#X connect 62 0 43 0;
#X connect 63 0 44 2;
#X connect 64 1 73 0;
#X connect 64 2 63 0;
#X connect 65 0 39 0;
#X connect 70 0 36 0;
#X connect 70 1 37 0;
#X connect 70 2 38 0;
#X connect 70 3 69 0;
#X connect 71 0 47 0;
#X connect 72 0 75 0;
#X connect 73 0 3 0;
#X connect 74 0 14 0;
#X connect 75 0 21 0;
#X connect 76 0 16 0;
#X connect 76 1 64 0;
#X connect 76 2 86 0;
#X connect 77 0 78 0;
#X connect 77 0 23 4;
#X connect 77 0 145 0;
#X connect 78 0 79 0;
#X connect 78 1 80 0;
#X connect 79 0 81 0;
#X connect 80 0 81 0;
#X connect 81 0 84 0;
#X connect 82 0 83 0;
#X connect 83 0 77 0;
#X connect 84 0 15 0;
#X connect 84 0 125 0;
#X connect 85 0 23 0;
#X connect 86 0 32 0;
#X connect 87 0 101 0;
#X connect 88 0 112 0;
#X connect 88 0 114 0;
#X connect 89 0 90 0;
#X connect 90 0 91 0;
#X connect 91 0 88 0;
#X connect 92 0 93 0;
#X connect 93 0 52 0;
#X connect 94 0 99 0;
#X connect 95 0 97 0;
#X connect 96 0 129 0;
#X connect 97 0 96 0;
#X connect 98 0 46 0;
#X connect 99 0 92 0;
#X connect 100 0 20 1;
#X connect 101 0 30 0;
#X connect 101 1 100 0;
#X connect 102 0 101 0;
#X connect 103 0 110 0;
#X connect 104 0 116 0;
#X connect 105 0 106 0;
#X connect 106 0 107 0;
#X connect 106 1 108 0;
#X connect 107 0 104 0;
#X connect 108 0 104 0;
#X connect 109 0 70 1;
#X connect 110 0 24 0;
#X connect 111 0 41 0;
#X connect 111 1 110 0;
#X connect 112 0 111 0;
#X connect 113 0 71 0;
#X connect 114 0 113 0;
#X connect 115 0 87 1;
#X connect 116 0 22 0;
#X connect 117 0 87 0;
#X connect 118 0 64 0;
#X connect 119 0 118 0;
#X connect 120 0 121 0;
#X connect 121 0 144 0;
#X connect 122 0 77 0;
#X connect 124 0 123 0;
#X connect 125 0 124 0;
#X connect 126 0 124 0;
#X connect 127 0 124 0;
#X connect 129 0 31 0;
#X connect 130 0 131 0;
#X connect 131 0 126 0;
#X connect 132 0 133 0;
#X connect 133 0 135 0;
#X connect 133 2 134 0;
#X connect 134 0 135 1;
#X connect 135 0 140 0;
#X connect 136 0 139 0;
#X connect 136 0 143 0;
#X connect 137 0 136 0;
#X connect 138 0 77 0;
#X connect 139 0 138 0;
#X connect 140 0 137 0;
#X connect 142 0 141 0;
#X connect 143 0 142 0;
#X connect 144 0 122 0;
#X connect 144 1 136 0;
#X connect 145 0 142 0;
#X coords 0 -1 1 1 110 35 1 100 100;
