#N canvas 166 229 784 554 10;
#X obj 257 445 rectangle 5.33 4;
#X obj 257 381 alpha;
#X obj 390 441 rectangle 5.33 4;
#X obj 392 363 alpha;
#X obj 277 20 t f f;
#X obj 304 42 expr 1-$f1;
#X obj 105 156 hsl 100 15 0 1 0 0 empty empty Alpha 5 8 0 10 -258113
-1 -1 9900 1;
#X obj 105 138 hsl 100 15 0 1 0 0 empty empty Pan 5 8 0 10 -262144
-1 -1 0 1;
#X obj 317 377 r x_size;
#X floatatom 321 408 5 0 0 0 - - -;
#X obj 396 85 loadbang;
#X obj 116 210 sel 0;
#X msg 116 262 0;
#X msg 147 238 1;
#X obj 147 263 f;
#X obj 147 296 s \$0-tgl;
#X obj 259 170 r \$0-tgl;
#X obj 159 120 tgl 15 0 empty empty blend 17 7 0 10 -262144 -1 -1 1
1;
#X msg 190 273 auto 1;
#X obj 190 246 loadbang;
#X obj 390 337 colorRGB 1 1 1;
#X obj 257 339 colorRGB 1 1 1;
#X obj 212 409 pix_texture;
#X obj 378 396 pix_texture;
#X obj 279 127 * 1;
#X obj 333 128 * 1;
#X floatatom 193 217 5 0 0 0 - - -;
#X floatatom 278 -10 5 0 0 0 - - -;
#X obj 224 78 t b f;
#X obj 21 106 loadbang;
#X msg 21 129 0;
#X obj 258 282 pix_film;
#X obj 390 280 pix_film;
#X obj 276 302 unpack f f f;
#X obj 301 255 f;
#X obj 327 254 + 1;
#X obj 356 255 % 33;
#X obj 259 199 gemhead;
#X obj 407 194 gemhead;
#X obj 261 229 t a b;
#X obj 410 307 unpack f f f;
#X obj 452 250 f;
#X obj 478 249 + 1;
#X obj 507 250 % 33;
#X obj 412 224 t a b;
#X msg 391 113 open data/a1.mov;
#X msg 402 144 open data/a2.mov;
#X msg 529 112 open \$1;
#X obj 529 88 openpanel;
#X obj 125 118 bng 15 250 50 0 empty empty empty 17 7 0 10 -262144
-1 -1;
#X msg 569 159 open \$1;
#X obj 571 127 openpanel;
#X obj 103 118 bng 15 250 50 0 empty empty empty 17 7 0 10 -262144
-1 -1;
#X connect 1 0 22 0;
#X connect 3 0 23 0;
#X connect 4 0 24 0;
#X connect 4 1 5 0;
#X connect 5 0 25 0;
#X connect 6 0 11 0;
#X connect 7 0 27 0;
#X connect 8 0 9 0;
#X connect 9 0 0 1;
#X connect 9 0 2 1;
#X connect 10 0 45 0;
#X connect 10 0 46 0;
#X connect 11 0 12 0;
#X connect 11 1 13 0;
#X connect 11 1 26 0;
#X connect 11 1 28 0;
#X connect 12 0 14 0;
#X connect 13 0 14 0;
#X connect 14 0 15 0;
#X connect 16 0 37 0;
#X connect 16 0 38 0;
#X connect 17 0 1 1;
#X connect 17 0 3 1;
#X connect 18 0 1 0;
#X connect 18 0 3 0;
#X connect 19 0 18 0;
#X connect 20 0 3 0;
#X connect 21 0 1 0;
#X connect 22 0 0 0;
#X connect 23 0 2 0;
#X connect 24 0 21 4;
#X connect 25 0 20 4;
#X connect 27 0 4 0;
#X connect 28 0 27 0;
#X connect 28 1 24 1;
#X connect 28 1 25 1;
#X connect 29 0 30 0;
#X connect 30 0 6 0;
#X connect 31 0 21 0;
#X connect 31 1 33 0;
#X connect 32 0 20 0;
#X connect 32 1 40 0;
#X connect 33 0 36 1;
#X connect 34 0 35 0;
#X connect 34 0 31 1;
#X connect 35 0 36 0;
#X connect 36 0 34 1;
#X connect 37 0 39 0;
#X connect 38 0 44 0;
#X connect 39 0 31 0;
#X connect 39 1 34 0;
#X connect 40 0 43 1;
#X connect 41 0 42 0;
#X connect 41 0 32 1;
#X connect 42 0 43 0;
#X connect 43 0 41 1;
#X connect 44 0 32 0;
#X connect 44 1 41 0;
#X connect 45 0 31 0;
#X connect 46 0 32 0;
#X connect 47 0 31 0;
#X connect 48 0 47 0;
#X connect 49 0 48 0;
#X connect 50 0 32 0;
#X connect 51 0 50 0;
#X connect 52 0 51 0;
#X coords 0 -1 1 1 110 75 1 100 100;
