#N canvas 778 247 1079 608 10;
#X obj 105 117 hsl 85 15 0 1 0 0 empty empty Alpha 5 7 0 10 -258113
-1 -1 0 1;
#X obj 103 173 sel 0;
#X msg 103 225 0;
#X msg 134 201 1;
#X obj 134 226 f;
#X obj 103 47 loadbang;
#X msg 103 73 0;
#X obj -66 280 s toudp;
#X obj -66 253 packOSC;
#X floatatom -66 191 5 0 0 0 - - -;
#X obj -55 50 r touchosc;
#X obj -55 74 routeOSC /vj;
#X floatatom -55 120 5 0 0 0 - - -;
#X obj 191 350 pix_texture;
#X obj 192 292 pix_flip;
#X obj 305 156 tgl 15 0 empty empty empty 17 7 0 10 -262144 -1 -1 0
1;
#X msg 305 176 rectangle \$1;
#X obj 305 109 loadbang;
#X msg 305 134 0;
#X obj 394 115 pix_separator;
#X obj 544 145 t a a a a;
#X obj 561 200 GEMglPolygonMode;
#X obj 607 143 GLdefine GL_FRONT_AND_BACK;
#X obj 654 117 loadbang;
#X obj 654 165 GLdefine GL_FILL;
#N canvas 457 326 467 479 glsl 0;
#X obj 97 75 gemhead;
#X obj 97 329 glsl_program;
#X obj 170 265 pack 0 0;
#X obj 191 245 t b f;
#X obj 191 200 change;
#X obj 129 216 change;
#X msg 170 288 link \$1 \$2;
#X floatatom 191 226 2 0 0 0 ID - -;
#X floatatom 129 239 2 0 0 0 ID - -;
#X obj 97 180 glsl_fragment;
#X obj 97 117 glsl_vertex;
#X obj 206 74 t b b;
#X obj 206 37 bng 30 250 50 0 empty empty empty 17 7 0 10 -262144 -1
-1;
#X obj 206 9 loadbang;
#X msg -24 266 noise 0 0 0;
#X obj 19 350 outlet;
#X msg 306 380 vel \$1;
#X floatatom 306 356 5 0 0 0 - - -;
#X obj 97 37 inlet;
#X msg 263 242 alpha \$1;
#X obj 272 207 inlet;
#X msg 174 114 open data/color.vert;
#X msg 108 150 open data/color.frag;
#X obj 307 305 bng 15 250 50 0 empty empty empty 17 7 0 10 -262144
-1 -1;
#X msg -10 235 noise 0 \$1 0;
#X obj -10 186 randomF 0.5;
#X obj -10 210 - 0.25;
#X obj 306 327 randomF 0.01;
#X connect 0 0 15 0;
#X connect 2 0 6 0;
#X connect 3 0 2 0;
#X connect 3 1 2 1;
#X connect 4 0 7 0;
#X connect 5 0 8 0;
#X connect 6 0 1 0;
#X connect 7 0 3 0;
#X connect 8 0 2 0;
#X connect 9 0 1 0;
#X connect 9 1 4 0;
#X connect 10 0 9 0;
#X connect 10 1 5 0;
#X connect 11 0 21 0;
#X connect 11 1 22 0;
#X connect 12 0 11 0;
#X connect 13 0 12 0;
#X connect 14 0 1 0;
#X connect 16 0 1 0;
#X connect 17 0 16 0;
#X connect 18 0 0 0;
#X connect 19 0 1 0;
#X connect 20 0 19 0;
#X connect 21 0 10 0;
#X connect 22 0 9 0;
#X connect 23 0 25 0;
#X connect 23 0 27 0;
#X connect 24 0 1 0;
#X connect 25 0 26 0;
#X connect 26 0 24 0;
#X connect 27 0 17 0;
#X restore 530 2 pd glsl;
#N canvas 930 295 723 611 sphere 0;
#X obj -29 321 separator;
#X obj 1 -14 inlet;
#X obj -32 477 outlet;
#X obj 4 10 alpha;
#X obj 53 2 tgl 15 0 empty empty empty 17 7 0 10 -262144 -1 -1 1 1
;
#X msg 75 22 auto \$1;
#X obj -33 419 translateXYZ 0 0 0;
#X obj -5 76 t a b;
#X obj 86 58 f;
#X obj 122 58 + 1;
#X obj -33 445 rotateXYZ 0 0 0;
#X obj 87 272 unpack f f f f f f;
#X msg 87 151 0 1 0 0 0 0;
#X msg 100 177 0 -1 0 0 0 180;
#X msg 107 204 1 0 0 0 0 -90;
#X msg 128 227 -1 0 0 0 0 90;
#X msg 201 188 0 0 1 90 0 0;
#X msg 207 156 0 0 -1 -90 0 0;
#X obj 86 86 % 6;
#X obj 234 45 > 6;
#X obj 234 74 sel 1 0;
#X msg 234 117 0 0 0;
#X obj -37 380 rotateXYZ 0 0 0;
#X obj -14 345 unpack f f f;
#X obj 261 312 outlet;
#X obj 87 122 sel 0 1 2 3 4 5;
#X obj -21 254 scale 1;
#X msg 3 205 1;
#X msg 289 105 0 45 45;
#X msg 34 220 1.02;
#X obj 127 86 t f f f;
#X obj 367 189 loadbang;
#X obj 268 266 + 1;
#X obj 78 -1 loadbang;
#X obj 370 324 table \$0-tex 12;
#X obj 269 236 tabread \$0-tex;
#X obj 447 199 init \$0;
#X floatatom 426 229 5 0 0 0 - - -;
#X obj 367 151 bng 15 250 50 0 empty empty empty 17 7 0 10 -262144
-1 -1;
#X obj -3 50 repeat 8;
#X obj 157 55 % 8;
#X msg 369 255 \; \$1-tex 0 0 1 2 2 1 1 0 2 1 0 0 1 2 1 2 0;
#X connect 0 0 22 0;
#X connect 1 0 3 0;
#X connect 3 0 39 0;
#X connect 4 0 3 1;
#X connect 4 0 5 0;
#X connect 5 0 3 0;
#X connect 6 0 10 0;
#X connect 7 0 26 0;
#X connect 7 1 8 0;
#X connect 8 0 9 0;
#X connect 8 0 30 0;
#X connect 9 0 40 0;
#X connect 10 0 2 0;
#X connect 11 0 6 1;
#X connect 11 1 6 2;
#X connect 11 2 6 3;
#X connect 11 3 10 1;
#X connect 11 4 10 2;
#X connect 11 5 10 3;
#X connect 12 0 11 0;
#X connect 13 0 11 0;
#X connect 14 0 11 0;
#X connect 15 0 11 0;
#X connect 16 0 11 0;
#X connect 17 0 11 0;
#X connect 18 0 25 0;
#X connect 19 0 20 0;
#X connect 20 0 21 0;
#X connect 20 0 27 0;
#X connect 20 1 28 0;
#X connect 20 1 29 0;
#X connect 21 0 23 0;
#X connect 22 0 6 0;
#X connect 23 0 22 1;
#X connect 23 1 22 2;
#X connect 23 2 22 3;
#X connect 25 0 12 0;
#X connect 25 1 13 0;
#X connect 25 2 14 0;
#X connect 25 3 15 0;
#X connect 25 4 16 0;
#X connect 25 5 17 0;
#X connect 26 0 0 0;
#X connect 27 0 26 1;
#X connect 28 0 23 0;
#X connect 29 0 26 1;
#X connect 30 0 18 0;
#X connect 30 1 19 0;
#X connect 30 2 35 0;
#X connect 31 0 36 0;
#X connect 32 0 24 0;
#X connect 33 0 4 0;
#X connect 35 0 32 0;
#X connect 36 0 37 0;
#X connect 37 0 41 0;
#X connect 38 0 31 0;
#X connect 39 0 7 0;
#X connect 40 0 8 1;
#X restore 394 70 pd sphere;
#X obj 192 376 scale 0.91;
#X obj 335 399 pix_texture;
#X obj 308 342 pix_flip;
#X obj 335 433 scale 0.91;
#X obj 438 205 gate 3;
#X obj 432 397 pix_texture;
#X obj 431 328 pix_flip;
#X obj 433 424 scale 0.91;
#X obj 544 117 scale 16;
#X obj 532 28 t a b;
#X obj 539 80 rotateXYZ;
#X obj 571 50 f;
#X obj 656 48 fmod 360;
#X obj 600 48 + 0.05;
#X obj 726 18 init \$1;
#X obj 724 50 expr if($f1==0 \, 16 \, $f1);
#X msg 237 49 \$1 1000;
#X obj 234 74 line;
#X msg -66 212 send /gh /12 \$1;
#X obj 184 410 model data/mesh.obj;
#X obj 335 466 model data/mesh.obj;
#X obj 433 457 model data/mesh.obj;
#X obj -9 280 t b;
#X obj 97 -156 r hid;
#X obj 97 -134 t a a a;
#X obj 172 -66 route key_145;
#X obj 97 -56 spigot;
#X obj 194 117 tgl 15 0 empty empty empty 17 7 0 10 -262144 -1 -1 1
1;
#X obj 97 -7 sel 1;
#X obj 160 28 line;
#X msg 160 5 \$1 20000;
#X obj 97 -32 route key_33;
#X obj 97 336 s totouch;
#X obj 97 309 packOSC;
#X msg 97 284 send /vj/t4 \$1;
#X obj -55 98 route /21 /t4;
#X msg 66 260 send /vj/21 \$1;
#X floatatom -17 151 5 0 0 0 - - -;
#X msg -17 172 send /gh /21 \$1;
#X obj 431 302 pix_image data/space_dot_1.png;
#X obj 308 308 pix_image data/space_dot_3.png;
#X obj 191 263 pix_image data/space_dot_2.png;
#X obj 471 179 alpha 1;
#X obj 395 146 colorRGB 1 1 1 1;
#X obj 680 411 tabwrite \$0-tex;
#X obj 682 300 repeat 8;
#X obj 738 333 f;
#X obj 765 335 + 1;
#X obj 794 335 % 8;
#X obj 681 324 t b b;
#X obj 681 359 random 3;
#X obj 682 277 bng 15 250 50 0 empty empty empty 17 7 0 10 -262144
-1 -1;
#X obj 756 190 r vj-vol;
#X obj 760 246 tgl 15 0 empty empty empty 17 7 0 10 -262144 -1 -1 0
1;
#X obj 755 216 > 0.5;
#X msg -9 314 send /gh /13 3;
#X connect 0 0 1 0;
#X connect 0 0 43 0;
#X connect 0 0 63 0;
#X connect 0 0 64 0;
#X connect 0 0 70 4;
#X connect 1 0 2 0;
#X connect 1 1 3 0;
#X connect 2 0 4 0;
#X connect 3 0 4 0;
#X connect 4 0 25 0;
#X connect 5 0 6 0;
#X connect 6 0 0 0;
#X connect 8 0 7 0;
#X connect 9 0 45 0;
#X connect 10 0 11 0;
#X connect 11 0 62 0;
#X connect 12 0 0 0;
#X connect 13 0 27 0;
#X connect 14 0 13 0;
#X connect 15 0 16 0;
#X connect 16 0 13 0;
#X connect 16 0 28 0;
#X connect 16 0 32 0;
#X connect 17 0 18 0;
#X connect 18 0 15 0;
#X connect 19 0 70 0;
#X connect 20 0 26 0;
#X connect 20 1 21 0;
#X connect 22 0 21 1;
#X connect 23 0 22 0;
#X connect 23 0 24 0;
#X connect 24 0 21 2;
#X connect 25 0 36 0;
#X connect 26 0 19 0;
#X connect 26 1 31 0;
#X connect 27 0 46 0;
#X connect 28 0 30 0;
#X connect 29 0 28 0;
#X connect 30 0 47 0;
#X connect 31 0 68 0;
#X connect 31 1 67 0;
#X connect 31 2 66 0;
#X connect 32 0 34 0;
#X connect 33 0 32 0;
#X connect 34 0 48 0;
#X connect 35 0 20 0;
#X connect 36 0 37 0;
#X connect 36 1 38 0;
#X connect 37 0 35 0;
#X connect 38 0 37 1;
#X connect 38 0 37 2;
#X connect 38 0 40 0;
#X connect 39 0 38 1;
#X connect 40 0 39 0;
#X connect 41 0 42 0;
#X connect 42 0 35 1;
#X connect 43 0 44 0;
#X connect 44 0 25 1;
#X connect 45 0 8 0;
#X connect 49 0 82 0;
#X connect 50 0 51 0;
#X connect 51 0 53 0;
#X connect 51 2 52 0;
#X connect 52 0 53 1;
#X connect 53 0 58 0;
#X connect 54 0 57 0;
#X connect 54 0 61 0;
#X connect 55 0 54 0;
#X connect 56 0 0 0;
#X connect 57 0 56 0;
#X connect 58 0 55 0;
#X connect 60 0 59 0;
#X connect 61 0 60 0;
#X connect 62 0 12 0;
#X connect 62 1 54 0;
#X connect 63 0 60 0;
#X connect 64 0 65 0;
#X connect 65 0 8 0;
#X connect 66 0 33 0;
#X connect 67 0 29 0;
#X connect 68 0 14 0;
#X connect 69 0 31 1;
#X connect 70 0 69 0;
#X connect 72 0 76 0;
#X connect 73 0 74 0;
#X connect 73 0 71 1;
#X connect 74 0 75 0;
#X connect 75 0 73 1;
#X connect 76 0 77 0;
#X connect 76 1 73 0;
#X connect 77 0 71 0;
#X connect 78 0 72 0;
#X connect 79 0 81 0;
#X connect 81 0 80 0;
#X connect 82 0 8 0;
#X coords 0 -1 1 1 110 35 1 100 100;
