#N canvas 109 117 1028 636 10;
#X obj 119 238 gemhead;
#X obj 119 307 rotateXYZ;
#X obj 165 423 s hight;
#X obj 119 267 t a b b;
#X obj 432 64 trails/ruler;
#X obj 119 332 s \$0-gemhead;
#X obj 315 36 r \$0-gemhead;
#X obj 432 39 r \$0-gemhead;
#X obj 105 117 hsl 100 15 0 1 0 0 empty empty Alpha 5 7 0 10 -258113
-1 -1 9900 1;
#X obj 136 151 sel 0;
#X msg 136 203 0;
#X obj 167 204 f;
#X obj 142 19 loadbang;
#X msg 142 45 0;
#X obj 317 107 r \$0-gemhead;
#X obj 434 110 r \$0-gemhead;
#X obj 316 178 r \$0-gemhead;
#X obj 433 181 r \$0-gemhead;
#X obj 318 249 r \$0-gemhead;
#X obj 435 252 r \$0-gemhead;
#X obj 320 327 r \$0-gemhead;
#X obj 322 398 r \$0-gemhead;
#X obj 321 469 r \$0-gemhead;
#X obj 323 540 r \$0-gemhead;
#X obj 484 324 r \$0-gemhead;
#X obj 486 395 r \$0-gemhead;
#X obj 485 466 r \$0-gemhead;
#X obj 487 537 r \$0-gemhead;
#X obj 652 326 r \$0-gemhead;
#X obj 654 397 r \$0-gemhead;
#X obj 653 468 r \$0-gemhead;
#X obj 655 539 r \$0-gemhead;
#X obj 816 323 r \$0-gemhead;
#X obj 818 394 r \$0-gemhead;
#X obj 817 465 r \$0-gemhead;
#X obj 819 536 r \$0-gemhead;
#X obj 13 151 s \$0-alpha;
#X obj 414 15 r \$0-alpha;
#X obj 501 13 r \$0-alpha;
#X obj 503 84 r \$0-alpha;
#X obj 502 155 r \$0-alpha;
#X obj 415 157 r \$0-alpha;
#X obj 417 228 r \$0-alpha;
#X obj 504 226 r \$0-alpha;
#X obj 416 86 r \$0-alpha;
#X obj 419 306 r \$0-alpha;
#X obj 421 377 r \$0-alpha;
#X obj 420 448 r \$0-alpha;
#X obj 422 519 r \$0-alpha;
#X obj 584 445 r \$0-alpha;
#X obj 586 516 r \$0-alpha;
#X obj 751 305 r \$0-alpha;
#X obj 753 376 r \$0-alpha;
#X obj 583 303 r \$0-alpha;
#X obj 585 374 r \$0-alpha;
#X obj 754 518 r \$0-alpha;
#X obj 752 447 r \$0-alpha;
#X obj 918 515 r \$0-alpha;
#X obj 916 444 r \$0-alpha;
#X obj 917 373 r \$0-alpha;
#X obj 915 302 r \$0-alpha;
#X msg 167 179 1;
#X obj 652 27 r \$0-gemhead;
#X obj 654 98 r \$0-gemhead;
#X obj 653 169 r \$0-gemhead;
#X obj 655 240 r \$0-gemhead;
#X obj 751 6 r \$0-alpha;
#X obj 753 77 r \$0-alpha;
#X obj 754 219 r \$0-alpha;
#X obj 752 148 r \$0-alpha;
#X floatatom 193 269 5 0 0 0 - - -;
#X floatatom 230 266 5 0 0 0 - - -;
#X floatatom 277 266 5 0 0 0 - - -;
#X obj 189 237 k_count 0.1 360;
#X obj 652 54 trails/neontrails;
#X obj 434 135 trails/ruler;
#X obj 433 206 trails/ruler;
#X obj 435 277 trails/ruler;
#X obj 315 63 trails/neontrails;
#X obj 320 354 trails/neontrails;
#X obj 317 134 trails/neontrails;
#X obj 316 205 trails/neontrails;
#X obj 318 276 trails/neontrails;
#X obj 322 425 trails/neontrails;
#X obj 321 496 trails/neontrails;
#X obj 323 567 trails/neontrails;
#X obj 484 351 trails/neontrails;
#X obj 486 422 trails/neontrails;
#X obj 485 493 trails/neontrails;
#X obj 487 564 trails/neontrails;
#X obj 652 353 trails/neontrails;
#X obj 654 424 trails/neontrails;
#X obj 653 495 trails/neontrails;
#X obj 655 566 trails/neontrails;
#X obj 816 350 trails/neontrails;
#X obj 818 421 trails/neontrails;
#X obj 817 492 trails/neontrails;
#X obj 819 563 trails/neontrails;
#X obj 654 125 trails/neontrails;
#X obj 653 196 trails/neontrails;
#X obj 655 267 trails/neontrails;
#X connect 0 0 3 0;
#X connect 1 0 5 0;
#X connect 3 0 1 0;
#X connect 3 1 73 0;
#X connect 6 0 78 0;
#X connect 7 0 4 0;
#X connect 8 0 9 0;
#X connect 8 0 36 0;
#X connect 9 0 10 0;
#X connect 9 1 61 0;
#X connect 10 0 11 0;
#X connect 11 0 0 0;
#X connect 12 0 13 0;
#X connect 13 0 8 0;
#X connect 14 0 80 0;
#X connect 15 0 75 0;
#X connect 16 0 81 0;
#X connect 17 0 76 0;
#X connect 18 0 82 0;
#X connect 19 0 77 0;
#X connect 20 0 79 0;
#X connect 21 0 83 0;
#X connect 22 0 84 0;
#X connect 23 0 85 0;
#X connect 24 0 86 0;
#X connect 25 0 87 0;
#X connect 26 0 88 0;
#X connect 27 0 89 0;
#X connect 28 0 90 0;
#X connect 29 0 91 0;
#X connect 30 0 92 0;
#X connect 31 0 93 0;
#X connect 32 0 94 0;
#X connect 33 0 95 0;
#X connect 34 0 96 0;
#X connect 35 0 97 0;
#X connect 37 0 78 1;
#X connect 38 0 4 1;
#X connect 39 0 75 1;
#X connect 40 0 76 1;
#X connect 41 0 81 1;
#X connect 42 0 82 1;
#X connect 43 0 77 1;
#X connect 44 0 80 1;
#X connect 45 0 79 1;
#X connect 46 0 83 1;
#X connect 47 0 84 1;
#X connect 48 0 85 1;
#X connect 49 0 88 1;
#X connect 50 0 89 1;
#X connect 51 0 90 1;
#X connect 52 0 91 1;
#X connect 53 0 86 1;
#X connect 54 0 87 1;
#X connect 55 0 93 1;
#X connect 56 0 92 1;
#X connect 57 0 97 1;
#X connect 58 0 96 1;
#X connect 59 0 95 1;
#X connect 60 0 94 1;
#X connect 61 0 11 0;
#X connect 62 0 74 0;
#X connect 63 0 98 0;
#X connect 64 0 99 0;
#X connect 65 0 100 0;
#X connect 66 0 74 1;
#X connect 67 0 98 1;
#X connect 68 0 100 1;
#X connect 69 0 99 1;
#X connect 70 0 1 1;
#X connect 71 0 1 2;
#X connect 72 0 1 3;
#X connect 73 0 70 0;
#X coords 0 -1 1 1 110 35 1 100 100;
