#N canvas 397 235 1079 608 10;
#X obj 106 117 hsl 100 15 0 1 0 0 empty empty Alpha 5 7 0 10 -258113
-1 -1 0 1;
#X obj 103 173 sel 0;
#X msg 103 225 0;
#X msg 134 201 1;
#X obj 134 226 f;
#X obj 143 19 loadbang;
#X msg 143 45 0;
#X obj -66 280 s toudp;
#X obj -66 253 packOSC;
#X floatatom -66 191 5 0 0 0 - - -;
#X msg -66 212 send /gh /2 \$1;
#X obj 38 49 r midi-3;
#X obj -55 50 r touchosc;
#X obj -55 74 routeOSC /vj;
#X floatatom -55 120 5 0 0 0 - - -;
#X obj -55 98 route /1;
#X obj 25 363 pix_texture;
#X obj 305 156 tgl 15 0 empty empty empty 17 7 0 10 -262144 -1 -1 0
1;
#X msg 305 176 rectangle \$1;
#X obj 305 109 loadbang;
#X msg 305 134 0;
#X obj 544 145 t a a a a;
#X obj 561 200 GEMglPolygonMode;
#X obj 607 143 GLdefine GL_FRONT_AND_BACK;
#X obj 654 117 loadbang;
#X obj 654 165 GLdefine GL_FILL;
#N canvas 726 280 467 479 glsl 0;
#X obj 97 75 gemhead;
#X obj 97 329 glsl_program;
#X obj 170 265 pack 0 0;
#X obj 191 245 t b f;
#X obj 191 200 change;
#X obj 129 216 change;
#X msg 170 288 link \$1 \$2;
#X floatatom 191 226 2 0 0 0 ID - -;
#X floatatom 129 239 2 0 0 0 ID - -;
#X obj 97 180 glsl_fragment;
#X obj 97 117 glsl_vertex;
#X obj 206 74 t b b;
#X obj 206 37 bng 30 250 50 0 empty empty empty 17 7 0 10 -262144 -1
-1;
#X obj 206 9 loadbang;
#X msg 174 114 open color.vert;
#X msg 108 150 open color.frag;
#X obj -10 165 tgl 15 0 empty empty empty 17 7 0 10 -262144 -1 -1 0
1;
#X obj -10 190 metro 10;
#X obj -10 213 k_random 0.1 0.2;
#X msg -24 266 noise 0 0 0;
#X obj 97 357 outlet;
#X msg 209 376 vel \$1;
#X floatatom 209 352 5 0 0 0 - - -;
#X obj 209 324 randomF 0.1;
#X msg -10 235 noise 0 \$1 0;
#X obj 97 37 inlet;
#X msg 263 242 alpha \$1;
#X obj 272 207 inlet;
#X connect 0 0 10 0;
#X connect 1 0 20 0;
#X connect 2 0 6 0;
#X connect 3 0 2 0;
#X connect 3 1 2 1;
#X connect 4 0 7 0;
#X connect 5 0 8 0;
#X connect 6 0 1 0;
#X connect 7 0 3 0;
#X connect 8 0 2 0;
#X connect 9 0 1 0;
#X connect 9 1 4 0;
#X connect 10 0 9 0;
#X connect 10 1 5 0;
#X connect 11 0 14 0;
#X connect 11 1 15 0;
#X connect 12 0 11 0;
#X connect 13 0 12 0;
#X connect 14 0 10 0;
#X connect 15 0 9 0;
#X connect 16 0 17 0;
#X connect 17 0 18 0;
#X connect 17 0 23 0;
#X connect 18 0 24 0;
#X connect 19 0 1 0;
#X connect 21 0 1 0;
#X connect 22 0 21 0;
#X connect 23 0 22 0;
#X connect 24 0 1 0;
#X connect 25 0 0 0;
#X connect 26 0 1 0;
#X connect 27 0 26 0;
#X restore 544 25 pd glsl;
#N canvas 742 117 723 611 sphere 0;
#X obj -29 321 separator;
#X obj 1 -14 inlet;
#X obj -32 477 outlet;
#X obj 4 10 alpha;
#X obj 53 2 tgl 15 0 empty empty empty 17 7 0 10 -262144 -1 -1 1 1
;
#X msg 75 21 auto \$1;
#X obj -5 76 t a b;
#X obj 83 80 f;
#X obj 111 79 + 1;
#X obj 90 308 unpack f f f f f f;
#X obj 378 259 outlet;
#X obj 84 164 sel 0 1 2 3 4 5;
#X obj 78 -1 loadbang;
#X obj -3 50 repeat 6;
#X obj 139 79 % 6;
#X obj -33 419 translateXYZ 0 0 0;
#X obj -33 445 rotateXYZ 0 0 0;
#X msg 84 192 0 1 0 90 0 0;
#X msg 99 217 0 -1 0 -90 0 0;
#X obj 378 232 + 1;
#X msg 116 258 0 0 1 0 0 0;
#X msg 128 278 0 0 -1 0 0 0;
#X obj 83 106 t f f;
#X msg 228 220 -1 0 0 0 90 0;
#X msg 193 247 1 0 0 0 90 0;
#X connect 0 0 15 0;
#X connect 1 0 3 0;
#X connect 3 0 13 0;
#X connect 4 0 3 1;
#X connect 4 0 5 0;
#X connect 5 0 3 0;
#X connect 6 0 0 0;
#X connect 6 1 7 0;
#X connect 7 0 8 0;
#X connect 7 0 22 0;
#X connect 8 0 14 0;
#X connect 9 0 15 1;
#X connect 9 1 15 2;
#X connect 9 2 15 3;
#X connect 9 3 16 1;
#X connect 9 4 16 2;
#X connect 9 5 16 3;
#X connect 11 0 17 0;
#X connect 11 1 18 0;
#X connect 11 2 20 0;
#X connect 11 3 21 0;
#X connect 11 4 24 0;
#X connect 11 5 23 0;
#X connect 12 0 4 0;
#X connect 13 0 6 0;
#X connect 14 0 7 1;
#X connect 15 0 16 0;
#X connect 16 0 2 0;
#X connect 17 0 9 0;
#X connect 18 0 9 0;
#X connect 19 0 10 0;
#X connect 20 0 9 0;
#X connect 21 0 9 0;
#X connect 22 0 11 0;
#X connect 22 1 19 0;
#X connect 23 0 9 0;
#X connect 24 0 9 0;
#X restore 459 189 pd sphere;
#X obj 127 395 pix_texture;
#X obj 220 447 pix_texture;
#X obj 544 117 scale 16;
#X obj 735 49 init \$1;
#X obj 735 73 expr if($f1==0 \, 20 \, $f1);
#X obj 366 222 gate 6 5 4 3 2 1;
#X obj 325 502 pix_texture;
#X obj 498 461 pix_texture;
#X obj 668 435 pix_texture;
#X obj 127 334 pix_image stars/down.png;
#X obj 24 308 pix_image stars/up.png;
#X obj 25 388 mesh_square 3 3;
#X obj 127 422 mesh_square 3 3;
#X obj 220 474 mesh_square 3 3;
#X obj 325 527 mesh_square 3 3;
#X obj 498 483 mesh_square 3 3;
#X obj 668 464 mesh_square 3 3;
#X obj 668 374 pix_image stars/left.png;
#X obj 498 400 pix_image stars/right.png;
#X obj 324 447 pix_image stars/back.png;
#X obj 543 55 t a b;
#X obj 586 54 f;
#X obj 670 52 fmod 360;
#X obj 543 93 rotateXYZ;
#X obj 617 54 + 0.01;
#X obj 219 386 pix_image stars/front.png;
#X connect 0 0 1 0;
#X connect 0 0 26 1;
#X connect 1 0 2 0;
#X connect 1 1 3 0;
#X connect 2 0 4 0;
#X connect 3 0 4 0;
#X connect 4 0 26 0;
#X connect 5 0 6 0;
#X connect 6 0 0 0;
#X connect 8 0 7 0;
#X connect 9 0 10 0;
#X connect 10 0 8 0;
#X connect 11 0 0 0;
#X connect 12 0 13 0;
#X connect 13 0 15 0;
#X connect 15 0 14 0;
#X connect 16 0 39 0;
#X connect 17 0 18 0;
#X connect 18 0 16 0;
#X connect 18 0 28 0;
#X connect 18 0 29 0;
#X connect 18 0 34 0;
#X connect 18 0 35 0;
#X connect 18 0 36 0;
#X connect 19 0 20 0;
#X connect 20 0 17 0;
#X connect 21 0 27 0;
#X connect 21 1 22 0;
#X connect 23 0 22 1;
#X connect 24 0 23 0;
#X connect 24 0 25 0;
#X connect 25 0 22 2;
#X connect 26 0 48 0;
#X connect 27 0 33 1;
#X connect 27 1 33 0;
#X connect 28 0 40 0;
#X connect 29 0 41 0;
#X connect 30 0 21 0;
#X connect 31 0 32 0;
#X connect 32 0 30 1;
#X connect 33 0 38 0;
#X connect 33 1 37 0;
#X connect 33 2 53 0;
#X connect 33 3 47 0;
#X connect 33 4 46 0;
#X connect 33 5 45 0;
#X connect 34 0 42 0;
#X connect 35 0 43 0;
#X connect 36 0 44 0;
#X connect 37 0 28 0;
#X connect 38 0 16 0;
#X connect 45 0 36 0;
#X connect 46 0 35 0;
#X connect 47 0 34 0;
#X connect 48 0 51 0;
#X connect 48 1 49 0;
#X connect 49 0 51 1;
#X connect 49 0 51 2;
#X connect 49 0 51 3;
#X connect 49 0 52 0;
#X connect 50 0 49 1;
#X connect 51 0 30 0;
#X connect 52 0 50 0;
#X connect 53 0 29 0;
#X coords 0 -1 1 1 110 35 1 100 100;
