#N canvas 271 95 1074 442 10;
#X obj 390 64 r vj-vol;
#X floatatom 390 88 5 0 0 0 - - -;
#X obj 106 117 hsl 100 15 0 1 0 0 empty empty Alpha 5 7 0 10 -258113
-1 -1 9000 1;
#X obj 103 173 sel 0;
#X msg 103 225 0;
#X msg 134 201 1;
#X obj 134 226 f;
#X obj 543 -72 gemhead;
#X floatatom 389 -45 5 0 0 2 height - -;
#X obj 389 -112 loadbang;
#X msg 389 -16 height \$1;
#X obj 592 201 loadbang;
#X obj 294 124 loadbang;
#X obj 543 -22 alpha;
#X msg 390 137 noise \$1;
#X obj 551 181 t a b;
#X msg 294 173 K1 0.05;
#X obj 294 144 t b b b;
#X msg 543 -98 1;
#X obj 143 19 loadbang;
#X msg 143 45 0;
#X obj 185 195 hradio 15 1 0 3 empty empty empty 0 -8 0 10 -262144
-1 -1 2;
#X msg 185 262 draw line;
#X obj 185 218 sel 0 1 2;
#X msg 202 287 draw fill;
#X msg 220 242 draw point;
#X msg 313 204 D1 0.1;
#X obj 390 112 * 10;
#X msg 636 -44 \$1 1000;
#X obj 636 -21 line;
#X obj 543 5 colorRGB 1 1 1 1;
#X obj 570 -46 tgl 15 0 empty empty empty 17 7 0 10 -262144 -1 -1 1
1;
#X msg 467 -59 auto 1;
#X obj 545 32 t a b;
#X obj 677 14 f;
#X obj 706 14 + 0.1;
#X obj 750 14 fmod 360;
#X floatatom 677 39 5 0 0 0 - - -;
#X obj 551 123 rotateXYZ 90 0 0;
#X msg 592 229 1;
#X obj 551 97 translateXYZ 0 -8 0;
#X obj 551 151 scaleXYZ 60 60 0.5;
#X msg 389 -85 0.04;
#X msg 176 46 2;
#X msg 196 66 1;
#X obj -66 280 s toudp;
#X obj -66 253 packOSC;
#X floatatom -66 191 5 0 0 0 - - -;
#X msg -66 212 send /gh /2 \$1;
#X obj 38 49 r midi-3;
#X obj 552 59 GEMglPointSize 2;
#X obj -55 50 r touchosc;
#X obj -55 74 routeOSC /vj;
#X floatatom -55 120 5 0 0 0 - - -;
#X obj -55 98 route /1;
#X obj 551 286 newWave 110;
#X obj 812 -91 r vj-vol;
#X obj 812 61 tgl 15 0 empty empty empty 17 7 0 10 -262144 -1 -1 1
1;
#X floatatom 812 -66 5 0 0 0 - - -;
#X obj 812 -40 t f f;
#X obj 812 -9 -;
#X floatatom 812 17 5 0 0 0 - - -;
#X obj 812 39 expr if(abs($f1)>0.02 \, 1 \, 0);
#X msg 829 193 1;
#X obj 812 107 random 3;
#X obj 812 82 sel 1;
#X obj 812 133 sel 0 1 2;
#X msg 846 159 2;
#X msg 812 165 3;
#X connect 0 0 1 0;
#X connect 1 0 27 0;
#X connect 2 0 3 0;
#X connect 2 0 28 0;
#X connect 2 0 47 0;
#X connect 3 0 4 0;
#X connect 3 1 5 0;
#X connect 4 0 6 0;
#X connect 5 0 6 0;
#X connect 6 0 7 0;
#X connect 7 0 13 0;
#X connect 8 0 10 0;
#X connect 9 0 18 0;
#X connect 9 0 42 0;
#X connect 9 0 32 0;
#X connect 10 0 55 0;
#X connect 11 0 39 0;
#X connect 12 0 17 0;
#X connect 13 0 30 0;
#X connect 14 0 55 0;
#X connect 15 0 55 0;
#X connect 15 1 55 0;
#X connect 16 0 55 0;
#X connect 17 0 16 0;
#X connect 17 1 26 0;
#X connect 18 0 7 0;
#X connect 19 0 20 0;
#X connect 19 0 43 0;
#X connect 19 0 44 0;
#X connect 20 0 2 0;
#X connect 21 0 23 0;
#X connect 22 0 55 0;
#X connect 23 0 22 0;
#X connect 23 1 24 0;
#X connect 23 2 25 0;
#X connect 24 0 55 0;
#X connect 25 0 55 0;
#X connect 26 0 55 0;
#X connect 27 0 14 0;
#X connect 28 0 29 0;
#X connect 29 0 30 4;
#X connect 30 0 33 0;
#X connect 31 0 13 1;
#X connect 32 0 13 0;
#X connect 33 0 50 0;
#X connect 33 1 34 0;
#X connect 34 0 35 0;
#X connect 34 0 37 0;
#X connect 35 0 36 0;
#X connect 36 0 34 1;
#X connect 37 0 38 3;
#X connect 38 0 41 0;
#X connect 39 0 55 1;
#X connect 40 0 38 0;
#X connect 41 0 15 0;
#X connect 42 0 8 0;
#X connect 43 0 21 0;
#X connect 44 0 31 0;
#X connect 46 0 45 0;
#X connect 47 0 48 0;
#X connect 48 0 46 0;
#X connect 49 0 2 0;
#X connect 50 0 40 0;
#X connect 51 0 52 0;
#X connect 52 0 54 0;
#X connect 53 0 2 0;
#X connect 54 0 53 0;
#X connect 56 0 58 0;
#X connect 57 0 65 0;
#X connect 58 0 59 0;
#X connect 59 0 60 1;
#X connect 59 1 60 0;
#X connect 60 0 61 0;
#X connect 61 0 62 0;
#X connect 62 0 57 0;
#X connect 63 0 50 1;
#X connect 64 0 66 0;
#X connect 65 0 64 0;
#X connect 66 0 68 0;
#X connect 66 1 63 0;
#X connect 66 2 67 0;
#X connect 68 0 50 1;
#X coords 0 -1 1 1 110 35 1 100 100;
