#N canvas 504 23 854 778 10;
#X obj 399 -38 r vj-vol;
#X floatatom 399 -14 5 0 0 0 - - -;
#X obj 106 122 hsl 100 15 0 1 0 0 empty empty Alpha 5 7 0 10 -258113
-1 -1 9900 1;
#X obj 103 149 sel 0;
#X msg 103 201 0;
#X msg 134 177 1;
#X obj 134 202 f;
#X obj 78 51 loadbang;
#X msg 78 77 0;
#X floatatom 190 163 5 0 0 0 - - -;
#X obj 342 117 part_color;
#X obj 276 300 loadbang;
#X obj 342 146 t a b;
#X obj 343 352 alpha;
#X obj 342 180 part_size 0.02;
#X obj 343 303 part_orbitpoint 0 0 0 0.01;
#X obj 343 401 part_info;
#X obj 342 505 separator;
#X obj 342 677 scale;
#X obj 342 568 translateXYZ 0 0 0;
#X msg 423 446 \$1 \$2 \$3;
#X obj 423 467 unpack f f f;
#X msg 399 27 speed \$1;
#X obj 423 156 + 0.01;
#X obj 342 654 colorRGB 0 0 0 0;
#X obj 343 256 part_source 20;
#X obj 343 229 part_velocity sphere 0 0 0 0.2;
#X obj 547 501 t a b;
#X obj 369 622 * 1;
#X obj 398 622 * 1;
#X obj 426 622 * 1;
#X obj 473 654 * 1;
#X obj 424 134 randomF 0.03;
#X obj 342 84 rotateXYZ 0 0 0;
#X obj 369 598 unpack f f f f;
#X obj 342 57 part_head 600;
#X obj 370 332 tgl 15 0 empty empty empty 17 7 0 10 -262144 -1 -1 1
1;
#X obj 547 588 expr if($f1%$f2==0 \, 1 \, 0.6);
#X obj 482 354 tabwrite pos--x;
#X obj 482 385 tabwrite pos--y;
#X obj 480 324 t f f f;
#X obj 483 409 tabwrite pos--z;
#X obj 74 560 separator;
#N canvas 0 22 450 300 ss 0;
#X obj 189 149 tabread pos--x;
#X obj 234 194 tabread pos--z;
#X obj 192 91 inlet;
#X obj 190 114 t f f f;
#X obj 184 217 pack f f f;
#X obj 183 251 outlet;
#X obj 211 172 tabread pos--y;
#X connect 0 0 4 0;
#X connect 1 0 4 2;
#X connect 2 0 3 0;
#X connect 3 0 0 0;
#X connect 3 1 6 0;
#X connect 3 2 1 0;
#X connect 4 0 5 0;
#X connect 6 0 4 1;
#X restore 93 661 pd ss;
#X obj -1 625 loadbang;
#X obj 74 686 curve 2;
#X obj 93 609 t f f b;
#X msg 132 638 0 0 0;
#X obj 342 450 t a a;
#X obj 351 427 t f f;
#X obj 93 516 spigot;
#X obj 127 491 expr if($f1%$f2==0 \, 1 \, 0);
#X obj 93 466 t f f;
#X msg -1 649 draw line;
#X obj 488 592 line;
#X obj 343 378 part_killold 40;
#X floatatom 496 281 5 0 0 0 - - -;
#X msg 456 80 1 0 0;
#X obj 343 28 gemhead;
#X obj -16 257 table pos--x 1000;
#X obj -17 283 table pos--y 1000;
#X obj -17 312 table pos--z 1000;
#X obj 456 47 loadbang;
#X msg 488 568 \$1 1000;
#X obj 574 551 + 20;
#X obj 574 527 random 20;
#X obj 399 6 * 2;
#X obj 405 683 expr if($f1%$f2==0 \, 3.5 \, 2);
#X obj 488 499 * 1;
#X obj 447 497 * 1;
#X obj 410 499 * 1;
#X msg -81 649 width 1;
#X obj 551 223 r vj-pitch-1;
#X obj 550 246 / 50;
#X obj 74 583 colorRGB 1 1 1 1;
#X obj 473 633 * 1;
#X obj 361 204 part_targetcolor 1 0 0 1 0.02;
#X msg 276 324 auto 1;
#X obj 342 712 circle 1 10;
#X connect 0 0 1 0;
#X connect 1 0 66 0;
#X connect 2 0 3 0;
#X connect 2 0 9 0;
#X connect 3 0 4 0;
#X connect 3 1 5 0;
#X connect 4 0 6 0;
#X connect 5 0 6 0;
#X connect 6 0 58 0;
#X connect 7 0 8 0;
#X connect 8 0 2 0;
#X connect 9 0 63 0;
#X connect 9 0 74 4;
#X connect 10 0 12 0;
#X connect 11 0 77 0;
#X connect 11 0 36 0;
#X connect 12 0 14 0;
#X connect 12 1 32 0;
#X connect 13 0 55 0;
#X connect 14 0 26 0;
#X connect 15 0 13 0;
#X connect 16 0 48 0;
#X connect 16 0 42 0;
#X connect 16 1 40 0;
#X connect 16 1 49 0;
#X connect 16 2 20 0;
#X connect 16 3 34 0;
#X connect 16 5 18 1;
#X connect 17 0 19 0;
#X connect 18 0 78 0;
#X connect 19 0 24 0;
#X connect 20 0 21 0;
#X connect 21 0 70 0;
#X connect 21 1 69 0;
#X connect 21 2 68 0;
#X connect 22 0 35 0;
#X connect 23 0 14 1;
#X connect 24 0 18 0;
#X connect 25 0 15 0;
#X connect 26 0 25 0;
#X connect 27 0 37 0;
#X connect 27 0 67 0;
#X connect 27 1 65 0;
#X connect 28 0 24 1;
#X connect 29 0 24 2;
#X connect 30 0 24 3;
#X connect 31 0 24 4;
#X connect 32 0 23 0;
#X connect 33 0 10 0;
#X connect 34 0 28 0;
#X connect 34 1 29 0;
#X connect 34 2 30 0;
#X connect 34 3 75 0;
#X connect 35 0 33 0;
#X connect 36 0 13 1;
#X connect 37 0 28 1;
#X connect 37 0 29 1;
#X connect 37 0 30 1;
#X connect 37 0 31 1;
#X connect 40 0 39 1;
#X connect 40 1 38 1;
#X connect 40 2 41 1;
#X connect 42 0 74 0;
#X connect 43 0 45 1;
#X connect 44 0 53 0;
#X connect 44 0 71 0;
#X connect 46 0 43 0;
#X connect 46 2 47 0;
#X connect 47 0 45 2;
#X connect 48 0 17 0;
#X connect 49 0 52 0;
#X connect 49 1 27 0;
#X connect 50 0 46 0;
#X connect 51 0 50 1;
#X connect 52 0 50 0;
#X connect 52 1 51 0;
#X connect 53 0 45 0;
#X connect 54 0 75 1;
#X connect 55 0 16 0;
#X connect 56 0 15 2;
#X connect 57 0 10 1;
#X connect 57 0 10 2;
#X connect 58 0 35 0;
#X connect 62 0 57 0;
#X connect 63 0 54 0;
#X connect 64 0 37 1;
#X connect 64 0 51 1;
#X connect 64 0 67 1;
#X connect 65 0 64 0;
#X connect 66 0 22 0;
#X connect 67 0 78 1;
#X connect 68 0 19 3;
#X connect 68 0 41 0;
#X connect 69 0 19 2;
#X connect 69 0 39 0;
#X connect 70 0 19 1;
#X connect 70 0 38 0;
#X connect 71 0 45 0;
#X connect 72 0 73 0;
#X connect 73 0 56 0;
#X connect 74 0 45 0;
#X connect 75 0 31 0;
#X connect 77 0 13 0;
#X coords 0 -1 1 1 110 40 1 100 100;
