#N canvas 536 91 1059 667 10;
#X obj 193 192 repeat 4;
#X obj 193 220 t a b;
#X obj 193 273 separator;
#X obj 192 590 polygon 3;
#X obj 192 485 t a b b b;
#X obj 78 464 loadbang;
#X obj 193 317 rotateXYZ 0 0 0;
#X obj 251 294 * 90;
#X msg 78 489 draw fill;
#X msg 209 522 -1 -1 0;
#X msg 226 551 1 -1 0;
#X msg 262 519 0 1 -1;
#X obj 220 245 k_count 1 4;
#X obj 193 342 translateXYZ 0 0 1;
#X obj 208 -64 inlet;
#X obj 193 154 separator;
#X obj 667 210 separator;
#X obj 667 254 repeat 4;
#X obj 667 282 t a b;
#X obj 667 335 separator;
#X obj 667 596 polygon 3;
#X obj 667 491 t a b b b;
#X obj 667 379 rotateXYZ 0 0 0;
#X obj 725 356 * 90;
#X obj 694 307 k_count 1 4;
#X obj 667 404 translateXYZ 0 0 1;
#X obj 193 116 spigot;
#X obj 667 183 spigot;
#X obj 208 -6 t a a a a;
#X obj 323 438 separator;
#X obj 537 195 separator;
#X obj 323 400 spigot;
#X obj 455 324 tgl 15 0 empty empty empty 17 7 0 10 -262144 -1 -1 1
1;
#X obj 537 168 spigot;
#X obj 570 143 tgl 15 0 empty empty empty 17 7 0 10 -262144 -1 -1 1
1;
#X obj 447 535 loadbang;
#X msg 447 560 draw fill;
#X obj 509 356 loadbang;
#X obj 323 597 square 1;
#X obj 323 560 rotateXYZ 90 0 0;
#X obj 537 323 rotateXYZ 90 0 0;
#X obj 537 228 translateXYZ 0 -1 0;
#X obj 537 420 square 1;
#X obj 323 537 alpha;
#X obj 537 296 alpha;
#X obj 667 436 colorRGB 1 1 1;
#X obj 537 271 colorRGB 1 1 1;
#X obj 217 375 + 0;
#X obj 249 375 + 0;
#X obj 282 376 + 0;
#X obj 359 0 inlet;
#X obj 365 318 unpack f f f;
#X obj 317 245 + 1;
#X obj 323 469 translateXYZ 0 -1 0;
#X obj 359 32 route color width drawfill drawline;
#X msg 509 380 draw line;
#X msg 584 373 width \$1;
#X obj 393 411 + 0.3;
#X obj 317 275 / 5;
#X obj 453 -27 loadbang;
#X msg 453 -5 drawfill 1;
#X obj 193 416 colorRGB 1 1 1;
#X obj 323 512 colorRGB 1 1 1;
#X msg 684 528 -1.01 -1.01 0;
#X msg 777 526 0 1.01 -1.01;
#X msg 701 556 1.01 -1.01 0;
#X connect 0 0 1 0;
#X connect 1 0 2 0;
#X connect 1 1 12 0;
#X connect 2 0 6 0;
#X connect 4 0 3 0;
#X connect 4 1 9 0;
#X connect 4 2 10 0;
#X connect 4 3 11 0;
#X connect 5 0 8 0;
#X connect 6 0 13 0;
#X connect 7 0 6 2;
#X connect 8 0 3 0;
#X connect 9 0 3 1;
#X connect 10 0 3 2;
#X connect 11 0 3 3;
#X connect 12 0 7 0;
#X connect 12 0 52 0;
#X connect 13 0 61 0;
#X connect 14 0 28 0;
#X connect 15 0 0 0;
#X connect 16 0 17 0;
#X connect 17 0 18 0;
#X connect 18 0 19 0;
#X connect 18 1 24 0;
#X connect 19 0 22 0;
#X connect 21 0 20 0;
#X connect 21 1 63 0;
#X connect 21 2 65 0;
#X connect 21 3 64 0;
#X connect 22 0 25 0;
#X connect 23 0 22 2;
#X connect 24 0 23 0;
#X connect 25 0 45 0;
#X connect 26 0 15 0;
#X connect 27 0 16 0;
#X connect 28 0 26 0;
#X connect 28 1 27 0;
#X connect 28 2 31 0;
#X connect 28 3 33 0;
#X connect 29 0 53 0;
#X connect 30 0 41 0;
#X connect 31 0 29 0;
#X connect 32 0 31 1;
#X connect 32 0 26 1;
#X connect 33 0 30 0;
#X connect 34 0 33 1;
#X connect 34 0 27 1;
#X connect 35 0 36 0;
#X connect 36 0 38 0;
#X connect 37 0 55 0;
#X connect 39 0 38 0;
#X connect 40 0 42 0;
#X connect 41 0 46 0;
#X connect 43 0 39 0;
#X connect 44 0 40 0;
#X connect 45 0 21 0;
#X connect 46 0 44 0;
#X connect 47 0 61 1;
#X connect 48 0 61 2;
#X connect 49 0 61 3;
#X connect 50 0 54 0;
#X connect 51 0 47 1;
#X connect 51 0 62 1;
#X connect 51 1 48 1;
#X connect 51 1 57 0;
#X connect 51 2 49 1;
#X connect 51 2 62 3;
#X connect 52 0 58 0;
#X connect 53 0 62 0;
#X connect 54 0 51 0;
#X connect 54 1 56 0;
#X connect 54 2 32 0;
#X connect 54 3 34 0;
#X connect 55 0 42 0;
#X connect 55 0 20 0;
#X connect 56 0 42 0;
#X connect 56 0 20 0;
#X connect 57 0 62 2;
#X connect 58 0 47 0;
#X connect 58 0 48 0;
#X connect 58 0 49 0;
#X connect 59 0 60 0;
#X connect 60 0 54 0;
#X connect 61 0 4 0;
#X connect 62 0 43 0;
#X connect 63 0 20 1;
#X connect 64 0 20 3;
#X connect 65 0 20 2;
