#N canvas 476 195 318 357 10;
#X obj 41 146 gemwin;
#X obj 40 176 gemhead;
#X msg 41 120 reset FSAA 8 \, create \, 1;
#X msg 24 98 destroy;
#X obj 40 294 vj_pyramid;
#X obj 91 201 k_count 1 360;
#X obj 40 198 t a b;
#X obj 40 236 rotateXYZ;
#X msg 122 262 drawline 1 \, width 1;
#X obj 122 235 loadbang;
#X connect 1 0 6 0;
#X connect 2 0 0 0;
#X connect 3 0 0 0;
#X connect 5 0 7 1;
#X connect 5 0 7 2;
#X connect 5 0 7 3;
#X connect 6 0 7 0;
#X connect 6 1 5 0;
#X connect 7 0 4 0;
#X connect 8 0 4 1;
#X connect 9 0 8 0;
