#N canvas 466 251 877 592 10;
#X obj 73 -263 inlet;
#X obj 162 -257 inlet;
#X obj 175 199 f;
#X obj 205 200 + 1;
#X obj 133 137 t a b;
#X obj 114 57 GEMglEnd;
#X obj 184 82 GEMglBegin;
#X obj 114 26 t a a a;
#X obj 133 277 GEMglVertex3f 0 0 0;
#X obj 133 114 repeat 100;
#N canvas 366 43 987 704 shape 0;
#X obj 107 416 pack f f 0;
#X obj 107 345 t f f;
#X obj 326 368 pack f f 0;
#X obj 326 297 t f f;
#X obj 272 77 t f f;
#X floatatom 272 47 5 0 0 0 - - -;
#X obj 127 -58 inlet;
#X obj 272 17 inlet;
#X obj 107 452 outlet;
#X obj 426 234 t f f;
#X text 233 391 out circle;
#X obj 374 7 init \$1;
#X obj 107 366 expr sin($f1)*1;
#X obj 134 389 expr cos($f1)*1;
#X obj 374 45 moses 0;
#X msg 374 73 0.5;
#X obj 374 125 s \$0-in;
#X obj 453 291 r \$0-in;
#X obj 326 318 expr sin($f1)*$f2;
#X obj 354 343 expr cos($f1)*$f2;
#X obj 127 -17 t f f;
#X obj 153 11 % 2;
#X obj 153 36 + 1;
#X obj 153 66 gate 2;
#X obj 107 321 expr ($f1/99*$f2)*3.141592*2;
#X obj 326 272 expr (($f1/99*$f2))*3.141592*2;
#X obj 467 -50 inlet;
#X connect 0 0 8 0;
#X connect 1 0 12 0;
#X connect 1 1 13 0;
#X connect 2 0 8 0;
#X connect 3 0 18 0;
#X connect 3 1 19 0;
#X connect 4 0 24 1;
#X connect 4 1 9 0;
#X connect 5 0 4 0;
#X connect 6 0 20 0;
#X connect 7 0 5 0;
#X connect 9 0 25 1;
#X connect 11 0 14 0;
#X connect 12 0 0 0;
#X connect 13 0 0 1;
#X connect 14 0 15 0;
#X connect 14 1 16 0;
#X connect 15 0 16 0;
#X connect 17 0 18 1;
#X connect 17 0 19 1;
#X connect 18 0 2 0;
#X connect 19 0 2 1;
#X connect 20 0 23 1;
#X connect 20 1 21 0;
#X connect 21 0 22 0;
#X connect 22 0 23 0;
#X connect 23 0 24 0;
#X connect 23 1 25 0;
#X connect 24 0 1 0;
#X connect 25 0 3 0;
#X connect 26 0 14 0;
#X restore 175 223 pd shape;
#X obj 175 249 unpack f f f;
#X obj 235 198 % 100;
#X obj 114 -80 separator;
#X obj -38 205 f;
#X obj -8 206 + 1;
#X obj -80 143 t a b;
#X obj -99 63 GEMglEnd;
#X obj -29 88 GEMglBegin;
#X obj -99 32 t a a a;
#X obj 28 18 loadbang;
#X obj -80 283 GEMglVertex3f 0 0 0;
#X obj -80 120 repeat 100;
#N canvas 366 43 987 704 shape 0;
#X obj 107 416 pack f f 0;
#X obj 107 345 t f f;
#X obj 295 367 pack f f 0;
#X obj 295 296 t f f;
#X obj 127 -31 moses 50;
#X obj 172 -7 - 50;
#X obj 488 379 pack f f 0;
#X obj 488 308 t f f;
#X obj 735 329 pack f f 0;
#X obj 735 258 t f f;
#X obj 272 77 t f f;
#X obj 586 128 t f f;
#X floatatom 272 47 5 0 0 0 - - -;
#X obj 127 -58 inlet;
#X obj 272 17 inlet;
#X obj 107 452 outlet;
#X obj 113 256 moses 48;
#X obj 272 208 t f f;
#X obj 501 191 moses 48;
#X obj 588 245 t f f;
#X obj 107 321 expr ($f1/48*$f2)*3.141592*2;
#X obj 295 272 expr ($f1/48*$f2)*3.141592*2;
#X text 365 367 in circle;
#X text 233 391 out circle;
#X obj 488 283 expr ($f2-($f1/48*$f2))*3.141592*2;
#X obj 735 235 expr ($f2-($f1/48*$f2))*3.141592*2;
#X obj 374 7 init \$1;
#X obj 107 366 expr sin($f1)*1;
#X obj 134 389 expr cos($f1)*1;
#X obj 735 279 expr sin($f1)*1;
#X obj 763 302 expr cos($f1)*1;
#X obj 374 45 moses 0;
#X msg 374 73 0.5;
#X obj 374 125 s \$0-in;
#X obj 394 292 r \$0-in;
#X obj 295 317 expr sin($f1)*$f2;
#X obj 323 340 expr cos($f1)*$f2;
#X obj 615 302 r \$0-in;
#X obj 488 329 expr sin($f1)*$f2;
#X obj 516 354 expr cos($f1)*$f2;
#X msg 295 245 48;
#X msg 735 205 48;
#X obj 501 215 + 0.5;
#X obj 114 289 + 0.5;
#X obj 418 -33 inlet;
#X connect 0 0 15 0;
#X connect 1 0 27 0;
#X connect 1 1 28 0;
#X connect 2 0 15 0;
#X connect 3 0 35 0;
#X connect 3 1 36 0;
#X connect 4 0 16 0;
#X connect 4 1 5 0;
#X connect 5 0 18 0;
#X connect 6 0 15 0;
#X connect 7 0 38 0;
#X connect 7 1 39 0;
#X connect 8 0 15 0;
#X connect 9 0 29 0;
#X connect 9 1 30 0;
#X connect 10 0 17 0;
#X connect 10 1 11 0;
#X connect 11 0 19 0;
#X connect 12 0 10 0;
#X connect 13 0 4 0;
#X connect 14 0 12 0;
#X connect 16 0 43 0;
#X connect 16 1 40 0;
#X connect 17 0 20 1;
#X connect 17 1 21 1;
#X connect 18 0 42 0;
#X connect 18 1 41 0;
#X connect 19 0 24 1;
#X connect 19 1 25 1;
#X connect 20 0 1 0;
#X connect 21 0 3 0;
#X connect 24 0 7 0;
#X connect 25 0 9 0;
#X connect 26 0 31 0;
#X connect 27 0 0 0;
#X connect 28 0 0 1;
#X connect 29 0 8 0;
#X connect 30 0 8 1;
#X connect 31 0 32 0;
#X connect 31 1 33 0;
#X connect 32 0 33 0;
#X connect 34 0 35 1;
#X connect 34 0 36 1;
#X connect 35 0 2 0;
#X connect 36 0 2 1;
#X connect 37 0 38 1;
#X connect 37 0 39 1;
#X connect 38 0 6 0;
#X connect 39 0 6 1;
#X connect 40 0 21 0;
#X connect 41 0 25 0;
#X connect 42 0 24 0;
#X connect 43 0 20 0;
#X connect 44 0 31 0;
#X restore -38 229 pd shape;
#X obj -38 255 unpack f f f;
#X obj 22 204 % 100;
#X obj -99 -74 separator;
#X msg 28 40 2;
#X obj -99 -45 colorRGB 1 1 1;
#X obj -99 5 GEMglLineWidth 1;
#X obj 236 21 loadbang;
#X obj 236 43 GLdefine GL_TRIANGLE_STRIP;
#X obj 140 -114 unpack f f f;
#X obj -68 -114 unpack f f f;
#X obj 72 -138 spigot;
#X obj 116 -165 spigot;
#X obj 73 -206 t a a a;
#X obj 485 188 f;
#X obj 515 189 + 1;
#X obj 443 126 t a b;
#X obj 424 46 GEMglEnd;
#X obj 494 71 GEMglBegin;
#X obj 443 266 GEMglVertex3f 0 0 0;
#X obj 443 103 repeat 100;
#N canvas 55 22 1234 699 shape 0;
#X obj 107 416 pack f f 0;
#X obj 107 345 t f f;
#X floatatom 272 47 5 0 0 0 - - -;
#X obj 127 -58 inlet;
#X obj 272 17 inlet;
#X obj 107 452 outlet;
#X text 249 390 out circle;
#X obj 311 135 init \$1;
#X obj 311 173 moses 0;
#X msg 311 201 0.5;
#X obj 311 253 s \$0-in;
#X obj 127 -17 t f f;
#X obj 335 98 inlet;
#X obj 107 321 expr ($f1/100*$f2)*3.141592*2;
#X obj 402 520 curve 2;
#X obj 402 411 inlet;
#X obj 425 364 pack f f 0;
#X obj 425 293 t f f;
#X obj 425 269 expr ($f1/100*$f2)*3.141592*2;
#X obj 512 456 pack f f 0;
#X obj 512 385 t f f;
#X obj 512 361 expr ($f1/100*$f2)*3.141592*2;
#X obj 432 203 t b f;
#X msg 431 234 99;
#X obj 425 314 expr sin($f1)*1.1;
#X obj 452 336 expr cos($f1)*1.1;
#X obj 512 406 expr sin($f1)*1.02;
#X obj 539 428 expr cos($f1)*1.02;
#X obj 107 366 expr sin($f1)*1.06;
#X obj 134 388 expr cos($f1)*1.06;
#X msg 330 483 draw line;
#X obj 328 459 loadbang;
#X obj 710 586 curve 2;
#X obj 733 430 pack f f 0;
#X obj 733 359 t f f;
#X obj 733 335 expr ($f1/100*$f2)*3.141592*2;
#X obj 820 522 pack f f 0;
#X obj 820 451 t f f;
#X obj 820 427 expr ($f1/100*$f2)*3.141592*2;
#X obj 740 269 t b f;
#X obj 733 380 expr sin($f1)*1.1;
#X obj 760 402 expr cos($f1)*1.1;
#X obj 820 472 expr sin($f1)*1.02;
#X obj 847 494 expr cos($f1)*1.02;
#X msg 638 549 draw line;
#X obj 636 525 loadbang;
#X msg 739 300 0;
#X obj 951 593 text2d;
#X obj 937 545 translateXYZ;
#X obj 938 520 separator;
#X obj 921 198 t f f;
#X obj 921 174 expr ($f1/100*$f2)*3.141592*2;
#X obj 928 108 t b f;
#X msg 927 139 50;
#X obj 921 219 expr sin($f1)*1.2;
#X obj 948 241 expr cos($f1)*1.2;
#X msg 1042 515 text R-[\$1];
#X obj 1032 575 loadbang;
#X msg 1032 596 12;
#X obj 1053 480 expr int($f1*1000)/1000;
#X connect 0 0 5 0;
#X connect 1 0 28 0;
#X connect 1 1 29 0;
#X connect 2 0 13 1;
#X connect 2 0 22 0;
#X connect 2 0 39 0;
#X connect 2 0 52 0;
#X connect 2 0 59 0;
#X connect 3 0 11 0;
#X connect 4 0 2 0;
#X connect 7 0 8 0;
#X connect 8 0 9 0;
#X connect 8 1 10 0;
#X connect 9 0 10 0;
#X connect 11 1 13 0;
#X connect 12 0 8 0;
#X connect 13 0 1 0;
#X connect 15 0 14 0;
#X connect 15 0 32 0;
#X connect 15 0 49 0;
#X connect 16 0 14 1;
#X connect 17 0 24 0;
#X connect 17 1 25 0;
#X connect 18 0 17 0;
#X connect 19 0 14 2;
#X connect 20 0 26 0;
#X connect 20 1 27 0;
#X connect 21 0 20 0;
#X connect 22 0 23 0;
#X connect 22 1 18 1;
#X connect 22 1 21 1;
#X connect 23 0 18 0;
#X connect 23 0 21 0;
#X connect 24 0 16 0;
#X connect 25 0 16 1;
#X connect 26 0 19 0;
#X connect 27 0 19 1;
#X connect 28 0 0 0;
#X connect 29 0 0 1;
#X connect 30 0 14 0;
#X connect 31 0 30 0;
#X connect 33 0 32 1;
#X connect 34 0 40 0;
#X connect 34 1 41 0;
#X connect 35 0 34 0;
#X connect 36 0 32 2;
#X connect 37 0 42 0;
#X connect 37 1 43 0;
#X connect 38 0 37 0;
#X connect 39 0 46 0;
#X connect 39 1 35 1;
#X connect 39 1 38 1;
#X connect 40 0 33 0;
#X connect 41 0 33 1;
#X connect 42 0 36 0;
#X connect 43 0 36 1;
#X connect 44 0 32 0;
#X connect 45 0 44 0;
#X connect 46 0 35 0;
#X connect 46 0 38 0;
#X connect 48 0 47 0;
#X connect 49 0 48 0;
#X connect 50 0 54 0;
#X connect 50 1 55 0;
#X connect 51 0 50 0;
#X connect 52 0 53 0;
#X connect 52 1 51 1;
#X connect 53 0 51 0;
#X connect 54 0 48 1;
#X connect 55 0 48 2;
#X connect 56 0 47 0;
#X connect 57 0 58 0;
#X connect 58 0 47 1;
#X connect 59 0 56 0;
#X restore 485 212 pd shape;
#X obj 485 238 unpack f f f;
#X obj 545 187 % 100;
#X obj 424 -91 separator;
#X obj 381 -136 spigot;
#X obj 414 -165 tgl 15 0 empty empty empty 17 7 0 10 -262144 -1 -1
0 1;
#X obj 551 19 loadbang;
#X obj 424 -50 color 1 1 1;
#X obj 424 -23 GEMglPointSize 2;
#X obj 424 15 t a a a a;
#X msg 551 42 1;
#X obj 217 -278 loadbang;
#X msg 217 -254 drawfill 1 \, drawpoint 0 \, stroke 0 \, end 1.01;
#X obj 114 -51 colorRGB 1 1 1;
#X obj 162 -224 route end color Lcolor width stroke drawfill drawline
drawpoint;
#X obj -79 -258 init \$1;
#X obj 72 -234 scale 1;
#X obj -80 -232 expr if($f1==0 \, 1 \, $f1);
#X connect 0 0 60 0;
#X connect 1 0 58 0;
#X connect 2 0 3 0;
#X connect 2 0 10 0;
#X connect 3 0 12 0;
#X connect 4 0 8 0;
#X connect 4 1 2 0;
#X connect 7 0 5 0;
#X connect 7 1 9 0;
#X connect 7 2 6 0;
#X connect 9 0 4 0;
#X connect 10 0 11 0;
#X connect 11 0 8 1;
#X connect 11 1 8 2;
#X connect 11 2 8 3;
#X connect 12 0 2 1;
#X connect 13 0 57 0;
#X connect 14 0 15 0;
#X connect 14 0 23 0;
#X connect 15 0 25 0;
#X connect 16 0 21 0;
#X connect 16 1 14 0;
#X connect 19 0 17 0;
#X connect 19 1 22 0;
#X connect 19 2 18 0;
#X connect 20 0 27 0;
#X connect 22 0 16 0;
#X connect 23 0 24 0;
#X connect 24 0 21 1;
#X connect 24 1 21 2;
#X connect 24 2 21 3;
#X connect 25 0 14 1;
#X connect 26 0 28 0;
#X connect 27 0 18 1;
#X connect 28 0 29 0;
#X connect 29 0 19 0;
#X connect 30 0 31 0;
#X connect 31 0 6 1;
#X connect 32 0 57 1;
#X connect 32 1 57 2;
#X connect 32 2 57 3;
#X connect 33 0 28 1;
#X connect 33 1 28 2;
#X connect 33 2 28 3;
#X connect 34 0 26 0;
#X connect 35 0 13 0;
#X connect 36 0 34 0;
#X connect 36 1 35 0;
#X connect 36 2 48 0;
#X connect 37 0 38 0;
#X connect 37 0 44 0;
#X connect 38 0 46 0;
#X connect 39 0 42 0;
#X connect 39 1 37 0;
#X connect 43 0 39 0;
#X connect 44 0 45 0;
#X connect 45 0 42 1;
#X connect 45 1 42 2;
#X connect 45 2 42 3;
#X connect 46 0 37 1;
#X connect 47 0 51 0;
#X connect 48 0 47 0;
#X connect 49 0 48 1;
#X connect 50 0 54 0;
#X connect 51 0 52 0;
#X connect 52 0 53 0;
#X connect 53 0 40 0;
#X connect 53 1 43 0;
#X connect 53 2 41 0;
#X connect 53 3 44 3;
#X connect 54 0 41 1;
#X connect 55 0 56 0;
#X connect 56 0 58 0;
#X connect 57 0 7 0;
#X connect 58 0 23 1;
#X connect 58 0 10 1;
#X connect 58 0 44 1;
#X connect 58 1 32 0;
#X connect 58 2 33 0;
#X connect 58 3 29 1;
#X connect 58 4 10 2;
#X connect 58 4 23 2;
#X connect 58 4 44 2;
#X connect 58 5 35 1;
#X connect 58 6 34 1;
#X connect 58 7 49 0;
#X connect 59 0 61 0;
#X connect 60 0 36 0;
#X connect 61 0 60 1;
