#N canvas 477 68 877 592 10;
#X obj 244 -72 inlet;
#X obj 333 -36 inlet;
#X obj 346 420 f;
#X obj 376 421 + 1;
#X obj 304 358 t a b;
#X obj 285 278 GEMglEnd;
#X obj 355 303 GEMglBegin;
#X obj 285 247 t a a a;
#X obj 304 498 GEMglVertex3f 0 0 0;
#X obj 304 335 repeat 100;
#N canvas 596 85 987 704 shape 0;
#X obj 107 416 pack f f 0;
#X obj 107 345 t f f;
#X obj 326 368 pack f f 0;
#X obj 326 297 t f f;
#X obj 272 77 t f f;
#X floatatom 272 47 5 0 0 0 - - -, f 5;
#X obj 127 -58 inlet;
#X obj 272 17 inlet;
#X obj 107 452 outlet;
#X obj 426 234 t f f;
#X text 233 391 out circle;
#X obj 374 7 init \$1;
#X obj 107 366 expr sin($f1)*1;
#X obj 134 389 expr cos($f1)*1;
#X obj 374 45 moses 0;
#X msg 374 73 0.5;
#X obj 374 125 s \$0-in;
#X obj 453 291 r \$0-in;
#X obj 326 318 expr sin($f1)*$f2;
#X obj 354 343 expr cos($f1)*$f2;
#X obj 127 -17 t f f;
#X obj 153 11 % 2;
#X obj 153 36 + 1;
#X obj 153 66 gate 2;
#X obj 467 -50 inlet;
#X obj 316 24 bng 15 250 50 0 empty empty empty 17 7 0 10 -262144 -1
-1;
#X floatatom 475 316 5 0 0 0 - - -, f 5;
#X obj 242 -36 k_slider 0 1;
#X floatatom 175 138 5 0 0 0 - - -, f 5;
#X obj 175 174 expr int($f1/2);
#X floatatom 174 197 5 0 0 0 - - -, f 5;
#X obj 108 320 expr ($f1/49*$f2)*3.141592*2;
#X obj 326 272 expr (($f1/49*$f2))*3.141592*2;
#X obj 110 254 expr int($f1/2);
#X floatatom 111 280 5 0 0 0 - - -, f 5;
#X connect 0 0 8 0;
#X connect 1 0 12 0;
#X connect 1 1 13 0;
#X connect 2 0 8 0;
#X connect 3 0 18 0;
#X connect 3 1 19 0;
#X connect 4 0 31 1;
#X connect 4 1 9 0;
#X connect 5 0 4 0;
#X connect 6 0 20 0;
#X connect 7 0 5 0;
#X connect 9 0 32 1;
#X connect 11 0 14 0;
#X connect 12 0 0 0;
#X connect 13 0 0 1;
#X connect 14 0 15 0;
#X connect 14 1 16 0;
#X connect 15 0 16 0;
#X connect 17 0 18 1;
#X connect 17 0 19 1;
#X connect 17 0 26 0;
#X connect 18 0 2 0;
#X connect 19 0 2 1;
#X connect 20 0 23 1;
#X connect 20 1 21 0;
#X connect 21 0 22 0;
#X connect 22 0 23 0;
#X connect 23 0 33 0;
#X connect 23 1 28 0;
#X connect 24 0 14 0;
#X connect 25 0 5 0;
#X connect 27 0 5 0;
#X connect 28 0 29 0;
#X connect 29 0 30 0;
#X connect 30 0 32 0;
#X connect 31 0 1 0;
#X connect 32 0 3 0;
#X connect 33 0 34 0;
#X connect 34 0 31 0;
#X restore 346 444 pd shape;
#X obj 346 470 unpack f f f;
#X obj 406 419 % 100;
#X obj 285 141 separator;
#X obj 133 426 f;
#X obj 163 427 + 1;
#X obj 91 364 t a b;
#X obj 72 284 GEMglEnd;
#X obj 142 309 GEMglBegin;
#X obj 72 253 t a a a;
#X obj 199 239 loadbang;
#X obj 91 504 GEMglVertex3f 0 0 0;
#X obj 91 341 repeat 100;
#N canvas 418 78 987 704 shape 0;
#X obj 107 416 pack f f 0;
#X obj 107 345 t f f;
#X obj 295 367 pack f f 0;
#X obj 295 296 t f f;
#X obj 172 -7 - 50;
#X obj 488 379 pack f f 0;
#X obj 488 308 t f f;
#X obj 735 329 pack f f 0;
#X obj 735 258 t f f;
#X obj 272 77 t f f;
#X obj 586 128 t f f;
#X floatatom 272 47 5 0 0 0 - - -, f 5;
#X obj 127 -58 inlet;
#X obj 272 17 inlet;
#X obj 107 452 outlet;
#X obj 272 208 t f f;
#X obj 489 193 moses 48;
#X obj 588 245 t f f;
#X obj 295 272 expr ($f1/48*$f2)*3.141592*2;
#X text 365 367 in circle;
#X text 233 391 out circle;
#X obj 735 235 expr ($f2-($f1/48*$f2))*3.141592*2;
#X obj 374 7 init \$1;
#X obj 107 366 expr sin($f1)*1;
#X obj 134 389 expr cos($f1)*1;
#X obj 735 279 expr sin($f1)*1;
#X obj 763 302 expr cos($f1)*1;
#X obj 374 45 moses 0;
#X msg 374 73 0.5;
#X obj 374 125 s \$0-in;
#X obj 394 292 r \$0-in;
#X obj 295 317 expr sin($f1)*$f2;
#X obj 323 340 expr cos($f1)*$f2;
#X obj 615 302 r \$0-in;
#X obj 488 329 expr sin($f1)*$f2;
#X obj 516 354 expr cos($f1)*$f2;
#X msg 295 245 48;
#X msg 735 205 48;
#X obj 418 -33 inlet;
#X obj 252 -26 k_slider 0 1;
#X msg 311 2 0.5;
#X obj 107 321 expr ($f1/49*$f2)*3.141592*2;
#X obj 152 -31 moses 50;
#X obj 113 256 moses 50;
#X floatatom 157 278 5 0 0 0 - - -, f 5;
#X floatatom 107 288 5 0 0 0 - - -, f 5;
#X obj 488 283 expr ($f2-($f1/49*$f2))*3.141592*2;
#X obj 486 229 - 50;
#X connect 0 0 14 0;
#X connect 1 0 23 0;
#X connect 1 1 24 0;
#X connect 3 0 31 0;
#X connect 3 1 32 0;
#X connect 5 0 14 0;
#X connect 6 0 34 0;
#X connect 6 1 35 0;
#X connect 8 0 25 0;
#X connect 8 1 26 0;
#X connect 9 0 15 0;
#X connect 9 1 10 0;
#X connect 10 0 17 0;
#X connect 11 0 9 0;
#X connect 12 0 43 0;
#X connect 13 0 11 0;
#X connect 15 0 41 1;
#X connect 15 1 18 1;
#X connect 17 0 46 1;
#X connect 17 1 21 1;
#X connect 18 0 3 0;
#X connect 21 0 8 0;
#X connect 22 0 27 0;
#X connect 23 0 0 0;
#X connect 24 0 0 1;
#X connect 25 0 7 0;
#X connect 26 0 7 1;
#X connect 27 0 28 0;
#X connect 27 1 29 0;
#X connect 28 0 29 0;
#X connect 30 0 31 1;
#X connect 30 0 32 1;
#X connect 31 0 2 0;
#X connect 32 0 2 1;
#X connect 33 0 34 1;
#X connect 33 0 35 1;
#X connect 34 0 5 0;
#X connect 35 0 5 1;
#X connect 36 0 18 0;
#X connect 37 0 21 0;
#X connect 38 0 27 0;
#X connect 39 0 11 0;
#X connect 40 0 11 0;
#X connect 41 0 1 0;
#X connect 43 0 45 0;
#X connect 43 1 44 0;
#X connect 44 0 47 0;
#X connect 45 0 41 0;
#X connect 46 0 6 0;
#X connect 47 0 46 0;
#X restore 133 450 pd shape;
#X obj 133 476 unpack f f f;
#X obj 193 425 % 100;
#X obj 72 147 separator;
#X msg 199 261 2;
#X obj 72 176 colorRGB 1 1 1;
#X obj 72 226 GEMglLineWidth 1;
#X obj 407 242 loadbang;
#X obj 407 264 GLdefine GL_TRIANGLE_STRIP;
#X obj 243 83 spigot;
#X obj 287 56 spigot;
#X obj 244 15 t a a a;
#X obj 656 409 f;
#X obj 686 410 + 1;
#X obj 614 347 t a b;
#X obj 595 267 GEMglEnd;
#X obj 665 292 GEMglBegin;
#X obj 614 487 GEMglVertex3f 0 0 0;
#X obj 614 324 repeat 100;
#N canvas 1 47 1376 690 shape 0;
#X obj 107 416 pack f f 0;
#X obj 107 345 t f f;
#X floatatom 272 47 5 0 0 0 - - -, f 5;
#X obj 127 -58 inlet;
#X obj 272 17 inlet;
#X obj 107 452 outlet;
#X text 249 390 out circle;
#X obj 311 135 init \$1;
#X obj 311 173 moses 0;
#X msg 311 201 0.5;
#X obj 311 253 s \$0-in;
#X obj 127 -17 t f f;
#X obj 335 98 inlet;
#X obj 107 321 expr ($f1/100*$f2)*3.141592*2;
#X obj 402 520 curve 2;
#X obj 402 411 inlet;
#X obj 425 364 pack f f 0;
#X obj 425 293 t f f;
#X obj 425 269 expr ($f1/100*$f2)*3.141592*2;
#X obj 512 456 pack f f 0;
#X obj 512 385 t f f;
#X obj 512 361 expr ($f1/100*$f2)*3.141592*2;
#X obj 432 203 t b f;
#X msg 431 234 99;
#X obj 425 314 expr sin($f1)*1.1;
#X obj 452 336 expr cos($f1)*1.1;
#X obj 512 406 expr sin($f1)*1.02;
#X obj 539 428 expr cos($f1)*1.02;
#X obj 107 366 expr sin($f1)*1.06;
#X obj 134 388 expr cos($f1)*1.06;
#X msg 330 483 draw line;
#X obj 328 459 loadbang;
#X obj 710 586 curve 2;
#X obj 733 430 pack f f 0;
#X obj 733 359 t f f;
#X obj 733 335 expr ($f1/100*$f2)*3.141592*2;
#X obj 820 522 pack f f 0;
#X obj 820 451 t f f;
#X obj 820 427 expr ($f1/100*$f2)*3.141592*2;
#X obj 740 269 t b f;
#X obj 733 380 expr sin($f1)*1.1;
#X obj 760 402 expr cos($f1)*1.1;
#X obj 820 472 expr sin($f1)*1.02;
#X obj 847 494 expr cos($f1)*1.02;
#X msg 638 549 draw line;
#X obj 636 525 loadbang;
#X msg 739 300 0;
#X obj 951 593 text2d;
#X obj 937 545 translateXYZ;
#X obj 938 520 separator;
#X obj 921 198 t f f;
#X obj 921 174 expr ($f1/100*$f2)*3.141592*2;
#X obj 928 108 t b f;
#X obj 921 219 expr sin($f1)*1.2;
#X obj 959 258 expr cos($f1)*1.2;
#X msg 1042 515 text R-[\$1];
#X obj 1032 575 loadbang;
#X obj 1042 444 expr int($f1*1000)/1000;
#X msg 1101 583 font forgottenfuturistrg.ttf;
#X obj 1101 554 loadbang;
#X msg 1032 596 15;
#X msg 927 139 80;
#X connect 0 0 5 0;
#X connect 1 0 28 0;
#X connect 1 1 29 0;
#X connect 2 0 13 1;
#X connect 2 0 22 0;
#X connect 2 0 39 0;
#X connect 2 0 52 0;
#X connect 2 0 57 0;
#X connect 3 0 11 0;
#X connect 4 0 2 0;
#X connect 7 0 8 0;
#X connect 8 0 9 0;
#X connect 8 1 10 0;
#X connect 9 0 10 0;
#X connect 11 1 13 0;
#X connect 12 0 8 0;
#X connect 13 0 1 0;
#X connect 15 0 14 0;
#X connect 15 0 32 0;
#X connect 15 0 49 0;
#X connect 16 0 14 1;
#X connect 17 0 24 0;
#X connect 17 1 25 0;
#X connect 18 0 17 0;
#X connect 19 0 14 2;
#X connect 20 0 26 0;
#X connect 20 1 27 0;
#X connect 21 0 20 0;
#X connect 22 0 23 0;
#X connect 22 1 18 1;
#X connect 22 1 21 1;
#X connect 23 0 18 0;
#X connect 23 0 21 0;
#X connect 24 0 16 0;
#X connect 25 0 16 1;
#X connect 26 0 19 0;
#X connect 27 0 19 1;
#X connect 28 0 0 0;
#X connect 29 0 0 1;
#X connect 30 0 14 0;
#X connect 31 0 30 0;
#X connect 33 0 32 1;
#X connect 34 0 40 0;
#X connect 34 1 41 0;
#X connect 35 0 34 0;
#X connect 36 0 32 2;
#X connect 37 0 42 0;
#X connect 37 1 43 0;
#X connect 38 0 37 0;
#X connect 39 0 46 0;
#X connect 39 1 35 1;
#X connect 39 1 38 1;
#X connect 40 0 33 0;
#X connect 41 0 33 1;
#X connect 42 0 36 0;
#X connect 43 0 36 1;
#X connect 44 0 32 0;
#X connect 45 0 44 0;
#X connect 46 0 35 0;
#X connect 46 0 38 0;
#X connect 48 0 47 0;
#X connect 49 0 48 0;
#X connect 50 0 53 0;
#X connect 50 1 54 0;
#X connect 51 0 50 0;
#X connect 52 0 61 0;
#X connect 52 1 51 1;
#X connect 53 0 48 1;
#X connect 54 0 48 2;
#X connect 55 0 47 0;
#X connect 56 0 60 0;
#X connect 57 0 55 0;
#X connect 58 0 47 0;
#X connect 59 0 58 0;
#X connect 60 0 47 1;
#X connect 61 0 51 0;
#X restore 656 433 pd shape;
#X obj 656 459 unpack f f f;
#X obj 716 408 % 100;
#X obj 595 130 separator;
#X obj 552 85 spigot;
#X obj 585 56 tgl 15 0 empty empty empty 17 7 0 10 -262144 -1 -1 1
1;
#X obj 722 240 loadbang;
#X obj 595 171 color 1 1 1;
#X obj 595 198 GEMglPointSize 2;
#X obj 595 236 t a a a a;
#X msg 722 263 1;
#X obj 388 -57 loadbang;
#X obj 285 170 colorRGB 1 1 1;
#X obj 340 -103 init \$1;
#X obj 244 -43 scale 1;
#X obj 340 -77 expr if($f1==0 \, 1 \, $f1);
#X obj 103 107 unpack f f f f;
#X obj 311 106 unpack f f f f;
#X obj 167 -37 loadbang;
#X msg 167 -12 auto 1;
#X msg 388 -33 drawfill 1 \, drawpoint 0 \, stroke 0 \, end 1;
#X obj 244 -12 alpha 1;
#X obj 333 -3 route end color Lcolor width stroke drawfill drawline
drawpoint alphablend;
#X connect 0 0 56 0;
#X connect 1 0 64 0;
#X connect 2 0 3 0;
#X connect 2 0 10 0;
#X connect 3 0 12 0;
#X connect 4 0 8 0;
#X connect 4 1 2 0;
#X connect 7 0 5 0;
#X connect 7 1 9 0;
#X connect 7 2 6 0;
#X connect 9 0 4 0;
#X connect 10 0 11 0;
#X connect 11 0 8 1;
#X connect 11 1 8 2;
#X connect 11 2 8 3;
#X connect 12 0 2 1;
#X connect 13 0 54 0;
#X connect 14 0 15 0;
#X connect 14 0 23 0;
#X connect 15 0 25 0;
#X connect 16 0 21 0;
#X connect 16 1 14 0;
#X connect 19 0 17 0;
#X connect 19 1 22 0;
#X connect 19 2 18 0;
#X connect 20 0 27 0;
#X connect 22 0 16 0;
#X connect 23 0 24 0;
#X connect 24 0 21 1;
#X connect 24 1 21 2;
#X connect 24 2 21 3;
#X connect 25 0 14 1;
#X connect 26 0 28 0;
#X connect 27 0 18 1;
#X connect 28 0 29 0;
#X connect 29 0 19 0;
#X connect 30 0 31 0;
#X connect 31 0 6 1;
#X connect 32 0 26 0;
#X connect 33 0 13 0;
#X connect 34 0 32 0;
#X connect 34 1 33 0;
#X connect 34 2 46 0;
#X connect 35 0 36 0;
#X connect 35 0 42 0;
#X connect 36 0 44 0;
#X connect 37 0 40 0;
#X connect 37 1 35 0;
#X connect 41 0 37 0;
#X connect 42 0 43 0;
#X connect 43 0 40 1;
#X connect 43 1 40 2;
#X connect 43 2 40 3;
#X connect 44 0 35 1;
#X connect 45 0 49 0;
#X connect 46 0 45 0;
#X connect 47 0 46 1;
#X connect 48 0 52 0;
#X connect 49 0 50 0;
#X connect 50 0 51 0;
#X connect 51 0 38 0;
#X connect 51 1 41 0;
#X connect 51 2 39 0;
#X connect 51 3 42 3;
#X connect 52 0 39 1;
#X connect 53 0 62 0;
#X connect 54 0 7 0;
#X connect 55 0 57 0;
#X connect 56 0 63 0;
#X connect 57 0 56 1;
#X connect 58 0 28 1;
#X connect 58 1 28 2;
#X connect 58 2 28 3;
#X connect 58 3 28 4;
#X connect 59 0 54 1;
#X connect 59 1 54 2;
#X connect 59 2 54 3;
#X connect 59 3 54 4;
#X connect 60 0 61 0;
#X connect 61 0 63 0;
#X connect 62 0 64 0;
#X connect 63 0 34 0;
#X connect 64 0 23 1;
#X connect 64 0 10 1;
#X connect 64 0 42 1;
#X connect 64 1 59 0;
#X connect 64 2 58 0;
#X connect 64 3 29 1;
#X connect 64 4 10 2;
#X connect 64 4 23 2;
#X connect 64 4 42 2;
#X connect 64 5 33 1;
#X connect 64 6 32 1;
#X connect 64 7 47 0;
#X connect 64 8 63 1;
