#N canvas 476 195 515 419 10;
#X obj 41 146 gemwin;
#X obj 288 275 loadbang;
#X obj 177 168 gemhead;
#X msg 41 120 reset FSAA 8 \, create \, 1;
#X msg 24 98 destroy;
#X msg 260 225 num \$1;
#X obj 260 176 k_slider 1 10;
#X obj 260 201 int;
#X msg 234 139 size \$1 \$2;
#X obj 234 58 k_slider2 0.01 0.5;
#X msg 288 299 num 20 \, radius 1 \, size 0.1 0.2;
#X obj 177 263 vj_radio 1;
#X connect 1 0 10 0;
#X connect 2 0 11 0;
#X connect 3 0 0 0;
#X connect 4 0 0 0;
#X connect 5 0 11 1;
#X connect 6 0 7 0;
#X connect 7 0 5 0;
#X connect 8 0 11 1;
#X connect 9 0 8 0;
#X connect 10 0 11 1;
