#N canvas 630 22 789 778 10;
#X obj 112 -409 t a a a;
#X obj 285 35 GEMglBegin;
#X obj 86 46 GEMglEnd;
#X obj 131 -276 GEMglVertex3f 0 0 0;
#X obj 133 -209 GEMglVertex3f 0 0 0;
#X obj 135 -139 GEMglVertex3f 0 0 0;
#X obj 134 -45 GEMglVertex3f 0 0 0;
#X obj 511 -407 loadbang;
#X obj 223 -413 unpack f f;
#X msg 223 -459 -1 1;
#X obj 492 -251 unpack f f;
#X msg 492 -284 1 1;
#X obj 498 -147 unpack f f;
#X msg 498 -180 1 -1;
#X obj 112 -456 t a b b b b;
#X obj 385 -50 loadbang;
#X obj 620 -129 unpack f f;
#X msg 620 -162 -1 -1;
#X obj 113 -501 inlet;
#X obj 218 -383 + 0;
#X obj 264 -383 + 0;
#X obj 487 -221 + 0;
#X obj 533 -221 + 0;
#X obj 493 -117 + 0;
#X obj 539 -117 + 0;
#X obj 615 -99 + 0;
#X obj 661 -99 + 0;
#X obj 512 -379 f \$1;
#X obj 512 -359 t f f;
#X obj 536 -329 * -1;
#X obj 589 -403 loadbang;
#X obj 590 -355 t f f;
#X obj 614 -325 * -1;
#X obj 590 -375 f \$2;
#X obj 521 -440 inlet;
#X obj 604 -435 inlet;
#X msg 385 -27 9;
#X obj 86 72 GEMglShadeModel GL_FLAT;
#X obj 285 12 GEMglShadeModel GL_SMOOTH;
#X obj 132 -306 GEMglTexCoord2sv 0 1;
#X obj 134 -243 GEMglTexCoord2sv 1 1;
#X obj 137 -174 GEMglTexCoord2sv 1 0;
#X obj 137 -99 GEMglTexCoord2sv 0 0;
#X connect 0 0 2 0;
#X connect 0 1 39 0;
#X connect 0 2 38 0;
#X connect 2 0 37 0;
#X connect 3 0 40 0;
#X connect 4 0 41 0;
#X connect 5 0 42 0;
#X connect 7 0 27 0;
#X connect 8 0 19 0;
#X connect 8 1 20 0;
#X connect 9 0 8 0;
#X connect 10 0 21 0;
#X connect 10 1 22 0;
#X connect 11 0 10 0;
#X connect 12 0 23 0;
#X connect 12 1 24 0;
#X connect 13 0 12 0;
#X connect 14 0 0 0;
#X connect 14 1 9 0;
#X connect 14 2 11 0;
#X connect 14 3 13 0;
#X connect 14 4 17 0;
#X connect 15 0 36 0;
#X connect 16 0 25 0;
#X connect 16 1 26 0;
#X connect 17 0 16 0;
#X connect 18 0 14 0;
#X connect 19 0 3 1;
#X connect 20 0 3 2;
#X connect 21 0 4 1;
#X connect 22 0 4 2;
#X connect 23 0 5 1;
#X connect 24 0 5 2;
#X connect 25 0 6 1;
#X connect 26 0 6 2;
#X connect 27 0 28 0;
#X connect 28 0 19 1;
#X connect 28 0 21 1;
#X connect 28 1 29 0;
#X connect 29 0 23 1;
#X connect 29 0 25 1;
#X connect 30 0 33 0;
#X connect 31 0 20 1;
#X connect 31 0 24 1;
#X connect 31 1 32 0;
#X connect 32 0 26 1;
#X connect 32 0 22 1;
#X connect 33 0 31 0;
#X connect 34 0 27 0;
#X connect 35 0 33 0;
#X connect 36 0 1 1;
#X connect 38 0 1 0;
#X connect 39 0 3 0;
#X connect 40 0 4 0;
#X connect 41 0 5 0;
#X connect 42 0 6 0;
