#N canvas 574 59 509 495 10;
#X obj 208 93 cnv 15 100 60 empty empty empty 20 12 0 14 -195568 -66577
0;
#N canvas 0 22 450 300 gemwin 0;
#X obj 132 136 gemwin;
#X obj 67 89 outlet;
#X obj 67 10 inlet;
#X obj 67 41 route create;
#X msg 67 70 set destroy;
#X msg 142 68 set create;
#X msg 249 113 destroy;
#X msg 132 112 reset \, create \, 1;
#X connect 2 0 3 0;
#X connect 3 0 4 0;
#X connect 3 0 7 0;
#X connect 3 1 5 0;
#X connect 3 1 6 0;
#X connect 4 0 1 0;
#X connect 5 0 1 0;
#X connect 6 0 0 0;
#X connect 7 0 0 0;
#X restore 213 132 pd gemwin;
#X msg 213 113 destroy;
#X text 209 92 Create window:;
#X obj 32 229 repeat 8;
#X obj 32 260 t a b;
#X obj 32 298 separator;
#X obj 104 236 f;
#X obj 131 236 + 1;
#X obj 161 236 % 8;
#X obj 32 335 translateXYZ;
#X obj 104 285 * 0.5;
#X obj 32 385 scale 0.2 1 40 1;
#X obj 32 159 alpha;
#X obj 32 68 gemhead 20;
#X obj 32 409 vj_rect 4 0;
#X obj 184 331 line;
#X obj 184 356 inback;
#X msg 184 306 0 \, 1 3500;
#X obj 32 192 translateXYZ 0 0 0;
#X obj 104 261 k_range 0 7 -8 8;
#X obj 184 381 k_range 0 1 0.1 1.6;
#X connect 1 0 2 0;
#X connect 2 0 1 0;
#X connect 4 0 5 0;
#X connect 5 0 6 0;
#X connect 5 1 7 0;
#X connect 6 0 10 0;
#X connect 7 0 8 0;
#X connect 7 0 20 0;
#X connect 8 0 9 0;
#X connect 9 0 7 1;
#X connect 10 0 12 0;
#X connect 11 0 10 1;
#X connect 12 0 15 0;
#X connect 13 0 19 0;
#X connect 14 0 13 0;
#X connect 16 0 17 0;
#X connect 17 0 21 0;
#X connect 18 0 16 0;
#X connect 19 0 4 0;
#X connect 20 0 11 0;
#X connect 21 0 12 1;
