#N canvas 481 26 932 728 10;
#X obj 266 597 t a b;
#X obj 348 145 separator;
#X obj 348 296 curve 2;
#X obj 227 235 loadbang;
#X obj 368 225 t a a;
#X obj 550 256 unpack f f;
#X obj 471 270 unpack f f;
#X obj 550 299 expr ($f1-$f2);
#X obj 447 299 expr ($f1-$f2);
#X obj 447 359 expr atan2($f1 \, $f2)*180/3.1415926;
#X floatatom 447 382 5 0 0 0 - - -;
#X obj 164 639 circle 0.05;
#X obj 447 428 - 90;
#X obj 83 379 loadbang;
#X obj 49 645 circle 0.05;
#X obj 139 672 curve 2;
#X obj -45 184 k_aPos =====;
#X obj 89 124 loadbang;
#X obj -18 218 k_aPos =====;
#X obj -45 147 t a a;
#X obj -27 415 distance_n;
#X obj 164 595 k_aLine ====;
#X obj 266 540 translateXYZ;
#X obj 314 511 unpack f f f;
#X obj 266 567 rotateXYZ 0 0 0;
#X obj 363 414 - 180;
#X obj 266 678 triangle 0.2;
#X obj 307 597 f;
#X obj 188 545 t f f;
#X obj 83 432 t f f;
#N canvas 531 270 450 300 text 0;
#X obj 69 17 loadbang;
#X msg 110 181 font ACaslonPro-BoldItalic.otf;
#X msg 11 157 text Length [\$1];
#X obj -44 32 inlet;
#X obj 5 37 inlet;
#X obj -4 210 text2d;
#X obj 162 83 loadbang;
#X msg 161 107 justify left base;
#X obj -25 98 translateXYZ 0.3 0 0;
#X msg 69 40 13;
#X connect 0 0 9 0;
#X connect 0 0 1 0;
#X connect 1 0 5 0;
#X connect 2 0 5 0;
#X connect 3 0 8 0;
#X connect 4 0 2 0;
#X connect 6 0 7 0;
#X connect 7 0 5 0;
#X connect 8 0 5 0;
#X connect 9 0 5 1;
#X restore -66 439 pd text;
#X obj 444 236 t a a;
#X obj 550 326 t b f;
#X obj 348 118 r \$0-gemhead;
#X obj -45 125 separator;
#X obj -45 104 r \$0-gemhead;
#X obj 49 504 separator;
#X obj 49 480 r \$0-gemhead;
#X obj 139 412 separator;
#X obj 139 388 r \$0-gemhead;
#X obj 164 342 separator;
#X obj 164 318 r \$0-gemhead;
#X obj 266 418 separator;
#X obj 266 394 r \$0-gemhead;
#X obj 149 183 s \$0-gemhead;
#X obj 149 102 inlet;
#X obj 251 7 inlet;
#X obj 306 7 inlet;
#X obj 341 88 s \$0-toend;
#X obj 368 197 r \$0-toend;
#X obj 314 452 r \$0-toend;
#X obj 444 203 r \$0-togo;
#X obj 181 442 r \$0-toend;
#X obj 66 543 r \$0-togo;
#X obj -28 51 r \$0-togo;
#X obj -1 -5 r \$0-toend;
#X obj 274 87 s \$0-togo;
#X obj 447 450 s \$0-drawan;
#X obj 188 510 r \$0-drawan;
#X obj 6 148 r \$0-drawan;
#X obj 49 590 k_aLine ====;
#X obj 266 639 facing;
#X obj 307 619 + 0.02;
#X obj 392 597 fmod 0.05;
#X obj 334 597 + 0.005;
#X obj 49 614 facing;
#X obj 164 618 facing;
#X msg 227 259 draw point \, res 20;
#X obj 348 172 GEMglPointSize 2;
#X msg 89 148 0.2;
#X msg 83 402 0.3;
#X obj -22 246 t a a;
#X obj 51 259 t a a;
#X obj 274 195 color 1 0 0;
#X connect 0 0 61 0;
#X connect 0 1 27 0;
#X connect 1 0 68 0;
#X connect 3 0 67 0;
#X connect 4 0 2 1;
#X connect 4 1 5 0;
#X connect 5 0 7 0;
#X connect 5 1 8 0;
#X connect 6 0 7 1;
#X connect 6 1 8 1;
#X connect 7 0 32 0;
#X connect 8 0 9 0;
#X connect 9 0 10 0;
#X connect 10 0 12 0;
#X connect 10 0 25 0;
#X connect 12 0 57 0;
#X connect 13 0 70 0;
#X connect 16 1 71 0;
#X connect 17 0 69 0;
#X connect 18 1 72 0;
#X connect 19 0 16 0;
#X connect 19 1 18 0;
#X connect 20 0 30 1;
#X connect 21 0 66 0;
#X connect 21 1 15 2;
#X connect 22 0 24 0;
#X connect 23 0 22 1;
#X connect 23 1 22 2;
#X connect 23 2 22 3;
#X connect 24 0 0 0;
#X connect 25 0 24 3;
#X connect 27 0 62 0;
#X connect 27 0 64 0;
#X connect 28 0 60 3;
#X connect 28 1 21 3;
#X connect 29 0 60 2;
#X connect 29 1 21 2;
#X connect 31 0 2 2;
#X connect 31 1 6 0;
#X connect 32 0 9 0;
#X connect 32 1 9 1;
#X connect 33 0 1 0;
#X connect 34 0 19 0;
#X connect 35 0 34 0;
#X connect 36 0 60 0;
#X connect 37 0 36 0;
#X connect 38 0 15 0;
#X connect 39 0 38 0;
#X connect 40 0 21 0;
#X connect 41 0 40 0;
#X connect 42 0 22 0;
#X connect 43 0 42 0;
#X connect 45 0 44 0;
#X connect 46 0 56 0;
#X connect 47 0 48 0;
#X connect 49 0 4 0;
#X connect 50 0 23 0;
#X connect 51 0 31 0;
#X connect 52 0 21 1;
#X connect 53 0 60 1;
#X connect 54 0 16 1;
#X connect 55 0 18 1;
#X connect 58 0 28 0;
#X connect 59 0 16 3;
#X connect 59 0 18 3;
#X connect 60 0 65 0;
#X connect 60 1 15 1;
#X connect 61 0 26 0;
#X connect 62 0 26 1;
#X connect 63 0 27 1;
#X connect 64 0 63 0;
#X connect 65 0 14 0;
#X connect 65 0 30 0;
#X connect 66 0 11 0;
#X connect 67 0 2 0;
#X connect 68 0 73 0;
#X connect 69 0 16 2;
#X connect 69 0 18 2;
#X connect 70 0 29 0;
#X connect 71 1 20 0;
#X connect 72 1 20 1;
#X connect 73 0 2 0;
