#N canvas 630 22 789 778 10;
#X obj 113 157 t a a a;
#X obj 286 601 GEMglBegin;
#X obj 87 612 GEMglEnd;
#X obj 113 110 t a b b b b;
#X obj 386 516 loadbang;
#X obj 114 65 inlet;
#X msg 386 539 9;
#X obj 87 638 GEMglShadeModel GL_FLAT;
#X obj 286 578 GEMglShadeModel GL_SMOOTH;
#X obj 132 290 GEMglVertex3f -1 1 0;
#X obj 134 357 GEMglVertex3f 1 1 0;
#X obj 136 427 GEMglVertex3f 1 -1 0;
#X obj 135 521 GEMglVertex3f -1 -1 0;
#X floatatom 229 230 5 0 0 0 - - -, f 5;
#X obj 294 213 inlet;
#X obj 293 238 k_range 0 1 1 -1;
#X floatatom 274 376 5 0 0 0 - - -, f 5;
#X obj 346 315 k_range 0 1 -1 1;
#X obj 459 212 inlet;
#X floatatom 507 385 5 0 0 0 - - -, f 5;
#X obj 509 348 k_range 0 1 -1 1;
#X obj 458 237 k_range 0 1 1 -1;
#X connect 0 0 2 0;
#X connect 0 1 9 0;
#X connect 0 2 8 0;
#X connect 2 0 7 0;
#X connect 3 0 0 0;
#X connect 4 0 6 0;
#X connect 5 0 3 0;
#X connect 6 0 1 1;
#X connect 8 0 1 0;
#X connect 9 0 10 0;
#X connect 10 0 11 0;
#X connect 11 0 12 0;
#X connect 13 0 9 1;
#X connect 14 0 15 0;
#X connect 14 0 17 0;
#X connect 15 0 13 0;
#X connect 16 0 11 1;
#X connect 17 0 16 0;
#X connect 18 0 20 0;
#X connect 18 0 21 0;
#X connect 19 0 12 1;
#X connect 20 0 19 0;
#X connect 21 0 10 1;
