#N canvas 481 381 450 300 10;
#X msg -432 177 create \, 1;
#X obj -432 206 gemwin;
#X obj -297 183 vj_ruler3d;
#X obj -295 92 gemhead;
#X msg -238 124 1 0 0;
#X obj -229 77 loadbang;
#X obj -453 97 k_camera;
#X msg -209 151 5 5 2;
#X connect 0 0 1 0;
#X connect 3 0 2 0;
#X connect 4 0 2 1;
#X connect 5 0 4 0;
#X connect 5 0 7 0;
#X connect 6 0 1 0;
#X connect 7 0 2 2;
