#N canvas 574 59 310 481 10;
#X obj 117 136 line;
#X floatatom 117 186 5 0 0 0 - - -, f 5;
#X obj 117 161 inquint;
#X obj 196 264 line;
#X obj 196 289 inquint;
#X obj 22 351 vj_rect2;
#X obj 22 324 scaleXYZ 1.14;
#X obj 21 266 color 0.47 0.9 0.7;
#X obj 22 239 translateXYZ 0 0 -4;
#X obj 21 377 cnv 15 100 60 empty empty empty 20 12 0 14 -195568 -66577
0;
#N canvas 0 22 450 300 gemwin 0;
#X obj 132 136 gemwin;
#X obj 67 89 outlet;
#X obj 67 10 inlet;
#X obj 67 41 route create;
#X msg 67 70 set destroy;
#X msg 142 68 set create;
#X msg 249 113 destroy;
#X msg 132 112 reset \, create \, 1;
#X connect 2 0 3 0;
#X connect 3 0 4 0;
#X connect 3 0 7 0;
#X connect 3 1 5 0;
#X connect 3 1 6 0;
#X connect 4 0 1 0;
#X connect 5 0 1 0;
#X connect 6 0 0 0;
#X connect 7 0 0 0;
#X restore 26 416 pd gemwin;
#X msg 26 397 destroy;
#X text 22 376 Create window:;
#X obj 22 215 gemhead 100;
#X msg 196 230 0 \, 1 2000;
#X msg 117 108 0 \, 1 400;
#X obj 118 51 t b b;
#X obj 118 19 bng 15 250 50 0 empty empty empty 17 7 0 10 -262144 -1
-1;
#X obj 22 292 scaleXYZ 5 5 1;
#X connect 0 0 2 0;
#X connect 1 0 5 1;
#X connect 2 0 1 0;
#X connect 3 0 4 0;
#X connect 4 0 5 2;
#X connect 6 0 5 0;
#X connect 7 0 18 0;
#X connect 8 0 7 0;
#X connect 10 0 11 0;
#X connect 11 0 10 0;
#X connect 13 0 8 0;
#X connect 14 0 3 0;
#X connect 15 0 0 0;
#X connect 16 0 15 0;
#X connect 16 1 14 0;
#X connect 17 0 16 0;
#X connect 18 0 6 0;
