#N canvas 566 179 656 633 10;
#X obj 96 100 repeat 10;
#X obj 96 128 t a b;
#X obj 123 156 k_count 1 10;
#X obj 173 100 t f f f;
#X floatatom 173 76 5 0 0 0 - - -;
#X obj 96 190 separator;
#X obj 176 203 / 10;
#X obj 176 278 expr $f1*3.14159*2;
#X obj 176 304 t f f;
#X obj 176 331 expr sin($f1)*$f2;
#X floatatom 275 306 5 0 0 0 - - -;
#X obj 96 405 translateXYZ 0 0 0;
#X obj 203 359 expr cos($f1)*$f2;
#X obj 96 443 rotateXYZ 0 0 0;
#X obj 176 251 t f f;
#X obj 196 443 * -360;
#X obj 96 490 rectangle 0.05 0.4;
#X obj 95 -28 inlet;
#X obj 199 -61 inlet;
#X obj 302 414 unpack f f;
#X obj 199 -23 route size color radius num length;
#X obj 176 178 t f f;
#X obj 262 -116 loadbang;
#X floatatom 317 5 5 0 0 0 - - -;
#X floatatom 258 9 5 0 0 0 - - -;
#X obj 96 51 color 1 1 1;
#X msg 262 -86 num 20 \, length 1 \, radius 1 \, size 0.1 0.2;
#X obj -26 -25 init \$1;
#X obj 96 28 scale 1;
#X obj -27 1 expr if($f1==0 \, 1 \, $f1);
#X floatatom 366 54 5 0 0 0 - - -;
#X connect 0 0 1 0;
#X connect 1 0 5 0;
#X connect 1 1 2 0;
#X connect 2 0 21 0;
#X connect 3 0 0 1;
#X connect 3 1 2 2;
#X connect 3 2 6 1;
#X connect 4 0 3 0;
#X connect 5 0 11 0;
#X connect 6 0 14 0;
#X connect 7 0 8 0;
#X connect 8 0 9 0;
#X connect 8 1 12 0;
#X connect 9 0 11 1;
#X connect 10 0 9 1;
#X connect 10 0 12 1;
#X connect 11 0 13 0;
#X connect 12 0 11 2;
#X connect 13 0 16 0;
#X connect 14 0 7 0;
#X connect 14 1 15 0;
#X connect 15 0 13 3;
#X connect 17 0 28 0;
#X connect 18 0 20 0;
#X connect 19 0 16 1;
#X connect 19 1 16 2;
#X connect 20 0 19 0;
#X connect 20 1 25 1;
#X connect 20 2 10 0;
#X connect 20 2 24 0;
#X connect 20 3 4 0;
#X connect 20 3 23 0;
#X connect 20 4 30 0;
#X connect 21 0 6 0;
#X connect 22 0 26 0;
#X connect 25 0 0 0;
#X connect 26 0 20 0;
#X connect 27 0 29 0;
#X connect 28 0 25 0;
#X connect 29 0 28 1;
