#N canvas 550 23 830 773 10;
#X obj 266 597 t a b;
#X obj 348 145 separator;
#X obj 348 296 curve 2;
#X obj 368 253 list 0;
#X obj 227 235 loadbang;
#X obj 348 172 GEMglPointSize 4;
#X msg 227 259 draw point \, res 10;
#X obj 368 225 t a a;
#X obj 550 256 unpack f f;
#X obj 471 270 unpack f f;
#X obj 550 299 expr ($f1-$f2);
#X obj 447 299 expr ($f1-$f2);
#X obj 447 359 expr atan2($f1 \, $f2)*180/3.1415926;
#X floatatom 447 382 5 0 0 0 - - -, f 5;
#X obj 447 428 - 90;
#X obj 83 379 loadbang;
#X obj -44 720 circle 0.05;
#X obj 139 672 curve 2;
#N canvas 229 294 450 300 center 0;
#X obj 115 57 inlet;
#X obj 265 57 inlet;
#X obj 113 96 unpack f f f;
#X obj 269 92 unpack f f f;
#X obj 109 146 expr ($f1+$f2)/2;
#X obj 140 173 expr ($f1+$f2)/2;
#X obj 180 200 expr ($f1+$f2)/2;
#X obj 91 237 outlet;
#X obj 135 236 outlet;
#X obj 182 239 outlet;
#X connect 0 0 2 0;
#X connect 1 0 3 0;
#X connect 2 0 4 0;
#X connect 2 1 5 0;
#X connect 2 2 6 0;
#X connect 3 0 4 1;
#X connect 3 1 5 1;
#X connect 3 2 6 1;
#X connect 4 0 7 0;
#X connect 5 0 8 0;
#X connect 6 0 9 0;
#X restore -22 302 pd center;
#X floatatom 42 351 5 0 0 0 - - -, f 5;
#X obj -45 371 rotateXYZ 0 0 0;
#X obj 89 124 loadbang;
#X obj -45 147 t a a;
#X obj -6 397 distance_n;
#X msg 83 402 0.6;
#X obj 314 480 list 0;
#X obj 266 540 translateXYZ;
#X obj 314 511 unpack f f f;
#X obj 266 567 rotateXYZ 0 0 0;
#X obj 353 414 - 180;
#X obj 266 628 triangle 0.2;
#X obj 370 598 f;
#X obj 397 598 + 0.01;
#X obj 387 274 list 0;
#X obj 188 545 t f f;
#X obj 83 432 t f f;
#X obj -28 75 list 0;
#X obj -1 23 list 0;
#N canvas 625 334 694 361 text 0;
#X obj 199 40 loadbang;
#X msg 230 126 font ACaslonPro-BoldItalic.otf;
#X msg 131 102 text Length [\$1];
#X obj 86 55 inlet;
#X obj 135 60 inlet;
#X obj 116 155 text3d;
#X msg 199 63 2;
#X connect 0 0 6 0;
#X connect 0 0 1 0;
#X connect 2 0 5 0;
#X connect 3 0 5 0;
#X connect 4 0 2 0;
#X connect 6 0 5 1;
#X restore -45 421 pd text;
#X obj 181 470 list 0;
#X obj 66 567 list 0;
#X obj 444 236 t a a;
#X obj -22 246 t a a;
#X obj 38 268 t a a;
#X obj 550 326 t b f;
#X msg 341 53 4 2;
#X obj 348 118 r \$0-gemhead;
#X obj -45 125 separator;
#X obj -45 104 r \$0-gemhead;
#X obj 49 504 separator;
#X obj 49 480 r \$0-gemhead;
#X obj 139 412 separator;
#X obj 139 388 r \$0-gemhead;
#X obj 164 342 separator;
#X obj 164 318 r \$0-gemhead;
#X obj 266 418 separator;
#X obj 266 394 r \$0-gemhead;
#X obj 149 126 s \$0-gemhead;
#X obj 149 102 inlet;
#X obj 251 7 inlet;
#X obj 306 7 inlet;
#X msg 89 148 0.3;
#X obj 341 88 s \$0-toend;
#X obj 368 197 r \$0-toend;
#X obj 314 452 r \$0-toend;
#X obj 444 203 r \$0-togo;
#X obj 181 442 r \$0-toend;
#X obj 66 543 r \$0-togo;
#X obj -28 51 r \$0-togo;
#X obj -1 -5 r \$0-toend;
#X obj 274 87 s \$0-togo;
#X obj 447 450 s \$0-drawan;
#X obj 188 510 r \$0-drawan;
#X obj 6 148 r \$0-drawan;
#X msg 274 53 0 0;
#X obj -110 277 separator;
#X obj -110 253 r \$0-gemhead;
#X msg 207 652 1.22037 2 0.558066;
#X obj -45 327 translateXYZ;
#X obj -44 691 translateXYZ;
#X obj 22 616 unpack f f f;
#X obj 234 745 circle 0.05;
#X obj 236 716 translateXYZ;
#X obj 304 684 unpack f f f;
#X obj -18 218 k_aPos 1234;
#X obj -45 184 k_aPos 1234;
#X obj 164 595 k_aLine 1234;
#X obj 49 590 k_aLine 1234;
#X obj -44 633 r \$0-gemhead;
#X obj -44 659 separator;
#X obj 119 704 r \$0-gemhead;
#X obj 119 730 separator;
#X obj 370 620 + 0.05;
#X obj 450 598 fmod 0.08;
#X connect 0 0 30 0;
#X connect 0 1 31 0;
#X connect 1 0 5 0;
#X connect 3 0 2 1;
#X connect 4 0 6 0;
#X connect 5 0 2 0;
#X connect 6 0 2 0;
#X connect 7 0 3 0;
#X connect 7 1 8 0;
#X connect 8 0 10 0;
#X connect 8 1 11 0;
#X connect 9 0 10 1;
#X connect 9 1 11 1;
#X connect 10 0 44 0;
#X connect 11 0 12 0;
#X connect 12 0 13 0;
#X connect 13 0 14 0;
#X connect 13 0 19 0;
#X connect 13 0 29 0;
#X connect 14 0 71 0;
#X connect 15 0 24 0;
#X connect 18 0 78 1;
#X connect 18 1 78 2;
#X connect 18 2 78 3;
#X connect 19 0 20 3;
#X connect 20 0 38 0;
#X connect 21 0 61 0;
#X connect 22 0 85 0;
#X connect 22 1 84 0;
#X connect 23 0 38 1;
#X connect 24 0 35 0;
#X connect 25 0 27 0;
#X connect 26 0 28 0;
#X connect 27 0 26 1;
#X connect 27 1 26 2;
#X connect 27 2 26 3;
#X connect 28 0 0 0;
#X connect 29 0 28 3;
#X connect 31 0 32 0;
#X connect 31 0 92 0;
#X connect 32 0 93 0;
#X connect 33 0 2 2;
#X connect 34 0 87 3;
#X connect 34 1 86 3;
#X connect 35 0 87 2;
#X connect 35 1 86 2;
#X connect 36 0 85 1;
#X connect 37 0 84 1;
#X connect 39 0 86 1;
#X connect 40 0 87 1;
#X connect 41 0 33 0;
#X connect 41 1 9 0;
#X connect 42 0 18 0;
#X connect 42 1 23 0;
#X connect 43 0 18 1;
#X connect 43 1 23 1;
#X connect 44 0 12 0;
#X connect 44 1 12 1;
#X connect 45 0 62 0;
#X connect 46 0 1 0;
#X connect 47 0 22 0;
#X connect 48 0 47 0;
#X connect 49 0 87 0;
#X connect 50 0 49 0;
#X connect 51 0 17 0;
#X connect 52 0 51 0;
#X connect 53 0 86 0;
#X connect 54 0 53 0;
#X connect 55 0 26 0;
#X connect 56 0 55 0;
#X connect 58 0 57 0;
#X connect 59 0 70 0;
#X connect 60 0 62 0;
#X connect 61 0 84 2;
#X connect 61 0 85 2;
#X connect 63 0 7 0;
#X connect 64 0 25 0;
#X connect 65 0 41 0;
#X connect 66 0 39 0;
#X connect 67 0 40 0;
#X connect 68 0 36 0;
#X connect 69 0 37 0;
#X connect 72 0 34 0;
#X connect 73 0 84 3;
#X connect 73 0 85 3;
#X connect 74 0 70 0;
#X connect 75 0 78 0;
#X connect 76 0 75 0;
#X connect 78 0 20 0;
#X connect 79 0 16 0;
#X connect 80 0 79 1;
#X connect 80 1 79 2;
#X connect 80 2 79 3;
#X connect 82 0 81 0;
#X connect 83 0 82 1;
#X connect 83 1 82 2;
#X connect 83 2 82 3;
#X connect 84 0 43 0;
#X connect 85 0 42 0;
#X connect 86 0 83 0;
#X connect 86 1 77 0;
#X connect 87 0 80 0;
#X connect 88 0 89 0;
#X connect 89 0 79 0;
#X connect 90 0 91 0;
#X connect 91 0 82 0;
#X connect 92 0 30 1;
#X connect 93 0 31 1;
