#N canvas 666 243 450 300 10;
#X msg -3053 -4008 create \, 1;
#X obj -3054 -3981 gemwin;
#X obj -2848 -4238 gemmouse 1 1;
#X obj -2848 -4203 expr $f1*8-4;
#X obj -2831 -4179 expr $f1*-8+4;
#X obj -2925 -4128 gemhead 20;
#X obj -2904 -4096 pack f f;
#X obj -2925 -4007 vj_ruler;
#X obj -2903 -4062 t a b;
#X msg -2876 -4039 0 0;
#X connect 0 0 1 0;
#X connect 2 0 3 0;
#X connect 2 1 4 0;
#X connect 3 0 6 0;
#X connect 4 0 6 1;
#X connect 5 0 7 0;
#X connect 6 0 8 0;
#X connect 8 0 7 1;
#X connect 8 1 9 0;
#X connect 9 0 7 2;
