#N canvas 205 22 1040 780 10;
#X obj 348 296 curve 2;
#X obj 227 235 loadbang;
#X obj 368 225 t a a;
#X obj 550 256 unpack f f;
#X obj 471 270 unpack f f;
#X obj 550 299 expr ($f1-$f2);
#X obj 447 299 expr ($f1-$f2);
#X obj 447 359 expr atan2($f1 \, $f2)*180/3.1415926;
#X floatatom 447 382 5 0 0 0 - - -;
#X obj 447 428 - 90;
#X obj 83 379 loadbang;
#X obj 139 672 curve 2;
#X obj -45 184 k_aPos =====;
#X obj 89 124 loadbang;
#X obj -18 218 k_aPos =====;
#X obj -45 147 t a a;
#X obj -27 415 distance_n;
#X obj 188 545 t f f;
#X obj 83 432 t f f;
#N canvas 531 270 450 300 text 0;
#X obj 69 17 loadbang;
#X msg 11 157 text Length [\$1];
#X obj -44 32 inlet;
#X obj 5 37 inlet;
#X obj 161 83 loadbang;
#X msg 161 107 justify left base;
#X obj -25 98 translateXYZ 0.3 0 0;
#X msg 110 181 font font forgottenfuturistrg.ttf;
#X obj -4 210 text3d;
#X obj -30 130 facing;
#X msg 69 40 3.5;
#X connect 0 0 10 0;
#X connect 0 0 7 0;
#X connect 1 0 8 0;
#X connect 2 0 6 0;
#X connect 3 0 1 0;
#X connect 4 0 5 0;
#X connect 5 0 8 0;
#X connect 6 0 9 0;
#X connect 7 0 8 0;
#X connect 9 0 8 0;
#X connect 10 0 8 1;
#X restore -66 439 pd text;
#X obj 444 236 t a a;
#X obj 550 326 t b f;
#X obj 348 118 r \$0-gemhead;
#X obj -45 125 separator;
#X obj -45 104 r \$0-gemhead;
#X obj 139 412 separator;
#X obj 139 388 r \$0-gemhead;
#X obj 164 342 separator;
#X obj 164 318 r \$0-gemhead;
#X obj 149 183 s \$0-gemhead;
#X obj 149 102 inlet;
#X obj 251 7 inlet;
#X obj 306 7 inlet;
#X obj 341 88 s \$0-toend;
#X obj 368 197 r \$0-toend;
#X obj 444 203 r \$0-togo;
#X obj 237 410 r \$0-toend;
#X obj 66 543 r \$0-togo;
#X obj -28 51 r \$0-togo;
#X obj -1 -5 r \$0-toend;
#X obj 274 87 s \$0-togo;
#X obj 447 450 s \$0-drawan;
#X obj 188 510 r \$0-drawan;
#X obj 6 148 r \$0-drawan;
#X msg 89 148 0.2;
#X msg 83 402 0.3;
#X obj 139 478 color 1 1 1;
#X obj -39 497 separator;
#X obj -39 473 r \$0-gemhead;
#X obj 49 590 k_aLine ====;
#N canvas 229 294 450 300 center 0;
#X obj 115 57 inlet;
#X obj 265 57 inlet;
#X obj 113 96 unpack f f f;
#X obj 269 92 unpack f f f;
#X obj 109 146 expr ($f1+$f2)/2;
#X obj 140 173 expr ($f1+$f2)/2;
#X obj 180 200 expr ($f1+$f2)/2;
#X obj 91 237 outlet;
#X obj 135 236 outlet;
#X obj 182 239 outlet;
#X connect 0 0 2 0;
#X connect 1 0 3 0;
#X connect 2 0 4 0;
#X connect 2 1 5 0;
#X connect 2 2 6 0;
#X connect 3 0 4 1;
#X connect 3 1 5 1;
#X connect 3 2 6 1;
#X connect 4 0 7 0;
#X connect 5 0 8 0;
#X connect 6 0 9 0;
#X restore -105 308 pd center;
#X obj -105 252 t a a;
#X obj -32 265 t a a;
#X obj -193 283 separator;
#X obj -193 259 r \$0-gemhead;
#X obj -128 333 translateXYZ;
#X obj 258 481 loadbang;
#X obj 348 145 separator;
#X obj 138 445 GEMglPointSize 2;
#X msg 258 505 draw point;
#X obj 7 622 expr int($f1*10);
#X msg 37 658 res \$1;
#X floatatom 6 661 5 0 0 0 - - -;
#X obj 164 595 k_aLine ====;
#X obj 213 659 separator;
#X obj 213 635 r \$0-gemhead;
#X obj 213 761 facing;
#X obj 213 728 translateXYZ;
#X obj 432 751 facing;
#X obj 432 718 translateXYZ;
#X obj 506 683 unpack f f f;
#X obj 432 659 separator;
#X obj 432 635 r \$0-gemhead;
#X obj 319 685 unpack f f f;
#X obj -106 365 color 1 1 1;
#X msg 227 259 draw line \, width 3;
#X obj -97 396 alpha;
#X obj -7 323 loadbang;
#X msg -10 344 1;
#X obj 213 792 circle 0.03;
#X obj 432 782 circle 0.03;
#X obj 274 195 color 1 1 1;
#X obj 213 686 color 1 0 0;
#X obj 432 694 color 1 0 0;
#X connect 1 0 75 0;
#X connect 2 0 0 1;
#X connect 2 1 3 0;
#X connect 3 0 5 0;
#X connect 3 1 6 0;
#X connect 4 0 5 1;
#X connect 4 1 6 1;
#X connect 5 0 21 0;
#X connect 6 0 7 0;
#X connect 7 0 8 0;
#X connect 8 0 9 0;
#X connect 9 0 41 0;
#X connect 10 0 45 0;
#X connect 12 0 51 0;
#X connect 13 0 44 0;
#X connect 14 0 52 0;
#X connect 15 0 12 0;
#X connect 15 1 14 0;
#X connect 16 0 19 1;
#X connect 16 0 60 0;
#X connect 17 0 49 3;
#X connect 17 1 63 3;
#X connect 18 0 49 2;
#X connect 18 1 63 2;
#X connect 20 0 0 2;
#X connect 20 1 4 0;
#X connect 21 0 7 0;
#X connect 21 1 7 1;
#X connect 22 0 57 0;
#X connect 23 0 15 0;
#X connect 24 0 23 0;
#X connect 25 0 58 0;
#X connect 26 0 25 0;
#X connect 28 0 27 0;
#X connect 30 0 29 0;
#X connect 31 0 40 0;
#X connect 32 0 33 0;
#X connect 34 0 2 0;
#X connect 35 0 20 0;
#X connect 36 0 63 1;
#X connect 37 0 49 1;
#X connect 38 0 12 1;
#X connect 39 0 14 1;
#X connect 42 0 17 0;
#X connect 43 0 12 3;
#X connect 43 0 14 3;
#X connect 44 0 12 2;
#X connect 44 0 14 2;
#X connect 45 0 18 0;
#X connect 46 0 11 0;
#X connect 47 0 49 0;
#X connect 47 0 63 0;
#X connect 48 0 47 0;
#X connect 49 0 11 1;
#X connect 49 0 73 0;
#X connect 50 0 55 1;
#X connect 50 1 55 2;
#X connect 50 2 55 3;
#X connect 51 0 50 0;
#X connect 51 1 16 0;
#X connect 52 0 50 1;
#X connect 52 1 16 1;
#X connect 53 0 55 0;
#X connect 54 0 53 0;
#X connect 55 0 74 0;
#X connect 56 0 59 0;
#X connect 57 0 81 0;
#X connect 58 0 46 0;
#X connect 59 0 11 0;
#X connect 60 0 62 0;
#X connect 61 0 11 0;
#X connect 62 0 61 0;
#X connect 63 0 11 2;
#X connect 63 0 70 0;
#X connect 64 0 82 0;
#X connect 65 0 64 0;
#X connect 66 0 79 0;
#X connect 67 0 66 0;
#X connect 68 0 80 0;
#X connect 69 0 68 0;
#X connect 70 0 69 1;
#X connect 70 1 69 2;
#X connect 70 2 69 3;
#X connect 71 0 83 0;
#X connect 72 0 71 0;
#X connect 73 0 67 1;
#X connect 73 1 67 2;
#X connect 73 2 67 3;
#X connect 74 0 76 0;
#X connect 75 0 0 0;
#X connect 76 0 19 0;
#X connect 77 0 78 0;
#X connect 78 0 76 1;
#X connect 81 0 0 0;
#X connect 82 0 67 0;
#X connect 83 0 69 0;
