#N canvas 675 263 1097 647 10;
#X obj 239 83 gemhead;
#X obj 418 305 bng 15 250 50 0 empty empty empty 17 7 0 10 -262144
-1 -1;
#X obj 445 358 + 1;
#X obj 418 416 t f f;
#X obj 418 386 t f f;
#X obj 78 285 loadbang;
#X obj 418 329 repeat 3600;
#X obj 473 358 % 3600;
#X obj 418 443 % 60;
#X obj 561 449 expr int($f1/60);
#X obj 561 419 t f f;
#X obj 418 358 f 0;
#X obj 150 489 gemvertexbuffer 3600;
#X obj -30 88 table x2 3600;
#X obj -30 111 table y2 3600;
#X obj -30 134 table z2 3600;
#X obj 418 508 tabwrite x2;
#X obj 561 511 tabwrite z2;
#X msg 169 391 position x2 y2 z2;
#X msg 78 311 draw point;
#X floatatom 285 265 5 0 0 0 - - -;
#X obj 239 202 t a b;
#X obj 285 242 f 0;
#X obj -60 408 repeat 1200;
#X obj -60 432 f;
#X obj -31 433 + 1;
#X obj -4 433 % 1200;
#X obj -62 590 tabwrite y2;
#X obj -170 464 repeat 1200;
#X obj -170 488 f;
#X obj -141 489 + 1;
#X obj -114 489 % 1200;
#X obj -170 512 t f f;
#X obj -170 589 tabwrite y2;
#X obj -170 563 tabread y2;
#X obj -140 533 + 1200;
#X obj -280 456 repeat 1200;
#X obj -280 480 f;
#X obj -251 481 + 1;
#X obj -224 481 % 1200;
#X obj -280 504 t f f;
#X obj -280 581 tabwrite y2;
#X obj -280 555 tabread y2;
#X obj -253 526 + 2400;
#X floatatom 285 317 5 0 0 0 - - -;
#X obj 150 334 separator;
#X obj -60 459 t f b f;
#X obj -62 537 tabread y2;
#X obj -62 567 +;
#X obj 418 279 loadbang;
#X obj 150 197 loadbang;
#X obj -32 167 table alpha2 3600;
#X obj 150 362 t a b b;
#X obj -172 69 repeat 1200;
#X obj -172 93 f;
#X obj -143 94 + 1;
#X obj -116 94 % 1200;
#X obj -172 46 bng 15 250 50 0 empty empty empty 17 7 0 10 -262144
-1 -1;
#X obj -138 157 + 1200;
#X obj -155 182 + 2400;
#X obj -172 133 t b f f f;
#X obj -172 23 loadbang;
#X obj -241 228 tabwrite alpha2;
#X obj -219 249 tabwrite alpha2;
#X obj -190 274 tabwrite alpha2;
#X obj -241 184 randomF 1;
#X obj -58 237 repeat 1200;
#X obj -58 261 f;
#X obj -29 262 + 1;
#X obj -2 262 % 1200;
#X obj -58 364 tabwrite y2;
#X obj -58 288 t b f;
#X obj -210 354 t b b b b;
#X obj -210 333 bng 15 250 50 0 empty empty empty 17 7 0 10 -262144
-1 -1;
#X obj -210 306 loadbang;
#X msg 150 234 auto 1;
#X obj 150 294 translateXYZ 0 0 0;
#X obj -28 65 table white 3600;
#X msg 201 363 color white white white alpha2;
#X obj 150 266 alpha 1;
#X obj 106 118 hsl 100 15 0 1 0 0 empty empty Alpha 5 7 0 10 -258113
-1 -1 0 1;
#X obj 103 74 loadbang;
#X msg 103 97 0;
#X obj 103 158 t f f;
#X obj 239 38 > 0;
#X floatatom 239 62 5 0 0 0 - - -;
#X msg 26 209 \; white const \$1;
#X obj 239 173 GEMglPointSize 2;
#X obj 439 153 r vj-vol;
#X obj 525 52 r vj-pitch-2;
#X obj 522 19 r vj-pitch-1;
#X floatatom 439 202 5 0 0 0 - - -;
#X obj 395 28 r t1;
#X obj 395 53 t b b;
#X msg 395 121 2;
#X floatatom 280 -128 5 0 0 0 - - -;
#X obj 280 -148 shuffle 3;
#X obj 239 141 rotateXYZ 0 0 0;
#X obj 273 -14 tripleLine;
#X obj 280 -107 sel 0 1 2 3;
#X obj 273 12 unpack f f f;
#X floatatom 272 32 5 0 0 0 - - -;
#X floatatom 309 42 5 0 0 0 - - -;
#X floatatom 346 41 5 0 0 0 - - -;
#X obj -41 505 - 0.1;
#X obj -41 483 randomF 0.2;
#X obj -58 315 randomF 1;
#X obj -58 338 - 0.5;
#X obj 239 112 translateXYZ 0 0 0;
#X obj 418 478 k_range 0 60 -20 20;
#X obj 356 240 fmod 20;
#X obj 285 292 - 20;
#X obj 561 482 k_range 0 60 -30 30;
#X obj 439 180 k_range 0 1 0.001 0.2;
#X obj 395 98 del 20;
#X msg 422 76 5;
#X obj 114 45 inlet;
#X obj 280 -221 r musicTime;
#X obj 280 -197 % 10;
#X obj 280 -176 sel 0;
#X msg 314 -39 -11 4 -8 10000;
#X msg 297 -60 36 -61 8 10000;
#X msg 280 -79 13 13 -5 10000;
#X msg 403 -76 -32 87 -23 10000;
#X obj 347 208 inlet;
#X obj 312 241 + 0.3;
#X floatatom 356 276 5 0 0 0 - - -;
#X connect 0 0 108 0;
#X connect 1 0 6 0;
#X connect 2 0 7 0;
#X connect 3 0 8 0;
#X connect 3 1 16 1;
#X connect 4 0 3 0;
#X connect 4 1 10 0;
#X connect 5 0 19 0;
#X connect 6 0 11 0;
#X connect 7 0 11 1;
#X connect 8 0 109 0;
#X connect 9 0 112 0;
#X connect 10 0 9 0;
#X connect 10 1 17 1;
#X connect 11 0 2 0;
#X connect 11 0 4 0;
#X connect 18 0 12 0;
#X connect 19 0 12 0;
#X connect 20 0 111 0;
#X connect 21 0 79 0;
#X connect 21 1 22 0;
#X connect 22 0 20 0;
#X connect 22 0 125 0;
#X connect 23 0 24 0;
#X connect 24 0 25 0;
#X connect 24 0 46 0;
#X connect 25 0 26 0;
#X connect 26 0 24 1;
#X connect 28 0 29 0;
#X connect 29 0 30 0;
#X connect 29 0 32 0;
#X connect 30 0 31 0;
#X connect 31 0 29 1;
#X connect 32 0 34 0;
#X connect 32 1 35 0;
#X connect 34 0 33 0;
#X connect 35 0 33 1;
#X connect 36 0 37 0;
#X connect 37 0 38 0;
#X connect 37 0 40 0;
#X connect 38 0 39 0;
#X connect 39 0 37 1;
#X connect 40 0 42 0;
#X connect 40 1 43 0;
#X connect 42 0 41 0;
#X connect 43 0 41 1;
#X connect 44 0 76 3;
#X connect 45 0 52 0;
#X connect 46 0 47 0;
#X connect 46 1 105 0;
#X connect 46 2 27 1;
#X connect 47 0 48 0;
#X connect 48 0 27 0;
#X connect 49 0 1 0;
#X connect 50 0 75 0;
#X connect 52 0 12 0;
#X connect 52 1 18 0;
#X connect 52 2 78 0;
#X connect 53 0 54 0;
#X connect 54 0 55 0;
#X connect 54 0 60 0;
#X connect 55 0 56 0;
#X connect 56 0 54 1;
#X connect 57 0 53 0;
#X connect 58 0 63 1;
#X connect 59 0 62 1;
#X connect 60 0 65 0;
#X connect 60 1 59 0;
#X connect 60 2 58 0;
#X connect 60 3 64 1;
#X connect 61 0 57 0;
#X connect 65 0 62 0;
#X connect 65 0 63 0;
#X connect 65 0 64 0;
#X connect 66 0 67 0;
#X connect 67 0 68 0;
#X connect 67 0 71 0;
#X connect 68 0 69 0;
#X connect 69 0 67 1;
#X connect 71 0 106 0;
#X connect 71 1 70 1;
#X connect 72 0 36 0;
#X connect 72 1 28 0;
#X connect 72 2 23 0;
#X connect 72 3 66 0;
#X connect 73 0 72 0;
#X connect 74 0 73 0;
#X connect 75 0 79 0;
#X connect 76 0 45 0;
#X connect 78 0 12 0;
#X connect 79 0 76 0;
#X connect 80 0 83 0;
#X connect 81 0 82 0;
#X connect 82 0 80 0;
#X connect 83 0 86 0;
#X connect 83 1 84 0;
#X connect 84 0 85 0;
#X connect 85 0 0 0;
#X connect 87 0 21 0;
#X connect 88 0 113 0;
#X connect 92 0 93 0;
#X connect 93 0 114 0;
#X connect 93 1 115 0;
#X connect 94 0 87 1;
#X connect 95 0 99 0;
#X connect 96 0 95 0;
#X connect 97 0 87 0;
#X connect 98 0 100 0;
#X connect 99 0 122 0;
#X connect 99 1 121 0;
#X connect 99 2 120 0;
#X connect 99 3 123 0;
#X connect 100 0 101 0;
#X connect 100 1 102 0;
#X connect 100 2 103 0;
#X connect 101 0 97 1;
#X connect 102 0 97 2;
#X connect 103 0 97 3;
#X connect 104 0 48 1;
#X connect 105 0 104 0;
#X connect 106 0 107 0;
#X connect 107 0 70 0;
#X connect 108 0 97 0;
#X connect 109 0 16 0;
#X connect 110 0 22 1;
#X connect 111 0 44 0;
#X connect 112 0 17 0;
#X connect 113 0 91 0;
#X connect 114 0 94 0;
#X connect 115 0 87 1;
#X connect 116 0 80 0;
#X connect 117 0 118 0;
#X connect 118 0 119 0;
#X connect 119 0 96 0;
#X connect 120 0 98 0;
#X connect 121 0 98 0;
#X connect 122 0 98 0;
#X connect 123 0 98 0;
#X connect 124 0 125 1;
#X connect 125 0 110 0;
#X connect 126 0 125 1;
#X coords 0 -1 1 1 110 35 1 100 100;
