#N canvas 726 87 423 601 10;
#X obj 137 216 gemhead;
#X obj 137 248 part_head;
#X obj 137 457 part_draw;
#X text 247 387 set the number per frame;
#X text 261 419 set the age to kill at;
#X obj 78 186 loadbang;
#X msg 78 214 speed 1;
#X obj 137 323 part_color;
#X obj 100 283 alpha;
#X obj 56 242 tgl 15 0 empty empty empty 17 7 0 10 -262144 -1 -1 1
1;
#X obj 137 419 part_killold 80;
#X msg 165 298 \$1 \$1 \$1;
#X msg 253 250 \$1 1000;
#X obj 254 274 line;
#X obj 162 150 sel 0 1;
#X msg 162 174 0;
#X msg 192 173 1;
#X obj 254 301 * 0.3;
#X obj 137 353 part_velocity sphere 0 0 0 0.3;
#X floatatom 246 439 5 0 0 0 - - -;
#X obj 137 390 part_source 20;
#X obj 55 60 loadbang;
#X msg 55 84 0;
#X obj 253 200 > 1;
#X obj 105 117 hsl 100 15 1 40 0 0 empty empty Life 5 7 0 10 -258113
-1 -1 0 1;
#X obj 253 227 tgl 15 0 empty empty empty 17 7 0 10 -262144 -1 -1 0
1;
#X obj 63 -61 r touchosc;
#X obj 63 -37 routeOSC /vj;
#X floatatom 63 9 5 0 0 0 - - -;
#X obj 63 -13 route /3;
#X obj 169 49 k_range 0 1 1 40;
#X obj -3 453 s toudp;
#X obj -3 426 packOSC;
#X msg -3 385 send /gh /8 \$1;
#X floatatom 20 342 5 0 0 0 - - -;
#X msg 56 295 auto 1;
#X connect 0 0 1 0;
#X connect 1 0 8 0;
#X connect 5 0 6 0;
#X connect 5 0 9 0;
#X connect 5 0 35 0;
#X connect 6 0 1 0;
#X connect 7 0 18 0;
#X connect 8 0 7 0;
#X connect 9 0 8 1;
#X connect 10 0 2 0;
#X connect 11 0 7 1;
#X connect 11 0 7 2;
#X connect 12 0 13 0;
#X connect 13 0 14 0;
#X connect 13 0 17 0;
#X connect 14 0 15 0;
#X connect 14 2 16 0;
#X connect 15 0 0 0;
#X connect 16 0 0 0;
#X connect 17 0 11 0;
#X connect 18 0 20 0;
#X connect 19 0 10 1;
#X connect 19 0 23 0;
#X connect 20 0 10 0;
#X connect 21 0 22 0;
#X connect 22 0 0 0;
#X connect 23 0 25 0;
#X connect 24 0 19 0;
#X connect 25 0 12 0;
#X connect 26 0 27 0;
#X connect 27 0 29 0;
#X connect 28 0 30 0;
#X connect 28 0 33 0;
#X connect 29 0 28 0;
#X connect 30 0 24 0;
#X connect 32 0 31 0;
#X connect 33 0 32 0;
#X connect 35 0 8 0;
#X coords 0 -1 1 1 110 35 1 100 100;
