#N canvas 315 74 1050 563 10;
#X obj 522 -84 bng 15 250 50 0 empty empty empty 17 7 0 10 -262144
-1 -1;
#X obj 522 -31 f;
#X obj 550 -33 + 1;
#X obj 215 327 % 30;
#X obj 348 339 expr int($f1/30)%30;
#X obj 439 257 expr int($f1/900)%30;
#X obj 44 355 gemvertexbuffer 1000;
#X obj 439 284 k_range 0 29 0;
#X obj 522 -61 repeat 1000;
#X obj 579 -31 % 1000;
#X obj 522 -108 loadbang;
#X obj 214 353 k_range 0 30 -8 8;
#X obj 347 362 k_range 0 30 -8 8;
#X obj 593 291 unpack f f;
#X obj 362 67 table \$0grid_x 1000;
#X obj 363 96 table \$0grid_y 1000;
#X obj 367 119 table \$0grid_z 1000;
#X obj 366 155 table \$0red 1000;
#X obj 367 183 table \$0alpha 1000;
#X obj 439 306 tabwrite \$0grid_z;
#X obj 214 384 tabwrite \$0grid_x;
#X obj 347 386 tabwrite \$0grid_y;
#X obj 593 324 tabwrite \$0red;
#X obj 703 337 tabwrite \$0alpha;
#X obj 71 223 i \$0;
#X obj 44 199 t a b;
#X msg 84 251 color \$1red \$1red \$1red \$1alpha;
#X msg 71 282 position \$1grid_x \$1grid_y \$1grid_z;
#X obj 44 176 alpha 1;
#X obj 598 150 t f f f;
#X obj 593 239 sel 0;
#X obj 596 181 + 0;
#X obj 522 -3 t f f f f f f f f;
#X obj 611 101 expr int($f1/30)%30;
#X obj 611 123 % 2;
#X obj 595 214 % 2;
#X obj 748 -58 tgl 15 0 empty empty empty 17 7 0 10 -262144 -1 -1 0
1;
#X obj 748 103 tabwrite \$0grid_z;
#X obj 748 22 f;
#X obj 776 20 + 1;
#X obj 748 -8 repeat 1000;
#X obj 805 22 % 1000;
#X obj 748 49 t b f;
#X obj 748 80 randomF 0.2;
#X obj 189 142 sel 0;
#X msg 189 194 0;
#X msg 220 170 1;
#X obj 220 195 f;
#X obj 44 147 gemhead -5;
#X obj 856 22 r vj-vol;
#X obj 748 -35 metro 50;
#X msg 44 115 set \$1;
#X obj 44 23 r gemlayer;
#X obj 44 45 sel 0 1;
#X msg 44 69 10000;
#X msg 63 93 -5;
#X obj 189 115 tgl 15 0 empty empty empty 17 7 0 10 -262144 -1 -1 0
1;
#X obj 189 58 loadbang;
#X msg 189 79 0;
#X obj 231 108 r trigger3d;
#X msg 593 267 1 0.7;
#X msg 638 267 1 0.4;
#X obj 44 315 GEMglPointSize 2;
#X obj 856 48 * 1;
#X connect 0 0 8 0;
#X connect 1 0 2 0;
#X connect 1 0 32 0;
#X connect 2 0 9 0;
#X connect 3 0 11 0;
#X connect 4 0 12 0;
#X connect 5 0 7 0;
#X connect 7 0 19 0;
#X connect 8 0 1 0;
#X connect 9 0 1 1;
#X connect 10 0 0 0;
#X connect 11 0 20 0;
#X connect 12 0 21 0;
#X connect 13 0 22 0;
#X connect 13 1 23 0;
#X connect 24 0 27 0;
#X connect 24 0 26 0;
#X connect 25 0 62 0;
#X connect 25 1 24 0;
#X connect 26 0 6 0;
#X connect 27 0 6 0;
#X connect 28 0 25 0;
#X connect 29 0 31 0;
#X connect 29 1 22 1;
#X connect 29 2 23 1;
#X connect 30 0 60 0;
#X connect 30 1 61 0;
#X connect 31 0 35 0;
#X connect 32 0 3 0;
#X connect 32 1 4 0;
#X connect 32 2 5 0;
#X connect 32 3 20 1;
#X connect 32 4 21 1;
#X connect 32 5 19 1;
#X connect 32 6 29 0;
#X connect 32 7 33 0;
#X connect 33 0 34 0;
#X connect 34 0 31 1;
#X connect 35 0 30 0;
#X connect 36 0 50 0;
#X connect 38 0 39 0;
#X connect 38 0 42 0;
#X connect 39 0 41 0;
#X connect 40 0 38 0;
#X connect 41 0 38 1;
#X connect 42 0 43 0;
#X connect 42 1 37 1;
#X connect 43 0 37 0;
#X connect 44 0 45 0;
#X connect 44 1 46 0;
#X connect 45 0 47 0;
#X connect 46 0 47 0;
#X connect 47 0 36 0;
#X connect 47 0 48 0;
#X connect 48 0 28 0;
#X connect 49 0 63 0;
#X connect 50 0 40 0;
#X connect 51 0 48 0;
#X connect 52 0 53 0;
#X connect 53 0 54 0;
#X connect 53 1 55 0;
#X connect 54 0 51 0;
#X connect 55 0 51 0;
#X connect 56 0 44 0;
#X connect 57 0 58 0;
#X connect 58 0 56 0;
#X connect 59 0 56 0;
#X connect 60 0 13 0;
#X connect 61 0 13 0;
#X connect 62 0 6 0;
#X connect 63 0 43 1;
#X coords 0 -1 1 1 110 35 1 100 100;
