#N canvas 125 22 1038 726 10;
#X obj 85 457 loadbang;
#X obj 178 306 t a b;
#X msg 85 509 font Medium.ttc;
#X obj 106 157 hsl 100 15 0 1 0 0 empty empty Alpha 5 8 0 10 -258113
-1 -1 9900 1;
#X obj 178 415 alpha;
#X obj 188 329 loadbang;
#X msg 188 355 1;
#X msg 142 357 auto 1;
#X obj 197 437 r vj-vol;
#X obj 197 509 line;
#X floatatom 197 530 5 0 0 0 - - -;
#X obj 150 9 r vj-pitch-1;
#X obj 37 72 loadbang;
#X msg 37 97 0;
#X obj 197 461 * 10;
#X msg 197 485 \$1 10;
#X obj 150 30 change;
#X obj 150 78 spigot;
#X obj 183 52 r \$0-tgl;
#X obj 103 206 > 0;
#X obj 103 230 change;
#X obj 103 180 t f f;
#X obj 103 254 s \$0-tgl;
#X obj 178 254 r \$0-tgl;
#X floatatom -16 246 5 0 20 0 - - -;
#X obj -16 296 t b a;
#X obj 11 382 list prepend set;
#X msg -16 434 text 挪威森林;
#X obj 11 320 s2l;
#X obj 11 406 list trim;
#X obj 178 391 colorRGB 1 1 1 1;
#X floatatom 271 318 5 0 0 0 - - -;
#X obj 178 283 gemhead -1;
#X obj 11 351 list prepend text;
#X obj 178 604 text2d;
#X obj 85 481 t b b;
#X obj 105 118 bng 30 250 50 0 empty empty empty 17 7 0 10 -4034 -1
-1;
#X obj 178 556 scale 1;
#X msg 267 468 0 \, 1 1000;
#X obj 266 494 line;
#X obj 261 567 * 100;
#X obj 261 537 outbounce;
#X obj 268 444 del 1000;
#X obj -82 180 del 1000;
#X obj -79 212 v \$0-id;
#X obj -62 143 t b f b b;
#X obj 336 495 line;
#X msg 347 470 1 \, 0 500;
#X obj 389 618 dac~;
#X obj 384 158 gemhead;
#X obj 371 353 text2d;
#X floatatom 416 200 5 0 0 0 - - -;
#X obj 140 118 tgl 30 0 empty empty empty 17 7 0 10 -262144 -1 -1 0
1;
#X obj 505 103 f;
#X obj 533 105 + 1;
#X msg 503 197 0;
#X floatatom 504 228 5 0 0 0 - - -;
#X msg 482 347 40;
#X obj 360 221 translateXYZ 0 3 0;
#X msg 448 302 text Time:\$1;
#X obj 428 543 readsf~;
#X obj 443 444 t b b;
#X msg 468 472 open 3.wav;
#X msg 445 495 start;
#X obj 505 69 metro 100;
#X obj 529 18 sel 1;
#X msg 543 41 0;
#X obj 508 139 +;
#X obj 603 164 f;
#X obj 632 164 + 1;
#X obj 176 118 bng 30 250 50 0 empty empty empty 17 7 0 10 -258113
-1 -1;
#X floatatom 603 220 5 0 0 0 - - -;
#X obj 603 194 * 100;
#X obj 276 -15 key;
#X floatatom 276 16 5 0 0 0 - - -;
#X obj 276 40 sel 97;
#X obj 494 -14 t f f;
#X obj -63 66 sel 32;
#X obj 482 327 loadbang;
#X obj 346 280 color;
#X obj 567 334 t b b;
#X msg 594 362 1 0 0;
#X msg 570 416 1 1 1;
#X obj 547 554 readsf~;
#X obj 562 455 t b b;
#X msg 556 507 start;
#X obj 569 394 del 2000;
#X msg 587 483 open 4.wav;
#X obj 389 386 t b b;
#X msg 391 437 start;
#X msg 414 414 open 1.wav;
#X obj 514 585 *~ 3;
#X obj 501 454 bng 15 250 50 0 empty empty empty 17 7 0 10 -262144
-1 -1;
#X obj 430 571 *~ 1;
#X obj 354 382 bng 15 250 50 0 empty empty empty 17 7 0 10 -262144
-1 -1;
#X obj -134 478 text2d;
#X obj -167 355 gemhead;
#X obj 700 395 osc~ 440;
#X obj 696 458 *~;
#X obj 768 494 osc~ 440;
#X obj 770 433 line~;
#X obj 695 534 dac~;
#X floatatom 740 140 5 0 0 0 - - -;
#X floatatom 739 229 5 0 0 0 - - -;
#X obj 792 301 sel 0;
#X obj 775 360 onebang;
#X obj 749 259 sel 1;
#X obj 812 249 % 10;
#X obj -16 271 coll sub.txt;
#C restore;
#X obj -61 118 shuffle 121;
#X obj 181 192 outlet;
#X msg -99 432 text score=\$1;
#X obj -155 392 translateXYZ 0 -3 0;
#X obj -116 291 + 1;
#X obj -145 290 f 0;
#X floatatom -143 317 5 0 0 0 - - -;
#X msg -86 479 80;
#X obj -173 210 sel 1;
#X obj -87 456 loadbang;
#X msg -172 241 0;
#X msg -18 535 text 書報攤;
#X obj 624 556 sel 1;
#X obj 608 589 *~;
#X obj 607 665 dac~;
#X obj 661 618 line~;
#X obj -121 86 bng 30 250 50 0 empty empty empty 17 7 0 10 -4034 -1
-1;
#X obj 612 526 osc~ 880;
#X msg -119 127 2;
#X floatatom -128 167 5 0 0 0 - - -;
#X msg -115 531 hello;
#X msg 657 588 0.7 \, 0 3000;
#X msg 770 395 0.3 \, 0 100;
#X obj 502 172 sel 4200;
#X obj 505 259 expr 4200-$f1;
#X obj 737 201 > 3800;
#X msg -89 248 3;
#X msg -133 236 6;
#X connect 0 0 35 0;
#X connect 1 0 30 0;
#X connect 2 0 34 0;
#X connect 3 0 21 0;
#X connect 4 0 37 0;
#X connect 5 0 6 0;
#X connect 5 0 7 0;
#X connect 6 0 4 1;
#X connect 7 0 4 0;
#X connect 8 0 14 0;
#X connect 9 0 10 0;
#X connect 11 0 16 0;
#X connect 12 0 13 0;
#X connect 13 0 3 0;
#X connect 14 0 15 0;
#X connect 15 0 9 0;
#X connect 16 0 17 0;
#X connect 18 0 17 1;
#X connect 19 0 20 0;
#X connect 20 0 22 0;
#X connect 21 0 19 0;
#X connect 21 1 31 0;
#X connect 23 0 32 0;
#X connect 24 0 108 0;
#X connect 25 0 27 0;
#X connect 25 1 28 0;
#X connect 26 0 29 0;
#X connect 27 0 34 0;
#X connect 28 0 33 0;
#X connect 29 0 27 0;
#X connect 30 0 4 0;
#X connect 31 0 30 4;
#X connect 32 0 1 0;
#X connect 33 0 26 0;
#X connect 35 0 2 0;
#X connect 36 0 109 0;
#X connect 36 0 110 0;
#X connect 37 0 34 0;
#X connect 38 0 39 0;
#X connect 39 0 41 0;
#X connect 40 0 34 1;
#X connect 41 0 40 0;
#X connect 42 0 38 0;
#X connect 42 0 88 0;
#X connect 43 0 44 0;
#X connect 44 0 24 0;
#X connect 45 0 43 0;
#X connect 45 1 44 0;
#X connect 45 2 42 0;
#X connect 45 3 47 0;
#X connect 45 3 61 0;
#X connect 45 3 114 0;
#X connect 46 0 41 0;
#X connect 47 0 46 0;
#X connect 49 0 58 0;
#X connect 51 0 59 0;
#X connect 52 0 76 0;
#X connect 52 0 117 0;
#X connect 53 0 54 0;
#X connect 53 0 67 0;
#X connect 53 0 107 0;
#X connect 54 0 53 1;
#X connect 55 0 52 0;
#X connect 56 0 133 0;
#X connect 57 0 50 1;
#X connect 58 0 79 0;
#X connect 59 0 50 0;
#X connect 60 0 93 0;
#X connect 61 0 63 0;
#X connect 61 1 62 0;
#X connect 62 0 60 0;
#X connect 63 0 60 0;
#X connect 64 0 53 0;
#X connect 65 0 66 0;
#X connect 66 0 53 1;
#X connect 66 0 68 0;
#X connect 67 0 132 0;
#X connect 67 0 134 0;
#X connect 68 0 69 0;
#X connect 68 0 72 0;
#X connect 69 0 68 1;
#X connect 70 0 68 0;
#X connect 70 0 80 0;
#X connect 70 0 84 0;
#X connect 71 0 67 1;
#X connect 72 0 71 0;
#X connect 74 0 75 0;
#X connect 75 0 70 0;
#X connect 76 0 64 0;
#X connect 76 1 65 0;
#X connect 77 0 36 0;
#X connect 78 0 57 0;
#X connect 79 0 50 0;
#X connect 80 0 86 0;
#X connect 80 1 81 0;
#X connect 81 0 79 1;
#X connect 82 0 79 1;
#X connect 83 0 91 0;
#X connect 84 0 85 0;
#X connect 84 1 87 0;
#X connect 85 0 83 0;
#X connect 86 0 82 0;
#X connect 87 0 83 0;
#X connect 88 0 89 0;
#X connect 88 1 90 0;
#X connect 89 0 60 0;
#X connect 90 0 60 0;
#X connect 91 0 48 0;
#X connect 91 0 48 1;
#X connect 92 0 61 0;
#X connect 93 0 48 0;
#X connect 93 0 48 1;
#X connect 94 0 88 0;
#X connect 96 0 112 0;
#X connect 97 0 98 0;
#X connect 98 0 101 0;
#X connect 98 0 101 1;
#X connect 100 0 98 1;
#X connect 102 0 134 0;
#X connect 103 0 106 0;
#X connect 104 0 105 1;
#X connect 105 0 131 0;
#X connect 106 0 105 0;
#X connect 107 0 104 0;
#X connect 108 0 25 0;
#X connect 109 0 45 0;
#X connect 111 0 95 0;
#X connect 112 0 95 0;
#X connect 113 0 114 1;
#X connect 114 0 113 0;
#X connect 114 0 115 0;
#X connect 115 0 111 0;
#X connect 116 0 95 1;
#X connect 117 0 119 0;
#X connect 118 0 116 0;
#X connect 119 0 114 0;
#X connect 120 0 34 0;
#X connect 121 0 130 0;
#X connect 122 0 123 0;
#X connect 122 0 123 1;
#X connect 124 0 122 1;
#X connect 125 0 127 0;
#X connect 126 0 122 0;
#X connect 127 0 128 0;
#X connect 130 0 124 0;
#X connect 131 0 100 0;
#X connect 132 0 55 0;
#X connect 132 1 56 0;
#X connect 133 0 51 0;
#X connect 133 0 121 0;
#X connect 134 0 103 0;
#X connect 135 0 114 0;
#X connect 136 0 114 0;
#X coords 0 -1 1 1 110 75 1 100 100;
