#N canvas 515 22 1040 780 10;
#X obj 137 216 gemhead;
#X obj 46 181 loadbang;
#X msg 78 214 speed 1;
#X obj 137 327 part_color;
#X obj 137 280 alpha;
#X obj 56 242 tgl 15 0 empty empty empty 17 7 0 10 -262144 -1 -1 1
1;
#X obj 257 281 line;
#X obj 162 150 sel 0 1;
#X msg 162 174 0;
#X msg 192 173 1;
#X floatatom 256 178 5 0 0 0 - - -;
#X obj 55 60 loadbang;
#X msg 55 84 0;
#X obj 256 207 > 1;
#X obj 105 117 hsl 100 15 1 80 0 0 empty empty Life 5 7 0 10 -258113
-1 -1 9900 1;
#X obj 256 234 tgl 15 0 empty empty empty 17 7 0 10 -262144 -1 -1 1
1;
#X obj 63 -61 r touchosc;
#X obj 63 -37 routeOSC /vj;
#X floatatom 63 9 5 0 0 0 - - -;
#X obj 63 -13 route /3;
#X obj -3 453 s toudp;
#X obj -3 426 packOSC;
#X msg -3 385 send /gh /8 \$1;
#X msg 41 287 auto 1;
#X obj 137 450 part_killold 50;
#X obj 137 501 part_draw;
#X obj 42 501 loadbang;
#X msg 257 332 \$1 \$1 \$1;
#X obj 137 477 GEMglLineWidth 2;
#X obj 79 614 pix_texture;
#X obj 181 646 pix_texture;
#X obj 274 698 pix_texture;
#X obj 379 753 pix_texture;
#X obj 552 712 pix_texture;
#X obj 722 686 pix_texture;
#X obj 181 585 pix_image stars/down.png;
#X obj 78 559 pix_image stars/up.png;
#X obj 79 639 mesh_square 3 3;
#X obj 181 673 mesh_square 3 3;
#X obj 274 725 mesh_square 3 3;
#X obj 379 778 mesh_square 3 3;
#X obj 552 734 mesh_square 3 3;
#X obj 722 715 mesh_square 3 3;
#X obj 722 625 pix_image stars/left.png;
#X obj 552 651 pix_image stars/right.png;
#X obj 378 698 pix_image stars/back.png;
#X obj 273 637 pix_image stars/front.png;
#X obj 359 407 tgl 15 0 empty empty empty 17 7 0 10 -262144 -1 -1 0
1;
#X msg 359 427 rectangle \$1;
#X obj 359 360 loadbang;
#X msg 359 385 0;
#X obj 598 396 t a a a a;
#X obj 615 451 GEMglPolygonMode;
#X obj 661 394 GLdefine GL_FRONT_AND_BACK;
#X obj 708 368 loadbang;
#X obj 708 416 GLdefine GL_FILL;
#N canvas 726 280 467 479 glsl 0;
#X obj 97 75 gemhead;
#X obj 97 329 glsl_program;
#X obj 170 265 pack 0 0;
#X obj 191 245 t b f;
#X obj 191 200 change;
#X obj 129 216 change;
#X msg 170 288 link \$1 \$2;
#X floatatom 191 226 2 0 0 0 ID - -;
#X floatatom 129 239 2 0 0 0 ID - -;
#X obj 97 180 glsl_fragment;
#X obj 97 117 glsl_vertex;
#X obj 206 74 t b b;
#X obj 206 37 bng 30 250 50 0 empty empty empty 17 7 0 10 -262144 -1
-1;
#X obj 206 9 loadbang;
#X msg 174 114 open color.vert;
#X msg 108 150 open color.frag;
#X obj -10 165 tgl 15 0 empty empty empty 17 7 0 10 -262144 -1 -1 0
1;
#X obj -10 190 metro 10;
#X obj -10 213 k_random 0.1 0.2;
#X msg -24 266 noise 0 0 0;
#X obj 97 357 outlet;
#X msg 209 376 vel \$1;
#X floatatom 209 352 5 0 0 0 - - -;
#X obj 209 324 randomF 0.1;
#X msg -10 235 noise 0 \$1 0;
#X obj 97 37 inlet;
#X msg 263 242 alpha \$1;
#X obj 272 207 inlet;
#X connect 0 0 10 0;
#X connect 1 0 20 0;
#X connect 2 0 6 0;
#X connect 3 0 2 0;
#X connect 3 1 2 1;
#X connect 4 0 7 0;
#X connect 5 0 8 0;
#X connect 6 0 1 0;
#X connect 7 0 3 0;
#X connect 8 0 2 0;
#X connect 9 0 1 0;
#X connect 9 1 4 0;
#X connect 10 0 9 0;
#X connect 10 1 5 0;
#X connect 11 0 14 0;
#X connect 11 1 15 0;
#X connect 12 0 11 0;
#X connect 13 0 12 0;
#X connect 14 0 10 0;
#X connect 15 0 9 0;
#X connect 16 0 17 0;
#X connect 17 0 18 0;
#X connect 17 0 23 0;
#X connect 18 0 24 0;
#X connect 19 0 1 0;
#X connect 21 0 1 0;
#X connect 22 0 21 0;
#X connect 23 0 22 0;
#X connect 24 0 1 0;
#X connect 25 0 0 0;
#X connect 26 0 1 0;
#X connect 27 0 26 0;
#X restore 598 276 pd glsl;
#N canvas 742 117 723 611 sphere 0;
#X obj -29 321 separator;
#X obj 1 -14 inlet;
#X obj -32 477 outlet;
#X obj 4 10 alpha;
#X obj 53 2 tgl 15 0 empty empty empty 17 7 0 10 -262144 -1 -1 1 1
;
#X msg 75 21 auto \$1;
#X obj -5 76 t a b;
#X obj 83 80 f;
#X obj 111 79 + 1;
#X obj 90 308 unpack f f f f f f;
#X obj 378 259 outlet;
#X obj 84 164 sel 0 1 2 3 4 5;
#X obj 78 -1 loadbang;
#X obj -3 50 repeat 6;
#X obj 139 79 % 6;
#X obj -33 419 translateXYZ 0 0 0;
#X obj -33 445 rotateXYZ 0 0 0;
#X msg 84 192 0 1 0 90 0 0;
#X msg 99 217 0 -1 0 -90 0 0;
#X obj 378 232 + 1;
#X msg 116 258 0 0 1 0 0 0;
#X msg 128 278 0 0 -1 0 0 0;
#X obj 83 106 t f f;
#X msg 228 220 -1 0 0 0 90 0;
#X msg 193 247 1 0 0 0 90 0;
#X connect 0 0 15 0;
#X connect 1 0 3 0;
#X connect 3 0 13 0;
#X connect 4 0 3 1;
#X connect 4 0 5 0;
#X connect 5 0 3 0;
#X connect 6 0 0 0;
#X connect 6 1 7 0;
#X connect 7 0 8 0;
#X connect 7 0 22 0;
#X connect 8 0 14 0;
#X connect 9 0 15 1;
#X connect 9 1 15 2;
#X connect 9 2 15 3;
#X connect 9 3 16 1;
#X connect 9 4 16 2;
#X connect 9 5 16 3;
#X connect 11 0 17 0;
#X connect 11 1 18 0;
#X connect 11 2 20 0;
#X connect 11 3 21 0;
#X connect 11 4 24 0;
#X connect 11 5 23 0;
#X connect 12 0 4 0;
#X connect 13 0 6 0;
#X connect 14 0 7 1;
#X connect 15 0 16 0;
#X connect 16 0 2 0;
#X connect 17 0 9 0;
#X connect 18 0 9 0;
#X connect 19 0 10 0;
#X connect 20 0 9 0;
#X connect 21 0 9 0;
#X connect 22 0 11 0;
#X connect 22 1 19 0;
#X connect 23 0 9 0;
#X connect 24 0 9 0;
#X restore 513 440 pd sphere;
#X obj 789 300 init \$1;
#X obj 420 473 gate 6 5 4 3 2 1;
#X obj 597 306 t a b;
#X obj 640 305 f;
#X obj 724 303 fmod 360;
#X obj 597 344 rotateXYZ;
#X obj 648 229 / 40;
#X obj 671 305 + 0.05;
#X obj 598 368 scale 15;
#X obj 789 324 expr if($f1==0 \, 15 \, $f1);
#X obj 169 49 k_range 0 1 1 80;
#X obj 137 421 part_source 30;
#X obj 135 366 part_velocity sphere 0 0 0 0.0003;
#X msg 256 257 \$1 3000;
#X obj -240 770 vj_ruler3d;
#X obj -100 482 part_info;
#X obj -60 675 unpack f f f;
#X obj -17 713 unpack f f f;
#X obj -72 749 -;
#X obj -26 749 -;
#X obj 28 752 -;
#X floatatom -74 777 5 0 0 0 - - -;
#X floatatom -26 776 5 0 0 0 - - -;
#X floatatom 33 781 5 0 0 0 - - -;
#X obj -241 630 gemhead;
#X obj -87 559 pack f f f f;
#X obj -77 507 unpack f f f;
#X obj -95 592 route 5;
#X obj -44 591 route 298;
#X obj -187 309 tgl 15 0 empty empty empty 17 7 0 10 -262144 -1 -1
1 1;
#X obj -181 397 random 300;
#X obj -146 423 random 300;
#X msg 91 700 \$1 1000;
#X obj -263 452 line;
#X obj -263 475 inoutexpo;
#X obj -260 539 *;
#X obj -223 537 *;
#X obj -180 537 *;
#X msg -263 422 0 \, 1 2000;
#X obj -179 366 t b b b;
#X obj -258 578 +;
#X obj -225 583 +;
#X obj -192 587 +;
#X obj -215 498 unpack f f f;
#X obj -271 708 pack f f f;
#X obj -144 624 t a a a;
#X obj -188 330 metro 2500;
#X msg 42 526 draw line;
#X obj 137 248 part_head 300;
#X obj 247 423 * 5;
#X obj -83 532 * 200;
#X obj 137 393 scale 100;
#X obj -2 532 * 100;
#X obj -41 533 * 100;
#X obj 133 160 tgl 15 0 empty empty empty 17 7 0 10 -262144 -1 -1 1
1;
#X connect 0 0 106 0;
#X connect 1 0 2 0;
#X connect 1 0 5 0;
#X connect 1 0 23 0;
#X connect 2 0 106 0;
#X connect 3 0 70 0;
#X connect 4 0 3 0;
#X connect 5 0 4 1;
#X connect 6 0 7 0;
#X connect 6 0 27 0;
#X connect 7 0 8 0;
#X connect 7 2 9 0;
#X connect 8 0 56 0;
#X connect 8 0 112 0;
#X connect 9 0 56 0;
#X connect 9 0 112 0;
#X connect 10 0 13 0;
#X connect 10 0 64 0;
#X connect 10 0 107 0;
#X connect 11 0 12 0;
#X connect 12 0 112 0;
#X connect 13 0 15 0;
#X connect 14 0 10 0;
#X connect 15 0 71 0;
#X connect 16 0 17 0;
#X connect 17 0 19 0;
#X connect 18 0 22 0;
#X connect 18 0 68 0;
#X connect 19 0 18 0;
#X connect 21 0 20 0;
#X connect 22 0 21 0;
#X connect 23 0 4 0;
#X connect 24 0 28 0;
#X connect 26 0 105 0;
#X connect 27 0 3 1;
#X connect 27 0 3 2;
#X connect 28 0 25 0;
#X connect 28 0 73 0;
#X connect 29 0 37 0;
#X connect 30 0 38 0;
#X connect 31 0 39 0;
#X connect 32 0 40 0;
#X connect 33 0 41 0;
#X connect 34 0 42 0;
#X connect 35 0 30 0;
#X connect 36 0 29 0;
#X connect 43 0 34 0;
#X connect 44 0 33 0;
#X connect 45 0 32 0;
#X connect 46 0 31 0;
#X connect 47 0 48 0;
#X connect 48 0 29 0;
#X connect 48 0 30 0;
#X connect 48 0 31 0;
#X connect 48 0 32 0;
#X connect 48 0 33 0;
#X connect 48 0 34 0;
#X connect 49 0 50 0;
#X connect 50 0 47 0;
#X connect 51 0 57 0;
#X connect 51 1 52 0;
#X connect 53 0 52 1;
#X connect 54 0 53 0;
#X connect 54 0 55 0;
#X connect 55 0 52 2;
#X connect 56 0 60 0;
#X connect 57 0 59 1;
#X connect 57 1 59 0;
#X connect 58 0 67 0;
#X connect 59 0 36 0;
#X connect 59 1 35 0;
#X connect 59 2 46 0;
#X connect 59 3 45 0;
#X connect 59 4 44 0;
#X connect 59 5 43 0;
#X connect 60 0 63 0;
#X connect 60 1 61 0;
#X connect 61 0 63 1;
#X connect 61 0 63 2;
#X connect 61 0 63 3;
#X connect 61 0 65 0;
#X connect 62 0 61 1;
#X connect 63 0 66 0;
#X connect 64 0 56 1;
#X connect 65 0 62 0;
#X connect 66 0 51 0;
#X connect 67 0 66 1;
#X connect 68 0 14 0;
#X connect 69 0 24 0;
#X connect 70 0 109 0;
#X connect 71 0 6 0;
#X connect 73 1 83 0;
#X connect 73 2 84 0;
#X connect 74 0 76 0;
#X connect 74 1 77 0;
#X connect 74 2 78 0;
#X connect 75 0 76 1;
#X connect 75 1 77 1;
#X connect 75 2 78 1;
#X connect 76 0 79 0;
#X connect 77 0 80 0;
#X connect 78 0 81 0;
#X connect 79 0 93 1;
#X connect 80 0 94 1;
#X connect 81 0 95 1;
#X connect 82 0 72 0;
#X connect 83 0 85 0;
#X connect 83 0 86 0;
#X connect 84 0 108 0;
#X connect 84 1 111 0;
#X connect 84 2 110 0;
#X connect 85 0 103 0;
#X connect 86 0 75 0;
#X connect 87 0 104 0;
#X connect 88 0 85 1;
#X connect 89 0 86 1;
#X connect 91 0 92 0;
#X connect 92 0 93 0;
#X connect 92 0 94 0;
#X connect 92 0 95 0;
#X connect 93 0 98 0;
#X connect 94 0 99 0;
#X connect 95 0 100 0;
#X connect 96 0 91 0;
#X connect 97 0 96 0;
#X connect 97 1 88 0;
#X connect 97 2 89 0;
#X connect 98 0 102 0;
#X connect 99 0 102 1;
#X connect 100 0 102 2;
#X connect 101 0 98 1;
#X connect 101 1 99 1;
#X connect 101 2 100 1;
#X connect 102 0 72 2;
#X connect 103 0 72 1;
#X connect 103 1 101 0;
#X connect 103 2 74 0;
#X connect 104 0 97 0;
#X connect 105 0 25 0;
#X connect 106 0 4 0;
#X connect 107 0 24 1;
#X connect 108 0 83 1;
#X connect 109 0 69 0;
#X connect 110 0 83 3;
#X connect 111 0 83 2;
#X connect 112 0 0 0;
#X connect 112 0 82 0;
#X coords 0 -1 1 1 110 35 1 100 100;
