#N canvas 390 44 1038 726 10;
#X obj 85 457 loadbang;
#X obj 178 306 t a b;
#X obj 106 157 hsl 100 15 0 1 0 0 empty empty Alpha 5 8 0 10 -258113
-1 -1 9900 1;
#X obj 178 415 alpha;
#X obj 188 329 loadbang;
#X msg 188 355 1;
#X msg 142 357 auto 1;
#X obj 37 72 loadbang;
#X msg 37 97 0;
#X obj 103 206 > 0;
#X obj 103 230 change;
#X obj 103 180 t f f;
#X obj 103 254 s \$0-tgl;
#X obj 178 254 r \$0-tgl;
#X floatatom -16 246 5 0 20 0 - - -;
#X obj -16 296 t b a;
#X obj 11 382 list prepend set;
#X msg -16 434 text 延長線;
#X obj 11 320 s2l;
#X obj 11 406 list trim;
#X obj 178 391 colorRGB 1 1 1 1;
#X floatatom 271 318 5 0 0 0 - - -;
#X obj 178 283 gemhead -1;
#X obj 11 351 list prepend text;
#X obj 178 604 text2d;
#X obj 105 121 bng 30 250 50 0 empty empty empty 17 7 0 10 -4034 -1
-1;
#X obj 178 556 scale 1;
#X msg 267 468 0 \, 1 1000;
#X obj 266 494 line;
#X obj 261 567 * 100;
#X obj 261 537 outbounce;
#X obj 268 444 del 1000;
#X obj -82 180 del 1000;
#X obj -79 212 v \$0-id;
#X obj -62 143 t b f b b;
#X obj 336 495 line;
#X msg 347 470 1 \, 0 500;
#X obj -61 118 shuffle 121;
#X msg 85 509 font data/Medium.ttc;
#X obj -16 271 coll data/sub.txt;
#C restore;
#X connect 0 0 38 0;
#X connect 1 0 20 0;
#X connect 2 0 11 0;
#X connect 3 0 26 0;
#X connect 4 0 5 0;
#X connect 4 0 6 0;
#X connect 5 0 3 1;
#X connect 6 0 3 0;
#X connect 7 0 8 0;
#X connect 8 0 2 0;
#X connect 9 0 10 0;
#X connect 10 0 12 0;
#X connect 11 0 9 0;
#X connect 11 1 21 0;
#X connect 13 0 22 0;
#X connect 14 0 39 0;
#X connect 15 0 17 0;
#X connect 15 1 18 0;
#X connect 16 0 19 0;
#X connect 17 0 24 0;
#X connect 18 0 23 0;
#X connect 19 0 17 0;
#X connect 20 0 3 0;
#X connect 21 0 20 4;
#X connect 22 0 1 0;
#X connect 23 0 16 0;
#X connect 25 0 37 0;
#X connect 26 0 24 0;
#X connect 27 0 28 0;
#X connect 28 0 30 0;
#X connect 29 0 24 1;
#X connect 30 0 29 0;
#X connect 31 0 27 0;
#X connect 32 0 33 0;
#X connect 33 0 14 0;
#X connect 34 0 32 0;
#X connect 34 1 33 0;
#X connect 34 2 31 0;
#X connect 34 3 36 0;
#X connect 35 0 30 0;
#X connect 36 0 35 0;
#X connect 37 0 34 0;
#X connect 38 0 24 0;
#X connect 39 0 15 0;
#X coords 0 -1 1 1 110 75 1 100 100;
