#N canvas 315 74 1050 563 10;
#X obj 101 101 cnv 15 128 33 empty empty vj/spacedot 3 7 0 10 -63496
-262144 0;
#X obj 522 -87 bng 15 250 50 0 empty empty empty 17 7 0 10 -262144
-1 -1;
#X obj 522 -34 f;
#X obj 550 -36 + 1;
#X obj 215 324 % 30;
#X obj 348 336 expr int($f1/30)%30;
#X obj 439 254 expr int($f1/900)%30;
#X obj 44 352 gemvertexbuffer 1000;
#X obj 439 281 k_range 0 29 0;
#X obj 522 -64 repeat 1000;
#X obj 579 -34 % 1000;
#X obj 522 -111 loadbang;
#X obj 214 350 k_range 0 30 -8 8;
#X obj 347 359 k_range 0 30 -8 8;
#X obj 593 288 unpack f f;
#X obj 362 64 table \$0grid_x 1000;
#X obj 363 93 table \$0grid_y 1000;
#X obj 367 116 table \$0grid_z 1000;
#X obj 366 152 table \$0red 1000;
#X obj 367 180 table \$0alpha 1000;
#X obj 439 303 tabwrite \$0grid_z;
#X obj 214 381 tabwrite \$0grid_x;
#X obj 347 383 tabwrite \$0grid_y;
#X obj 593 321 tabwrite \$0red;
#X obj 703 334 tabwrite \$0alpha;
#X obj 71 220 i \$0;
#X obj 44 196 t a b;
#X msg 84 248 color \$1red \$1red \$1red \$1alpha;
#X msg 71 279 position \$1grid_x \$1grid_y \$1grid_z;
#X obj 44 173 alpha 1;
#X obj 598 147 t f f f;
#X obj 593 236 sel 0;
#X obj 596 178 + 0;
#X obj 522 -6 t f f f f f f f f;
#X obj 611 98 expr int($f1/30)%30;
#X obj 611 120 % 2;
#X obj 595 211 % 2;
#X obj 748 -61 tgl 15 0 empty empty empty 17 7 0 10 -262144 -1 -1 1
1;
#X obj 748 100 tabwrite \$0grid_z;
#X obj 748 19 f;
#X obj 776 17 + 1;
#X obj 748 -11 repeat 1000;
#X obj 805 19 % 1000;
#X obj 748 46 t b f;
#X obj 748 77 randomF 0.2;
#X obj 184 139 sel 0;
#X msg 184 191 0;
#X msg 215 167 1;
#X obj 215 192 f;
#X obj 44 144 gemhead -5;
#X obj 856 19 r vj-vol;
#X obj 748 -38 metro 50;
#X msg 44 112 set \$1;
#X obj 44 20 r gemlayer;
#X obj 44 42 sel 0 1;
#X msg 44 66 10000;
#X msg 63 90 -5;
#X obj 205 113 tgl 20 0 empty empty empty -70 8 0 12 -262144 -1 -1
1 1;
#X obj 199 50 loadbang;
#X msg 199 71 0;
#X obj 248 86 r trigger3d;
#X msg 593 264 1 0.7;
#X msg 638 264 1 0.4;
#X obj 44 312 GEMglPointSize 2;
#X obj 856 45 * 1;
#X obj -5 -460 r hid;
#X obj 24 -301 zexy/list2symbol;
#N canvas 365 22 417 310 convert_pointer_to_anything 1;
#X obj 169 102 symbol;
#X obj 169 224 t a;
#X obj 104 177 spigot;
#X obj 137 147 0;
#X obj 232 169 b;
#X obj 232 192 1;
#X obj 104 8 inlet;
#X obj 104 246 outlet;
#X obj 104 35 t a a;
#X obj 169 58 list append foo;
#X obj 169 124 sel if(pointer);
#X msg 169 80 if\$1;
#X text 204 76 (hack to get pointer;
#X text 220 88 to substitute);
#X text 8 38 enormous;
#X text 14 60 hack;
#X text 15 84 to;
#X text 11 104 keep;
#X text 16 125 pointer;
#X text 14 144 from;
#X text 12 203 and crashing;
#X text 13 222 pd;
#X text 10 162 passing thru;
#X text 13 184 [route] and;
#X msg 169 146 (pointer);
#X connect 0 0 10 0;
#X connect 1 0 7 0;
#X connect 2 0 7 0;
#X connect 3 0 2 1;
#X connect 4 0 5 0;
#X connect 5 0 2 1;
#X connect 6 0 8 0;
#X connect 8 0 2 0;
#X connect 8 1 9 0;
#X connect 9 0 11 0;
#X connect 10 0 24 0;
#X connect 10 0 3 0;
#X connect 10 1 4 0;
#X connect 11 0 0 0;
#X connect 24 0 1 0;
#X restore 26 -405 pd convert_pointer_to_anything;
#X symbolatom 103 115 12 0 0 0 - - -, f 12;
#X obj 26 -439 r displayipad;
#X obj 118 -182 unpack f f f;
#X obj 118 -204 spigot;
#X floatatom 152 -105 5 0 0 0 - - -, f 5;
#X floatatom 200 -183 5 0 0 0 - - -, f 5;
#X obj 125 -270 tgl 15 0 empty empty empty 17 7 0 10 -4034 -262144
-262144 0 1;
#X obj -2 -372 route /accxyz;
#X obj 350 -46 s toudp;
#X obj 350 -73 packOSC;
#X msg 307 -138 send /effect /5 /l \$1;
#X obj 247 -242 del 100;
#X msg 248 -219 0;
#X obj 323 -281 sel 0;
#X msg 380 -116 send /effect /5 /r \$1;
#X msg 415 -319 send /effect /5 \$1;
#X obj 323 -307 t f f f;
#X obj 415 -344 change;
#X obj 118 -140 k_speed 100;
#X floatatom 118 -162 5 0 0 0 - - -, f 5;
#X obj 152 -79 k_speed 100;
#X obj 69 -24 s roXX;
#X obj 178 -21 s roYY;
#X obj 168 -227 s ipodRO;
#X obj 69 -47 k_range -1 1 0 1;
#X obj 178 -48 k_range -1 1 0 1;
#X obj 229 -109 k_range -1 1 0 1;
#X obj 229 -83 s roZZ;
#X obj 187 -366 r touchosc;
#X obj 187 -342 routeOSC /vj/xyz;
#X obj 187 -318 tgl 15 0 empty empty empty 17 7 0 10 -262144 -1 -1
0 1;
#X obj -42 -480 r showipod;
#X obj 73 -337 route /eq/25 /1/a1;
#X msg 421 -178 send /effect /5 /c \$1;
#X obj 200 -152 k_speed 100;
#X obj 327 -477 r hid;
#X obj 327 -457 t a a;
#X obj 327 -412 spigot;
#X obj 307 -257 r t-mouse-x;
#X obj 421 -296 r t-mouse-y;
#X floatatom 307 -233 5 0 0 0 - - -, f 5;
#X floatatom 421 -271 5 0 0 0 - - -, f 5;
#X obj 307 -165 spigot;
#X obj 307 -213 moses 1;
#X obj 421 -249 moses 1;
#X obj 421 -201 spigot;
#X msg 329 -332 1;
#X obj 327 -356 sel 1 0;
#X msg 365 -334 0;
#X obj 428 -396 sel 0;
#X obj 43 -177 s trigger3d;
#X obj 360 -434 route key_226;
#X obj 43 -199 change;
#X obj 307 -188 k_range 0 1 -1 1;
#X obj 421 -225 k_range 0 1 -1 1;
#X obj 327 -387 route key_224;
#X floatatom 894 53 5 0 0 0 - - -, f 5;
#X text 472 -434 option+control;
#X connect 1 0 9 0;
#X connect 2 0 3 0;
#X connect 2 0 33 0;
#X connect 3 0 10 0;
#X connect 4 0 12 0;
#X connect 5 0 13 0;
#X connect 6 0 8 0;
#X connect 8 0 20 0;
#X connect 9 0 2 0;
#X connect 10 0 2 1;
#X connect 11 0 1 0;
#X connect 12 0 21 0;
#X connect 13 0 22 0;
#X connect 14 0 23 0;
#X connect 14 1 24 0;
#X connect 25 0 28 0;
#X connect 25 0 27 0;
#X connect 26 0 63 0;
#X connect 26 1 25 0;
#X connect 27 0 7 0;
#X connect 28 0 7 0;
#X connect 29 0 26 0;
#X connect 30 0 32 0;
#X connect 30 1 23 1;
#X connect 30 2 24 1;
#X connect 31 0 61 0;
#X connect 31 1 62 0;
#X connect 32 0 36 0;
#X connect 33 0 4 0;
#X connect 33 1 5 0;
#X connect 33 2 6 0;
#X connect 33 3 21 1;
#X connect 33 4 22 1;
#X connect 33 5 20 1;
#X connect 33 6 30 0;
#X connect 33 7 34 0;
#X connect 34 0 35 0;
#X connect 35 0 32 1;
#X connect 36 0 31 0;
#X connect 37 0 51 0;
#X connect 39 0 40 0;
#X connect 39 0 43 0;
#X connect 40 0 42 0;
#X connect 41 0 39 0;
#X connect 42 0 39 1;
#X connect 43 0 44 0;
#X connect 43 1 38 1;
#X connect 44 0 38 0;
#X connect 45 0 46 0;
#X connect 45 1 47 0;
#X connect 46 0 48 0;
#X connect 47 0 48 0;
#X connect 48 0 37 0;
#X connect 48 0 49 0;
#X connect 49 0 29 0;
#X connect 50 0 64 0;
#X connect 50 0 124 0;
#X connect 51 0 41 0;
#X connect 52 0 49 0;
#X connect 53 0 54 0;
#X connect 54 0 55 0;
#X connect 54 1 56 0;
#X connect 55 0 52 0;
#X connect 56 0 52 0;
#X connect 57 0 45 0;
#X connect 58 0 59 0;
#X connect 59 0 57 0;
#X connect 60 0 57 0;
#X connect 61 0 14 0;
#X connect 62 0 14 0;
#X connect 63 0 7 0;
#X connect 64 0 44 1;
#X connect 65 0 67 0;
#X connect 66 0 68 0;
#X connect 67 0 75 0;
#X connect 69 0 67 0;
#X connect 70 0 87 0;
#X connect 70 1 72 0;
#X connect 70 2 73 0;
#X connect 71 0 70 0;
#X connect 72 0 88 0;
#X connect 72 0 93 0;
#X connect 73 0 94 0;
#X connect 73 0 102 0;
#X connect 74 0 84 0;
#X connect 74 0 91 0;
#X connect 74 0 110 1;
#X connect 74 0 113 1;
#X connect 74 0 120 0;
#X connect 75 0 71 0;
#X connect 75 1 66 0;
#X connect 75 1 100 0;
#X connect 77 0 76 0;
#X connect 78 0 77 0;
#X connect 79 0 80 0;
#X connect 80 0 78 0;
#X connect 80 0 82 0;
#X connect 80 0 101 0;
#X connect 81 0 79 0;
#X connect 82 0 77 0;
#X connect 83 0 77 0;
#X connect 84 0 81 0;
#X connect 84 1 71 1;
#X connect 84 2 85 0;
#X connect 85 0 83 0;
#X connect 86 0 78 0;
#X connect 87 0 86 0;
#X connect 87 0 92 0;
#X connect 88 0 82 0;
#X connect 92 0 89 0;
#X connect 93 0 90 0;
#X connect 94 0 95 0;
#X connect 96 0 97 0;
#X connect 97 0 98 0;
#X connect 98 0 74 0;
#X connect 99 0 67 0;
#X connect 100 0 74 0;
#X connect 100 1 74 0;
#X connect 101 0 77 0;
#X connect 102 0 101 0;
#X connect 103 0 104 0;
#X connect 104 0 105 0;
#X connect 104 1 119 0;
#X connect 105 0 123 0;
#X connect 106 0 108 0;
#X connect 107 0 109 0;
#X connect 108 0 111 0;
#X connect 109 0 112 0;
#X connect 110 0 78 0;
#X connect 110 0 82 0;
#X connect 111 0 121 0;
#X connect 112 0 122 0;
#X connect 113 0 101 0;
#X connect 114 0 74 0;
#X connect 115 0 114 0;
#X connect 115 1 116 0;
#X connect 116 0 74 0;
#X connect 117 0 116 0;
#X connect 119 0 105 1;
#X connect 119 0 117 0;
#X connect 120 0 118 0;
#X connect 121 0 110 0;
#X connect 122 0 113 0;
#X connect 123 0 115 0;
#X coords 0 -1 1 1 130 35 1 100 100;
