#N canvas 714 44 416 706 10;
#X obj 85 457 loadbang;
#X obj 178 306 t a b;
#X msg 85 509 font Medium.ttc;
#X obj 106 157 hsl 100 15 0 1 0 0 empty empty Alpha 5 8 0 10 -258113
-1 -1 9900 1;
#X obj 106 136 hsl 100 15 0 8 0 0 empty empty sub 5 8 0 10 -262144
-1 -1 9900 1;
#X obj 178 415 alpha;
#X obj 188 329 loadbang;
#X msg 188 355 1;
#X msg 142 357 auto 1;
#X obj 197 437 r vj-vol;
#X obj 197 509 line;
#X floatatom 197 530 5 0 0 0 - - -;
#X obj 178 556 scale 5;
#X obj 150 9 r vj-pitch-1;
#X obj 37 72 loadbang;
#X msg 37 97 0;
#X obj 197 461 * 10;
#X msg 197 485 \$1 10;
#X obj 150 30 change;
#X obj 150 78 spigot;
#X obj 183 52 r \$0-tgl;
#X obj 103 206 > 0;
#X obj 103 230 change;
#X obj 103 180 t f f;
#X obj 103 254 s \$0-tgl;
#X obj 178 254 r \$0-tgl;
#X floatatom -16 246 5 0 20 0 - - -;
#X obj -16 219 int;
#X obj -16 296 t b a;
#X obj 11 382 list prepend set;
#X msg -16 434 text 大家看的專心，碗筷都忘記使用！;
#X obj 11 320 s2l;
#X obj 11 406 list trim;
#X obj 178 391 colorRGB 1 1 1 1;
#X floatatom 271 318 5 0 0 0 - - -;
#X obj 178 283 gemhead -1;
#X obj 11 351 list prepend text;
#X obj 178 604 text2d;
#X msg 211 581 30;
#X obj 85 481 t b b;
#X obj -16 271 coll sub.txt;
#C restore;
#X connect 0 0 39 0;
#X connect 1 0 33 0;
#X connect 2 0 37 0;
#X connect 3 0 23 0;
#X connect 4 0 27 0;
#X connect 5 0 12 0;
#X connect 6 0 7 0;
#X connect 6 0 8 0;
#X connect 7 0 5 1;
#X connect 8 0 5 0;
#X connect 9 0 16 0;
#X connect 10 0 11 0;
#X connect 11 0 12 1;
#X connect 12 0 37 0;
#X connect 13 0 18 0;
#X connect 14 0 15 0;
#X connect 15 0 3 0;
#X connect 16 0 17 0;
#X connect 17 0 10 0;
#X connect 18 0 19 0;
#X connect 20 0 19 1;
#X connect 21 0 22 0;
#X connect 22 0 24 0;
#X connect 23 0 21 0;
#X connect 23 1 34 0;
#X connect 25 0 35 0;
#X connect 26 0 40 0;
#X connect 27 0 26 0;
#X connect 28 0 30 0;
#X connect 28 1 31 0;
#X connect 29 0 32 0;
#X connect 30 0 37 0;
#X connect 31 0 36 0;
#X connect 32 0 30 0;
#X connect 33 0 5 0;
#X connect 34 0 33 4;
#X connect 35 0 1 0;
#X connect 36 0 29 0;
#X connect 38 0 37 1;
#X connect 39 0 2 0;
#X connect 39 1 38 0;
#X connect 40 0 28 0;
#X coords 0 -1 1 1 110 75 1 100 100;
