#N canvas 266 23 1040 700 10;
#X declare -lib mrpeach;
#X obj 137 216 gemhead;
#X obj 46 181 loadbang;
#X msg 78 214 speed 1;
#X obj 137 308 part_color;
#X obj 137 280 alpha;
#X obj 56 242 tgl 15 0 empty empty empty 17 7 0 10 -262144 -1 -1 1
1;
#X obj 284 286 line;
#X floatatom 256 178 5 0 0 0 - - -;
#X obj 55 60 loadbang;
#X msg 55 84 0;
#X obj 105 117 hsl 100 15 0 1 0 0 empty empty Life 5 7 0 10 -258113
-1 -1 0 1;
#X obj 283 239 tgl 15 0 empty empty empty 17 7 0 10 -262144 -1 -1 0
1;
#X obj 63 -61 r touchosc;
#X obj 63 -37 routeOSC /vj;
#X floatatom 63 9 5 0 0 0 - - -;
#X obj 63 -13 route /3;
#X obj -3 453 s toudp;
#X obj -3 426 packOSC;
#X msg -3 385 send /gh /8 \$1;
#X msg 41 287 auto 1;
#X obj 137 421 part_killold 50;
#X obj 141 519 part_draw;
#X obj 42 501 loadbang;
#X msg 285 311 \$1 \$1 \$1;
#X obj 79 614 pix_texture;
#X obj 181 646 pix_texture;
#X obj 274 698 pix_texture;
#X obj 379 753 pix_texture;
#X obj 552 712 pix_texture;
#X obj 722 686 pix_texture;
#X obj 181 585 pix_image stars/down.png;
#X obj 78 559 pix_image stars/up.png;
#X obj 79 639 mesh_square 3 3;
#X obj 181 673 mesh_square 3 3;
#X obj 274 725 mesh_square 3 3;
#X obj 379 778 mesh_square 3 3;
#X obj 552 734 mesh_square 3 3;
#X obj 722 715 mesh_square 3 3;
#X obj 722 625 pix_image stars/left.png;
#X obj 552 651 pix_image stars/right.png;
#X obj 378 698 pix_image stars/back.png;
#X obj 273 637 pix_image stars/front.png;
#X obj 359 407 tgl 15 0 empty empty empty 17 7 0 10 -262144 -1 -1 1
1;
#X msg 359 427 rectangle \$1;
#X obj 359 360 loadbang;
#X obj 615 451 GEMglPolygonMode;
#X obj 661 394 GLdefine GL_FRONT_AND_BACK;
#X obj 708 368 loadbang;
#X obj 708 416 GLdefine GL_FILL;
#N canvas 726 280 467 479 glsl 0;
#X obj 97 357 outlet;
#X obj 97 37 inlet;
#X obj 272 207 inlet;
#X floatatom 328 281 5 0 0 0 - - -;
#X obj 97 160 colorRGB 1 1 1 1;
#X obj 98 118 alpha;
#X msg 151 118 1;
#X obj 150 96 loadbang;
#X msg 46 107 auto 1;
#X obj 97 75 gemhead 4000;
#X connect 1 0 9 0;
#X connect 2 0 3 0;
#X connect 3 0 4 4;
#X connect 4 0 0 0;
#X connect 5 0 4 0;
#X connect 6 0 5 1;
#X connect 7 0 6 0;
#X connect 7 0 8 0;
#X connect 8 0 5 0;
#X connect 9 0 5 0;
#X restore 598 276 pd glsl;
#N canvas 488 226 723 611 sphere 0;
#X obj -29 321 separator;
#X obj 18 -5 inlet;
#X obj -32 477 outlet;
#X obj -5 76 t a b;
#X obj 83 80 f;
#X obj 111 79 + 1;
#X obj 90 308 unpack f f f f f f;
#X obj 378 259 outlet;
#X obj 84 164 sel 0 1 2 3 4 5;
#X obj -3 50 repeat 6;
#X obj 139 79 % 6;
#X obj -33 419 translateXYZ 0 0 0;
#X obj -33 445 rotateXYZ 0 0 0;
#X msg 84 192 0 1 0 90 0 0;
#X msg 99 217 0 -1 0 -90 0 0;
#X obj 378 232 + 1;
#X msg 116 258 0 0 1 0 0 0;
#X msg 128 278 0 0 -1 0 0 0;
#X obj 83 106 t f f;
#X msg 228 220 -1 0 0 0 90 0;
#X msg 193 247 1 0 0 0 90 0;
#X connect 0 0 11 0;
#X connect 1 0 9 0;
#X connect 3 0 0 0;
#X connect 3 1 4 0;
#X connect 4 0 5 0;
#X connect 4 0 18 0;
#X connect 5 0 10 0;
#X connect 6 0 11 1;
#X connect 6 1 11 2;
#X connect 6 2 11 3;
#X connect 6 3 12 1;
#X connect 6 4 12 2;
#X connect 6 5 12 3;
#X connect 8 0 13 0;
#X connect 8 1 14 0;
#X connect 8 2 16 0;
#X connect 8 3 17 0;
#X connect 8 4 20 0;
#X connect 8 5 19 0;
#X connect 9 0 3 0;
#X connect 10 0 4 1;
#X connect 11 0 12 0;
#X connect 12 0 2 0;
#X connect 13 0 6 0;
#X connect 14 0 6 0;
#X connect 15 0 7 0;
#X connect 16 0 6 0;
#X connect 17 0 6 0;
#X connect 18 0 8 0;
#X connect 18 1 15 0;
#X connect 19 0 6 0;
#X connect 20 0 6 0;
#X restore 513 440 pd sphere;
#X obj 789 300 init \$1;
#X obj 420 473 gate 6 5 4 3 2 1;
#X obj 597 306 t a b;
#X obj 640 305 f;
#X obj 724 303 fmod 360;
#X obj 597 344 rotateXYZ;
#X obj 671 305 + 0.05;
#X obj 789 324 expr if($f1==0 \, 15 \, $f1);
#X obj 137 392 part_source 30;
#X msg 283 262 \$1 3000;
#X obj -240 770 vj_ruler3d;
#X obj -100 482 part_info;
#X obj -60 675 unpack f f f;
#X obj -17 713 unpack f f f;
#X obj -72 749 -;
#X obj -26 749 -;
#X obj 28 752 -;
#X floatatom -74 777 5 0 0 0 - - -;
#X floatatom -26 776 5 0 0 0 - - -;
#X floatatom 33 781 5 0 0 0 - - -;
#X obj -241 630 gemhead;
#X obj -87 559 pack f f f f;
#X obj -77 507 unpack f f f;
#X obj -95 592 route 5;
#X obj -44 591 route 298;
#X obj -187 309 tgl 15 0 empty empty empty 17 7 0 10 -262144 -1 -1
1 1;
#X obj -181 397 random 300;
#X obj -146 423 random 300;
#X obj -263 452 line;
#X obj -263 475 inoutexpo;
#X obj -260 539 *;
#X obj -223 537 *;
#X obj -180 537 *;
#X msg -263 422 0 \, 1 2000;
#X obj -179 366 t b b b;
#X obj -258 578 +;
#X obj -225 583 +;
#X obj -192 587 +;
#X obj -215 498 unpack f f f;
#X obj -271 708 pack f f f;
#X obj -144 624 t a a a;
#X obj -188 330 metro 2500;
#X obj -83 532 * 200;
#X obj -2 532 * 100;
#X obj -41 533 * 100;
#X obj 133 160 tgl 15 0 empty empty empty 17 7 0 10 -262144 -1 -1 0
1;
#X obj -192 283 loadbang;
#X obj 246 128 k_range 0 1 1 80;
#X floatatom 256 448 5 0 0 0 - - -;
#X obj 141 450 t a b;
#X obj 160 168 > 0;
#X obj 161 188 change;
#X obj 283 212 > 0;
#X obj 253 366 * 1;
#X obj 137 364 scale 300;
#X obj 598 368 scale 15;
#X obj 135 337 part_velocity sphere 0 0 0 0.001;
#X msg 42 526 draw line;
#X obj 149 476 GEMglLineWidth 1;
#X obj 362 281 * 300;
#X floatatom 281 70 5 0 0 0 - - -;
#X obj 374 138 line;
#X msg 372 106 \$1 1000;
#X obj 271 391 randomF 2;
#X obj 271 413 + 0;
#X obj -179 76 import mrpeach;
#X obj 137 248 part_head 3000;
#X msg 577 622 open stars/right.png;
#X msg 359 385 1;
#X connect 0 0 117 0;
#X connect 1 0 2 0;
#X connect 1 0 5 0;
#X connect 1 0 19 0;
#X connect 2 0 117 0;
#X connect 3 0 107 0;
#X connect 4 0 3 0;
#X connect 5 0 4 1;
#X connect 6 0 23 0;
#X connect 6 0 101 0;
#X connect 7 0 104 0;
#X connect 8 0 9 0;
#X connect 9 0 96 0;
#X connect 10 0 98 0;
#X connect 10 0 18 0;
#X connect 10 0 103 0;
#X connect 10 0 49 1;
#X connect 10 0 113 0;
#X connect 11 0 60 0;
#X connect 12 0 13 0;
#X connect 13 0 15 0;
#X connect 14 0 10 0;
#X connect 15 0 14 0;
#X connect 17 0 16 0;
#X connect 18 0 17 0;
#X connect 19 0 4 0;
#X connect 20 0 100 0;
#X connect 22 0 108 0;
#X connect 23 0 3 1;
#X connect 23 0 3 2;
#X connect 24 0 32 0;
#X connect 25 0 33 0;
#X connect 26 0 34 0;
#X connect 27 0 35 0;
#X connect 28 0 36 0;
#X connect 29 0 37 0;
#X connect 30 0 25 0;
#X connect 31 0 24 0;
#X connect 38 0 29 0;
#X connect 39 0 28 0;
#X connect 40 0 27 0;
#X connect 41 0 26 0;
#X connect 42 0 43 0;
#X connect 43 0 24 0;
#X connect 43 0 25 0;
#X connect 43 0 26 0;
#X connect 43 0 27 0;
#X connect 43 0 28 0;
#X connect 43 0 29 0;
#X connect 44 0 119 0;
#X connect 46 0 45 1;
#X connect 47 0 46 0;
#X connect 47 0 48 0;
#X connect 48 0 45 2;
#X connect 49 0 53 0;
#X connect 50 0 52 1;
#X connect 50 1 52 0;
#X connect 51 0 58 0;
#X connect 52 0 31 0;
#X connect 52 1 30 0;
#X connect 52 2 41 0;
#X connect 52 3 40 0;
#X connect 52 4 39 0;
#X connect 52 5 38 0;
#X connect 53 0 56 0;
#X connect 53 1 54 0;
#X connect 54 0 56 1;
#X connect 54 0 56 2;
#X connect 54 0 56 3;
#X connect 54 0 57 0;
#X connect 55 0 54 1;
#X connect 56 0 106 0;
#X connect 57 0 55 0;
#X connect 58 0 106 1;
#X connect 59 0 20 0;
#X connect 60 0 6 0;
#X connect 62 1 72 0;
#X connect 62 2 73 0;
#X connect 63 0 65 0;
#X connect 63 1 66 0;
#X connect 63 2 67 0;
#X connect 64 0 65 1;
#X connect 64 1 66 1;
#X connect 64 2 67 1;
#X connect 65 0 68 0;
#X connect 66 0 69 0;
#X connect 67 0 70 0;
#X connect 68 0 81 1;
#X connect 69 0 82 1;
#X connect 70 0 83 1;
#X connect 72 0 74 0;
#X connect 72 0 75 0;
#X connect 73 0 93 0;
#X connect 73 1 95 0;
#X connect 73 2 94 0;
#X connect 74 0 91 0;
#X connect 75 0 64 0;
#X connect 76 0 92 0;
#X connect 77 0 74 1;
#X connect 78 0 75 1;
#X connect 79 0 80 0;
#X connect 80 0 81 0;
#X connect 80 0 82 0;
#X connect 80 0 83 0;
#X connect 81 0 86 0;
#X connect 82 0 87 0;
#X connect 83 0 88 0;
#X connect 84 0 79 0;
#X connect 85 0 84 0;
#X connect 85 1 77 0;
#X connect 85 2 78 0;
#X connect 86 0 90 0;
#X connect 87 0 90 1;
#X connect 88 0 90 2;
#X connect 89 0 86 1;
#X connect 89 1 87 1;
#X connect 89 2 88 1;
#X connect 90 0 61 2;
#X connect 91 0 61 1;
#X connect 91 1 89 0;
#X connect 91 2 63 0;
#X connect 92 0 85 0;
#X connect 93 0 72 1;
#X connect 94 0 72 3;
#X connect 95 0 72 2;
#X connect 96 0 0 0;
#X connect 96 0 71 0;
#X connect 96 0 49 0;
#X connect 97 0 76 0;
#X connect 98 0 7 0;
#X connect 99 0 109 1;
#X connect 100 0 109 0;
#X connect 100 1 114 0;
#X connect 101 0 102 0;
#X connect 102 0 96 0;
#X connect 103 0 11 0;
#X connect 104 0 20 1;
#X connect 105 0 59 0;
#X connect 106 0 50 0;
#X connect 107 0 105 0;
#X connect 108 0 21 0;
#X connect 109 0 21 0;
#X connect 110 0 105 1;
#X connect 112 0 110 0;
#X connect 113 0 112 0;
#X connect 114 0 115 0;
#X connect 115 0 99 0;
#X connect 117 0 4 0;
#X connect 118 0 39 0;
#X connect 119 0 42 0;
#X coords 0 -1 1 1 110 35 1 100 100;
