#N canvas 495 167 614 499 10;
#X obj 203 251 t a b;
#X obj 230 277 f;
#X obj 256 277 + 1;
#X obj 203 332 separator;
#N canvas 114 236 478 374 rotate-pos 0;
#X obj 175 17 inlet;
#X obj 275 268 +;
#X obj 275 163 t f f f f;
#X obj 292 191 tabread \$0-speed;
#X obj 341 139 r \$0-ctl-speed;
#X obj 292 216 * 1;
#X obj 275 326 tabwrite \$0-posy;
#X obj 275 242 tabread \$0-posy;
#N canvas 761 288 679 450 y-pos 0;
#X floatatom 89 34 5 0 0 0 - - -;
#X floatatom 14 164 5 0 0 0 - - -;
#X floatatom 297 161 5 0 0 0 - - -;
#X obj 330 144 tgl 15 0 empty empty empty 17 7 0 10 -262144 -1 -1 1
1;
#X obj 297 185 spigot;
#X obj 35 208 spigot;
#X floatatom 35 243 5 0 0 0 - - -;
#X obj 89 6 inlet;
#X obj 35 296 outlet;
#X obj 108 179 tgl 15 0 empty empty empty 17 7 0 10 -262144 -1 -1 1
1;
#X obj 89 58 t f f f;
#X obj 330 116 expr if($f1<5 \, 1 \, 0) \;;
#X obj 89 90 expr if($f1<5 \, $f1 \, -5) \; if($f1>-5 \, $f1 \, 5)
;
#X obj 107 153 expr if($f1>-5 \, 1 \, 0) \;;
#X connect 0 0 10 0;
#X connect 1 0 5 0;
#X connect 2 0 4 0;
#X connect 3 0 4 1;
#X connect 4 0 6 0;
#X connect 5 0 6 0;
#X connect 6 0 8 0;
#X connect 7 0 0 0;
#X connect 9 0 5 1;
#X connect 10 0 12 0;
#X connect 10 1 13 0;
#X connect 10 2 11 0;
#X connect 11 0 3 0;
#X connect 12 0 1 0;
#X connect 12 1 2 0;
#X connect 13 0 9 0;
#X restore 275 292 pd y-pos;
#X obj 175 47 t f f f f f;
#X obj 139 263 outlet;
#X obj 139 240 tabread \$0-posy;
#X obj 341 162 expr ($f1*30)+0.05;
#X connect 0 0 9 0;
#X connect 1 0 8 0;
#X connect 2 0 7 0;
#X connect 2 1 3 0;
#X connect 2 2 6 1;
#X connect 3 0 5 0;
#X connect 4 0 12 0;
#X connect 5 0 1 1;
#X connect 7 0 1 0;
#X connect 8 0 6 0;
#X connect 9 3 11 0;
#X connect 9 4 2 0;
#X connect 11 0 10 0;
#X connect 12 0 5 1;
#X restore 273 339 pd rotate-pos;
#N canvas 905 336 522 434 meta 0;
#X obj 23 204 randomF 4;
#X obj 23 79 repeat 100;
#X obj 80 48 r \$0-num;
#X obj 23 104 f;
#X obj 49 104 + 1;
#X obj 76 104 % 100;
#X obj 24 57 bng 15 250 50 0 empty empty empty 17 7 0 10 -262144 -1
-1;
#X obj 23 180 t b f;
#X obj 23 234 tabwrite \$0-radius;
#X obj 24 -36 t b b b b b b b;
#X obj 24 -62 bng 15 250 50 0 empty empty empty 17 7 0 10 -262144 -1
-1;
#X obj 197 75 s \$0-num;
#X obj 25 -93 loadbang;
#X obj 23 140 t f f f f f f;
#X obj 144 179 t b f;
#X obj 144 265 tabwrite \$0-speed;
#X obj 366 179 t b f;
#X obj 366 258 tabwrite \$0-posy;
#X obj 366 230 - 4;
#X obj 366 201 randomF 8;
#X obj 267 8 table \$0-speed 100;
#X obj 268 75 table \$0-posy 100;
#X obj 144 202 randomF 0.02;
#X obj 144 232 - 0.01;
#X obj 266 -18 table \$0-size 100;
#X obj 250 184 t b f;
#X obj 250 238 tabwrite \$0-size;
#X obj 250 208 randomF 1;
#X msg 197 51 100;
#X connect 0 0 8 0;
#X connect 1 0 3 0;
#X connect 2 0 1 1;
#X connect 2 0 5 1;
#X connect 3 0 4 0;
#X connect 3 0 13 0;
#X connect 4 0 5 0;
#X connect 5 0 3 1;
#X connect 6 0 1 0;
#X connect 7 0 0 0;
#X connect 7 1 8 1;
#X connect 9 0 6 0;
#X connect 9 6 28 0;
#X connect 10 0 9 0;
#X connect 12 0 10 0;
#X connect 13 1 14 0;
#X connect 13 3 16 0;
#X connect 13 5 25 0;
#X connect 14 0 22 0;
#X connect 14 1 15 1;
#X connect 16 0 19 0;
#X connect 16 1 17 1;
#X connect 18 0 17 0;
#X connect 19 0 18 0;
#X connect 22 0 23 0;
#X connect 23 0 15 0;
#X connect 25 0 27 0;
#X connect 25 1 26 1;
#X connect 27 0 26 0;
#X connect 28 0 11 0;
#X restore 245 145 pd meta;
#X obj 106 161 hsl 100 15 0 1 0 0 empty empty Speed 5 8 0 10 -262144
-1 -1 5667 1;
#X obj 42 293 line;
#X obj 42 317 s \$0-ctl-speed;
#N canvas 277 526 478 277 color 0;
#X obj 131 182 alpha;
#X msg 44 97 auto 1;
#X obj 158 157 tgl 15 0 empty empty empty 17 7 0 10 -262144 -1 -1 1
1;
#X obj 44 47 loadbang;
#X obj 132 14 inlet;
#X obj 131 207 outlet;
#X obj 246 -12 inlet;
#X obj 132 53 t a b;
#X obj 185 27 inlet;
#X obj 132 131 colorRGB 1 1 1 0;
#X obj 185 50 t f f;
#X obj 292 -29 r \$0-ctl-speed;
#X floatatom 292 -3 5 0 0 0 - - -;
#X obj 246 15 * 0.5;
#X obj 155 103 tabread \$0-size;
#X obj 203 74 r \$0-ctl-radiusy;
#X obj 292 17 split 0.5 0.9;
#X obj 292 38 k_range 0.5 0.9 0 1;
#X connect 0 0 5 0;
#X connect 1 0 0 0;
#X connect 2 0 0 1;
#X connect 3 0 1 0;
#X connect 3 0 2 0;
#X connect 4 0 7 0;
#X connect 6 0 13 0;
#X connect 7 0 9 0;
#X connect 8 0 10 0;
#X connect 9 0 0 0;
#X connect 10 0 14 0;
#X connect 11 0 12 0;
#X connect 12 0 16 0;
#X connect 13 0 9 4;
#X connect 14 0 9 1;
#X connect 15 0 9 2;
#X connect 16 0 17 0;
#X connect 17 0 9 3;
#X restore 203 413 pd color;
#X obj 106 179 hsl 100 15 0 1 0 0 empty empty Alpha 5 8 0 10 -258113
-1 -1 8500 1;
#X obj 103 224 sel 0;
#X msg 103 276 0;
#X msg 134 252 1;
#X obj 134 277 f;
#X obj 39 10 loadbang;
#X msg 39 32 0;
#X obj 106 143 hsl 100 15 0 1 0 0 empty empty Radius-y 5 8 0 10 -262144
-1 -1 2493 1;
#X obj -63 317 s \$0-ctl-radiusy;
#X obj 103 11 r vj-pitch-1;
#X obj 227 31 r vj-pitch-2;
#X obj -7 72 r vj-vol;
#X obj -7 120 spigot;
#X obj 134 310 s \$0-tgl;
#X obj 26 94 r \$0-tgl;
#X obj 103 63 spigot;
#X obj 136 37 r \$0-tgl;
#X obj 227 86 spigot;
#X obj 260 60 r \$0-tgl;
#X obj 287 389 tabread \$0-size;
#X obj 287 412 * 1;
#X obj 389 389 r \$0-ctl-radiusy;
#X obj -63 288 line;
#X msg -63 267 \$1 10;
#X obj 203 367 translateXYZ 0 0 0;
#X obj 203 441 scaleXYZ 8 1 1;
#X msg 42 272 \$1 50;
#X obj 230 303 t f f f;
#X obj 203 477 square 1;
#X obj 203 226 repeat 50;
#X obj 283 277 % 50;
#X obj -64 242 expr ($f1*0.7);
#X obj 203 200 gemhead 1;
#X connect 0 0 3 0;
#X connect 0 1 1 0;
#X connect 1 0 2 0;
#X connect 1 0 37 0;
#X connect 2 0 40 0;
#X connect 3 0 34 0;
#X connect 4 0 34 2;
#X connect 6 0 36 0;
#X connect 7 0 8 0;
#X connect 9 0 35 0;
#X connect 10 0 11 0;
#X connect 11 0 12 0;
#X connect 11 1 13 0;
#X connect 11 1 9 2;
#X connect 12 0 14 0;
#X connect 13 0 14 0;
#X connect 14 0 23 0;
#X connect 14 0 42 0;
#X connect 15 0 16 0;
#X connect 16 0 10 0;
#X connect 16 0 6 0;
#X connect 17 0 41 0;
#X connect 19 0 25 0;
#X connect 20 0 27 0;
#X connect 21 0 22 0;
#X connect 22 0 17 0;
#X connect 24 0 22 1;
#X connect 26 0 25 1;
#X connect 27 0 6 0;
#X connect 28 0 27 1;
#X connect 29 0 30 0;
#X connect 30 0 35 2;
#X connect 31 0 30 1;
#X connect 32 0 18 0;
#X connect 33 0 32 0;
#X connect 34 0 9 0;
#X connect 35 0 38 0;
#X connect 36 0 7 0;
#X connect 37 0 29 0;
#X connect 37 1 4 0;
#X connect 37 2 9 1;
#X connect 39 0 0 0;
#X connect 40 0 1 1;
#X connect 41 0 33 0;
#X connect 42 0 39 0;
#X coords 0 -1 1 1 110 100 1 100 100;
