#N canvas 186 23 1044 733 10;
#X obj 137 216 gemhead;
#X obj 46 181 loadbang;
#X msg 78 214 speed 1;
#X obj 137 308 part_color;
#X obj 137 280 alpha;
#X obj 56 242 tgl 15 0 empty empty empty 17 7 0 10 -262144 -1 -1 1
1;
#X obj 284 286 line;
#X floatatom 256 178 5 0 0 0 - - -;
#X obj 55 60 loadbang;
#X msg 55 84 0;
#X obj 105 117 hsl 85 15 0 1 0 0 empty empty Life 5 7 0 10 -258113
-1 -1 0 1;
#X obj 283 239 tgl 15 0 empty empty empty 17 7 0 10 -262144 -1 -1 0
1;
#X obj 113 10 r touchosc;
#X obj 113 34 routeOSC /vj;
#X floatatom 113 80 5 0 0 0 - - -;
#X obj -3 453 s toudp;
#X obj -3 426 packOSC;
#X msg -3 385 send /gh /8 \$1;
#X msg 41 287 auto 1;
#X obj 137 421 part_killold 50;
#X obj 138 519 part_draw;
#X obj 42 501 loadbang;
#X msg 285 311 \$1 \$1 \$1;
#X obj 427 638 pix_texture;
#X obj 445 550 pix_texture;
#X obj 464 474 pix_texture;
#X obj 482 396 pix_texture;
#X obj 501 327 pix_texture;
#X obj 520 260 pix_texture;
#X obj 445 525 pix_image stars/down.png;
#X obj 427 607 pix_image stars/up.png;
#X obj 427 663 mesh_square 3 3;
#X obj 445 577 mesh_square 3 3;
#X obj 464 501 mesh_square 3 3;
#X obj 482 421 mesh_square 3 3;
#X obj 501 349 mesh_square 3 3;
#X obj 520 284 mesh_square 3 3;
#X obj 520 237 pix_image stars/left.png;
#X obj 501 303 pix_image stars/right.png;
#X obj 482 372 pix_image stars/back.png;
#X obj 464 447 pix_image stars/front.png;
#X obj 366 148 tgl 15 0 empty empty empty 17 7 0 10 -262144 -1 -1 1
1;
#X msg 366 168 rectangle \$1;
#X obj 366 101 loadbang;
#N canvas 488 226 723 611 sphere 0;
#X obj -29 321 separator;
#X obj 18 -5 inlet;
#X obj -32 477 outlet;
#X obj -5 76 t a b;
#X obj 83 80 f;
#X obj 111 79 + 1;
#X obj 90 308 unpack f f f f f f;
#X obj 378 259 outlet;
#X obj 84 164 sel 0 1 2 3 4 5;
#X obj -3 50 repeat 6;
#X obj 139 79 % 6;
#X obj -33 419 translateXYZ 0 0 0;
#X obj -33 445 rotateXYZ 0 0 0;
#X msg 84 192 0 1 0 90 0 0;
#X msg 99 217 0 -1 0 -90 0 0;
#X obj 378 232 + 1;
#X msg 116 258 0 0 1 0 0 0;
#X msg 128 278 0 0 -1 0 0 0;
#X obj 83 106 t f f;
#X msg 228 220 -1 0 0 0 90 0;
#X msg 193 247 1 0 0 0 90 0;
#X connect 0 0 11 0;
#X connect 1 0 9 0;
#X connect 3 0 0 0;
#X connect 3 1 4 0;
#X connect 4 0 5 0;
#X connect 4 0 18 0;
#X connect 5 0 10 0;
#X connect 6 0 11 1;
#X connect 6 1 11 2;
#X connect 6 2 11 3;
#X connect 6 3 12 1;
#X connect 6 4 12 2;
#X connect 6 5 12 3;
#X connect 8 0 13 0;
#X connect 8 1 14 0;
#X connect 8 2 16 0;
#X connect 8 3 17 0;
#X connect 8 4 20 0;
#X connect 8 5 19 0;
#X connect 9 0 3 0;
#X connect 10 0 4 1;
#X connect 11 0 12 0;
#X connect 12 0 2 0;
#X connect 13 0 6 0;
#X connect 14 0 6 0;
#X connect 15 0 7 0;
#X connect 16 0 6 0;
#X connect 17 0 6 0;
#X connect 18 0 8 0;
#X connect 18 1 15 0;
#X connect 19 0 6 0;
#X connect 20 0 6 0;
#X restore 520 181 pd sphere;
#X obj 711 88 init \$1;
#X obj 427 214 gate 6 5 4 3 2 1;
#X obj 519 103 t a b;
#X obj 562 102 f;
#X obj 646 100 fmod 360;
#X obj 519 132 rotateXYZ;
#X obj 593 102 + 0.05;
#X obj 711 112 expr if($f1==0 \, 15 \, $f1);
#X obj 137 392 part_source 30;
#X msg 283 262 \$1 3000;
#X obj 133 160 tgl 15 0 empty empty empty 17 7 0 10 -262144 -1 -1 0
1;
#X obj 256 154 k_range 0 1 1 80;
#X floatatom 243 484 5 0 0 0 - - -;
#X obj 138 450 t a b;
#X obj 160 168 > 0;
#X obj 161 188 change;
#X obj 283 212 > 0;
#X obj 253 366 * 1;
#X obj 137 364 scale 300;
#X obj 520 156 scale 15;
#X obj 135 337 part_velocity sphere 0 0 0 0.001;
#X msg 42 526 draw line;
#X obj 138 482 GEMglLineWidth 1;
#X obj 362 281 * 300;
#X obj 362 257 line;
#X msg 362 230 \$1 1000;
#X obj 243 462 + 0;
#X obj 137 248 part_head 3000;
#X msg 366 126 1;
#X obj 243 440 randomF 3;
#N canvas 726 280 467 479 color 0;
#X obj 97 357 outlet;
#X obj 97 37 inlet;
#X obj 191 95 inlet;
#X floatatom 191 121 5 0 0 0 - - -;
#X obj 97 160 colorRGB 1 1 1 1;
#X obj 46 81 loadbang;
#X msg 46 107 auto 1;
#X obj 97 75 gemhead 4000;
#X obj 98 119 alpha 1;
#X connect 1 0 7 0;
#X connect 2 0 3 0;
#X connect 3 0 4 4;
#X connect 4 0 0 0;
#X connect 5 0 6 0;
#X connect 6 0 8 0;
#X connect 7 0 8 0;
#X connect 8 0 4 0;
#X restore 519 73 pd color;
#X obj 231 -124 r hid;
#X obj 231 -102 t a a a;
#X obj 306 -34 route key_145;
#X obj 231 -24 spigot;
#X obj 194 117 tgl 15 0 empty empty empty 17 7 0 10 -262144 -1 -1 0
1;
#X obj 231 25 sel 1;
#X obj 294 60 line;
#X msg 294 37 \$1 20000;
#X obj 231 0 route key_32;
#X obj -44 198 s totouch;
#X obj -44 171 packOSC;
#X msg -75 122 send /vj/3 \$1;
#X msg -44 146 send /vj/t3 \$1;
#X obj 113 58 route /3 /t3;
#X connect 0 0 72 0;
#X connect 1 0 2 0;
#X connect 1 0 5 0;
#X connect 1 0 18 0;
#X connect 2 0 72 0;
#X connect 3 0 65 0;
#X connect 4 0 3 0;
#X connect 5 0 4 1;
#X connect 6 0 22 0;
#X connect 6 0 59 0;
#X connect 7 0 62 0;
#X connect 8 0 9 0;
#X connect 9 0 55 0;
#X connect 10 0 56 0;
#X connect 10 0 17 0;
#X connect 10 0 61 0;
#X connect 10 0 75 1;
#X connect 10 0 70 0;
#X connect 10 0 87 0;
#X connect 11 0 54 0;
#X connect 12 0 13 0;
#X connect 13 0 89 0;
#X connect 14 0 10 0;
#X connect 16 0 15 0;
#X connect 17 0 16 0;
#X connect 18 0 4 0;
#X connect 19 0 58 0;
#X connect 21 0 66 0;
#X connect 22 0 3 1;
#X connect 22 0 3 2;
#X connect 23 0 31 0;
#X connect 24 0 32 0;
#X connect 25 0 33 0;
#X connect 26 0 34 0;
#X connect 27 0 35 0;
#X connect 28 0 36 0;
#X connect 29 0 24 0;
#X connect 30 0 23 0;
#X connect 37 0 28 0;
#X connect 38 0 27 0;
#X connect 39 0 26 0;
#X connect 40 0 25 0;
#X connect 41 0 42 0;
#X connect 42 0 23 0;
#X connect 42 0 24 0;
#X connect 42 0 25 0;
#X connect 42 0 26 0;
#X connect 42 0 27 0;
#X connect 42 0 28 0;
#X connect 43 0 73 0;
#X connect 44 0 46 1;
#X connect 44 1 46 0;
#X connect 45 0 52 0;
#X connect 46 0 30 0;
#X connect 46 1 29 0;
#X connect 46 2 40 0;
#X connect 46 3 39 0;
#X connect 46 4 38 0;
#X connect 46 5 37 0;
#X connect 47 0 50 0;
#X connect 47 1 48 0;
#X connect 48 0 50 1;
#X connect 48 0 50 2;
#X connect 48 0 50 3;
#X connect 48 0 51 0;
#X connect 49 0 48 1;
#X connect 50 0 64 0;
#X connect 51 0 49 0;
#X connect 52 0 64 1;
#X connect 53 0 19 0;
#X connect 54 0 6 0;
#X connect 55 0 0 0;
#X connect 55 0 75 0;
#X connect 56 0 7 0;
#X connect 57 0 67 1;
#X connect 58 0 67 0;
#X connect 58 1 74 0;
#X connect 59 0 60 0;
#X connect 60 0 55 0;
#X connect 61 0 11 0;
#X connect 62 0 19 1;
#X connect 63 0 53 0;
#X connect 64 0 44 0;
#X connect 65 0 63 0;
#X connect 66 0 20 0;
#X connect 67 0 20 0;
#X connect 68 0 63 1;
#X connect 69 0 68 0;
#X connect 70 0 69 0;
#X connect 71 0 57 0;
#X connect 72 0 4 0;
#X connect 73 0 41 0;
#X connect 74 0 71 0;
#X connect 75 0 47 0;
#X connect 76 0 77 0;
#X connect 77 0 79 0;
#X connect 77 2 78 0;
#X connect 78 0 79 1;
#X connect 79 0 84 0;
#X connect 80 0 83 0;
#X connect 80 0 88 0;
#X connect 81 0 80 0;
#X connect 82 0 10 0;
#X connect 83 0 82 0;
#X connect 84 0 81 0;
#X connect 86 0 85 0;
#X connect 87 0 86 0;
#X connect 88 0 86 0;
#X connect 89 0 14 0;
#X connect 89 1 80 0;
#X coords 0 -1 1 1 110 35 1 100 100;
