#N canvas 438 180 746 520 10;
#X obj 162 -257 inlet;
#X obj -99 -74 separator;
#X obj -99 -45 colorRGB 1 1 1;
#X obj -99 -133 spigot;
#X obj -99 -237 inlet;
#X obj -99 85 polygon 4 3 2 1;
#X obj -161 -38 loadbang;
#X msg -161 -14 draw line;
#X obj 274 -65 t f f;
#X obj 407 -65 t f f;
#X obj 334 -19 t f f;
#X obj 335 9 -;
#X floatatom 335 31 5 0 0 0 - - -;
#X obj 466 -33 t f f;
#X obj 467 -5 -;
#X floatatom 467 18 5 0 0 0 - - -;
#X obj 362 78 > 0;
#X obj 362 102 s \$0-vx;
#X obj 335 147 v ax;
#X obj 494 68 > 0;
#X obj 494 92 s \$0-vy;
#X obj 467 141 v ay;
#X obj 274 -100 route x y;
#X floatatom 274 -40 5 0 0 0 - - -;
#X floatatom 407 -38 5 0 0 0 - - -;
#X obj 274 -18 s \$0-x;
#X obj 407 -15 s \$0-y;
#X obj 467 44 t b f;
#X obj 335 54 t b f;
#N canvas 282 283 1035 494 pos-xy======== 0;
#X obj -77 117 expr -1*$f1+$f2;
#X obj -57 142 expr 1*$f1+$f2;
#X obj -77 174 pack f f 0;
#X obj 177 210 expr 1*$f1+$f2;
#X obj 157 185 expr 1*$f1+$f2;
#X obj 157 235 pack f f 0;
#X obj 315 232 expr 1*$f1+$f2;
#X obj 315 282 pack f f 0;
#X obj 451 354 pack f f 0;
#X obj 335 257 expr -1*$f1+$f2;
#X obj 451 304 expr -1*$f1+$f2;
#X obj 471 329 expr -1*$f1+$f2;
#X obj 383 201 pipe 0;
#X obj 440 206 pipe 0;
#X obj 535 270 pipe 0;
#X obj 592 272 pipe 0;
#X obj -77 77 r \$0-size;
#X obj 158 159 r \$0-size;
#X obj 314 199 r \$0-size;
#X obj 451 261 r \$0-size;
#X obj 72 -77 r \$0-vx;
#X obj 100 -5 v ax;
#X msg 72 -5 0;
#X floatatom 72 29 5 0 0 0 - - -;
#X floatatom 72 -53 5 0 0 0 - - -;
#X obj 72 -31 sel 0 1;
#X msg 134 -6 0;
#X floatatom 134 28 5 0 0 0 - - -;
#X floatatom 134 -54 5 0 0 0 - - -;
#X obj 134 -77 r \$0-vy;
#X obj 134 -32 sel 1 0;
#X obj 162 -6 v ay;
#X obj 274 -45 r \$0-vx;
#X obj 302 27 v ax;
#X msg 274 27 0;
#X floatatom 274 61 5 0 0 0 - - -;
#X floatatom 274 -21 5 0 0 0 - - -;
#X msg 336 26 0;
#X floatatom 336 60 5 0 0 0 - - -;
#X floatatom 336 -22 5 0 0 0 - - -;
#X obj 336 -45 r \$0-vy;
#X obj 336 0 sel 1 0;
#X obj 364 26 v ay;
#X obj 274 1 sel 1 0;
#X obj 418 9 r \$0-vx;
#X obj 446 81 v ax;
#X msg 418 81 0;
#X floatatom 418 115 5 0 0 0 - - -;
#X floatatom 418 33 5 0 0 0 - - -;
#X msg 480 80 0;
#X floatatom 480 114 5 0 0 0 - - -;
#X floatatom 480 32 5 0 0 0 - - -;
#X obj 480 9 r \$0-vy;
#X obj 508 80 v ay;
#X obj 418 55 sel 1 0;
#X obj 480 54 sel 0 1;
#X obj 578 87 r \$0-vx;
#X obj 606 159 v ax;
#X msg 578 159 0;
#X floatatom 578 193 5 0 0 0 - - -;
#X floatatom 578 111 5 0 0 0 - - -;
#X msg 640 158 0;
#X floatatom 640 192 5 0 0 0 - - -;
#X floatatom 640 110 5 0 0 0 - - -;
#X obj 640 87 r \$0-vy;
#X obj 668 158 v ay;
#X obj 640 132 sel 0 1;
#X obj 578 133 sel 0 1;
#X obj 13 57 r \$0-x;
#X obj 70 56 r \$0-y;
#X obj 176 91 r \$0-x;
#X obj 233 90 r \$0-y;
#X obj 383 169 r \$0-x;
#X obj 440 168 r \$0-y;
#X obj 531 239 r \$0-x;
#X obj 588 238 r \$0-y;
#X obj 13 86 pipe 0;
#X obj 72 88 pipe 0;
#X obj 179 125 pipe 0;
#X obj 234 126 pipe 0;
#X obj -76 201 s \$0-a;
#X obj 157 264 s \$0-b;
#X obj 316 307 s \$0-c;
#X obj 451 378 s \$0-d;
#X floatatom -106 153 5 0 0 0 - - -;
#X connect 0 0 2 0;
#X connect 0 0 84 0;
#X connect 1 0 2 1;
#X connect 2 0 80 0;
#X connect 3 0 5 1;
#X connect 4 0 5 0;
#X connect 5 0 81 0;
#X connect 6 0 7 0;
#X connect 7 0 82 0;
#X connect 8 0 83 0;
#X connect 9 0 7 1;
#X connect 10 0 8 0;
#X connect 11 0 8 1;
#X connect 12 0 6 1;
#X connect 13 0 9 1;
#X connect 14 0 10 1;
#X connect 15 0 11 1;
#X connect 16 0 0 0;
#X connect 16 0 1 0;
#X connect 17 0 4 0;
#X connect 17 0 3 0;
#X connect 18 0 6 0;
#X connect 18 0 9 0;
#X connect 19 0 10 0;
#X connect 19 0 11 0;
#X connect 20 0 24 0;
#X connect 21 0 23 0;
#X connect 22 0 23 0;
#X connect 23 0 76 1;
#X connect 24 0 25 0;
#X connect 25 0 22 0;
#X connect 25 1 21 0;
#X connect 26 0 27 0;
#X connect 27 0 77 1;
#X connect 28 0 30 0;
#X connect 29 0 28 0;
#X connect 30 0 26 0;
#X connect 30 1 31 0;
#X connect 31 0 27 0;
#X connect 32 0 36 0;
#X connect 33 0 35 0;
#X connect 34 0 35 0;
#X connect 35 0 78 1;
#X connect 36 0 43 0;
#X connect 37 0 38 0;
#X connect 38 0 79 1;
#X connect 39 0 41 0;
#X connect 40 0 39 0;
#X connect 41 0 37 0;
#X connect 41 1 42 0;
#X connect 42 0 38 0;
#X connect 43 0 34 0;
#X connect 43 1 33 0;
#X connect 44 0 48 0;
#X connect 45 0 47 0;
#X connect 46 0 47 0;
#X connect 47 0 12 1;
#X connect 48 0 54 0;
#X connect 49 0 50 0;
#X connect 50 0 13 1;
#X connect 51 0 55 0;
#X connect 52 0 51 0;
#X connect 53 0 50 0;
#X connect 54 0 46 0;
#X connect 54 1 45 0;
#X connect 55 0 49 0;
#X connect 55 1 53 0;
#X connect 56 0 60 0;
#X connect 57 0 59 0;
#X connect 58 0 59 0;
#X connect 59 0 14 1;
#X connect 60 0 67 0;
#X connect 61 0 62 0;
#X connect 62 0 15 1;
#X connect 63 0 66 0;
#X connect 64 0 63 0;
#X connect 65 0 62 0;
#X connect 66 0 61 0;
#X connect 66 1 65 0;
#X connect 67 0 58 0;
#X connect 67 1 57 0;
#X connect 68 0 76 0;
#X connect 69 0 77 0;
#X connect 70 0 78 0;
#X connect 71 0 79 0;
#X connect 72 0 12 0;
#X connect 73 0 13 0;
#X connect 74 0 14 0;
#X connect 75 0 15 0;
#X connect 76 0 0 1;
#X connect 77 0 1 1;
#X connect 78 0 4 1;
#X connect 79 0 3 1;
#X restore 405 -111 pd pos-xy========;
#X obj 89 -79 separator;
#X obj 89 -50 colorRGB 1 1 1;
#X obj 88 -143 spigot;
#X obj 89 108 polygon 4 3 2 1;
#X obj -78 37 r \$0-a;
#X obj -56 58 r \$0-b;
#X obj -34 20 r \$0-c;
#X obj -12 58 r \$0-d;
#X obj 110 55 r \$0-a;
#X obj 132 83 r \$0-b;
#X obj 154 58 r \$0-c;
#X obj 176 78 r \$0-d;
#X msg 3 -22 width \$1;
#X obj 387 -183 v \$0-sizela;
#X obj 411 -316 init \$1;
#X obj 411 -279 moses 0;
#X msg 411 -252 1;
#X obj -99 -183 t a a b;
#X obj -36 -230 v \$0-sizela;
#X obj -36 -206 s \$0-size;
#X obj -79 -100 unpack f f f f;
#X obj 120 -119 unpack f f f f;
#X obj 162 -224 route color Lcolor width drawfill drawline size speed
;
#X msg 467 116 100;
#X msg 335 123 100;
#X obj 89 -19 alpha;
#X obj -99 1 alpha;
#X msg 402 29 set \$1;
#X connect 0 0 52 0;
#X connect 1 0 2 0;
#X connect 2 0 56 0;
#X connect 3 0 1 0;
#X connect 4 0 47 0;
#X connect 6 0 7 0;
#X connect 7 0 5 0;
#X connect 8 0 23 0;
#X connect 8 1 10 0;
#X connect 9 0 24 0;
#X connect 9 1 13 0;
#X connect 10 0 11 1;
#X connect 10 1 11 0;
#X connect 11 0 12 0;
#X connect 12 0 28 0;
#X connect 13 0 14 1;
#X connect 13 1 14 0;
#X connect 14 0 15 0;
#X connect 15 0 27 0;
#X connect 16 0 17 0;
#X connect 19 0 20 0;
#X connect 22 0 8 0;
#X connect 22 1 9 0;
#X connect 23 0 25 0;
#X connect 24 0 26 0;
#X connect 27 0 53 0;
#X connect 27 1 19 0;
#X connect 28 0 54 0;
#X connect 28 1 16 0;
#X connect 30 0 31 0;
#X connect 31 0 55 0;
#X connect 32 0 30 0;
#X connect 34 0 5 1;
#X connect 35 0 5 2;
#X connect 36 0 5 3;
#X connect 37 0 5 4;
#X connect 38 0 33 1;
#X connect 39 0 33 2;
#X connect 40 0 33 3;
#X connect 41 0 33 4;
#X connect 42 0 5 0;
#X connect 44 0 45 0;
#X connect 45 0 46 0;
#X connect 45 1 43 0;
#X connect 46 0 43 0;
#X connect 47 0 3 0;
#X connect 47 1 32 0;
#X connect 47 2 48 0;
#X connect 48 0 49 0;
#X connect 50 0 2 1;
#X connect 50 1 2 2;
#X connect 50 2 2 3;
#X connect 50 3 2 4;
#X connect 51 0 31 1;
#X connect 51 1 31 2;
#X connect 51 2 31 3;
#X connect 51 3 31 4;
#X connect 52 0 51 0;
#X connect 52 1 50 0;
#X connect 52 2 42 0;
#X connect 52 3 32 1;
#X connect 52 4 3 1;
#X connect 52 5 43 0;
#X connect 52 6 57 0;
#X connect 52 7 22 0;
#X connect 53 0 21 0;
#X connect 54 0 18 0;
#X connect 55 0 33 0;
#X connect 56 0 5 0;
#X connect 57 0 54 0;
#X connect 57 0 53 0;
