#N canvas 588 107 514 516 10;
#X obj 163 413 loadbang;
#X msg 241 375 x \$1;
#X floatatom 241 318 5 0 0 0 - - -, f 5;
#X obj 49 330 separator;
#X obj 49 302 t a b;
#X obj 119 303 f;
#X obj 148 303 + 1;
#X obj 241 110 line;
#X obj 49 207 gemhead 60;
#X obj 49 450 vj_square 1;
#X obj 241 135 inoutcirc;
#X obj 49 181 expr if($f1>0&&$f1<1 \, 1 \, 0);
#X msg 185 383 y 0;
#X obj 185 356 t b;
#X obj 49 239 rotateXYZ 0 0 0;
#X obj 136 214 * 90;
#X obj 241 353 * 2;
#X obj 49 401 rotateXYZ 0 0 0;
#X msg 163 436 drawfill 1 \, size 0.1 \, speed 10;
#X msg 241 83 1 \, 0 1000;
#X obj 276 227 cnv 15 100 60 empty empty empty 20 12 0 14 -195568 -66577
0;
#N canvas 0 22 450 300 gemwin 0;
#X obj 132 136 gemwin;
#X obj 67 89 outlet;
#X obj 67 10 inlet;
#X obj 67 41 route create;
#X msg 67 70 set destroy;
#X msg 142 68 set create;
#X msg 249 113 destroy;
#X msg 132 112 reset \, create \, 1;
#X connect 2 0 3 0;
#X connect 3 0 4 0;
#X connect 3 0 7 0;
#X connect 3 1 5 0;
#X connect 3 1 6 0;
#X connect 4 0 1 0;
#X connect 5 0 1 0;
#X connect 6 0 0 0;
#X connect 7 0 0 0;
#X restore 281 266 pd gemwin;
#X msg 281 247 destroy;
#X text 277 226 Create window:;
#X msg 210 55 0 \, 0.8 1000;
#X obj 49 276 repeat 20;
#X obj 178 303 % 20;
#X obj 119 332 * 18;
#X connect 0 0 18 0;
#X connect 1 0 9 1;
#X connect 2 0 13 0;
#X connect 2 0 16 0;
#X connect 3 0 17 0;
#X connect 4 0 3 0;
#X connect 4 1 5 0;
#X connect 5 0 6 0;
#X connect 5 0 27 0;
#X connect 6 0 26 0;
#X connect 7 0 10 0;
#X connect 7 0 11 0;
#X connect 8 0 14 0;
#X connect 10 0 2 0;
#X connect 10 0 15 0;
#X connect 11 0 8 0;
#X connect 12 0 9 1;
#X connect 13 0 12 0;
#X connect 14 0 25 0;
#X connect 15 0 14 3;
#X connect 16 0 1 0;
#X connect 17 0 9 0;
#X connect 18 0 9 1;
#X connect 19 0 7 0;
#X connect 21 0 22 0;
#X connect 22 0 21 0;
#X connect 24 0 7 0;
#X connect 25 0 4 0;
#X connect 26 0 5 1;
#X connect 27 0 17 3;
