#N canvas 495 167 758 584 10;
#X obj 307 289 repeat 100;
#X obj 307 314 t a b;
#X obj 334 340 f;
#X obj 360 340 + 1;
#X obj 387 340 % 100;
#X obj 307 395 separator;
#N canvas 455 229 749 511 rotate-pos 0;
#X obj 12 121 / 100;
#X obj 175 17 inlet;
#X obj 51 120 r \$0-num;
#X obj 275 268 +;
#X obj 275 163 t f f f f;
#X obj 292 191 tabread \$0-speed;
#X obj 325 215 r \$0-ctl-speed;
#X obj 292 216 * 1;
#X obj 275 326 tabwrite \$0-posy;
#X obj 275 242 tabread \$0-posy;
#N canvas 788 288 679 450 y-pos 0;
#X floatatom 89 34 5 0 0 0 - - -;
#X floatatom 14 164 5 0 0 0 - - -;
#X floatatom 297 161 5 0 0 0 - - -;
#X obj 330 144 tgl 15 0 empty empty empty 17 7 0 10 -262144 -1 -1 1
1;
#X obj 297 185 spigot;
#X obj 35 208 spigot;
#X floatatom 35 243 5 0 0 0 - - -;
#X obj 89 6 inlet;
#X obj 35 296 outlet;
#X obj 108 179 tgl 15 0 empty empty empty 17 7 0 10 -262144 -1 -1 1
1;
#X obj 89 58 t f f f;
#X obj 330 116 expr if($f1<9 \, 1 \, 0) \;;
#X obj 89 91 expr if($f1<9 \, $f1 \, -9) \; if($f1>-9 \, $f1 \, 9)
;
#X obj 108 153 expr if($f1>-9 \, 1 \, 0) \;;
#X connect 0 0 10 0;
#X connect 1 0 5 0;
#X connect 2 0 4 0;
#X connect 3 0 4 1;
#X connect 4 0 6 0;
#X connect 5 0 6 0;
#X connect 6 0 8 0;
#X connect 7 0 0 0;
#X connect 9 0 5 1;
#X connect 10 0 12 0;
#X connect 10 1 13 0;
#X connect 10 2 11 0;
#X connect 11 0 3 0;
#X connect 12 0 1 0;
#X connect 12 1 2 0;
#X connect 13 0 9 0;
#X restore 275 292 pd y-pos;
#X obj 175 47 t f f f f f;
#X obj 139 263 outlet;
#X obj 139 240 tabread \$0-posy;
#X connect 1 0 11 0;
#X connect 2 0 0 1;
#X connect 3 0 10 0;
#X connect 4 0 9 0;
#X connect 4 1 5 0;
#X connect 4 2 8 1;
#X connect 5 0 7 0;
#X connect 6 0 7 1;
#X connect 7 0 3 1;
#X connect 9 0 3 0;
#X connect 10 0 8 0;
#X connect 11 0 0 0;
#X connect 11 3 13 0;
#X connect 11 4 4 0;
#X connect 13 0 12 0;
#X restore 372 394 pd rotate-pos;
#N canvas 475 57 950 624 meta 0;
#X obj 144 187 randomF 4;
#X obj 144 62 repeat 100;
#X obj 201 31 r \$0-num;
#X obj 144 87 f;
#X obj 170 87 + 1;
#X obj 197 87 % 100;
#X obj 145 40 bng 15 250 50 0 empty empty empty 17 7 0 10 -262144 -1
-1;
#X obj 144 163 t b f;
#X obj 144 217 tabwrite \$0-radius;
#X obj 145 -53 t b b b b b b b;
#X obj 145 -79 bng 15 250 50 0 empty empty empty 17 7 0 10 -262144
-1 -1;
#X obj 318 58 s \$0-num;
#X obj 146 -110 loadbang;
#X obj 144 123 t f f f f f f;
#X obj 265 162 t b f;
#X obj 265 248 tabwrite \$0-speed;
#X obj 487 162 t b f;
#X obj 487 241 tabwrite \$0-posy;
#X obj 487 213 - 4;
#X obj 487 184 randomF 8;
#X obj 423 342 table \$0-speed 100;
#X obj 423 380 table \$0-posx 100;
#X obj 424 435 table \$0-radius 100;
#X obj 424 409 table \$0-posy 100;
#X obj 265 185 randomF 0.02;
#X obj 265 215 - 0.01;
#X obj 422 316 table \$0-size 100;
#X obj 371 167 t b f;
#X obj 371 221 tabwrite \$0-size;
#X obj 371 191 randomF 1;
#X msg 318 34 100;
#X connect 0 0 8 0;
#X connect 1 0 3 0;
#X connect 2 0 1 1;
#X connect 2 0 5 1;
#X connect 3 0 4 0;
#X connect 3 0 13 0;
#X connect 4 0 5 0;
#X connect 5 0 3 1;
#X connect 6 0 1 0;
#X connect 7 0 0 0;
#X connect 7 1 8 1;
#X connect 9 0 6 0;
#X connect 9 6 30 0;
#X connect 10 0 9 0;
#X connect 12 0 10 0;
#X connect 13 0 7 0;
#X connect 13 1 14 0;
#X connect 13 3 16 0;
#X connect 13 5 27 0;
#X connect 14 0 24 0;
#X connect 14 1 15 1;
#X connect 16 0 19 0;
#X connect 16 1 17 1;
#X connect 18 0 17 0;
#X connect 19 0 18 0;
#X connect 24 0 25 0;
#X connect 25 0 15 0;
#X connect 27 0 29 0;
#X connect 27 1 28 1;
#X connect 29 0 28 0;
#X connect 30 0 11 0;
#X restore 524 182 pd meta;
#X obj 106 161 hsl 100 15 0 1 0 0 empty empty Speed 5 8 0 10 -262144
-1 -1 6612 1;
#X obj 17 423 line;
#X obj 17 447 s \$0-ctl-speed;
#N canvas 573 543 333 266 color 0;
#X obj 131 182 alpha;
#X msg 44 97 auto 1;
#X obj 158 157 tgl 15 0 empty empty empty 17 7 0 10 -262144 -1 -1 1
1;
#X obj 44 47 loadbang;
#X obj 131 59 inlet;
#X obj 125 218 outlet;
#X obj 271 -14 inlet;
#X obj 131 98 t a b;
#X obj 131 131 colorRGB 1 1 1 1;
#X obj 179 62 + 0.01;
#X obj 179 37 randomF 0.4;
#X connect 0 0 5 0;
#X connect 1 0 0 0;
#X connect 2 0 0 1;
#X connect 3 0 1 0;
#X connect 3 0 2 0;
#X connect 4 0 7 0;
#X connect 6 0 8 4;
#X connect 7 0 8 0;
#X connect 7 1 10 0;
#X connect 8 0 0 0;
#X connect 9 0 8 1;
#X connect 9 0 8 2;
#X connect 9 0 8 3;
#X connect 10 0 9 0;
#X restore 307 476 pd color;
#X obj 106 179 hsl 100 15 0 1 0 0 empty empty Alpha 5 8 0 10 -258113
-1 -1 9900 1;
#X obj 207 287 sel 0;
#X msg 207 339 0;
#X msg 238 315 1;
#X obj 238 340 f;
#X obj -27 160 loadbang;
#X msg -27 182 0;
#X obj 334 366 t f f;
#X obj 106 124 hsl 100 15 0 1 0 0 empty empty Num 5 8 0 10 -262144
-1 -1 5458 1;
#X obj 364 241 int;
#X obj 106 143 hsl 100 15 0 1 0 0 empty empty Radius-y 5 8 0 10 -262144
-1 -1 2701 1;
#X obj -63 317 s \$0-ctl-radiusy;
#X obj 103 11 r vj-pitch-1;
#X obj 237 50 r vj-pitch-2;
#X obj -7 72 r vj-vol;
#X obj -7 120 spigot;
#X obj 238 373 s \$0-tgl;
#X obj 26 94 r \$0-tgl;
#X obj 103 63 spigot;
#X obj 136 37 r \$0-tgl;
#X obj 237 105 spigot;
#X obj 270 79 r \$0-tgl;
#X obj 307 540 square 1;
#X obj 391 452 tabread \$0-size;
#X obj 307 506 scaleXYZ 1 7 1;
#X obj 391 475 * 1;
#X obj 493 452 r \$0-ctl-radiusy;
#X obj 307 430 translateXYZ 0 0 0;
#X obj 364 209 * 100;
#X msg 17 402 \$1 10;
#X obj 17 372 expr ($f1*30)+0.05;
#X obj -63 288 line;
#X msg -63 267 \$1 10;
#X obj -63 243 expr ($f1*1);
#X obj 307 263 gemhead 1;
#X connect 0 0 1 0;
#X connect 1 0 5 0;
#X connect 1 1 2 0;
#X connect 2 0 3 0;
#X connect 2 0 19 0;
#X connect 3 0 4 0;
#X connect 4 0 2 1;
#X connect 5 0 39 0;
#X connect 6 0 39 1;
#X connect 8 0 42 0;
#X connect 9 0 10 0;
#X connect 11 0 36 0;
#X connect 12 0 13 0;
#X connect 13 0 14 0;
#X connect 13 1 15 0;
#X connect 13 1 11 1;
#X connect 14 0 16 0;
#X connect 15 0 16 0;
#X connect 16 0 28 0;
#X connect 16 0 46 0;
#X connect 17 0 18 0;
#X connect 18 0 12 0;
#X connect 18 0 8 0;
#X connect 19 0 35 0;
#X connect 19 1 6 0;
#X connect 20 0 40 0;
#X connect 21 0 0 1;
#X connect 21 0 4 1;
#X connect 22 0 45 0;
#X connect 24 0 30 0;
#X connect 25 0 32 0;
#X connect 26 0 27 0;
#X connect 27 0 22 0;
#X connect 29 0 27 1;
#X connect 30 0 20 0;
#X connect 31 0 30 1;
#X connect 32 0 8 0;
#X connect 33 0 32 1;
#X connect 35 0 37 0;
#X connect 36 0 34 0;
#X connect 37 0 36 1;
#X connect 38 0 37 1;
#X connect 39 0 11 0;
#X connect 40 0 21 0;
#X connect 41 0 9 0;
#X connect 42 0 41 0;
#X connect 43 0 23 0;
#X connect 44 0 43 0;
#X connect 45 0 44 0;
#X connect 46 0 0 0;
#X coords 0 -1 1 1 110 100 1 100 100;
