#N canvas 479 39 784 725 10;
#X obj 307 289 repeat 100;
#X obj 307 314 t a b;
#X obj 334 340 f;
#X obj 360 340 + 1;
#X obj 387 340 % 100;
#X obj 307 395 separator;
#N canvas 315 175 749 511 rotate-pos 0;
#X obj 12 121 / 100;
#X obj 175 200 expr $f1*2*3.1415;
#X obj 175 222 t f f;
#X obj 175 255 sin;
#X obj 207 255 cos;
#X obj 175 284 * 2;
#X obj 207 284 * 2;
#X obj 175 17 inlet;
#X obj 175 332 outlet;
#X obj 289 330 outlet;
#X obj 302 100 tabread \$0-radius;
#X obj 302 129 * 1;
#X obj 345 131 r \$0-ctl-radius;
#X obj 51 120 r \$0-num;
#X obj 503 378 +;
#X obj 503 273 t f f f f;
#X obj 520 301 tabread \$0-speed;
#X obj 520 326 * 1;
#X obj 503 352 tabread \$0-posx;
#X obj 503 436 tabwrite \$0-posx;
#X obj 503 408 expr fmod($f1 \, 1);
#X obj 556 326 r \$0-ctl-speed;
#X obj 153 136 tabread \$0-posx;
#X obj 344 416 +;
#X obj 344 273 t f f f f;
#X obj 361 301 tabread \$0-speed;
#X obj 394 363 r \$0-ctl-speed;
#X obj 361 364 * 1;
#X obj 344 474 tabwrite \$0-posy;
#X obj 344 390 tabread \$0-posy;
#N canvas 490 270 679 450 y-pos 0;
#X floatatom 89 34 5 0 0 0 - - -;
#X floatatom 14 164 5 0 0 0 - - -;
#X floatatom 297 161 5 0 0 0 - - -;
#X obj 330 144 tgl 15 0 empty empty empty 17 7 0 10 -262144 -1 -1 1
1;
#X obj 297 185 spigot;
#X obj 35 208 spigot;
#X floatatom 35 243 5 0 0 0 - - -;
#X obj 89 6 inlet;
#X obj 35 296 outlet;
#X obj 108 179 tgl 15 0 empty empty empty 17 7 0 10 -262144 -1 -1 1
1;
#X obj 89 58 t f f f;
#X obj 89 91 expr if($f1<6 \, $f1 \, -6) \; if($f1>-6 \, $f1 \, 6)
;
#X obj 108 153 expr if($f1>-6 \, 1 \, 0) \;;
#X obj 330 116 expr if($f1<6 \, 1 \, 0) \;;
#X connect 0 0 10 0;
#X connect 1 0 5 0;
#X connect 2 0 4 0;
#X connect 3 0 4 1;
#X connect 4 0 6 0;
#X connect 5 0 6 0;
#X connect 6 0 8 0;
#X connect 7 0 0 0;
#X connect 9 0 5 1;
#X connect 10 0 11 0;
#X connect 10 1 12 0;
#X connect 10 2 13 0;
#X connect 11 0 1 0;
#X connect 11 1 2 0;
#X connect 12 0 9 0;
#X connect 13 0 3 0;
#X restore 344 440 pd y-pos;
#X obj 175 47 t f f f f f;
#X obj 185 441 outlet;
#X obj 168 105 t f f;
#X obj 191 161 tabread \$0-posy;
#X obj 302 156 + 0.1;
#X obj 200 367 r \$0-ctl-radiusy;
#X obj 185 393 * 0;
#X obj 364 326 * 3;
#X connect 1 0 2 0;
#X connect 2 0 3 0;
#X connect 2 1 4 0;
#X connect 3 0 5 0;
#X connect 4 0 6 0;
#X connect 5 0 8 0;
#X connect 6 0 9 0;
#X connect 7 0 31 0;
#X connect 10 0 11 0;
#X connect 11 0 35 0;
#X connect 12 0 11 1;
#X connect 13 0 0 1;
#X connect 14 0 20 0;
#X connect 15 0 18 0;
#X connect 15 1 16 0;
#X connect 15 2 19 1;
#X connect 16 0 17 0;
#X connect 17 0 14 1;
#X connect 18 0 14 0;
#X connect 20 0 19 0;
#X connect 21 0 17 1;
#X connect 22 0 1 0;
#X connect 23 0 30 0;
#X connect 24 0 29 0;
#X connect 24 1 25 0;
#X connect 24 2 28 1;
#X connect 25 0 38 0;
#X connect 26 0 27 1;
#X connect 27 0 23 1;
#X connect 29 0 23 0;
#X connect 30 0 28 0;
#X connect 31 0 0 0;
#X connect 31 1 33 0;
#X connect 31 2 15 0;
#X connect 31 3 10 0;
#X connect 31 4 24 0;
#X connect 33 0 22 0;
#X connect 33 1 34 0;
#X connect 34 0 37 0;
#X connect 35 0 5 1;
#X connect 35 0 6 1;
#X connect 36 0 37 1;
#X connect 37 0 32 0;
#X connect 38 0 27 0;
#X restore 372 394 pd rotate-pos;
#X obj 307 430 translateXYZ 0 2 0;
#N canvas 70 139 939 593 meta 0;
#X obj 144 187 randomF 4;
#X obj 144 62 repeat 100;
#X obj 201 31 r \$0-num;
#X obj 144 87 f;
#X obj 170 87 + 1;
#X obj 197 87 % 100;
#X obj 145 40 bng 15 250 50 0 empty empty empty 17 7 0 10 -262144 -1
-1;
#X obj 144 163 t b f;
#X obj 144 217 tabwrite \$0-radius;
#X obj 145 -53 t b b b b b b b;
#X obj 145 -79 bng 15 250 50 0 empty empty empty 17 7 0 10 -262144
-1 -1;
#X obj 318 58 s \$0-num;
#X msg 318 34 100;
#X obj 144 123 t f f f f f f;
#X obj 265 162 t b f;
#X obj 265 185 randomF 0.01;
#X obj 265 248 tabwrite \$0-speed;
#X obj 377 162 t b f;
#X obj 377 185 randomF 1;
#X obj 377 216 tabwrite \$0-posx;
#X obj 487 162 t b f;
#X obj 487 241 tabwrite \$0-posy;
#X obj 487 213 - 4;
#X obj 487 184 randomF 8;
#X obj 265 215 + 0.005;
#X obj 332 285 table \$0-char 100;
#X obj 333 311 table \$0-speed 100;
#X obj 333 335 table \$0-posx 100;
#X obj 333 388 table \$0-radius 100;
#X obj 333 362 table \$0-posy 100;
#X obj 198 267 t b f;
#X obj 333 412 table \$0-rotate 100;
#X obj 198 353 tabwrite \$0-rotate;
#X obj 198 290 randomF 60;
#X obj 198 320 - 30;
#X obj 145 -105 inlet;
#X connect 0 0 8 0;
#X connect 1 0 3 0;
#X connect 2 0 1 1;
#X connect 2 0 5 1;
#X connect 3 0 4 0;
#X connect 3 0 13 0;
#X connect 4 0 5 0;
#X connect 5 0 3 1;
#X connect 6 0 1 0;
#X connect 7 0 0 0;
#X connect 7 1 8 1;
#X connect 9 0 6 0;
#X connect 9 6 12 0;
#X connect 10 0 9 0;
#X connect 12 0 11 0;
#X connect 13 0 7 0;
#X connect 13 1 14 0;
#X connect 13 2 17 0;
#X connect 13 3 20 0;
#X connect 13 5 30 0;
#X connect 14 0 15 0;
#X connect 14 1 16 1;
#X connect 15 0 24 0;
#X connect 17 0 18 0;
#X connect 17 1 19 1;
#X connect 18 0 19 0;
#X connect 20 0 23 0;
#X connect 20 1 21 1;
#X connect 22 0 21 0;
#X connect 23 0 22 0;
#X connect 24 0 16 0;
#X connect 30 0 33 0;
#X connect 30 1 32 1;
#X connect 33 0 34 0;
#X connect 34 0 32 0;
#X connect 35 0 10 0;
#X restore 341 168 pd meta;
#X obj 106 146 hsl 100 15 0 1 0 0 empty empty Radius-x 5 8 0 10 -262144
-1 -1 800 1;
#X obj -159 316 s \$0-ctl-radius;
#X obj 106 183 hsl 100 15 0 1 0 0 empty empty Speed 5 8 0 10 -262144
-1 -1 7400 1;
#X obj 17 423 line;
#X msg 17 402 \$1 100;
#X obj 17 447 s \$0-ctl-speed;
#N canvas 361 312 333 266 color 0;
#X obj 131 182 alpha;
#X msg 44 97 auto 1;
#X obj 158 157 tgl 15 0 empty empty empty 17 7 0 10 -262144 -1 -1 1
1;
#X obj 44 47 loadbang;
#X obj 133 31 inlet;
#X obj 125 218 outlet;
#X obj 131 131 colorRGB 1 1 1 0.8;
#X obj 200 -31 inlet;
#X obj 210 5 t b f;
#X obj 236 102 *;
#X obj 137 73 t a b;
#X obj 210 62 + 0.3;
#X obj 210 37 randomF 0.7;
#X connect 0 0 5 0;
#X connect 1 0 0 0;
#X connect 2 0 0 1;
#X connect 3 0 1 0;
#X connect 3 0 2 0;
#X connect 4 0 10 0;
#X connect 6 0 0 0;
#X connect 7 0 8 0;
#X connect 8 1 9 1;
#X connect 9 0 6 4;
#X connect 10 0 6 0;
#X connect 10 1 12 0;
#X connect 11 0 9 0;
#X connect 12 0 11 0;
#X restore 307 476 pd color;
#X obj 106 202 hsl 100 15 0 1 0 0 empty empty Alpha 5 8 0 10 -258113
-1 -1 8700 1;
#X obj 207 287 sel 0;
#X msg 207 339 0;
#X msg 238 315 1;
#X obj 238 340 f;
#X obj -27 160 loadbang;
#X msg -27 182 0;
#X obj 112 588 loadbang;
#X obj 106 128 hsl 100 15 0 1 0 0 empty empty Num 5 8 0 10 -262144
-1 -1 5800 1;
#X obj 364 241 int;
#X obj 106 165 hsl 100 15 0 1 0 0 empty empty Radius-y 5 8 0 10 -262144
-1 -1 2000 1;
#X obj -62 317 s \$0-ctl-radiusy;
#X obj 103 11 r vj-pitch-1;
#X obj 237 50 r vj-pitch-2;
#X obj -8 72 r vj-vol;
#X obj 364 209 * 100;
#X obj -62 262 expr ($f1*2);
#X obj -159 262 expr ($f1*2);
#X obj 352 455 * 1;
#X obj -62 289 k_spring 1;
#X obj -159 288 k_spring 1;
#X obj -7 120 spigot;
#X obj 236 373 s \$0-tgl;
#X obj 26 94 r \$0-tgl;
#X obj 103 63 spigot;
#X obj 136 37 r \$0-tgl;
#X obj 237 105 spigot;
#X obj 270 79 r \$0-tgl;
#X obj 307 509 rotateXYZ 30 0 0;
#X obj 17 372 expr ($f1*2)+0.05;
#X obj 417 465 tabread \$0-rotate;
#X obj 334 366 t f f f f;
#X obj 307 550 text3d;
#X obj 341 146 bng 15 250 50 0 empty empty empty 17 7 0 10 -262144
-1 -1;
#X obj 341 117 loadbang;
#X msg 340 529 5;
#X obj 307 263 gemhead 1;
#X obj 154 494 list prepend text;
#X obj 154 517 list trim;
#X obj 154 443 % 50;
#X obj 154 472 coll data/sub_2.txt;
#C restore;
#X msg 112 613 font data/Medium.ttc;
#X obj 189 105 bng 15 250 50 0 empty empty empty 17 7 0 10 -262144
-1 -1;
#X msg 132 396 read \$1;
#X obj 132 375 openpanel;
#X connect 0 0 1 0;
#X connect 1 0 5 0;
#X connect 1 1 2 0;
#X connect 2 0 3 0;
#X connect 2 0 47 0;
#X connect 3 0 4 0;
#X connect 4 0 2 1;
#X connect 5 0 7 0;
#X connect 6 0 7 1;
#X connect 6 1 7 2;
#X connect 6 2 7 3;
#X connect 7 0 15 0;
#X connect 9 0 33 0;
#X connect 11 0 45 0;
#X connect 12 0 14 0;
#X connect 13 0 12 0;
#X connect 15 0 44 0;
#X connect 16 0 17 0;
#X connect 17 0 18 0;
#X connect 17 1 19 0;
#X connect 17 1 34 0;
#X connect 18 0 20 0;
#X connect 19 0 20 0;
#X connect 20 0 38 0;
#X connect 20 0 52 0;
#X connect 21 0 22 0;
#X connect 22 0 16 0;
#X connect 22 0 11 0;
#X connect 23 0 57 0;
#X connect 23 0 51 0;
#X connect 24 0 31 0;
#X connect 25 0 0 1;
#X connect 25 0 4 1;
#X connect 26 0 32 0;
#X connect 28 0 40 0;
#X connect 29 0 42 0;
#X connect 30 0 37 0;
#X connect 31 0 25 0;
#X connect 32 0 35 0;
#X connect 33 0 36 0;
#X connect 34 0 15 1;
#X connect 35 0 27 0;
#X connect 36 0 10 0;
#X connect 37 0 26 0;
#X connect 39 0 37 1;
#X connect 40 0 24 0;
#X connect 41 0 40 1;
#X connect 42 0 11 0;
#X connect 43 0 42 1;
#X connect 44 0 48 0;
#X connect 45 0 13 0;
#X connect 46 0 44 1;
#X connect 47 1 6 0;
#X connect 47 2 46 0;
#X connect 47 3 55 0;
#X connect 49 0 8 0;
#X connect 50 0 49 0;
#X connect 51 0 48 1;
#X connect 52 0 0 0;
#X connect 53 0 54 0;
#X connect 54 0 48 0;
#X connect 55 0 56 0;
#X connect 56 0 53 0;
#X connect 57 0 48 0;
#X connect 58 0 60 0;
#X connect 59 0 56 0;
#X connect 60 0 59 0;
#X coords 0 -1 1 1 110 120 1 100 100;
