#N canvas 607 143 758 584 10;
#X obj 307 289 repeat 100;
#X obj 307 314 t a b;
#X obj 334 340 f;
#X obj 360 340 + 1;
#X obj 387 340 % 100;
#X obj 307 395 separator;
#N canvas 315 175 749 511 rotate-pos 0;
#X obj 12 121 / 100;
#X obj 175 200 expr $f1*2*3.1415;
#X obj 175 222 t f f;
#X obj 175 255 sin;
#X obj 207 255 cos;
#X obj 175 284 * 2;
#X obj 207 284 * 2;
#X obj 175 17 inlet;
#X obj 175 332 outlet;
#X obj 289 330 outlet;
#X obj 302 100 tabread \$0-radius;
#X obj 302 129 * 1;
#X obj 345 131 r \$0-ctl-radius;
#X obj 51 120 r \$0-num;
#X obj 503 378 +;
#X obj 503 273 t f f f f;
#X obj 520 301 tabread \$0-speed;
#X obj 520 326 * 1;
#X obj 503 352 tabread \$0-posx;
#X obj 503 436 tabwrite \$0-posx;
#X obj 503 408 expr fmod($f1 \, 1);
#X obj 556 326 r \$0-ctl-speed;
#X obj 153 136 tabread \$0-posx;
#X obj 344 416 +;
#X obj 344 273 t f f f f;
#X obj 361 301 tabread \$0-speed;
#X obj 394 363 r \$0-ctl-speed;
#X obj 361 364 * 1;
#X obj 344 474 tabwrite \$0-posy;
#X obj 344 390 tabread \$0-posy;
#N canvas 490 270 679 450 y-pos 0;
#X floatatom 89 34 5 0 0 0 - - -;
#X floatatom 14 164 5 0 0 0 - - -;
#X floatatom 297 161 5 0 0 0 - - -;
#X obj 330 144 tgl 15 0 empty empty empty 17 7 0 10 -262144 -1 -1 1
1;
#X obj 297 185 spigot;
#X obj 35 208 spigot;
#X floatatom 35 243 5 0 0 0 - - -;
#X obj 89 6 inlet;
#X obj 35 296 outlet;
#X obj 108 179 tgl 15 0 empty empty empty 17 7 0 10 -262144 -1 -1 1
1;
#X obj 89 58 t f f f;
#X obj 89 91 expr if($f1<6 \, $f1 \, -6) \; if($f1>-6 \, $f1 \, 6)
;
#X obj 108 153 expr if($f1>-6 \, 1 \, 0) \;;
#X obj 330 116 expr if($f1<6 \, 1 \, 0) \;;
#X connect 0 0 10 0;
#X connect 1 0 5 0;
#X connect 2 0 4 0;
#X connect 3 0 4 1;
#X connect 4 0 6 0;
#X connect 5 0 6 0;
#X connect 6 0 8 0;
#X connect 7 0 0 0;
#X connect 9 0 5 1;
#X connect 10 0 11 0;
#X connect 10 1 12 0;
#X connect 10 2 13 0;
#X connect 11 0 1 0;
#X connect 11 1 2 0;
#X connect 12 0 9 0;
#X connect 13 0 3 0;
#X restore 344 440 pd y-pos;
#X obj 175 47 t f f f f f;
#X obj 185 441 outlet;
#X obj 168 105 t f f;
#X obj 191 161 tabread \$0-posy;
#X obj 302 156 + 0.1;
#X obj 200 367 r \$0-ctl-radiusy;
#X obj 185 393 * 0;
#X obj 364 326 * 3;
#X connect 1 0 2 0;
#X connect 2 0 3 0;
#X connect 2 1 4 0;
#X connect 3 0 5 0;
#X connect 4 0 6 0;
#X connect 5 0 8 0;
#X connect 6 0 9 0;
#X connect 7 0 31 0;
#X connect 10 0 11 0;
#X connect 11 0 35 0;
#X connect 12 0 11 1;
#X connect 13 0 0 1;
#X connect 14 0 20 0;
#X connect 15 0 18 0;
#X connect 15 1 16 0;
#X connect 15 2 19 1;
#X connect 16 0 17 0;
#X connect 17 0 14 1;
#X connect 18 0 14 0;
#X connect 20 0 19 0;
#X connect 21 0 17 1;
#X connect 22 0 1 0;
#X connect 23 0 30 0;
#X connect 24 0 29 0;
#X connect 24 1 25 0;
#X connect 24 2 28 1;
#X connect 25 0 38 0;
#X connect 26 0 27 1;
#X connect 27 0 23 1;
#X connect 29 0 23 0;
#X connect 30 0 28 0;
#X connect 31 0 0 0;
#X connect 31 1 33 0;
#X connect 31 2 15 0;
#X connect 31 3 10 0;
#X connect 31 4 24 0;
#X connect 33 0 22 0;
#X connect 33 1 34 0;
#X connect 34 0 37 0;
#X connect 35 0 5 1;
#X connect 35 0 6 1;
#X connect 36 0 37 1;
#X connect 37 0 32 0;
#X connect 38 0 27 0;
#X restore 372 394 pd rotate-pos;
#X obj 307 430 translateXYZ 0 2 0;
#N canvas 70 139 939 593 meta 0;
#X obj 144 187 randomF 4;
#X obj 144 62 repeat 100;
#X obj 201 31 r \$0-num;
#X obj 144 87 f;
#X obj 170 87 + 1;
#X obj 197 87 % 100;
#X obj 145 40 bng 15 250 50 0 empty empty empty 17 7 0 10 -262144 -1
-1;
#X obj 144 163 t b f;
#X obj 144 217 tabwrite \$0-radius;
#X obj 145 -53 t b b b b b b b;
#X obj 145 -79 bng 15 250 50 0 empty empty empty 17 7 0 10 -262144
-1 -1;
#X obj 318 58 s \$0-num;
#X msg 318 34 100;
#X obj 144 123 t f f f f f f;
#X obj 265 162 t b f;
#X obj 265 185 randomF 0.01;
#X obj 265 248 tabwrite \$0-speed;
#X obj 377 162 t b f;
#X obj 377 185 randomF 1;
#X obj 377 216 tabwrite \$0-posx;
#X obj 487 162 t b f;
#X obj 487 241 tabwrite \$0-posy;
#X obj 487 213 - 4;
#X obj 487 184 randomF 8;
#X obj 265 215 + 0.005;
#X obj 295 -35 qlist;
#X msg 249 -93 print;
#X obj 314 -89 s \$0-reset;
#X obj 295 -113 t b b b;
#X obj 605 136 moocow/any2wchars;
#X floatatom 619 194 5 0 0 0 - - -;
#X floatatom 706 196 5 0 0 0 - - -;
#X floatatom 763 191 5 0 0 0 - - -;
#X floatatom 850 190 5 0 0 0 - - -;
#X obj 619 250 expr $f1*16+$f2;
#X obj 763 244 expr $f1*16+$f2;
#X obj 619 308 expr $f1*256+$f2;
#X floatatom 619 335 5 0 0 0 - - -;
#X floatatom 619 280 5 0 0 0 - - -;
#X floatatom 763 267 5 0 0 0 - - -;
#X obj 605 158 unpack 0 0 0 0 0;
#X obj 605 -8 r word;
#X obj 605 63 t a b;
#X obj 662 87 + 1;
#X obj 632 87 f 0;
#X floatatom 662 112 5 0 0 0 - - -;
#X msg 690 87 0;
#X obj 690 55 r \$0-reset;
#X obj 332 285 table \$0-char 100;
#X obj 333 311 table \$0-speed 100;
#X obj 333 335 table \$0-posx 100;
#X obj 333 388 table \$0-radius 100;
#X obj 333 362 table \$0-posy 100;
#X obj 619 361 tabwrite \$0-char;
#N canvas 0 22 620 360 itoa 0;
#X obj 35 28 inlet;
#X msg -18 141 1;
#X msg 26 126 2;
#X msg 68 131 3;
#X msg 105 129 4;
#X msg 146 144 5;
#X msg 175 107 6;
#X msg 211 108 7;
#X msg 245 108 8;
#X msg 280 106 9;
#X msg 312 108 10;
#X msg 346 108 11;
#X msg 381 106 12;
#X msg 413 109 13;
#X msg 445 107 14;
#X msg 500 110 15;
#X msg -28 108 0;
#X obj 230 259 outlet;
#X obj 32 65 select 48 49 50 51 52 53 54 55 56 57 97 98 99 100 101
102;
#X connect 0 0 18 0;
#X connect 1 0 17 0;
#X connect 2 0 17 0;
#X connect 3 0 17 0;
#X connect 4 0 17 0;
#X connect 5 0 17 0;
#X connect 6 0 17 0;
#X connect 7 0 17 0;
#X connect 8 0 17 0;
#X connect 9 0 17 0;
#X connect 10 0 17 0;
#X connect 11 0 17 0;
#X connect 12 0 17 0;
#X connect 13 0 17 0;
#X connect 14 0 17 0;
#X connect 15 0 17 0;
#X connect 16 0 17 0;
#X connect 18 0 16 0;
#X connect 18 1 1 0;
#X connect 18 2 2 0;
#X connect 18 3 3 0;
#X connect 18 4 4 0;
#X connect 18 5 5 0;
#X connect 18 6 6 0;
#X connect 18 7 7 0;
#X connect 18 8 8 0;
#X connect 18 9 9 0;
#X connect 18 10 10 0;
#X connect 18 11 11 0;
#X connect 18 12 12 0;
#X connect 18 13 13 0;
#X connect 18 14 14 0;
#X connect 18 15 15 0;
#X restore 619 215 pd itoa;
#N canvas 0 22 620 360 itoa 0;
#X obj 35 28 inlet;
#X msg -18 141 1;
#X msg 26 126 2;
#X msg 68 131 3;
#X msg 105 129 4;
#X msg 146 144 5;
#X msg 175 107 6;
#X msg 211 108 7;
#X msg 245 108 8;
#X msg 280 106 9;
#X msg 312 108 10;
#X msg 346 108 11;
#X msg 381 106 12;
#X msg 413 109 13;
#X msg 445 107 14;
#X msg 500 110 15;
#X msg -28 108 0;
#X obj 230 259 outlet;
#X obj 32 65 select 48 49 50 51 52 53 54 55 56 57 97 98 99 100 101
102;
#X connect 0 0 18 0;
#X connect 1 0 17 0;
#X connect 2 0 17 0;
#X connect 3 0 17 0;
#X connect 4 0 17 0;
#X connect 5 0 17 0;
#X connect 6 0 17 0;
#X connect 7 0 17 0;
#X connect 8 0 17 0;
#X connect 9 0 17 0;
#X connect 10 0 17 0;
#X connect 11 0 17 0;
#X connect 12 0 17 0;
#X connect 13 0 17 0;
#X connect 14 0 17 0;
#X connect 15 0 17 0;
#X connect 16 0 17 0;
#X connect 18 0 16 0;
#X connect 18 1 1 0;
#X connect 18 2 2 0;
#X connect 18 3 3 0;
#X connect 18 4 4 0;
#X connect 18 5 5 0;
#X connect 18 6 6 0;
#X connect 18 7 7 0;
#X connect 18 8 8 0;
#X connect 18 9 9 0;
#X connect 18 10 10 0;
#X connect 18 11 11 0;
#X connect 18 12 12 0;
#X connect 18 13 13 0;
#X connect 18 14 14 0;
#X connect 18 15 15 0;
#X restore 706 218 pd itoa;
#N canvas 0 22 620 360 itoa 0;
#X obj 35 28 inlet;
#X msg -18 141 1;
#X msg 26 126 2;
#X msg 68 131 3;
#X msg 105 129 4;
#X msg 146 144 5;
#X msg 175 107 6;
#X msg 211 108 7;
#X msg 245 108 8;
#X msg 280 106 9;
#X msg 312 108 10;
#X msg 346 108 11;
#X msg 381 106 12;
#X msg 413 109 13;
#X msg 445 107 14;
#X msg 500 110 15;
#X msg -28 108 0;
#X obj 230 259 outlet;
#X obj 32 65 select 48 49 50 51 52 53 54 55 56 57 97 98 99 100 101
102;
#X connect 0 0 18 0;
#X connect 1 0 17 0;
#X connect 2 0 17 0;
#X connect 3 0 17 0;
#X connect 4 0 17 0;
#X connect 5 0 17 0;
#X connect 6 0 17 0;
#X connect 7 0 17 0;
#X connect 8 0 17 0;
#X connect 9 0 17 0;
#X connect 10 0 17 0;
#X connect 11 0 17 0;
#X connect 12 0 17 0;
#X connect 13 0 17 0;
#X connect 14 0 17 0;
#X connect 15 0 17 0;
#X connect 16 0 17 0;
#X connect 18 0 16 0;
#X connect 18 1 1 0;
#X connect 18 2 2 0;
#X connect 18 3 3 0;
#X connect 18 4 4 0;
#X connect 18 5 5 0;
#X connect 18 6 6 0;
#X connect 18 7 7 0;
#X connect 18 8 8 0;
#X connect 18 9 9 0;
#X connect 18 10 10 0;
#X connect 18 11 11 0;
#X connect 18 12 12 0;
#X connect 18 13 13 0;
#X connect 18 14 14 0;
#X connect 18 15 15 0;
#X restore 763 215 pd itoa;
#N canvas 0 22 620 360 itoa 0;
#X obj 35 28 inlet;
#X msg -18 141 1;
#X msg 26 126 2;
#X msg 68 131 3;
#X msg 105 129 4;
#X msg 146 144 5;
#X msg 175 107 6;
#X msg 211 108 7;
#X msg 245 108 8;
#X msg 280 106 9;
#X msg 312 108 10;
#X msg 346 108 11;
#X msg 381 106 12;
#X msg 413 109 13;
#X msg 445 107 14;
#X msg 500 110 15;
#X msg -28 108 0;
#X obj 230 259 outlet;
#X obj 32 65 select 48 49 50 51 52 53 54 55 56 57 97 98 99 100 101
102;
#X connect 0 0 18 0;
#X connect 1 0 17 0;
#X connect 2 0 17 0;
#X connect 3 0 17 0;
#X connect 4 0 17 0;
#X connect 5 0 17 0;
#X connect 6 0 17 0;
#X connect 7 0 17 0;
#X connect 8 0 17 0;
#X connect 9 0 17 0;
#X connect 10 0 17 0;
#X connect 11 0 17 0;
#X connect 12 0 17 0;
#X connect 13 0 17 0;
#X connect 14 0 17 0;
#X connect 15 0 17 0;
#X connect 16 0 17 0;
#X connect 18 0 16 0;
#X connect 18 1 1 0;
#X connect 18 2 2 0;
#X connect 18 3 3 0;
#X connect 18 4 4 0;
#X connect 18 5 5 0;
#X connect 18 6 6 0;
#X connect 18 7 7 0;
#X connect 18 8 8 0;
#X connect 18 9 9 0;
#X connect 18 10 10 0;
#X connect 18 11 11 0;
#X connect 18 12 12 0;
#X connect 18 13 13 0;
#X connect 18 14 14 0;
#X connect 18 15 15 0;
#X restore 850 218 pd itoa;
#X obj 198 267 t b f;
#X obj 333 412 table \$0-rotate 100;
#X obj 198 353 tabwrite \$0-rotate;
#X obj 198 290 randomF 60;
#X obj 198 320 - 30;
#X obj 145 -105 inlet;
#X msg 315 -66 read sub_2.txt;
#X obj 638 14 r \$0-tgl;
#X obj 605 40 spigot;
#X connect 0 0 8 0;
#X connect 1 0 3 0;
#X connect 2 0 1 1;
#X connect 2 0 5 1;
#X connect 3 0 4 0;
#X connect 3 0 13 0;
#X connect 4 0 5 0;
#X connect 5 0 3 1;
#X connect 6 0 1 0;
#X connect 7 0 0 0;
#X connect 7 1 8 1;
#X connect 9 0 6 0;
#X connect 9 5 28 0;
#X connect 9 6 12 0;
#X connect 10 0 9 0;
#X connect 12 0 11 0;
#X connect 13 0 7 0;
#X connect 13 1 14 0;
#X connect 13 2 17 0;
#X connect 13 3 20 0;
#X connect 13 5 58 0;
#X connect 14 0 15 0;
#X connect 14 1 16 1;
#X connect 15 0 24 0;
#X connect 17 0 18 0;
#X connect 17 1 19 1;
#X connect 18 0 19 0;
#X connect 20 0 23 0;
#X connect 20 1 21 1;
#X connect 22 0 21 0;
#X connect 23 0 22 0;
#X connect 24 0 16 0;
#X connect 26 0 25 0;
#X connect 28 0 25 0;
#X connect 28 1 27 0;
#X connect 28 2 64 0;
#X connect 29 0 40 0;
#X connect 30 0 54 0;
#X connect 31 0 55 0;
#X connect 32 0 56 0;
#X connect 33 0 57 0;
#X connect 34 0 38 0;
#X connect 35 0 39 0;
#X connect 36 0 37 0;
#X connect 37 0 53 0;
#X connect 38 0 36 0;
#X connect 39 0 36 1;
#X connect 40 1 30 0;
#X connect 40 2 31 0;
#X connect 40 3 32 0;
#X connect 40 4 33 0;
#X connect 41 0 66 0;
#X connect 42 0 29 0;
#X connect 42 1 44 0;
#X connect 43 0 44 1;
#X connect 43 0 45 0;
#X connect 44 0 43 0;
#X connect 45 0 53 1;
#X connect 46 0 44 1;
#X connect 47 0 46 0;
#X connect 54 0 34 0;
#X connect 55 0 34 1;
#X connect 56 0 35 0;
#X connect 57 0 35 1;
#X connect 58 0 61 0;
#X connect 58 1 60 1;
#X connect 61 0 62 0;
#X connect 62 0 60 0;
#X connect 63 0 10 0;
#X connect 64 0 25 0;
#X connect 65 0 66 1;
#X connect 66 0 42 0;
#X restore 287 162 pd meta;
#X obj 106 146 hsl 100 15 0 1 0 0 empty empty Radius-x 5 8 0 10 -262144
-1 -1 4600 1;
#X obj -159 316 s \$0-ctl-radius;
#X obj 106 183 hsl 100 15 0 1 0 0 empty empty Speed 5 8 0 10 -262144
-1 -1 5989 1;
#X obj 17 423 line;
#X msg 17 402 \$1 100;
#X obj 17 447 s \$0-ctl-speed;
#N canvas 361 312 333 266 color 0;
#X obj 131 182 alpha;
#X msg 44 97 auto 1;
#X obj 158 157 tgl 15 0 empty empty empty 17 7 0 10 -262144 -1 -1 1
1;
#X obj 44 47 loadbang;
#X obj 133 31 inlet;
#X obj 125 218 outlet;
#X obj 131 131 colorRGB 1 1 1 0.8;
#X obj 200 -31 inlet;
#X obj 210 5 t b f;
#X obj 236 102 *;
#X obj 137 73 t a b;
#X obj 210 62 + 0.3;
#X obj 210 37 randomF 0.7;
#X connect 0 0 5 0;
#X connect 1 0 0 0;
#X connect 2 0 0 1;
#X connect 3 0 1 0;
#X connect 3 0 2 0;
#X connect 4 0 10 0;
#X connect 6 0 0 0;
#X connect 7 0 8 0;
#X connect 8 1 9 1;
#X connect 9 0 6 4;
#X connect 10 0 6 0;
#X connect 10 1 12 0;
#X connect 11 0 9 0;
#X connect 12 0 11 0;
#X restore 307 476 pd color;
#X obj 106 202 hsl 100 15 0 1 0 0 empty empty Alpha 5 8 0 10 -258113
-1 -1 9900 1;
#X obj 207 287 sel 0;
#X msg 207 339 0;
#X msg 238 315 1;
#X obj 238 340 f;
#X obj -27 160 loadbang;
#X msg -27 182 0;
#X msg 199 470 string \$1;
#X obj 139 471 loadbang;
#X msg 139 496 font Medium.ttc;
#X obj 106 128 hsl 100 15 0 1 0 0 empty empty Num 5 8 0 10 -262144
-1 -1 6042 1;
#X obj 364 241 int;
#X obj 106 165 hsl 100 15 0 1 0 0 empty empty Radius-y 5 8 0 10 -262144
-1 -1 8453 1;
#X obj -62 317 s \$0-ctl-radiusy;
#X obj 103 11 r vj-pitch-1;
#X obj 237 50 r vj-pitch-2;
#X obj -8 72 r vj-vol;
#X obj 364 209 * 100;
#X obj -62 262 expr ($f1*2);
#X obj -159 262 expr ($f1*2);
#X obj 352 455 * 1;
#X obj -62 289 k_spring 1;
#X obj -159 288 k_spring 1;
#X obj -7 120 spigot;
#X obj 236 373 s \$0-tgl;
#X obj 26 94 r \$0-tgl;
#X obj 103 63 spigot;
#X obj 136 37 r \$0-tgl;
#X obj 237 105 spigot;
#X obj 270 79 r \$0-tgl;
#X obj 307 509 rotateXYZ 30 0 0;
#X obj 17 372 expr ($f1*2)+0.05;
#X obj 417 465 tabread \$0-rotate;
#X obj 334 366 t f f f f;
#X obj 307 550 text3d;
#X obj 192 107 bng 15 250 50 0 empty empty empty 17 7 0 10 -262144
-1 -1;
#X obj 192 78 loadbang;
#X msg 340 529 5;
#X obj 307 263 gemhead 1;
#X obj 188 422 coll sub_2.txt;
#C restore;
#X connect 0 0 1 0;
#X connect 1 0 5 0;
#X connect 1 1 2 0;
#X connect 2 0 3 0;
#X connect 2 0 49 0;
#X connect 3 0 4 0;
#X connect 4 0 2 1;
#X connect 5 0 7 0;
#X connect 6 0 7 1;
#X connect 6 1 7 2;
#X connect 6 2 7 3;
#X connect 7 0 15 0;
#X connect 9 0 35 0;
#X connect 11 0 47 0;
#X connect 12 0 14 0;
#X connect 13 0 12 0;
#X connect 15 0 46 0;
#X connect 16 0 17 0;
#X connect 17 0 18 0;
#X connect 17 1 19 0;
#X connect 17 1 36 0;
#X connect 18 0 20 0;
#X connect 19 0 20 0;
#X connect 20 0 40 0;
#X connect 20 0 54 0;
#X connect 21 0 22 0;
#X connect 22 0 16 0;
#X connect 22 0 11 0;
#X connect 23 0 50 0;
#X connect 24 0 25 0;
#X connect 24 0 53 0;
#X connect 25 0 50 0;
#X connect 26 0 33 0;
#X connect 27 0 0 1;
#X connect 27 0 4 1;
#X connect 28 0 34 0;
#X connect 30 0 42 0;
#X connect 31 0 44 0;
#X connect 32 0 39 0;
#X connect 33 0 27 0;
#X connect 34 0 37 0;
#X connect 35 0 38 0;
#X connect 36 0 15 1;
#X connect 37 0 29 0;
#X connect 38 0 10 0;
#X connect 39 0 28 0;
#X connect 41 0 39 1;
#X connect 42 0 26 0;
#X connect 43 0 42 1;
#X connect 44 0 11 0;
#X connect 45 0 44 1;
#X connect 46 0 50 0;
#X connect 47 0 13 0;
#X connect 48 0 46 1;
#X connect 49 1 6 0;
#X connect 49 2 48 0;
#X connect 51 0 8 0;
#X connect 52 0 51 0;
#X connect 53 0 50 1;
#X connect 54 0 0 0;
#X coords 0 -1 1 1 110 120 1 100 100;
