#N canvas 0 22 450 300 10;
#X msg 295 82 create \, 1;
#X obj 294 120 gemwin;
#X obj 289 166 adc~;
#X obj 290 196 env~;
#X floatatom 122 35 5 0 0 0 - - -;
#X floatatom 205 41 5 0 0 0 - - -;
#X obj 116 74 vj_textrain;
#X connect 0 0 1 0;
#X connect 2 0 3 0;
#X connect 4 0 6 0;
#X connect 5 0 6 1;
