#N canvas 145 144 960 646 10;
#X floatatom 686 149 5 0 0 0 - - -;
#X obj 106 259 hsl 100 15 0 1 0 0 empty empty Alpha 5 8 0 10 -258113
-1 -1 9900 1;
#X obj 140 381 sel 0;
#X msg 140 433 0;
#X msg 171 409 1;
#X obj 171 434 f;
#X obj -9 340 loadbang;
#X obj -9 389 f;
#X obj 23 389 + 1;
#X obj 368 133 gemhead;
#X obj 368 226 t a b;
#X obj 395 251 f;
#X obj 427 251 + 1;
#X obj 368 391 separator;
#X obj 593 330 +;
#X obj 368 462 translateXYZ 0 0 0;
#X obj 368 521 alpha;
#X obj 296 436 loadbang;
#X obj 368 497 colorRGB;
#N canvas 490 270 679 450 z-pos 0;
#X floatatom 89 34 5 0 0 0 - - -;
#X floatatom 14 164 5 0 0 0 - - -;
#X floatatom 297 161 5 0 0 0 - - -;
#X obj 330 144 tgl 15 0 empty empty empty 17 7 0 10 -262144 -1 -1 1
1;
#X obj 297 185 spigot;
#X obj 35 208 spigot;
#X floatatom 35 243 5 0 0 0 - - -;
#X obj 89 6 inlet;
#X obj 35 296 outlet;
#X obj 108 179 tgl 15 0 empty empty empty 17 7 0 10 -262144 -1 -1 1
1;
#X obj 89 58 t f f f;
#X obj 330 116 expr if($f1<10 \, 1 \, 0) \;;
#X obj 108 154 expr if($f1>-10 \, 1 \, 0) \;;
#X obj 89 91 expr if($f1<10 \, $f1 \, -10) \; if($f1>-10 \, $f1 \,
10);
#X connect 0 0 10 0;
#X connect 1 0 5 0;
#X connect 2 0 4 0;
#X connect 3 0 4 1;
#X connect 4 0 6 0;
#X connect 5 0 6 0;
#X connect 6 0 8 0;
#X connect 7 0 0 0;
#X connect 9 0 5 1;
#X connect 10 0 13 0;
#X connect 10 1 12 0;
#X connect 10 2 11 0;
#X connect 11 0 3 0;
#X connect 12 0 9 0;
#X connect 13 0 1 0;
#X connect 13 1 2 0;
#X restore 593 354 pd z-pos;
#X obj 720 343 r vj-vol;
#X floatatom 720 367 5 0 0 0 - - -;
#X obj 593 225 t f f f f;
#X obj 47 342 bng 15 250 50 0 empty empty empty 17 7 0 10 -262144 -1
-1;
#X obj -15 546 tabwrite \$0-speed;
#X obj 593 388 tabwrite \$0-go;
#X obj 705 424 tabread \$0-speed;
#X obj 609 253 tabread \$0-speed;
#X obj 593 305 tabread \$0-go;
#X obj 130 542 tabwrite \$0-y;
#X obj 473 436 tabread \$0-y;
#X obj 19 198 loadbang;
#X msg 19 224 0;
#X msg 296 462 1;
#X symbolatom 108 120 15 0 0 0 - - -;
#N canvas 724 287 465 439 sel-text===== 0;
#X obj 78 -24 % 6;
#X obj 78 -68 inlet;
#X obj 190 215 outlet;
#X obj 134 -40 inlet;
#X obj 175 -39 inlet;
#X obj 217 -39 inlet;
#X obj 258 -38 inlet;
#X obj 302 -39 inlet;
#X obj 343 -38 inlet;
#N canvas 844 232 450 300 text 0;
#X msg 85 150 text a;
#X obj 52 55 inlet;
#X obj 125 52 inlet;
#X obj 86 197 outlet;
#X msg 52 111 set text \$1;
#X connect 0 0 3 0;
#X connect 1 0 4 0;
#X connect 2 0 0 0;
#X connect 4 0 0 0;
#X restore 142 132 pd text;
#N canvas 844 232 450 300 text 0;
#X msg 85 150 text b;
#X obj 52 55 inlet;
#X obj 125 52 inlet;
#X obj 86 197 outlet;
#X msg 52 111 set text \$1;
#X connect 0 0 3 0;
#X connect 1 0 4 0;
#X connect 2 0 0 0;
#X connect 4 0 0 0;
#X restore 192 132 pd text;
#N canvas 844 232 450 300 text 0;
#X msg 85 150 text c;
#X obj 52 55 inlet;
#X obj 125 52 inlet;
#X obj 86 197 outlet;
#X msg 52 111 set text \$1;
#X connect 0 0 3 0;
#X connect 1 0 4 0;
#X connect 2 0 0 0;
#X connect 4 0 0 0;
#X restore 245 133 pd text;
#N canvas 844 232 450 300 text 0;
#X msg 85 150 text 2;
#X obj 52 55 inlet;
#X obj 125 52 inlet;
#X obj 86 197 outlet;
#X msg 52 111 set text \$1;
#X connect 0 0 3 0;
#X connect 1 0 4 0;
#X connect 2 0 0 0;
#X connect 4 0 0 0;
#X restore 295 133 pd text;
#N canvas 844 232 450 300 text 0;
#X msg 85 150 text kk;
#X obj 52 55 inlet;
#X obj 125 52 inlet;
#X obj 86 197 outlet;
#X msg 52 111 set text \$1;
#X connect 0 0 3 0;
#X connect 1 0 4 0;
#X connect 2 0 0 0;
#X connect 4 0 0 0;
#X restore 349 132 pd text;
#N canvas 844 232 450 300 text 0;
#X msg 85 150 text cc;
#X obj 52 55 inlet;
#X obj 125 52 inlet;
#X obj 86 197 outlet;
#X msg 52 111 set text \$1;
#X connect 0 0 3 0;
#X connect 1 0 4 0;
#X connect 2 0 0 0;
#X connect 4 0 0 0;
#X restore 399 132 pd text;
#X obj 191 87 sel 0 1 2 3 4 5;
#X connect 0 0 15 0;
#X connect 1 0 0 0;
#X connect 3 0 9 0;
#X connect 4 0 10 0;
#X connect 5 0 11 0;
#X connect 6 0 12 0;
#X connect 7 0 13 0;
#X connect 8 0 14 0;
#X connect 9 0 2 0;
#X connect 10 0 2 0;
#X connect 11 0 2 0;
#X connect 12 0 2 0;
#X connect 13 0 2 0;
#X connect 14 0 2 0;
#X connect 15 0 9 1;
#X connect 15 1 10 1;
#X connect 15 2 11 1;
#X connect 15 3 12 1;
#X connect 15 4 13 1;
#X connect 15 5 14 1;
#X restore 228 386 pd sel-text=====;
#X symbolatom 107 139 15 0 0 0 - - -;
#X symbolatom 107 158 15 0 0 0 - - -;
#X symbolatom 106 177 15 0 0 0 - - -;
#X symbolatom 107 197 15 0 0 0 - - -;
#X symbolatom 106 216 15 0 0 0 - - -;
#X obj 403 355 tabread \$0-x;
#X obj 54 575 tabwrite \$0-x;
#X obj 30 445 t f f f f;
#X obj 258 580 tabwrite \$0-go;
#X obj -9 415 t f b b b b;
#X obj -68 504 + 0.1;
#X obj -68 476 randomF 0.3;
#X msg 250 464 auto 1;
#X obj 368 165 translateXYZ 0 -5 0;
#X obj 686 220 line;
#X msg 686 195 \$1 500;
#X obj 395 295 t f f f f b;
#X obj 447 321 f;
#X obj 479 321 + 1;
#X obj 508 321 % 2;
#X obj 508 348 sel 0 1;
#X msg 507 374 1;
#X msg 538 375 -1;
#X obj 438 440 *;
#X obj 106 239 hsl 100 15 1 0 0 0 empty empty Color 5 8 0 10 -262144
-1 -1 0 1;
#X msg 241 260 \$1 1000;
#X obj 241 282 line;
#X obj 720 391 expr $f1*120+20;
#X obj 685 128 r vj-pitch-2;
#X obj 241 47 table \$0-x 240;
#X obj 242 74 table \$0-y 240;
#X obj 241 103 table \$0-speed 240;
#X obj 242 130 table \$0-go 240;
#X obj 368 198 repeat 120;
#X obj 460 251 % 120;
#X obj 10 474 randomF 20;
#X obj 10 497 - 10;
#X obj -9 365 repeat 120;
#X obj 55 389 % 120;
#X obj 130 484 randomF 6;
#X obj 130 507 - 3;
#X obj 258 522 randomF 20;
#X obj 258 545 - 10;
#X msg 426 511 depth \$1;
#X floatatom 480 480 5 0 0 0 - - -;
#X obj 368 545 text2d;
#X obj 686 170 expr $f1*0.5;
#X obj 692 91 inlet;
#X obj 760 301 inlet;
#X obj 705 453 * 1;
#X obj 609 278 * 1;
#X obj 824 296 loadbang;
#X obj 766 102 loadbang;
#X msg 767 126 1;
#X msg 825 320 0.3;
#X connect 0 0 82 0;
#X connect 1 0 2 0;
#X connect 2 0 3 0;
#X connect 2 1 4 0;
#X connect 2 1 18 4;
#X connect 3 0 5 0;
#X connect 3 0 18 4;
#X connect 4 0 5 0;
#X connect 5 0 9 0;
#X connect 6 0 73 0;
#X connect 7 0 8 0;
#X connect 7 0 45 0;
#X connect 8 0 74 0;
#X connect 9 0 49 0;
#X connect 10 0 13 0;
#X connect 10 1 11 0;
#X connect 11 0 12 0;
#X connect 11 0 52 0;
#X connect 12 0 70 0;
#X connect 13 0 15 0;
#X connect 14 0 19 0;
#X connect 15 0 18 0;
#X connect 16 0 81 0;
#X connect 17 0 33 0;
#X connect 17 0 48 0;
#X connect 18 0 16 0;
#X connect 19 0 25 0;
#X connect 19 0 59 0;
#X connect 20 0 21 0;
#X connect 21 0 63 0;
#X connect 22 0 28 0;
#X connect 22 1 27 0;
#X connect 22 2 25 1;
#X connect 22 3 26 0;
#X connect 23 0 73 0;
#X connect 26 0 85 0;
#X connect 27 0 86 0;
#X connect 28 0 14 0;
#X connect 30 0 15 3;
#X connect 31 0 32 0;
#X connect 32 0 1 0;
#X connect 33 0 16 1;
#X connect 34 0 35 1;
#X connect 35 0 81 0;
#X connect 36 0 35 2;
#X connect 37 0 35 3;
#X connect 38 0 35 4;
#X connect 39 0 35 5;
#X connect 40 0 35 6;
#X connect 41 0 15 1;
#X connect 43 0 24 1;
#X connect 43 1 42 1;
#X connect 43 2 29 1;
#X connect 43 3 44 1;
#X connect 45 0 43 0;
#X connect 45 1 71 0;
#X connect 45 2 47 0;
#X connect 45 3 75 0;
#X connect 45 4 77 0;
#X connect 46 0 24 0;
#X connect 47 0 46 0;
#X connect 48 0 16 0;
#X connect 49 0 69 0;
#X connect 50 0 86 1;
#X connect 51 0 50 0;
#X connect 52 0 41 0;
#X connect 52 1 30 0;
#X connect 52 2 22 0;
#X connect 52 3 35 0;
#X connect 52 4 53 0;
#X connect 53 0 54 0;
#X connect 54 0 55 0;
#X connect 55 0 53 1;
#X connect 55 0 56 0;
#X connect 56 0 57 0;
#X connect 56 1 58 0;
#X connect 57 0 59 1;
#X connect 58 0 59 1;
#X connect 59 0 15 2;
#X connect 60 0 61 0;
#X connect 61 0 62 0;
#X connect 62 0 18 1;
#X connect 62 0 18 2;
#X connect 62 0 18 3;
#X connect 63 0 85 1;
#X connect 64 0 0 0;
#X connect 69 0 10 0;
#X connect 70 0 11 1;
#X connect 71 0 72 0;
#X connect 72 0 42 0;
#X connect 73 0 7 0;
#X connect 74 0 7 1;
#X connect 75 0 76 0;
#X connect 76 0 29 0;
#X connect 77 0 78 0;
#X connect 78 0 44 0;
#X connect 79 0 81 0;
#X connect 80 0 79 0;
#X connect 82 0 51 0;
#X connect 83 0 0 0;
#X connect 84 0 21 0;
#X connect 85 0 81 1;
#X connect 86 0 14 1;
#X connect 87 0 90 0;
#X connect 88 0 89 0;
#X connect 89 0 0 0;
#X connect 90 0 21 0;
#X coords 0 -1 1 1 110 180 1 100 100;
