#N canvas 492 96 870 664 10;
#X obj 140 55 inlet;
#X obj 140 158 repeat 10;
#X obj 140 183 t a b;
#X obj 227 110 f;
#X obj 256 110 + 1;
#X obj 286 110 % 10;
#X obj 140 266 separator;
#X obj 140 297 translateXYZ;
#X obj 85 586 rectangle 0.01 0.05;
#X obj 368 57 inlet;
#X obj 227 203 k_range 0 1 0 1;
#X obj 246 231 k_range 0 1 0 1;
#X obj 368 107 unpack f f f;
#X obj 402 136 unpack f f f;
#X obj 266 259 k_range 0 1 0 1;
#X obj 227 178 t f f f;
#X obj 140 89 t a a;
#X obj 140 113 separator;
#X obj 317 320 separator;
#X obj 317 362 curve 2;
#X obj 422 -7 loadbang;
#X obj 422 15 t b b;
#X msg 449 36 end 1 0 0;
#X msg 422 57 start -1 0 0;
#X obj 227 154 / 9;
#X obj 291 388 gemlist_info;
#X obj 272 543 text2d;
#X obj 140 346 t a a a;
#X msg 416 376 text \$1;
#X obj 227 133 t f f;
#X obj 140 375 separator;
#X obj 272 413 separator;
#X obj 272 440 translateXYZ 0 0 0.2;
#X obj 334 74 - 1;
#X obj 416 307 k_range 0 10 0 10;
#X obj 416 351 expr int($f1*100)/100;
#X msg 359 527 8;
#X obj 307 51 t f f f;
#X obj 560 245 expr if(abs($f1-$f2)>0 \, 1 \, 0);
#X obj 591 287 expr if(abs($f1-$f2)>0 \, 3 \, 0);
#X obj 560 309 +;
#X obj 560 288 +;
#X floatatom 560 332 5 0 0 0 - - -;
#X obj 575 265 expr if(abs($f1-$f2)>0 \, 2 \, 0);
#X obj 560 355 sel 1 2 3;
#X msg 144 407 0 0 0.05;
#X obj 144 428 unpack f f f;
#X msg 136 505 90 0 0;
#X obj 134 527 unpack f f f;
#X obj 85 559 rotateXYZ 0 0 0;
#X obj 85 462 translateXYZ 0 0 0;
#X obj 359 500 once;
#X obj 272 479 t a b;
#X msg 211 407 -0.05 0 0;
#X msg 193 504 0 0 90;
#X msg 412 442 0 0 0.2;
#X obj 414 467 unpack f f f;
#X msg 487 442 -0.2 0 0;
#X msg 241 338 width 2;
#X obj 242 316 loadbang;
#X obj 368 81 route start end range num;
#X obj 519 115 unpack f f;
#X connect 0 0 16 0;
#X connect 1 0 2 0;
#X connect 2 0 6 0;
#X connect 2 1 3 0;
#X connect 3 0 4 0;
#X connect 3 0 29 0;
#X connect 4 0 5 0;
#X connect 5 0 3 1;
#X connect 6 0 7 0;
#X connect 7 0 27 0;
#X connect 9 0 60 0;
#X connect 10 0 7 1;
#X connect 11 0 7 2;
#X connect 12 0 10 3;
#X connect 12 0 38 1;
#X connect 12 1 11 3;
#X connect 12 1 43 1;
#X connect 12 2 14 3;
#X connect 12 2 39 1;
#X connect 13 0 10 4;
#X connect 13 0 38 0;
#X connect 13 1 11 4;
#X connect 13 1 43 0;
#X connect 13 2 14 4;
#X connect 13 2 39 0;
#X connect 14 0 7 3;
#X connect 15 0 10 0;
#X connect 15 1 11 0;
#X connect 15 2 14 0;
#X connect 16 0 17 0;
#X connect 16 1 18 0;
#X connect 17 0 1 0;
#X connect 18 0 19 0;
#X connect 20 0 21 0;
#X connect 21 0 23 0;
#X connect 21 1 22 0;
#X connect 22 0 60 0;
#X connect 23 0 60 0;
#X connect 24 0 15 0;
#X connect 27 0 30 0;
#X connect 27 1 31 0;
#X connect 27 2 25 0;
#X connect 28 0 26 0;
#X connect 29 0 24 0;
#X connect 29 1 34 0;
#X connect 30 0 50 0;
#X connect 31 0 32 0;
#X connect 32 0 52 0;
#X connect 33 0 24 1;
#X connect 33 0 34 2;
#X connect 34 0 35 0;
#X connect 35 0 28 0;
#X connect 36 0 26 1;
#X connect 37 0 5 1;
#X connect 37 1 33 0;
#X connect 37 2 1 1;
#X connect 38 0 41 0;
#X connect 39 0 40 1;
#X connect 40 0 42 0;
#X connect 41 0 40 0;
#X connect 42 0 44 0;
#X connect 43 0 41 1;
#X connect 44 0 45 0;
#X connect 44 0 47 0;
#X connect 44 0 55 0;
#X connect 44 1 53 0;
#X connect 44 1 54 0;
#X connect 44 1 57 0;
#X connect 45 0 46 0;
#X connect 46 0 50 1;
#X connect 46 1 50 2;
#X connect 46 2 50 3;
#X connect 47 0 48 0;
#X connect 48 0 49 1;
#X connect 48 1 49 2;
#X connect 48 2 49 3;
#X connect 49 0 8 0;
#X connect 50 0 49 0;
#X connect 51 0 36 0;
#X connect 52 0 26 0;
#X connect 52 1 51 0;
#X connect 53 0 46 0;
#X connect 54 0 48 0;
#X connect 55 0 56 0;
#X connect 56 0 32 1;
#X connect 56 1 32 2;
#X connect 56 2 32 3;
#X connect 57 0 56 0;
#X connect 58 0 19 0;
#X connect 59 0 58 0;
#X connect 60 0 12 0;
#X connect 60 0 19 1;
#X connect 60 1 13 0;
#X connect 60 1 19 2;
#X connect 60 2 61 0;
#X connect 60 3 37 0;
#X connect 61 0 34 3;
#X connect 61 1 34 4;
