#N canvas 220 239 565 410 10;
#X obj 63 105 loadbang;
#X obj 24 185 vj_unit;
#X msg 63 153 start -1.5 -1.5 1 \, end -1.5 1.5 1 \, \, num 5 \, range
-2 2;
#X obj 24 82 gemhead 20;
#X obj 24 127 color 1 1 1;
#X obj 62 244 loadbang;
#X obj 23 324 vj_unit;
#X obj 23 221 gemhead 20;
#X obj 23 266 color 1 1 1;
#X msg 62 292 start -3 -3 0 \, end 3 -3 0 \, \, num 11 \, range 0 10
;
#X obj 186 33 cnv 15 100 60 empty empty empty 20 12 0 14 -195568 -66577
0;
#N canvas 0 22 450 300 gemwin 0;
#X obj 132 136 gemwin;
#X obj 67 89 outlet;
#X obj 67 10 inlet;
#X obj 67 41 route create;
#X msg 67 70 set destroy;
#X msg 142 68 set create;
#X msg 249 113 destroy;
#X msg 132 112 reset \, create \, 1;
#X connect 2 0 3 0;
#X connect 3 0 4 0;
#X connect 3 0 7 0;
#X connect 3 1 5 0;
#X connect 3 1 6 0;
#X connect 4 0 1 0;
#X connect 5 0 1 0;
#X connect 6 0 0 0;
#X connect 7 0 0 0;
#X restore 191 72 pd gemwin;
#X msg 191 53 destroy;
#X text 187 32 Create window:;
#X connect 0 0 2 0;
#X connect 2 0 1 1;
#X connect 3 0 4 0;
#X connect 4 0 1 0;
#X connect 5 0 9 0;
#X connect 7 0 8 0;
#X connect 8 0 6 0;
#X connect 9 0 6 1;
#X connect 11 0 12 0;
#X connect 12 0 11 0;
