#N canvas 450 23 1075 739 10;
#X obj 345 556 curve 2;
#X obj 731 430 square;
#X obj 878 133 r mousePos;
#X obj 915 330 tgl 15 0 empty empty empty 17 7 0 10 -262144 -1 -1 0
1;
#X obj 876 354 spigot;
#X obj 888 270 unpack f f;
#X obj 928 375 r mouseLeft;
#X obj 928 397 tgl 15 0 empty empty empty 17 7 0 10 -262144 -1 -1 0
1;
#X obj 876 397 spigot;
#X obj 495 579 translateXYZ -2 3 0;
#X floatatom 735 554 5 0 0 0 - - -, f 5;
#X obj 319 58 ortho;
#X obj 490 185 inlet;
#X obj 74 182 translateXYZ 0 0 0;
#X obj 115 77 unpack f f;
#X obj 239 172 unpack f f;
#X obj 243 302 pack f f 0;
#X obj 424 405 +;
#X obj 391 447 pack f f 0;
#X obj 731 324 k_btn 0 0 1 0.2;
#X obj 200 55 / 1;
#X obj 233 489 * 2;
#X obj 533 491 unpack f f;
#X floatatom 735 602 5 0 0 0 - - -, f 5;
#X obj 735 581 expr abs($f1-$f2)/2;
#X obj 735 647 k_range 0 1 0 1;
#X obj 219 683 loadbang;
#X obj 27 685 loadbang;
#X obj 804 618 unpack f f;
#X msg 273 610 text \$1;
#X obj 319 79 t a a a a;
#X obj 74 156 separator;
#X obj 345 478 separator;
#X obj 495 548 separator;
#X obj 731 301 separator;
#X obj 523 126 loadbang;
#X obj 876 425 moses 0;
#X obj 922 458 moses 1;
#X floatatom 922 484 5 0 0 0 - - -, f 5;
#X obj 319 37 inlet;
#X obj 735 699 outlet;
#X obj 74 246 t a a;
#X obj 152 546 separator;
#X obj 74 273 separator;
#X obj 142 424 loadbang;
#X obj 75 379 translateXYZ 0.1 -0.05 0;
#X obj 108 489 loadbang;
#X obj 75 339 translateXYZ -0.2 0 0;
#X msg -14 470 text \$1;
#X obj -14 440 symbol;
#X obj 74 217 circle 0.03;
#X obj 152 599 circle 0.03;
#X obj 888 206 inlet;
#X obj 74 303 spigot 1;
#X obj 490 219 route pos width color debug range name showname;
#X obj 345 505 GEMglLineWidth 1;
#X obj 731 379 alpha;
#X msg 523 149 width 1 \, pos 0 0;
#X floatatom 833 274 5 0 0 0 - - -, f 5;
#X obj 731 348 color 0 0 0 0.3;
#X obj 152 678 text3d;
#X obj 735 669 expr int($f1*10)/10;
#X obj 495 667 triangle 0.05;
#X obj 75 419 text3d;
#X obj 152 624 spigot 1;
#X obj 731 404 spigot;
#X obj 495 638 rotateXYZ 0 0 -90;
#X msg 833 296 0.2 \$1;
#X obj 878 156 t a a;
#X obj 182 106 -;
#X obj 274 225 -;
#X floatatom 242 254 5 0 0 0 - - -, f 5;
#X obj 152 569 translateXYZ 0 0 0;
#X msg 27 711 text 0 \, justify right base;
#X obj 152 645 translateXYZ -0.1 -0.05 0;
#X msg 108 515 text name \, justify right base;
#X obj 495 609 translateXYZ -0.08 0 0;
#X msg 142 448 2;
#X msg 219 707 2;
#X connect 2 0 68 0;
#X connect 3 0 4 1;
#X connect 4 0 8 0;
#X connect 5 1 4 0;
#X connect 6 0 7 0;
#X connect 7 0 8 1;
#X connect 8 0 36 0;
#X connect 9 0 76 0;
#X connect 10 0 24 0;
#X connect 10 0 9 2;
#X connect 11 0 30 0;
#X connect 12 0 54 0;
#X connect 13 0 50 0;
#X connect 14 0 13 1;
#X connect 14 1 69 0;
#X connect 15 0 71 0;
#X connect 15 1 70 0;
#X connect 16 0 0 1;
#X connect 17 0 37 1;
#X connect 17 0 18 1;
#X connect 18 0 0 2;
#X connect 19 0 59 0;
#X connect 19 1 3 0;
#X connect 20 0 69 1;
#X connect 20 0 70 1;
#X connect 21 0 17 1;
#X connect 21 0 72 2;
#X connect 22 0 9 1;
#X connect 22 1 9 2;
#X connect 23 0 25 0;
#X connect 24 0 23 0;
#X connect 25 0 61 0;
#X connect 26 0 78 0;
#X connect 27 0 73 0;
#X connect 28 0 25 3;
#X connect 28 1 25 4;
#X connect 29 0 60 0;
#X connect 30 0 34 0;
#X connect 30 1 32 0;
#X connect 30 2 33 0;
#X connect 30 3 31 0;
#X connect 31 0 13 0;
#X connect 32 0 55 0;
#X connect 33 0 9 0;
#X connect 34 0 19 0;
#X connect 35 0 57 0;
#X connect 36 1 37 0;
#X connect 37 0 38 0;
#X connect 38 0 10 0;
#X connect 39 0 11 0;
#X connect 41 0 43 0;
#X connect 41 1 42 0;
#X connect 42 0 72 0;
#X connect 43 0 53 0;
#X connect 44 0 77 0;
#X connect 45 0 63 0;
#X connect 46 0 75 0;
#X connect 47 0 45 0;
#X connect 48 0 63 0;
#X connect 49 0 48 0;
#X connect 50 0 41 0;
#X connect 51 0 64 0;
#X connect 52 0 19 1;
#X connect 52 0 5 0;
#X connect 53 0 47 0;
#X connect 54 0 14 0;
#X connect 54 0 15 0;
#X connect 54 0 19 2;
#X connect 54 0 22 0;
#X connect 54 1 20 0;
#X connect 54 1 21 0;
#X connect 54 1 25 2;
#X connect 54 1 58 0;
#X connect 54 3 65 1;
#X connect 54 4 28 0;
#X connect 54 5 49 0;
#X connect 54 6 53 1;
#X connect 54 6 64 1;
#X connect 55 0 0 0;
#X connect 56 0 65 0;
#X connect 57 0 54 0;
#X connect 58 0 67 0;
#X connect 59 0 56 0;
#X connect 61 0 29 0;
#X connect 61 0 40 0;
#X connect 64 0 74 0;
#X connect 65 0 1 0;
#X connect 66 0 62 0;
#X connect 67 0 19 3;
#X connect 68 0 19 1;
#X connect 68 1 5 0;
#X connect 69 0 13 2;
#X connect 69 0 24 1;
#X connect 70 0 16 1;
#X connect 70 0 36 1;
#X connect 70 0 17 0;
#X connect 71 0 16 0;
#X connect 71 0 18 0;
#X connect 72 0 51 0;
#X connect 73 0 60 0;
#X connect 74 0 60 0;
#X connect 75 0 63 0;
#X connect 76 0 66 0;
#X connect 77 0 63 1;
#X connect 78 0 60 1;
