#N canvas 484 264 455 440 12;
#X obj 121 226 translateXYZ;
#X obj 125 18 inlet;
#X obj 125 111 t a b;
#X obj 127 71 repeat 20;
#X obj 125 136 separator;
#X obj 243 26 f;
#X obj 243 51 + 1;
#X obj 243 76 % 20;
#X obj 244 192 expr ($f1/20)*4-2;
#X obj 121 330 colorRGB 1 1 1 0.3;
#X obj 121 372 rectangle 0.25 0.05;
#X obj 362 27 inlet;
#X obj 230 112 t f f;
#X obj 272 151 / 20;
#X obj 281 248 sel 0 1;
#X obj 152 285 unpack f f f f;
#X obj 281 223 < 0.3;
#X msg 283 274 1 1 1 0.2;
#X obj 128 49 alpha;
#X msg 320 311 1 1 1 1;
#X connect 0 0 9 0;
#X connect 1 0 18 0;
#X connect 2 0 4 0;
#X connect 2 1 5 0;
#X connect 3 0 2 0;
#X connect 4 0 0 0;
#X connect 5 0 6 0;
#X connect 6 0 7 0;
#X connect 7 0 5 1;
#X connect 7 0 12 0;
#X connect 8 0 0 2;
#X connect 9 0 10 0;
#X connect 11 0 16 1;
#X connect 12 0 8 0;
#X connect 12 1 13 0;
#X connect 13 0 16 0;
#X connect 14 0 17 0;
#X connect 14 1 19 0;
#X connect 15 0 9 1;
#X connect 15 1 9 2;
#X connect 15 2 9 3;
#X connect 15 3 9 4;
#X connect 16 0 14 0;
#X connect 17 0 15 0;
#X connect 18 0 3 0;
#X connect 19 0 15 0;
