#N canvas 490 165 649 366 10;
#X obj 85 143 gemhead -1;
#X obj 123 32 loadbang;
#X obj 257 267 cnv 15 100 60 empty empty empty 20 12 0 14 -195568 -66577
0;
#N canvas 0 22 450 300 gemwin 0;
#X obj 132 136 gemwin;
#X obj 67 89 outlet;
#X obj 67 10 inlet;
#X obj 67 41 route create;
#X msg 67 70 set destroy;
#X msg 142 68 set create;
#X msg 249 113 destroy;
#X msg 132 112 reset \, create \, 1;
#X connect 2 0 3 0;
#X connect 3 0 4 0;
#X connect 3 0 7 0;
#X connect 3 1 5 0;
#X connect 3 1 6 0;
#X connect 4 0 1 0;
#X connect 5 0 1 0;
#X connect 6 0 0 0;
#X connect 7 0 0 0;
#X restore 262 306 pd gemwin;
#X msg 262 287 destroy;
#X text 258 266 Create window:;
#X obj 239 197 expr ($f1*8)-4;
#X obj 256 167 expr ($f1*-8)+4;
#X obj 239 122 gemmouse 1 1;
#X obj 239 222 pack f f;
#X obj 277 145 s mouseLeft;
#X floatatom 85 231 5 0 0 0 - - -, f 5;
#X obj 85 167 color 0 1 1;
#X msg 123 56 width 1 \, pos 0 0 \, range 0 1000 \, name lala \, showname
1;
#X obj 85 209 vj_vslider;
#X connect 0 0 12 0;
#X connect 1 0 13 0;
#X connect 3 0 4 0;
#X connect 4 0 3 0;
#X connect 6 0 9 0;
#X connect 7 0 9 1;
#X connect 8 0 6 0;
#X connect 8 1 7 0;
#X connect 8 2 10 0;
#X connect 9 0 14 2;
#X connect 12 0 14 0;
#X connect 13 0 14 1;
#X connect 14 0 11 0;
