#N canvas 541 23 915 780 10;
#X floatatom 396 128 5 0 0 0 - - -;
#X obj 544 9 r vj-vol;
#X floatatom 545 72 5 0 0 0 - - -;
#X obj 106 117 hsl 100 15 0 1 0 0 empty empty Alpha 5 7 0 10 -258113
-1 -1 9900 1;
#X obj 104 179 sel 0;
#X msg 104 231 0;
#X msg 135 207 1;
#X obj 135 232 f;
#X obj 13 -15 loadbang;
#X msg 13 11 0;
#X floatatom 563 276 5 0 0 0 - - -;
#X obj 563 230 f;
#X obj 590 230 + 1;
#X obj 563 186 tgl 15 0 empty empty empty 17 7 0 10 -262144 -1 -1 1
1;
#X obj 316 359 separator;
#X obj 425 404 separator;
#X obj 563 254 / 10;
#X floatatom 421 362 5 0 0 0 - - -;
#X msg 546 97 \$1 500;
#X obj 546 121 line;
#X obj 563 158 loadbang;
#X obj 619 229 expr fmod($f1 \, 3600);
#X obj 620 206 * 12;
#X obj -90 472 part_source 5;
#X obj -90 526 part_info;
#X obj -90 700 scale;
#X obj -90 337 part_size 0.05;
#X obj 75 265 f;
#X obj 102 265 + 1;
#X obj 75 316 expr ($f1*3.1415926)*2;
#X obj 138 384 sin;
#X obj 176 386 cos;
#X obj 138 359 t f f;
#X obj 138 444 pack 0 0 0;
#X obj -155 150 loadbang;
#X obj 132 265 % 100;
#X obj 75 289 / 100;
#X msg -155 177 speed 0.05;
#X obj -90 497 part_killold 30;
#X obj -3 302 + 0.01;
#X obj 176 412 * -11;
#X obj 138 414 * 11;
#X msg 184 178 \$1 1000;
#X obj 184 204 line;
#X obj -90 314 part_head 300;
#X obj 316 315 rotateXYZ 90 0 0;
#X obj -85 148 separator;
#X obj -86 182 t a b b;
#X obj 396 172 line;
#X obj 316 260 translateXYZ 0 0 0;
#X obj 316 287 translateXYZ 11 0 3.8;
#X obj 396 -1 r vj-pitch-1;
#X obj -90 565 separator;
#N canvas 0 22 450 300 pos 0;
#X obj 35 102 unpack f f f;
#X obj 0 145 translateXYZ 0 0 0;
#X obj 1 51 inlet;
#X obj -4 235 outlet;
#X obj 48 59 inlet;
#X connect 0 0 1 1;
#X connect 0 1 1 2;
#X connect 0 2 1 3;
#X connect 1 0 3 0;
#X connect 2 0 1 0;
#X connect 4 0 0 0;
#X restore -90 594 pd pos;
#X obj 1 207 randomF 0.2;
#N canvas 902 288 450 300 color========= 0;
#X obj 137 61 inlet;
#X obj 125 280 outlet;
#X obj 141 251 alpha;
#X obj 187 255 tgl 15 0 empty empty empty 17 7 0 10 -262144 -1 -1 1
1;
#X obj 209 216 loadbang;
#X msg 52 225 auto 1;
#X connect 0 0 2 0;
#X connect 2 0 1 0;
#X connect 3 0 2 1;
#X connect 4 0 3 0;
#X connect 4 0 5 0;
#X connect 5 0 2 0;
#X restore -90 625 pd color=========;
#N canvas 0 22 450 300 rotate========= 0;
#X obj 6 167 rotateXYZ;
#X obj 52 110 unpack 0 0 0;
#X obj 52 135 * 360;
#X obj 90 136 * 360;
#X obj 129 136 * 360;
#X obj 2 58 inlet;
#X obj 11 224 outlet;
#X obj 53 68 inlet;
#X connect 0 0 6 0;
#X connect 1 0 2 0;
#X connect 1 1 3 0;
#X connect 1 2 4 0;
#X connect 2 0 0 1;
#X connect 3 0 0 2;
#X connect 4 0 0 3;
#X connect 5 0 0 0;
#X connect 7 0 1 0;
#X restore -90 726 pd rotate=========;
#X obj -90 438 part_velocity sphere 0.1 0.1 0.1 0.5;
#X obj 316 206 gemhead 1;
#X obj 396 75 split 0.5 1;
#X obj 396 100 k_range 0.5 1 -360 360;
#X msg 396 148 \$1 3000;
#X obj 191 257 s fog-tgl;
#X obj 262 153 hsl 100 15 0.5 1 0 0 empty empty Rotate 5 7 0 10 -262144
-1 -1 3216 1;
#X obj 563 207 metro 20;
#X obj 262 129 hsl 100 15 0.1 1 0 0 empty empty Speed 5 7 0 10 -262144
-1 -1 5944 1;
#X obj 272 92 tgl 15 0 empty empty R 5 7 0 10 -262144 -1 -1 1 1;
#X obj 152 16 metro 2000;
#X obj 76 67 + 0.5;
#X obj 76 17 metro 3000;
#X obj 152 44 randomF 0.3;
#X obj 152 67 + 0.5;
#X floatatom 371 527 5 0 0 0 - - -;
#X obj 76 45 randomF 0.3;
#X obj 242 393 loadbang;
#X msg 241 420 auto 1;
#X obj -71 -6 r midi-2;
#X obj 545 47 spigot;
#X obj 591 47 invert;
#X obj 271 64 change;
#X obj 77 591 s toudp;
#X obj 77 564 packOSC;
#X floatatom 77 502 5 0 0 0 - - -;
#X msg 77 523 send /gh /7 \$1;
#X text 294 88 RANDOM TGL;
#X obj -65 40 r touchosc;
#X obj -65 64 routeOSC /vj;
#X floatatom -65 110 5 0 0 0 - - -;
#X obj -65 88 route /2;
#X obj 80 627 facing;
#X obj 80 677 scale 1;
#X obj 259 596 getdir 2;
#X msg 259 668 open \$1;
#X obj 259 573 t b b;
#X obj 259 644 makesymbol %s/img/dot.png;
#X obj 259 548 loadbang;
#X obj 259 527 bng 15 250 50 0 empty empty empty 17 7 0 10 -262144
-1 -1;
#X obj 250 183 * 1;
#X msg -62 376 1 1 1;
#X msg -10 376 1 1 1;
#X obj -90 402 part_color;
#X obj 523 386 pix_texture;
#X obj 425 506 torus 11 50 2.6;
#X obj 609 419 separator;
#X floatatom 508 481 5 0 0 0 - - -;
#X obj 610 505 pix_texture;
#X obj 610 456 pix_image grid/a10.png;
#X obj 420 337 * 0.3;
#X obj 425 452 colorRGB 1 1 1 1;
#X obj 512 571 colorRGB 1 1 1 1;
#X obj 523 337 pix_image grid/a11.jpg;
#X obj 512 600 alpha 1;
#X obj 425 481 alpha 1;
#X obj 512 625 torus 11 50 2.65;
#X obj 80 742 square 0.1;
#X obj -90 245 pix_image grid/dot.png;
#X obj -90 273 pix_texture;
#X obj 82 707 colorRGB 1 1 1 1;
#X obj 165 664 t a b;
#X obj 195 728 + 0.3;
#X obj 190 696 randomF 0.7;
#X obj 259 726 *;
#X obj 316 231 rotateXYZ 0 0 360;
#X obj 151 619 expr ($f1*0.5);
#X msg 473 537 auto 1;
#X obj 316 443 GEMglPointSize 1;
#X msg 242 329 draw line;
#X obj 316 479 torus 11 80 2.55;
#X obj 316 417 alpha 1;
#X obj 316 389 colorRGB 0.1 0.2 0.7 0.4;
#X connect 0 0 61 0;
#X connect 1 0 77 0;
#X connect 2 0 18 0;
#X connect 3 0 4 0;
#X connect 3 0 82 0;
#X connect 3 0 121 1;
#X connect 4 0 5 0;
#X connect 4 1 6 0;
#X connect 4 1 97 0;
#X connect 5 0 7 0;
#X connect 6 0 7 0;
#X connect 7 0 58 0;
#X connect 7 0 62 0;
#X connect 7 0 79 0;
#X connect 8 0 9 0;
#X connect 9 0 3 0;
#X connect 10 0 45 3;
#X connect 11 0 12 0;
#X connect 11 0 16 0;
#X connect 12 0 21 0;
#X connect 13 0 64 0;
#X connect 14 0 129 0;
#X connect 15 0 110 0;
#X connect 16 0 10 0;
#X connect 17 0 129 4;
#X connect 18 0 19 0;
#X connect 19 0 22 0;
#X connect 20 0 13 0;
#X connect 20 0 126 0;
#X connect 21 0 11 1;
#X connect 22 0 12 1;
#X connect 23 0 38 0;
#X connect 24 0 52 0;
#X connect 24 2 53 1;
#X connect 24 4 56 1;
#X connect 24 5 25 1;
#X connect 25 0 56 0;
#X connect 26 0 100 0;
#X connect 27 0 28 0;
#X connect 27 0 36 0;
#X connect 28 0 35 0;
#X connect 29 0 32 0;
#X connect 30 0 41 0;
#X connect 31 0 40 0;
#X connect 32 0 30 0;
#X connect 32 1 31 0;
#X connect 33 0 23 3;
#X connect 34 0 37 0;
#X connect 35 0 27 1;
#X connect 36 0 29 0;
#X connect 37 0 44 0;
#X connect 38 0 24 0;
#X connect 39 0 26 1;
#X connect 40 0 33 1;
#X connect 41 0 33 0;
#X connect 42 0 43 0;
#X connect 43 0 107 0;
#X connect 43 0 104 0;
#X connect 44 0 26 0;
#X connect 45 0 15 0;
#X connect 45 0 46 0;
#X connect 45 0 103 0;
#X connect 46 0 47 0;
#X connect 47 0 115 0;
#X connect 47 1 27 0;
#X connect 47 2 54 0;
#X connect 48 0 122 3;
#X connect 49 0 50 0;
#X connect 50 0 45 0;
#X connect 51 0 59 0;
#X connect 52 0 53 0;
#X connect 53 0 55 0;
#X connect 54 0 39 0;
#X connect 55 0 25 0;
#X connect 56 0 89 0;
#X connect 57 0 23 0;
#X connect 58 0 122 0;
#X connect 59 0 123 0;
#X connect 60 0 0 0;
#X connect 61 0 48 0;
#X connect 63 0 60 0;
#X connect 64 0 11 0;
#X connect 65 0 18 0;
#X connect 66 0 67 0;
#X connect 66 0 69 0;
#X connect 66 0 78 0;
#X connect 67 0 70 0;
#X connect 68 0 63 0;
#X connect 69 0 73 0;
#X connect 70 0 71 0;
#X connect 71 0 65 0;
#X connect 72 0 102 1;
#X connect 72 0 127 1;
#X connect 73 0 68 0;
#X connect 74 0 75 0;
#X connect 75 0 112 0;
#X connect 75 0 111 0;
#X connect 75 0 128 0;
#X connect 76 0 3 0;
#X connect 77 0 2 0;
#X connect 78 0 77 1;
#X connect 79 0 66 0;
#X connect 81 0 80 0;
#X connect 82 0 83 0;
#X connect 83 0 81 0;
#X connect 85 0 86 0;
#X connect 86 0 88 0;
#X connect 87 0 3 0;
#X connect 88 0 87 0;
#X connect 89 0 90 0;
#X connect 90 0 118 0;
#X connect 91 0 94 0;
#X connect 93 0 91 0;
#X connect 94 0 92 0;
#X connect 95 0 93 0;
#X connect 96 0 95 0;
#X connect 97 0 42 0;
#X connect 98 0 100 1;
#X connect 99 0 100 2;
#X connect 100 0 57 0;
#X connect 101 0 108 0;
#X connect 103 0 106 0;
#X connect 104 0 108 4;
#X connect 104 0 109 4;
#X connect 105 0 109 0;
#X connect 106 0 105 0;
#X connect 107 0 17 0;
#X connect 108 0 112 0;
#X connect 109 0 111 0;
#X connect 110 0 101 0;
#X connect 111 0 113 0;
#X connect 112 0 102 0;
#X connect 115 0 116 0;
#X connect 116 0 44 0;
#X connect 117 0 114 0;
#X connect 118 0 117 0;
#X connect 118 1 120 0;
#X connect 119 0 121 0;
#X connect 120 0 119 0;
#X connect 121 0 117 4;
#X connect 122 0 49 0;
#X connect 123 0 90 1;
#X connect 124 0 112 0;
#X connect 125 0 127 0;
#X connect 126 0 127 0;
#X connect 128 0 125 0;
#X connect 129 0 128 0;
#X coords 0 -1 1 1 110 35 1 100 100;
