#N canvas 303 23 931 777 10;
#X floatatom 396 128 5 0 0 0 - - -;
#X obj 545 18 r vj-vol;
#X floatatom 545 72 5 0 0 0 - - -;
#X obj 106 117 hsl 100 15 0 1 0 0 empty empty Alpha 5 7 0 10 -258113
-1 -1 9900 1;
#X obj 198 -24 sel 0;
#X msg 162 33 0;
#X msg 193 9 1;
#X obj 193 34 f;
#X obj 13 -15 loadbang;
#X msg 13 11 0;
#X floatatom 473 285 5 0 0 0 - - -;
#X obj 473 239 f;
#X obj 500 239 + 1;
#X obj 473 195 tgl 15 0 empty empty empty 17 7 0 10 -262144 -1 -1 1
1;
#X obj 316 394 separator;
#X obj 473 263 / 10;
#X msg 546 97 \$1 500;
#X obj 546 121 line;
#X obj 473 167 loadbang;
#X obj 529 238 expr fmod($f1 \, 3600);
#X obj 530 215 * 12;
#X obj -90 472 part_source 5;
#X obj -90 526 part_info;
#X obj -90 700 scale;
#X obj -90 337 part_size 0.05;
#X obj 75 265 f;
#X obj 102 265 + 1;
#X obj 75 316 expr ($f1*3.1415926)*2;
#X obj 138 384 sin;
#X obj 176 386 cos;
#X obj 138 359 t f f;
#X obj 138 444 pack 0 0 0;
#X obj -155 150 loadbang;
#X obj 132 265 % 100;
#X obj 75 289 / 100;
#X msg -155 177 speed 0.05;
#X obj -90 497 part_killold 30;
#X obj -3 302 + 0.01;
#X obj 176 412 * -11;
#X obj 138 414 * 11;
#X msg 184 178 \$1 1000;
#X obj 184 204 line;
#X obj -90 314 part_head 300;
#X obj -90 188 separator;
#X obj -90 216 t a b b;
#X obj 396 172 line;
#X obj 316 260 translateXYZ 0 0 0;
#X obj 316 287 translateXYZ 11 0 3.8;
#X obj 130 552 r vj-pitch-1;
#X obj -90 565 separator;
#N canvas 0 22 450 300 pos 0;
#X obj 35 102 unpack f f f;
#X obj 0 145 translateXYZ 0 0 0;
#X obj 1 51 inlet;
#X obj -4 235 outlet;
#X obj 48 59 inlet;
#X connect 0 0 1 1;
#X connect 0 1 1 2;
#X connect 0 2 1 3;
#X connect 1 0 3 0;
#X connect 2 0 1 0;
#X connect 4 0 0 0;
#X restore -90 594 pd pos;
#N canvas 902 288 450 300 color========= 0;
#X obj 137 61 inlet;
#X obj 125 280 outlet;
#X obj 52 199 loadbang;
#X msg 52 225 auto 1;
#X obj 141 251 alpha 1;
#X connect 0 0 4 0;
#X connect 2 0 3 0;
#X connect 3 0 4 0;
#X connect 4 0 1 0;
#X restore -90 625 pd color=========;
#N canvas 0 22 450 300 rotate========= 0;
#X obj 6 167 rotateXYZ;
#X obj 52 110 unpack 0 0 0;
#X obj 52 135 * 360;
#X obj 90 136 * 360;
#X obj 129 136 * 360;
#X obj 2 58 inlet;
#X obj 11 224 outlet;
#X obj 53 68 inlet;
#X connect 0 0 6 0;
#X connect 1 0 2 0;
#X connect 1 1 3 0;
#X connect 1 2 4 0;
#X connect 2 0 0 1;
#X connect 3 0 0 2;
#X connect 4 0 0 3;
#X connect 5 0 0 0;
#X connect 7 0 1 0;
#X restore -90 726 pd rotate=========;
#X obj -90 438 part_velocity sphere 0.1 0.1 0.1 0.5;
#X obj 316 206 gemhead 1;
#X obj 130 580 split 0.5 1;
#X msg 396 148 \$1 3000;
#X obj 194 59 s fog-tgl;
#X obj 399 77 hsl 100 15 0.5 1 0 0 empty empty Rotate 5 7 0 10 -262144
-1 -1 3090 1;
#X obj 473 216 metro 20;
#X obj 388 538 loadbang;
#X msg 387 565 auto 1;
#X obj -71 -6 r midi-2;
#X obj 77 573 s toudp;
#X obj 77 546 packOSC;
#X floatatom 77 502 5 0 0 0 - - -;
#X msg 77 523 send /gh /7 \$1;
#X text 294 88 RANDOM TGL;
#X obj -65 40 r touchosc;
#X obj -65 64 routeOSC /vj;
#X floatatom -65 110 5 0 0 0 - - -;
#X obj -65 88 route /2;
#X obj 80 627 facing;
#X obj 80 650 scale 1;
#X obj 250 183 * 1;
#X obj -90 402 part_color;
#X obj 484 428 separator;
#X obj 248 596 colorRGB 1 1 1 1;
#X obj 408 604 colorRGB 1 1 1 1;
#X obj 408 633 alpha 1;
#X obj 248 625 alpha 1;
#X obj -90 245 pix_image grid/dot.png;
#X obj -90 273 pix_texture;
#X obj 80 695 colorRGB 1 1 1 1;
#X obj 80 673 t a b;
#X obj 173 675 *;
#X obj 316 231 rotateXYZ 0 0 360;
#X obj 130 601 expr ($f1*0.5);
#X obj 316 372 rotateXYZ 90 0 0;
#X obj 484 406 rotateXYZ 90 0 0;
#X obj 316 348 separator;
#X obj 484 373 separator;
#X floatatom 562 364 5 0 0 0 - - -;
#X obj 562 318 f;
#X obj 562 342 / 10;
#X obj 630 317 expr fmod($f1 \, 3600);
#X obj 562 295 metro 20;
#X obj 589 318 + 0.5;
#X obj 484 479 pix_texture;
#X obj 316 444 pix_texture;
#X obj 173 650 + 0.7;
#X obj 173 626 randomF 0.3;
#X obj 484 502 t a b;
#X obj 509 582 *;
#X obj 484 452 pix_image data/space_3.png;
#X obj 316 477 t a b;
#X obj 341 557 *;
#X obj 341 509 randomF 0.1;
#X obj 341 533 + 0.9;
#X obj 316 417 pix_image data/b4.png;
#X obj 509 534 randomF 0.3;
#X obj 509 558 + 0.7;
#X msg -62 376 1 0 0;
#X msg -10 376 0 0 1;
#X obj 316 317 t a a;
#X obj 616 269 * 5;
#X obj 80 719 square 0.3;
#X obj -3 278 randomF 0.4;
#X obj 396 21 r vj-pitch-1;
#X floatatom 396 48 5 0 0 0 - - -;
#X obj 396 100 k_range 0.5 1 0 90;
#X obj 248 650 torus 11 50 2.2;
#X obj 408 658 torus 10.8 50 2.22;
#X connect 0 0 56 0;
#X connect 1 0 2 0;
#X connect 2 0 16 0;
#X connect 3 0 4 0;
#X connect 3 0 65 0;
#X connect 3 0 85 1;
#X connect 3 0 103 1;
#X connect 3 0 106 1;
#X connect 4 0 5 0;
#X connect 4 1 6 0;
#X connect 4 1 74 0;
#X connect 5 0 7 0;
#X connect 6 0 7 0;
#X connect 7 0 54 0;
#X connect 7 0 57 0;
#X connect 8 0 9 0;
#X connect 9 0 3 0;
#X connect 10 0 88 3;
#X connect 11 0 12 0;
#X connect 11 0 15 0;
#X connect 12 0 19 0;
#X connect 13 0 59 0;
#X connect 13 0 96 0;
#X connect 14 0 109 0;
#X connect 15 0 10 0;
#X connect 16 0 17 0;
#X connect 17 0 20 0;
#X connect 17 0 115 0;
#X connect 18 0 13 0;
#X connect 19 0 11 1;
#X connect 20 0 12 1;
#X connect 21 0 36 0;
#X connect 22 0 49 0;
#X connect 22 2 50 1;
#X connect 22 4 52 1;
#X connect 22 5 23 1;
#X connect 23 0 52 0;
#X connect 24 0 75 0;
#X connect 25 0 26 0;
#X connect 25 0 34 0;
#X connect 26 0 33 0;
#X connect 27 0 30 0;
#X connect 28 0 39 0;
#X connect 29 0 38 0;
#X connect 30 0 28 0;
#X connect 30 1 29 0;
#X connect 31 0 21 3;
#X connect 32 0 35 0;
#X connect 33 0 25 1;
#X connect 34 0 27 0;
#X connect 35 0 42 0;
#X connect 36 0 22 0;
#X connect 37 0 24 1;
#X connect 38 0 31 1;
#X connect 39 0 31 0;
#X connect 40 0 41 0;
#X connect 42 0 24 0;
#X connect 43 0 44 0;
#X connect 44 0 81 0;
#X connect 44 1 25 0;
#X connect 44 2 117 0;
#X connect 45 0 86 3;
#X connect 46 0 47 0;
#X connect 47 0 114 0;
#X connect 48 0 55 0;
#X connect 49 0 50 0;
#X connect 50 0 51 0;
#X connect 51 0 23 0;
#X connect 52 0 72 0;
#X connect 53 0 21 0;
#X connect 54 0 86 0;
#X connect 55 0 87 0;
#X connect 56 0 45 0;
#X connect 58 0 120 0;
#X connect 59 0 11 0;
#X connect 60 0 61 0;
#X connect 61 0 80 0;
#X connect 61 0 79 0;
#X connect 62 0 3 0;
#X connect 64 0 63 0;
#X connect 65 0 66 0;
#X connect 66 0 64 0;
#X connect 68 0 69 0;
#X connect 69 0 71 0;
#X connect 70 0 3 0;
#X connect 71 0 70 0;
#X connect 72 0 73 0;
#X connect 73 0 84 0;
#X connect 74 0 40 0;
#X connect 75 0 53 0;
#X connect 76 0 104 0;
#X connect 77 0 80 0;
#X connect 78 0 79 0;
#X connect 79 0 122 0;
#X connect 80 0 121 0;
#X connect 81 0 82 0;
#X connect 82 0 42 0;
#X connect 83 0 116 0;
#X connect 84 0 83 0;
#X connect 84 1 101 0;
#X connect 85 0 83 4;
#X connect 86 0 46 0;
#X connect 87 0 73 1;
#X connect 88 0 43 0;
#X connect 88 0 14 0;
#X connect 89 0 76 0;
#X connect 90 0 88 0;
#X connect 91 0 89 0;
#X connect 92 0 89 3;
#X connect 93 0 94 0;
#X connect 93 0 97 0;
#X connect 94 0 92 0;
#X connect 95 0 93 1;
#X connect 96 0 93 0;
#X connect 97 0 95 0;
#X connect 98 0 102 0;
#X connect 99 0 105 0;
#X connect 100 0 85 0;
#X connect 101 0 100 0;
#X connect 102 0 78 0;
#X connect 102 1 110 0;
#X connect 103 0 78 4;
#X connect 104 0 98 0;
#X connect 105 0 77 0;
#X connect 105 1 107 0;
#X connect 106 0 77 4;
#X connect 107 0 108 0;
#X connect 108 0 106 0;
#X connect 109 0 99 0;
#X connect 110 0 111 0;
#X connect 111 0 103 0;
#X connect 112 0 75 1;
#X connect 113 0 75 2;
#X connect 114 0 90 0;
#X connect 114 1 91 0;
#X connect 115 0 97 1;
#X connect 117 0 37 0;
#X connect 118 0 119 0;
#X connect 119 0 58 0;
#X connect 120 0 0 0;
#X coords 0 -1 1 1 110 35 1 100 100;
