#N canvas 355 23 1132 889 10;
#X floatatom 396 128 5 0 0 0 - - -;
#X obj 545 18 r vj-vol;
#X floatatom 545 72 5 0 0 0 - - -;
#X obj 105 117 hsl 85 15 0 1 0 0 empty empty Alpha 5 7 0 10 -258113
-1 -1 8400 1;
#X obj 198 -24 sel 0;
#X msg 162 33 0;
#X msg 193 9 1;
#X obj 193 34 f;
#X obj 13 -15 loadbang;
#X msg 13 11 0;
#X floatatom 473 285 5 0 0 0 - - -;
#X obj 473 239 f;
#X obj 500 239 + 1;
#X obj 473 195 tgl 15 0 empty empty empty 17 7 0 10 -262144 -1 -1 1
1;
#X obj 316 394 separator;
#X obj 473 263 / 10;
#X msg 546 97 \$1 500;
#X obj 546 121 line;
#X obj 473 167 loadbang;
#X obj 529 238 expr fmod($f1 \, 3600);
#X obj -90 526 part_info;
#X obj -90 700 scale;
#X obj -90 337 part_size 0.05;
#X obj 75 265 f;
#X obj 102 265 + 1;
#X obj 75 316 expr ($f1*3.1415926)*2;
#X obj 138 384 sin;
#X obj 190 386 cos;
#X obj 138 359 t f f;
#X obj 138 444 pack 0 0 0;
#X obj -155 150 loadbang;
#X obj 132 265 % 100;
#X obj 75 289 / 100;
#X obj -90 497 part_killold 30;
#X obj -3 302 + 0.01;
#X msg 184 178 \$1 1000;
#X obj 184 204 line;
#X obj -90 188 separator;
#X obj -90 216 t a b b;
#X obj 396 172 line;
#X obj 316 260 translateXYZ 0 0 0;
#X obj 130 552 r vj-pitch-1;
#X obj -90 565 separator;
#N canvas 0 22 450 300 pos 0;
#X obj 35 102 unpack f f f;
#X obj 0 145 translateXYZ 0 0 0;
#X obj 1 51 inlet;
#X obj -4 235 outlet;
#X obj 48 59 inlet;
#X connect 0 0 1 1;
#X connect 0 1 1 2;
#X connect 0 2 1 3;
#X connect 1 0 3 0;
#X connect 2 0 1 0;
#X connect 4 0 0 0;
#X restore -90 594 pd pos;
#N canvas 902 288 450 300 color========= 0;
#X obj 137 61 inlet;
#X obj 125 280 outlet;
#X obj 52 199 loadbang;
#X msg 52 225 auto 1;
#X obj 141 251 alpha 1;
#X connect 0 0 4 0;
#X connect 2 0 3 0;
#X connect 3 0 4 0;
#X connect 4 0 1 0;
#X restore -90 625 pd color=========;
#N canvas 0 22 450 300 rotate========= 0;
#X obj 6 167 rotateXYZ;
#X obj 52 110 unpack 0 0 0;
#X obj 52 135 * 360;
#X obj 90 136 * 360;
#X obj 129 136 * 360;
#X obj 2 58 inlet;
#X obj 11 224 outlet;
#X obj 53 68 inlet;
#X connect 0 0 6 0;
#X connect 1 0 2 0;
#X connect 1 1 3 0;
#X connect 1 2 4 0;
#X connect 2 0 0 1;
#X connect 3 0 0 2;
#X connect 4 0 0 3;
#X connect 5 0 0 0;
#X connect 7 0 1 0;
#X restore -90 726 pd rotate=========;
#X obj 316 206 gemhead 1;
#X obj 130 580 split 0.5 1;
#X obj 194 59 s fog-tgl;
#X obj 399 77 hsl 100 15 0.5 1 0 0 empty empty Rotate 5 7 0 10 -262144
-1 -1 3566 1;
#X obj 473 216 metro 20;
#X obj 406 570 loadbang;
#X msg 405 597 auto 1;
#X obj -71 -6 r midi-2;
#X obj 77 573 s toudp;
#X obj 77 546 packOSC;
#X floatatom 77 502 5 0 0 0 - - -;
#X msg 77 523 send /gh /7 \$1;
#X text 294 88 RANDOM TGL;
#X obj -65 40 r touchosc;
#X obj -65 64 routeOSC /vj;
#X floatatom -65 110 5 0 0 0 - - -;
#X obj 80 627 facing;
#X obj 80 650 scale 1;
#X obj 250 183 * 1;
#X obj -90 402 part_color;
#X obj 484 398 separator;
#X obj 426 665 alpha 1;
#X obj -90 245 pix_image grid/dot.png;
#X obj -90 273 pix_texture;
#X obj 80 695 colorRGB 1 1 1 1;
#X obj 80 673 t a b;
#X obj 173 675 *;
#X obj 316 231 rotateXYZ 0 0 360;
#X obj 130 601 expr ($f1*0.5);
#X obj 484 376 rotateXYZ 90 0 0;
#X obj 316 348 separator;
#X obj 484 343 separator;
#X floatatom 562 364 5 0 0 0 - - -;
#X obj 562 318 f;
#X obj 562 342 / 10;
#X obj 630 317 expr fmod($f1 \, 3600);
#X obj 562 295 metro 20;
#X obj 589 318 + 0.5;
#X obj 484 479 pix_texture;
#X obj 318 471 pix_texture;
#X obj 173 650 + 0.7;
#X obj 173 626 randomF 0.3;
#X obj 484 502 t a b;
#X obj 509 582 *;
#X obj 318 504 t a b;
#X obj 364 555 *;
#X obj 364 507 randomF 0.1;
#X obj 364 531 + 0.9;
#X obj 509 534 randomF 0.3;
#X obj 509 558 + 0.7;
#X msg -62 376 1 0 0;
#X msg -10 376 0 0 1;
#X obj 316 317 t a a;
#X obj -3 278 randomF 0.4;
#X obj 397 -42 r vj-pitch-1;
#X floatatom 396 48 5 0 0 0 - - -;
#X obj 54 -184 r hid;
#X obj 54 -162 t a a a;
#X obj 129 -94 route key_145;
#X obj 54 -84 spigot;
#X obj 194 117 tgl 15 0 empty empty empty 17 7 0 10 -262144 -1 -1 0
1;
#X obj 54 -35 sel 1;
#X obj 117 0 line;
#X msg 117 -23 \$1 20000;
#X obj 54 -60 route key_31;
#X obj 54 220 s totouch;
#X obj 54 193 packOSC;
#X msg 23 144 send /vj/2 \$1;
#X msg 54 168 send /vj/t2 \$1;
#X obj -65 88 route /2 /t2;
#X obj 318 444 pix_flip;
#X obj 250 683 scale 10;
#X obj 316 371 rotateXYZ 90 0 0;
#X floatatom 405 314 5 0 0 0 - - -;
#X obj 250 652 alpha 1;
#X obj 484 451 pix_flip;
#X floatatom 434 249 5 0 0 0 - - -;
#X obj 316 287 translateXYZ 7.76 0 0;
#X msg -155 177 speed 0.1;
#X obj -90 471 part_source 5;
#X obj 138 414 * 9;
#X obj 191 412 * -9;
#X obj -90 314 part_head 100;
#X obj -91 437 part_velocity sphere 0 0 0 0.15;
#X obj 80 719 square 0.15;
#X obj 318 418 pix_image data/grid25.png;
#X obj 530 215 * 6;
#X obj 730 430 GEMglPolygonMode;
#X obj 776 325 loadbang;
#X obj 730 705 GEMglPolygonMode;
#X obj 776 602 loadbang;
#X obj 776 622 bng 15 250 50 0 empty empty empty 17 7 0 10 -262144
-1 -1;
#X obj 776 348 bng 15 250 50 0 empty empty empty 17 7 0 10 -262144
-1 -1;
#X obj 823 670 GLdefine GL_FILL;
#X obj 823 395 GLdefine GL_LINE;
#X floatatom 414 204 5 0 0 0 - - -;
#X msg 396 148 \$1 1000;
#X obj 396 9 k_speed 1000;
#X obj 776 373 GLdefine GL_FRONT_AND_BACK;
#X obj 484 422 pix_image data/grid25dot.png;
#X obj 425 690 scale 9.5;
#X obj 426 636 colorRGB 1 1 1 1;
#X obj 250 708 model data/tunnel_2.obj;
#X obj 425 714 model data/tunnel.obj;
#X obj 249 623 colorRGB 0.15 0.15 0.15 0.1;
#X obj 616 269 * 10;
#X obj 396 100 k_range 0.5 1 90 180;
#X obj 776 648 GLdefine GL_FRONT_AND_BACK;
#X connect 0 0 142 0;
#X connect 1 0 2 0;
#X connect 2 0 16 0;
#X connect 3 0 4 0;
#X connect 3 0 56 0;
#X connect 3 0 72 1;
#X connect 3 0 89 1;
#X connect 3 0 91 1;
#X connect 3 0 113 0;
#X connect 4 0 5 0;
#X connect 4 1 6 0;
#X connect 4 1 64 0;
#X connect 5 0 7 0;
#X connect 6 0 7 0;
#X connect 7 0 46 0;
#X connect 7 0 48 0;
#X connect 8 0 9 0;
#X connect 9 0 3 0;
#X connect 10 0 118 3;
#X connect 11 0 12 0;
#X connect 11 0 15 0;
#X connect 12 0 19 0;
#X connect 13 0 50 0;
#X connect 13 0 82 0;
#X connect 14 0 133 0;
#X connect 15 0 10 0;
#X connect 16 0 17 0;
#X connect 17 0 132 0;
#X connect 17 0 151 0;
#X connect 18 0 13 0;
#X connect 19 0 11 1;
#X connect 20 0 42 0;
#X connect 20 2 43 1;
#X connect 20 4 45 1;
#X connect 20 5 21 1;
#X connect 21 0 45 0;
#X connect 22 0 65 0;
#X connect 23 0 24 0;
#X connect 23 0 32 0;
#X connect 24 0 31 0;
#X connect 25 0 28 0;
#X connect 26 0 126 0;
#X connect 27 0 127 0;
#X connect 28 0 26 0;
#X connect 28 1 27 0;
#X connect 29 0 125 3;
#X connect 30 0 124 0;
#X connect 31 0 23 1;
#X connect 32 0 25 0;
#X connect 33 0 20 0;
#X connect 34 0 22 1;
#X connect 35 0 36 0;
#X connect 37 0 38 0;
#X connect 38 0 68 0;
#X connect 38 1 23 0;
#X connect 38 2 99 0;
#X connect 39 0 141 0;
#X connect 40 0 123 0;
#X connect 41 0 47 0;
#X connect 42 0 43 0;
#X connect 43 0 44 0;
#X connect 44 0 21 0;
#X connect 45 0 62 0;
#X connect 46 0 73 0;
#X connect 47 0 74 0;
#X connect 49 0 152 0;
#X connect 50 0 11 0;
#X connect 51 0 52 0;
#X connect 52 0 67 0;
#X connect 52 0 120 0;
#X connect 53 0 3 0;
#X connect 55 0 54 0;
#X connect 56 0 57 0;
#X connect 57 0 55 0;
#X connect 59 0 60 0;
#X connect 60 0 115 0;
#X connect 61 0 3 0;
#X connect 62 0 63 0;
#X connect 63 0 71 0;
#X connect 64 0 35 0;
#X connect 65 0 129 0;
#X connect 66 0 145 0;
#X connect 67 0 146 0;
#X connect 68 0 69 0;
#X connect 69 0 128 0;
#X connect 70 0 130 0;
#X connect 71 0 70 0;
#X connect 71 1 87 0;
#X connect 72 0 70 4;
#X connect 73 0 40 0;
#X connect 74 0 63 1;
#X connect 75 0 66 0;
#X connect 76 0 118 0;
#X connect 77 0 75 0;
#X connect 78 0 75 3;
#X connect 79 0 80 0;
#X connect 79 0 83 0;
#X connect 80 0 78 0;
#X connect 81 0 79 1;
#X connect 82 0 79 0;
#X connect 83 0 81 0;
#X connect 84 0 88 0;
#X connect 86 0 72 0;
#X connect 87 0 86 0;
#X connect 88 0 147 0;
#X connect 88 1 94 0;
#X connect 89 0 147 4;
#X connect 90 0 150 0;
#X connect 90 1 92 0;
#X connect 91 0 150 4;
#X connect 92 0 93 0;
#X connect 93 0 91 0;
#X connect 94 0 95 0;
#X connect 95 0 89 0;
#X connect 96 0 65 1;
#X connect 97 0 65 2;
#X connect 98 0 76 0;
#X connect 98 1 77 0;
#X connect 99 0 34 0;
#X connect 100 0 143 0;
#X connect 101 0 49 0;
#X connect 102 0 103 0;
#X connect 103 0 105 0;
#X connect 103 2 104 0;
#X connect 104 0 105 1;
#X connect 105 0 110 0;
#X connect 106 0 109 0;
#X connect 106 0 114 0;
#X connect 107 0 106 0;
#X connect 108 0 3 0;
#X connect 109 0 108 0;
#X connect 110 0 107 0;
#X connect 112 0 111 0;
#X connect 113 0 112 0;
#X connect 114 0 112 0;
#X connect 115 0 61 0;
#X connect 115 1 106 0;
#X connect 116 0 85 0;
#X connect 117 0 148 0;
#X connect 118 0 37 0;
#X connect 118 0 14 0;
#X connect 119 0 123 1;
#X connect 120 0 117 0;
#X connect 121 0 84 0;
#X connect 122 0 123 3;
#X connect 123 0 98 0;
#X connect 124 0 128 0;
#X connect 125 0 33 0;
#X connect 126 0 29 0;
#X connect 127 0 29 1;
#X connect 128 0 22 0;
#X connect 129 0 125 0;
#X connect 131 0 116 0;
#X connect 132 0 12 1;
#X connect 133 0 90 0;
#X connect 134 0 138 0;
#X connect 136 0 137 0;
#X connect 137 0 139 0;
#X connect 137 0 153 0;
#X connect 138 0 140 0;
#X connect 138 0 144 0;
#X connect 139 0 135 2;
#X connect 140 0 133 2;
#X connect 141 0 73 3;
#X connect 142 0 39 0;
#X connect 143 0 101 0;
#X connect 144 0 133 1;
#X connect 145 0 121 0;
#X connect 146 0 149 0;
#X connect 147 0 67 0;
#X connect 148 0 135 0;
#X connect 150 0 120 0;
#X connect 151 0 83 1;
#X connect 152 0 0 0;
#X connect 153 0 135 1;
#X coords 0 -1 1 1 110 35 1 100 100;
