#N canvas 846 88 485 501 10;
#X obj 30 57 gemwin;
#X msg 30 35 destroy \, reset \, dimen 800 400 \, FSAA 8 \, create
\, 1;
#X obj 18 236 gemhead;
#X obj 15 318 rotateXYZ;
#X floatatom 29 191 5 0 0 0 - - -;
#X floatatom 63 216 5 0 0 0 - - -;
#X obj 29 86 k_camera_buffer;
#X obj 29 163 unpack f f f;
#X obj 165 364 k_spring 1;
#X obj 165 341 k_slider;
#X obj 165 423 s hight;
#X obj 229 67 ruler;
#X obj 40 409 k_cpu;
#X msg 57 7 destroy;
#X obj 15 343 s gemhead;
#X obj 120 265 adc~;
#X obj 120 288 env~;
#X obj 117 314 autoscale;
#X obj 138 122 t b b;
#X obj 138 151 random 360;
#X obj 224 251 > 0.9;
#X obj 224 278 change;
#X obj 224 302 sel 1;
#X obj 165 175 random 360;
#X obj 165 395 + 0.5;
#X obj 321 355 neontrails;
#X obj 229 92 ruler;
#X obj 229 114 ruler;
#X obj 229 139 ruler;
#X obj 273 67 ruler;
#X obj 273 92 ruler;
#X obj 273 114 ruler;
#X obj 273 139 ruler;
#X obj 18 265 t a b b;
#X obj 315 63 neontrails;
#X obj 319 249 neontrails;
#X obj 316 90 neontrails;
#X obj 316 115 neontrails;
#X obj 317 142 neontrails;
#X obj 393 63 neontrails;
#X obj 394 90 neontrails;
#X obj 394 115 neontrails;
#X obj 395 142 neontrails;
#X obj 319 276 neontrails;
#X obj 320 303 neontrails;
#X obj 320 328 neontrails;
#X obj 397 276 neontrails;
#X obj 398 303 neontrails;
#X obj 398 328 neontrails;
#X obj 399 355 neontrails;
#X obj 317 170 neontrails;
#X obj 318 197 neontrails;
#X obj 318 222 neontrails;
#X obj 395 170 neontrails;
#X obj 396 197 neontrails;
#X obj 396 222 neontrails;
#X obj 397 249 neontrails;
#X obj 253 186 r gemhead;
#X connect 1 0 0 0;
#X connect 2 0 33 0;
#X connect 3 0 14 0;
#X connect 6 0 7 0;
#X connect 7 0 4 0;
#X connect 7 1 5 0;
#X connect 8 0 24 0;
#X connect 9 0 8 0;
#X connect 9 0 20 0;
#X connect 13 0 0 0;
#X connect 15 0 16 0;
#X connect 16 0 17 0;
#X connect 17 0 9 0;
#X connect 18 0 19 0;
#X connect 18 1 23 0;
#X connect 19 0 4 0;
#X connect 20 0 21 0;
#X connect 21 0 22 0;
#X connect 22 0 18 0;
#X connect 23 0 5 0;
#X connect 24 0 10 0;
#X connect 33 0 3 0;
#X connect 57 0 11 0;
#X connect 57 0 26 0;
#X connect 57 0 27 0;
#X connect 57 0 28 0;
#X connect 57 0 29 0;
#X connect 57 0 30 0;
#X connect 57 0 38 0;
#X connect 57 0 55 0;
#X connect 57 0 35 0;
#X connect 57 0 41 0;
#X connect 57 0 53 0;
#X connect 57 0 43 0;
#X connect 57 0 46 0;
#X connect 57 0 56 0;
#X connect 57 0 32 0;
#X connect 57 0 31 0;
