#N canvas 616 219 754 516 10;
#X obj 208 375 colorRGB 1 0.21 0.88 1;
#X obj 209 264 rotateXYZ 90 0 0;
#X floatatom 307 233 5 0 0 0 - - -;
#X obj 443 61 loadbang;
#X obj 440 39 bng 15 250 50 0 empty empty empty 17 7 0 10 -262144 -1
-1;
#X obj 307 205 k_count 1 360;
#X obj 450 333 random 2;
#X obj 451 364 sel 0 1;
#X obj 251 341 unpack f f f;
#X obj 375 297 + 0.5;
#X obj 441 90 t b b b b b;
#X obj 217 101 separator;
#X obj 211 228 translateXYZ;
#X obj 271 133 f;
#X obj 501 248 randomF 0.1;
#X obj 208 436 scaleXYZ 1 1 0.1;
#X obj 375 275 randomF 3;
#X obj 214 183 t a b b b;
#X obj 301 412 *;
#X obj 334 448 randomF 0.3;
#X obj 335 473 + 0.7;
#X obj 272 170 * 1;
#X obj -20 497 v \$0-width;
#X obj -31 347 v \$0-width;
#X obj -35 409 +;
#X obj -35 379 t f b;
#X obj -36 430 t f f;
#X obj -53 262 v \$0-width;
#X obj -54 216 loadbang;
#X msg -56 241 1;
#X obj 37 381 randomF 0.05;
#X obj 38 408 - 0.025;
#X obj 487 191 + 3;
#X obj 488 162 randomF 5;
#X obj 204 314 pix_texture;
#X obj 191 346 alpha 1;
#X msg 136 312 auto 1;
#X obj 135 290 loadbang;
#X msg 165 258 1;
#X obj 204 289 pix_image line.png;
#X msg 470 399 0.63 0.03 0.06;
#X msg 400 429 0.11 0.3 0.61;
#X obj 214 41 inlet;
#X obj 337 333 inlet;
#X floatatom 373 354 5 0 0 0 - - -;
#X obj 441 123 randomF 6;
#X obj 442 149 - 3;
#X obj 207 465 cylinder 2 30;
#X obj 501 278 + 0.05;
#X obj 315 31 r vj-vol;
#X floatatom 309 99 5 0 0 0 - - -;
#X obj 313 56 t f f;
#X obj 309 78 -;
#X obj 312 118 abs;
#X obj 312 152 k_range 0 0.2 1 1.2;
#X connect 0 0 15 0;
#X connect 1 0 39 0;
#X connect 2 0 1 3;
#X connect 3 0 10 0;
#X connect 4 0 3 0;
#X connect 5 0 2 0;
#X connect 6 0 7 0;
#X connect 7 0 41 0;
#X connect 7 1 40 0;
#X connect 8 0 0 1;
#X connect 8 1 0 2;
#X connect 8 2 0 3;
#X connect 9 0 47 1;
#X connect 10 0 45 0;
#X connect 10 1 33 0;
#X connect 10 2 16 0;
#X connect 10 3 6 0;
#X connect 10 4 14 0;
#X connect 11 0 17 0;
#X connect 12 0 1 0;
#X connect 13 0 21 0;
#X connect 14 0 48 0;
#X connect 15 0 47 0;
#X connect 16 0 9 0;
#X connect 17 0 12 0;
#X connect 17 1 5 0;
#X connect 17 2 13 0;
#X connect 17 3 19 0;
#X connect 17 3 23 0;
#X connect 18 0 15 3;
#X connect 19 0 20 0;
#X connect 20 0 18 0;
#X connect 21 0 12 2;
#X connect 23 0 25 0;
#X connect 24 0 26 0;
#X connect 25 0 24 0;
#X connect 25 1 30 0;
#X connect 26 0 22 0;
#X connect 26 1 15 1;
#X connect 26 1 15 2;
#X connect 28 0 29 0;
#X connect 29 0 27 0;
#X connect 30 0 31 0;
#X connect 31 0 24 1;
#X connect 32 0 5 1;
#X connect 33 0 32 0;
#X connect 34 0 35 0;
#X connect 35 0 0 0;
#X connect 36 0 35 0;
#X connect 37 0 36 0;
#X connect 37 0 38 0;
#X connect 38 0 35 1;
#X connect 39 0 34 0;
#X connect 40 0 8 0;
#X connect 41 0 8 0;
#X connect 42 0 11 0;
#X connect 43 0 0 4;
#X connect 43 0 44 0;
#X connect 45 0 46 0;
#X connect 46 0 13 1;
#X connect 48 0 18 1;
#X connect 49 0 51 0;
#X connect 50 0 53 0;
#X connect 51 0 52 1;
#X connect 51 1 52 0;
#X connect 52 0 50 0;
#X connect 53 0 54 0;
#X connect 54 0 21 1;
