#N canvas 531 173 776 639 10;
#X obj 221 317 pix_texture;
#X obj 208 349 alpha 1;
#X msg 153 315 auto 1;
#X obj 152 293 loadbang;
#X obj 208 375 colorRGB 1 0.21 0.88 1;
#X obj 209 264 rotateXYZ 90 0 0;
#X floatatom 321 235 5 0 0 0 - - -;
#X obj 443 61 loadbang;
#X obj 440 39 bng 15 250 50 0 empty empty empty 17 7 0 10 -262144 -1
-1;
#X obj 310 208 k_count 1 360;
#X obj 450 333 random 2;
#X obj 451 364 sel 0 1;
#X obj 276 342 unpack f f f;
#X obj 441 90 t b b b b b;
#X obj 217 101 separator;
#X obj 488 162 randomF 10;
#X obj 487 191 + 5;
#X obj 211 228 translateXYZ;
#X obj 302 126 f;
#X obj 441 123 randomF 8;
#X obj 442 149 - 4;
#X obj 209 514 scaleXYZ 1 1 0.1;
#X msg 162 350 1;
#X obj 302 403 *;
#X obj 303 163 * 1;
#X obj 221 292 pix_image ruler.png;
#X obj 214 183 t a b b b b;
#X obj 127 512 v \$0-width;
#X obj 474 525 v \$0-width;
#X obj 473 479 loadbang;
#X msg 471 504 1;
#X obj 226 406 v \$0-width;
#X obj 112 424 +;
#X obj 112 394 t f b;
#X obj 111 445 t f f;
#X obj 225 427 randomF 0.1;
#X obj 226 454 - 0.05;
#X msg 401 408 1 1 1;
#X msg 470 399 1 1 1;
#X obj 208 543 cylinder 2 40;
#X obj 334 448 randomF 0.1;
#X obj 335 473 + 0.9;
#X obj 501 248 randomF 0.2;
#X obj 501 278 + 0.1;
#X obj 214 41 inlet;
#X obj 361 343 inlet;
#X obj 374 275 randomF 2;
#X obj 374 304 + 2;
#X connect 0 0 1 0;
#X connect 1 0 4 0;
#X connect 2 0 1 0;
#X connect 3 0 2 0;
#X connect 3 0 22 0;
#X connect 4 0 21 0;
#X connect 5 0 25 0;
#X connect 6 0 5 3;
#X connect 7 0 13 0;
#X connect 8 0 7 0;
#X connect 9 0 6 0;
#X connect 10 0 11 0;
#X connect 11 0 37 0;
#X connect 11 1 38 0;
#X connect 12 0 4 1;
#X connect 12 1 4 2;
#X connect 12 2 4 3;
#X connect 13 0 19 0;
#X connect 13 1 15 0;
#X connect 13 2 46 0;
#X connect 13 3 10 0;
#X connect 13 4 42 0;
#X connect 14 0 26 0;
#X connect 15 0 16 0;
#X connect 16 0 9 1;
#X connect 17 0 5 0;
#X connect 18 0 24 0;
#X connect 19 0 20 0;
#X connect 20 0 18 1;
#X connect 21 0 39 0;
#X connect 22 0 1 1;
#X connect 23 0 21 3;
#X connect 24 0 17 2;
#X connect 25 0 0 0;
#X connect 26 0 17 0;
#X connect 26 1 9 0;
#X connect 26 2 18 0;
#X connect 26 3 40 0;
#X connect 26 4 31 0;
#X connect 29 0 30 0;
#X connect 30 0 28 0;
#X connect 31 0 33 0;
#X connect 32 0 34 0;
#X connect 33 0 32 0;
#X connect 33 1 35 0;
#X connect 34 0 27 0;
#X connect 34 1 21 1;
#X connect 34 1 21 2;
#X connect 35 0 36 0;
#X connect 36 0 32 1;
#X connect 37 0 12 0;
#X connect 38 0 12 0;
#X connect 40 0 41 0;
#X connect 41 0 23 0;
#X connect 42 0 43 0;
#X connect 43 0 23 1;
#X connect 44 0 14 0;
#X connect 45 0 4 4;
#X connect 45 0 24 1;
#X connect 46 0 47 0;
#X connect 47 0 39 1;
